<?xml version="1.0" encoding="UTF-8"?>
<svg id="Capa_1" data-name="Capa 1" xmlns="http://www.w3.org/2000/svg" viewBox="0 0 1920 1080">
  <defs>
    <style>
      .cls-1 {
        fill: #000;
      }

      .cls-1, .cls-2 {
        stroke-width: 0px;
      }

      .cls-2 {
        fill: #fff;
      }
    </style>
  </defs>
  <path class="cls-2" d="M1633.5,1079.15c-.14.28-.27.79-.42.8-1.12.07-2.24.04-3.36.04H286c0-359.33,0-718.66,0-1077.99,447.9,0,895.81,0,1343.71.03,1.26,0,2.53.53,3.79.81-.28,1.55-.81,3.09-.81,4.64-.04,70.69-.04,141.37-.04,212.06,0,284.85,0,569.7.03,854.55,0,1.69.53,3.38.81,5.06ZM428.14,859.23h108.49c.16-2.31.3-4.33.42-6.21h7.16c.14,2.24.27,4.26.39,6.16h91.39c.12-2.25.22-4.17.32-6.11h7.46v6.22h91.5c.14-2.24.26-4.27.38-6.17h7.24c.11,2.24.2,4.16.29,6.12h90.12v-9.57h10.85v9.66h89.77c.12-2.2.23-4.22.33-6.25h8.33v6.2h90.65c.13-2.25.26-4.27.37-6.15h8.08c.12,2.26.22,4.17.32,6.1h89.12v-6.48h13.67v-65.3c.25,0,.5.01.76.02v65.06h53.7v-61.92c.28,0,.56,0,.84,0v61.86h53.38v-77.86c.32-.03.63-.06.95-.09v26.93h5.55c26.93,0,53.86,0,80.8,0,11.78,0,23.57-.05,35.35.04,2.7.02,4.09-.51,4.12-3.67.12-11.73.5-23.45.78-35.18.02-.68.1-1.37.17-2.41,4.29-.57,8.49-1.19,12.7-1.68,10.01-1.16,20.03-2.19,30.01-3.5.96-.13,2.48-1.94,2.43-2.89-.33-5.79-1-11.56-1.64-17.32-1.06-9.6-2.24-19.18-3.26-28.78-.68-6.33-1.12-12.68-1.78-19.01-1.05-10.16-2.22-20.31-3.28-30.47-.65-6.19-1.14-12.4-1.82-18.58-1.03-9.46-2.22-18.91-3.22-28.37-.69-6.47-1.09-12.97-1.79-19.43-1.01-9.32-2.25-18.62-3.25-27.94-.71-6.61-1.1-13.24-1.78-19.85-1.03-10.02-2.22-20.03-3.28-30.05-.64-6.05-1.12-12.12-1.78-18.17-1.05-9.6-2.23-19.18-3.26-28.79-.68-6.33-1.09-12.68-1.78-19.01-1.02-9.32-2.23-18.62-3.27-27.94-1.17-10.42-2.38-20.85-3.3-31.29-.28-3.18-1.98-3.3-4.24-3.01-3.82.48-7.61,1.18-11.44,1.59-13.6,1.45-27.21,2.88-40.82,4.2-12.53,1.21-25.08,2.27-37.62,3.4q-6.96.62-6.96,7.68c0,21.74,0,43.48,0,65.22v4.27h31.29v-49.19h41.68v243.52h-99.17v-94.56c-2.32-.17-4.34-.31-6.31-.45v-6.62h6.18v-125.15c-2.27-.1-4.29-.2-6.28-.29v-7.23c2.21-.13,4.23-.25,6.23-.38v-116.89h-6.19v-6.46c2.26-.14,4.27-.26,6.28-.38v-60.12h-52.14v28.98h-174.98v-57.52h-26.18v32.34c-.28,0-.56,0-.84,0v-32.42h-31.1v50.75h-133.89v-19.15h-17.59v-34.1h-80.86v56.74h-100.06v-47.57c-2.47-.15-4.49-.26-6.79-.4v-9.59h-91.61v4.84c0,23-.04,46,.03,69,.02,6.97-1.06,14.08,2.38,20.8h87.3c.29-1.42.55-2.7.78-3.79h10.25c.22,1.42.41,2.6.59,3.77h87.68c.31-1.45.59-2.72.81-3.75h10.26c.23,1.45.42,2.63.6,3.73h87.84c.14-1.38.26-2.56.39-3.83h10.4c.27,1.39.52,2.67.74,3.82h87.71c.2-1.41.37-2.59.54-3.8h10.29c.3,1.43.57,2.71.79,3.78h87.69c.22-1.43.41-2.61.59-3.76h10.45c.12,1.36.23,2.54.34,3.85h87.87c.25-1.37.48-2.65.69-3.81h20.26v409.3h-20.85v-9.57h-88.28v9.65h-10.85v-9.59h-88.44v9.53h-11v-9.62h-88.28v9.55h-10.63v-26.32h10.92v15.46h88.29v-15.55h10.86v15.48h88.44v-15.42h11.01v15.5h87.93v-393.28h-88.25v21.27h-11.01v-21.36h-88.29v21.44h-10.86v-21.37h-88.44v21.31h-11.01v-21.39h-88.29v21.33h-11.01v-21.26h-88.44v21.35h-10.86v-21.43h-88.29v28.1h-11.01v-28.3c-2.38,0-4.45-.02-6.51,0-31.51.28-63.01.6-94.52.78-3.11.02-4.19.97-4.12,4.11.18,7.8.06,15.61.06,23.42h-11.04v-18.79h-93.49v113.47h-9.67v225.93h103.39v-31.38h11.01v31.46h105.12v-16.25h11.01v24.62h88.04c.12-1.64.22-3.01.34-4.52h10.89v17.23h88.09c.11-1.92.21-3.66.3-5.39h10.58v27.28c-2.48.14-4.78.27-7.52.42v20.92h-87.12v51.4h185.52v46.68h-192.7v-131.99h-8.33v-17.21h-88.11c-.14,1.68-.25,3.04-.37,4.45h-10.94v-16.55c-1.3,0-2.14-.02-2.97,0-34.96,1.08-69.97-2.15-104.9,1.63-5.52.6-5.56.27-5.56,5.96,0,60.03,0,120.05,0,180.08v5.16h6.63v6.34ZM1528.07,812.11c6.88,0,13.05.15,19.2-.03,11.29-.34,19.63-4.18,21.86-17.33,1.09-6.42-3.1-18.28-12.2-19.06-11.5-.98-23.06-1.2-34.59-1.71-.92-.04-1.85.24-2.74.36v64.43h8.47v-26.65ZM536.89,215.2h-108.74v8.8c-2.3.12-4.32.22-6.75.34v40.06c-1.8.12-3.16.2-4.71.3v40.32h12.97c.25,1.62.43,2.8.6,3.94h104.5c.31-1.45.58-2.72.91-4.25h7.58v-80.69h-6.35v-8.82ZM1034.43,274.35h104.8v-42.67h-15.94v-14.04h-34.43v53.41c-.28,0-.55,0-.83,0v-53.36h-46.94c-.1,2.27-.2,4.3-.3,6.59h-6.36v50.08ZM1145.52,274.42h62.21v-34.85c.27,0,.53,0,.8,0v5.36h51.8v-20.9h-11.25c-.17-2.31-.31-4.33-.45-6.28h-79.86v20.81h-23.25v35.85ZM1261.67,306.41h89.61v-70.17h-89.61v70.17ZM735.41,217.65h-91.43v53.31h97.98v-46.6c-2.23-.15-4.26-.29-6.55-.44v-6.27ZM1348.48,851.85c.25-.55.45-.8.45-1.04.04-14.86.02-29.72.11-44.58.02-2.82-1.52-3.1-3.77-3.13-21.4-.24-42.8-.57-64.2-.8-8.65-.09-17.3-.02-26.05-.02v50.65h20.59c.16,1.81.27,3.17.4,4.64h54.28c.18-1.98.33-3.71.51-5.73h17.67ZM940.63,217.73h-97.95v49.96h97.95v-49.96ZM1350.06,848.57h30.36c19.21,0,38.42.01,57.63-.02,1.84,0,4.15.68,4.39-2.42.22-2.89.52-5.78.85-8.66.77-6.85,1.63-13.69,2.33-20.55.45-4.48.68-8.98,1.01-13.49h-96.57v45.14ZM1606.05,838.87v-66.13c-2.47,1.62-4.29,2.43-5.6,3.75-3.47,3.47-6.36,7.32-11.05,9.68-6.59,3.32-6.94,4.87-5.3,10.98,4.94-3.08,9.73-6.06,15.17-9.46v51.18h6.79ZM974.27,267.75v-50.07h-32.33v50.07h32.33Z"/>
  <path class="cls-1" d="M1633.5,1079.15c-.28-1.69-.81-3.38-.81-5.06-.04-284.85-.03-569.7-.03-854.55,0-70.69,0-141.37.04-212.06,0-1.55.53-3.09.81-4.64v1076.31Z"/>
  <path class="cls-1" d="M428.14,859.23v-6.34h-6.63v-5.16c0-60.03,0-120.05,0-180.08,0-5.68.04-5.36,5.56-5.96,34.92-3.78,69.94-.54,104.9-1.63.83-.03,1.67,0,2.97,0v16.55h10.94c.12-1.42.23-2.77.37-4.45h88.11v17.21h8.33v131.99h192.7v-46.68h-185.52v-51.4h87.12v-20.92c2.74-.15,5.04-.28,7.52-.42v-27.28h-10.58c-.1,1.74-.19,3.47-.3,5.39h-88.09v-17.23h-10.89c-.11,1.52-.21,2.88-.34,4.52h-88.04v-24.62h-11.01v16.25h-105.12v-31.46h-11.01v31.38h-103.39v-225.93h9.67v-113.47h93.49v18.79h11.04c0-7.81.12-15.62-.06-23.42-.07-3.13,1-4.09,4.12-4.11,31.51-.18,63.01-.5,94.52-.78,2.07-.02,4.14,0,6.51,0v28.3h11.01v-28.1h88.29v21.43h10.86v-21.35h88.44v21.26h11.01v-21.33h88.29v21.39h11.01v-21.31h88.44v21.37h10.86v-21.44h88.29v21.36h11.01v-21.27h88.25v393.28h-87.93v-15.5h-11.01v15.42h-88.44v-15.48h-10.86v15.55h-88.29v-15.46h-10.92v26.32h10.63v-9.55h88.28v9.62h11v-9.53h88.44v9.59h10.85v-9.65h88.28v9.57h20.85v-409.3h-20.26c-.21,1.16-.44,2.44-.69,3.81h-87.87c-.12-1.31-.22-2.49-.34-3.85h-10.45c-.18,1.14-.36,2.32-.59,3.76h-87.69c-.22-1.07-.49-2.34-.79-3.78h-10.29c-.17,1.21-.34,2.39-.54,3.8h-87.71c-.22-1.14-.47-2.42-.74-3.82h-10.4c-.13,1.28-.25,2.46-.39,3.83h-87.84c-.18-1.1-.37-2.28-.6-3.73h-10.26c-.22,1.03-.5,2.3-.81,3.75h-87.68c-.18-1.17-.37-2.34-.59-3.77h-10.25c-.22,1.09-.48,2.37-.78,3.79h-87.3c-3.44-6.71-2.36-13.83-2.38-20.8-.07-23-.03-46-.03-69v-4.84h91.61v9.59c2.3.14,4.32.25,6.79.4v47.57h100.06v-56.74h80.86v34.1h17.59v19.15h133.89v-50.75h31.1v32.42c.28,0,.56,0,.84,0v-32.34h26.18v57.52h174.98v-28.98h52.14v60.12c-2,.12-4.02.24-6.28.38v6.46h6.19v116.89c-2.01.12-4.03.24-6.23.38v7.23c1.99.09,4.01.18,6.28.29v125.15h-6.18v6.62c1.97.14,4,.29,6.31.45v94.56h99.17v-243.52h-41.68v49.19h-31.29v-4.27c0-21.74,0-43.48,0-65.22q0-7.06,6.96-7.68c12.54-1.12,25.09-2.19,37.62-3.4,13.61-1.32,27.22-2.75,40.82-4.2,3.83-.41,7.62-1.1,11.44-1.59,2.26-.29,3.96-.17,4.24,3.01.92,10.45,2.13,20.87,3.3,31.29,1.05,9.32,2.25,18.62,3.27,27.94.69,6.33,1.1,12.68,1.78,19.01,1.03,9.6,2.22,19.19,3.26,28.79.66,6.05,1.14,12.12,1.78,18.17,1.07,10.02,2.25,20.02,3.28,30.05.68,6.61,1.07,13.25,1.78,19.85,1,9.32,2.24,18.62,3.25,27.94.7,6.47,1.1,12.96,1.79,19.43,1.01,9.46,2.19,18.91,3.22,28.37.67,6.19,1.17,12.39,1.82,18.58,1.07,10.16,2.23,20.31,3.28,30.47.65,6.33,1.1,12.68,1.78,19.01,1.03,9.6,2.2,19.19,3.26,28.78.64,5.77,1.31,11.54,1.64,17.32.05.95-1.47,2.76-2.43,2.89-9.98,1.32-20.01,2.34-30.01,3.5-4.21.49-8.4,1.11-12.7,1.68-.08,1.04-.16,1.73-.17,2.41-.29,11.73-.67,23.45-.78,35.18-.03,3.16-1.42,3.69-4.12,3.67-11.78-.09-23.57-.04-35.35-.04-26.93,0-53.86,0-80.8,0h-5.55v-26.93c-.32.03-.63.06-.95.09v77.86h-53.38v-61.86c-.28,0-.56,0-.84,0v61.92h-53.7v-65.06c-.25,0-.5-.01-.76-.02v65.3h-13.67v6.48h-89.12c-.1-1.93-.2-3.85-.32-6.1h-8.08c-.11,1.88-.23,3.9-.37,6.15h-90.65v-6.2h-8.33c-.11,2.03-.22,4.05-.33,6.25h-89.77v-9.66h-10.85v9.57h-90.12c-.09-1.96-.18-3.88-.29-6.12h-7.24c-.12,1.9-.24,3.93-.38,6.17h-91.5v-6.22h-7.46c-.1,1.94-.2,3.86-.32,6.11h-91.39c-.12-1.9-.25-3.92-.39-6.16h-7.16c-.13,1.88-.27,3.9-.42,6.21h-108.49ZM548.48,312.61v28.17h-16.05v-27.6h-100.1v27.75h-15.91v-18.85h-88.43v113.35h-9.71v220.93h98.36v-31.33h15.91v31.42h100.21v-16.36h15.91v24.73h83.08c.14-1.66.26-3.02.39-4.49h15.95v17.2h82.99c.12-1.93.23-3.67.33-5.37h15.94v18.78h82.99c.18-1.99.33-3.73.48-5.42h15.79v15.45h83.38v-15.39h16.06v15.48h83.23v-15.42h16.06v15.36h82.82v-388.26h-83.1v21.31h-16.06v-21.25h-83.38v21.34h-15.91v-21.42h-83.23v21.36h-16.06v-21.3h-83.38v21.39h-15.91v-21.33h-83.38v21.27h-16.06v-21.5h-83.23ZM546.91,216.79c0,23.21-.08,45.93.05,68.64.04,7.02-1.31,14.24,2.26,21.03h82.36c.28-1.41.53-2.68.75-3.8h15.31c.21,1.42.39,2.59.57,3.78h82.65c.31-1.44.58-2.71.8-3.76h15.32c.22,1.44.4,2.62.57,3.74h82.83c.12-1.37.23-2.55.35-3.85h15.48c.26,1.38.5,2.67.72,3.83h82.71c.18-1.4.33-2.58.48-3.81h15.39c.29,1.42.56,2.7.78,3.79h82.63c.22-1.42.41-2.6.59-3.77h15.51c.12,1.35.23,2.53.34,3.75h82.9c.24-1.45.43-2.63.61-3.71h25.32v414.36h-25.88v-9.58h-83.24v9.52h-16.05v-9.45h-83.24v9.54h-16.06v-9.63h-83.24v9.56h-16.06v-20.44h-83.39v8.3h-7.48v21.09h-87.18v46.2h185.57v51.8h-197.73v-131.97h-8.33v-17.28h-83.1c-.14,1.65-.25,3.02-.38,4.5h-15.94v-16.57h-5.06c-27.07,0-54.15-.12-81.22.08-7.29.05-14.58,1.05-21.85,1.61v186.07h6.29c.12,2.29.22,4.31.32,6.34h103.46v-6.2h12.36c.14,2.25.26,4.27.38,6.29h86.32c.12-2.2.22-4.22.33-6.24h12.55v6.2h86.43c.14-2.25.26-4.27.38-6.29h12.25c.11,2.2.22,4.22.32,6.23h84.94v-9.54h16.06v9.63h84.63c.16-2.22.3-4.24.44-6.21h13.37v6.17h85.56c.13-2.27.25-4.29.37-6.26h13.04c.16,2.22.3,4.24.44,6.21h84.07v-6.51h13.33v-5.02c0-18.79.03-37.59-.03-56.38,0-2.58.3-4.16,3.55-4.27,3.68-.12,7.33-1.1,11.02-1.55,9.59-1.17,19.18-2.28,28.78-3.34,3.66-.4,7.35-.57,11.49-.89v8.09h6.65c0-2.27-.27-4.28.11-6.16.2-1.03,1.39-2.52,2.3-2.66,6.81-1.04,13.66-1.79,20.5-2.64,6.29-.78,12.57-1.64,18.87-2.35,3.91-.44,7.85-.65,12.27-1.01v26.69h121.01c0-12.33.04-24.45-.03-36.57-.02-2.68.18-4.28,3.68-4.56,9.76-.78,19.47-2.09,29.2-3.25,4.19-.5,8.36-1.16,12.38-1.72-.8-8.36-1.55-16.17-2.31-23.99-.58-6.06-1.1-12.12-1.78-18.17-1.03-9.18-2.27-18.34-3.25-27.52-.98-9.21-1.68-18.46-2.61-27.68-1.04-10.3-2.22-20.59-3.3-30.89-.63-6.05-1.1-12.12-1.77-18.17-1.04-9.32-2.26-18.62-3.26-27.94-.71-6.61-1.07-13.25-1.79-19.85-.99-9.04-2.29-18.06-3.25-27.1-.99-9.35-1.63-18.74-2.61-28.1-1.29-12.21-2.84-24.4-4.13-36.61-.98-9.35-1.64-18.74-2.59-28.1-1.32-12.91-2.74-25.81-4.19-38.71-.49-4.41-1.19-8.79-1.77-13.03-32.41,3.33-64.06,6.58-95.63,9.83v71.4h26.05v-49.16h46.69v248.54h-104.23v-94.56c-2.31-.16-4.33-.3-6.27-.44v-11.43c2.24-.1,4.15-.19,6.14-.28v-120.02c-2.28-.14-4.3-.26-6.24-.38v-12.21c2.23-.16,4.25-.3,6.19-.43v-111.57c-2.24-.1-4.16-.18-6.14-.27v-11.46c2.29-.14,4.3-.26,6.23-.38v-55.04h-47.12v28.92h-180.03v-24.25h-26.85v-33.26h-26.16v50.75h-138.94v-19.23h-17.59v-34.03h-75.81v56.6h-105.27v-47.53c-2.38-.12-4.29-.22-6.64-.35v-9.7h-86.56ZM1251.09,850.09v-72.14c-3.97.57-7.62,1.17-11.3,1.6-9.99,1.17-20,2.26-29.99,3.42-1.99.23-3.37,1.11-3.05,3.52.16,1.2.03,2.44.03,3.84-1.57.14-2.75.24-3.93.34v59.42h48.24ZM1193.11,784.74c-15.25,1.63-30.23,3.24-44.99,4.82v60.39h48.56c0-19.21.05-38.12-.12-57.03-.01-1.19-1.72-2.36-3.21-4.25-.04-.56-.14-2.21-.24-3.93ZM1030.6,248.48v-28.21h-20.42v28.21h20.42Z"/>
  <path class="cls-1" d="M1528.07,812.11v26.65h-8.47v-64.43c.89-.13,1.82-.4,2.74-.36,11.53.51,23.1.73,34.59,1.71,9.1.78,13.29,12.64,12.2,19.06-2.23,13.16-10.57,17-21.86,17.33-6.16.18-12.32.03-19.2.03ZM1528.15,804.5c.67.28.92.47,1.17.47,5.74.05,11.49.19,17.23.09,9.09-.16,14.97-4.57,14.05-14.2-.48-5-4.04-8.95-9.05-9.02-5.18-.07-10.37-.02-15.55-.02-2.59,0-5.17,0-7.85,0v22.68Z"/>
  <path class="cls-1" d="M536.89,215.2v8.82h6.35v80.69h-7.58c-.33,1.53-.6,2.8-.91,4.25h-104.5c-.17-1.14-.35-2.32-.6-3.94h-12.97v-40.32c1.55-.1,2.91-.19,4.71-.3v-40.06c2.43-.12,4.46-.23,6.75-.34v-8.8h108.74ZM432.64,306.36h99.7c.25-1.46.45-2.64.69-4.08h7.73v-75.44c-2.27-.13-4.3-.25-6.59-.38v-8.79h-103.54v9.1h-6.62v40.07c-1.89.18-3.35.32-4.71.45v35.25h12.95c.15,1.46.26,2.64.38,3.81Z"/>
  <path class="cls-1" d="M1034.43,274.35v-50.08h6.36c.11-2.29.2-4.32.3-6.59h46.94v53.36c.28,0,.55,0,.83,0v-53.41h34.43v14.04h15.94v42.67h-104.8ZM1085.35,271.95v-51.73h-41.7c-.13,2.29-.25,4.31-.38,6.6h-6.24v45.13h48.32ZM1091.77,220.16v51.77h44.89v-37.81h-15.84v-13.96h-29.05Z"/>
  <path class="cls-1" d="M1145.52,274.42v-35.85h23.25v-20.81h79.86c.14,1.95.29,3.97.45,6.28h11.25v20.9h-51.8v-5.36c-.27,0-.53,0-.8,0v34.85h-62.21ZM1148.1,241.19v30.66h56.67v-30.66h-56.67ZM1210.81,235.89c.15,2.58.27,4.59.38,6.44h46.7v-15.75h-11.37c-.15-2.46-.27-4.47-.39-6.29h-74.46v15.6h39.14Z"/>
  <path class="cls-1" d="M1261.67,306.41v-70.17h89.61v70.17h-89.61ZM1348.84,238.77h-84.48v65.11h84.48v-65.11Z"/>
  <path class="cls-1" d="M735.41,217.65v6.27c2.29.15,4.32.29,6.55.44v46.6h-97.98v-53.31h91.43ZM646.44,268.46h93.01v-41.56c-2.21-.15-4.24-.29-6.36-.43-.14-2.28-.26-4.3-.38-6.3h-86.27v48.3Z"/>
  <path class="cls-1" d="M1348.48,851.85h-17.67c-.18,2.02-.34,3.76-.51,5.73h-54.28c-.13-1.47-.24-2.83-.4-4.64h-20.59v-50.65c8.75,0,17.4-.08,26.05.02,21.4.23,42.8.56,64.2.8,2.25.02,3.79.31,3.77,3.13-.09,14.86-.08,29.72-.11,44.58,0,.24-.2.48-.45,1.04ZM1257.48,850.39h20.67c.15,1.8.26,3.17.38,4.68h49.23c.18-1.96.33-3.7.53-5.86h17.98v-43.8h-88.79v44.98Z"/>
  <path class="cls-1" d="M940.63,217.73v49.96h-97.95v-49.96h97.95ZM938.1,220.25h-92.9v44.93h92.9v-44.93Z"/>
  <path class="cls-1" d="M1350.06,848.57v-45.14h96.57c-.33,4.51-.56,9.01-1.01,13.49-.7,6.86-1.56,13.7-2.33,20.55-.32,2.88-.62,5.77-.85,8.66-.24,3.1-2.56,2.42-4.39,2.42-19.21.03-38.42.02-57.63.02h-30.36ZM1352.59,845.89h87.37c1.36-13.31,2.72-26.55,4.1-40.02h-91.47v40.02Z"/>
  <path class="cls-1" d="M1606.05,838.87h-6.79v-51.18c-5.44,3.39-10.23,6.38-15.17,9.46-1.64-6.1-1.29-7.66,5.3-10.98,4.69-2.36,7.58-6.21,11.05-9.68,1.31-1.32,3.13-2.13,5.6-3.75v66.13Z"/>
  <path class="cls-1" d="M974.27,267.75h-32.33v-50.07h32.33v50.07ZM971.77,220.26h-27.26v44.92h27.26v-44.92Z"/>
  <path class="cls-2" d="M548.48,312.61h83.23v21.5h16.06v-21.27h83.38v21.33h15.91v-21.39h83.38v21.3h16.06v-21.36h83.23v21.42h15.91v-21.34h83.38v21.25h16.06v-21.31h83.1v388.26h-82.82v-15.36h-16.06v15.42h-83.23v-15.48h-16.06v15.39h-83.38v-15.45h-15.79c-.15,1.69-.31,3.43-.48,5.42h-82.99v-18.78h-15.94c-.1,1.69-.21,3.43-.33,5.37h-82.99v-17.2h-15.95c-.13,1.46-.24,2.82-.39,4.49h-83.08v-24.73h-15.91v16.36h-100.21v-31.42h-15.91v31.33h-98.36v-220.93h9.71v-113.35h88.43v18.85h15.91v-27.75h100.1v27.6h16.05v-28.17Z"/>
  <path class="cls-2" d="M546.91,216.79h86.56v9.7c2.35.12,4.27.22,6.64.35v47.53h105.27v-56.6h75.81v34.03h17.59v19.23h138.94v-50.75h26.16v33.26h26.85v24.25h180.03v-28.92h47.12v55.04c-1.92.12-3.94.24-6.23.38v11.46c1.99.09,3.9.17,6.14.27v111.57c-1.94.13-3.96.28-6.19.43v12.21c1.93.12,3.95.24,6.24.38v120.02c-1.99.09-3.91.18-6.14.28v11.43c1.94.14,3.96.28,6.27.44v94.56h104.23v-248.54h-46.69v49.16h-26.05v-71.4c31.57-3.24,63.22-6.5,95.63-9.83.58,4.24,1.28,8.62,1.77,13.03,1.45,12.9,2.87,25.8,4.19,38.71.95,9.36,1.61,18.75,2.59,28.1,1.28,12.21,2.84,24.4,4.13,36.61.98,9.35,1.62,18.75,2.61,28.1.96,9.05,2.26,18.06,3.25,27.1.72,6.6,1.08,13.25,1.79,19.85,1,9.32,2.22,18.62,3.26,27.94.67,6.05,1.14,12.12,1.77,18.17,1.07,10.3,2.26,20.59,3.3,30.89.93,9.22,1.64,18.46,2.61,27.68.98,9.19,2.22,18.34,3.25,27.52.68,6.05,1.19,12.11,1.78,18.17.75,7.82,1.5,15.63,2.31,23.99-4.02.56-8.19,1.22-12.38,1.72-9.72,1.16-19.44,2.47-29.2,3.25-3.5.28-3.7,1.89-3.68,4.56.07,12.12.03,24.23.03,36.57h-121.01v-26.69c-4.42.35-8.36.57-12.27,1.01-6.3.71-12.58,1.57-18.87,2.35-6.84.85-13.69,1.6-20.5,2.64-.92.14-2.1,1.63-2.3,2.66-.37,1.88-.11,3.89-.11,6.16h-6.65v-8.09c-4.14.31-7.83.48-11.49.89-9.6,1.05-19.19,2.17-28.78,3.34-3.68.45-7.33,1.43-11.02,1.55-3.25.1-3.56,1.68-3.55,4.27.06,18.79.03,37.59.03,56.38v5.02h-13.33v6.51h-84.07c-.14-1.97-.29-3.99-.44-6.21h-13.04c-.12,1.97-.24,3.99-.37,6.26h-85.56v-6.17h-13.37c-.14,1.98-.28,4-.44,6.21h-84.63v-9.63h-16.06v9.54h-84.94c-.1-2.01-.21-4.03-.32-6.23h-12.25c-.12,2.01-.24,4.03-.38,6.29h-86.43v-6.2h-12.55c-.11,2.02-.21,4.04-.33,6.24h-86.32c-.12-2.02-.25-4.04-.38-6.29h-12.36v6.2h-103.46c-.1-2.03-.2-4.05-.32-6.34h-6.29v-186.07c7.28-.56,14.56-1.56,21.85-1.61,27.07-.19,54.14-.08,81.22-.08h5.06v16.57h15.94c.13-1.49.24-2.85.38-4.5h83.1v17.28h8.33v131.97h197.73v-51.8h-185.57v-46.2h87.18v-21.09h7.48v-8.3h83.39v20.44h16.06v-9.56h83.24v9.63h16.06v-9.54h83.24v9.45h16.05v-9.52h83.24v9.58h25.88v-414.36h-25.32c-.18,1.08-.37,2.26-.61,3.71h-82.9c-.11-1.21-.22-2.39-.34-3.75h-15.51c-.18,1.16-.37,2.34-.59,3.77h-82.63c-.22-1.09-.49-2.36-.78-3.79h-15.39c-.16,1.23-.3,2.41-.48,3.81h-82.71c-.22-1.16-.46-2.44-.72-3.83h-15.48c-.12,1.3-.22,2.48-.35,3.85h-82.83c-.17-1.13-.35-2.3-.57-3.74h-15.32c-.22,1.05-.49,2.32-.8,3.76h-82.65c-.18-1.19-.35-2.37-.57-3.78h-15.31c-.22,1.12-.48,2.4-.75,3.8h-82.36c-3.57-6.79-2.22-14.02-2.26-21.03-.13-22.71-.05-45.43-.05-68.64Z"/>
  <path class="cls-2" d="M1251.09,850.09h-48.24v-59.42c1.18-.1,2.36-.2,3.93-.34,0-1.4.13-2.64-.03-3.84-.32-2.4,1.06-3.29,3.05-3.52,10-1.17,20-2.25,29.99-3.42,3.67-.43,7.33-1.04,11.3-1.6v72.14Z"/>
  <path class="cls-2" d="M1193.11,784.74c.11,1.72.21,3.36.24,3.93,1.48,1.9,3.19,3.07,3.21,4.25.17,18.91.12,37.82.12,57.03h-48.56v-60.39c14.76-1.58,29.74-3.19,44.99-4.82Z"/>
  <path class="cls-2" d="M1030.6,248.48h-20.42v-28.21h20.42v28.21Z"/>
  <path class="cls-2" d="M1528.15,804.5v-22.68c2.67,0,5.26,0,7.85,0,5.18,0,10.37-.06,15.55.02,5.02.07,8.58,4.02,9.05,9.02.92,9.64-4.96,14.05-14.05,14.2-5.74.1-11.49-.04-17.23-.09-.25,0-.5-.19-1.17-.47Z"/>
  <path class="cls-2" d="M432.64,306.36c-.12-1.17-.23-2.35-.38-3.81h-12.95v-35.25c1.36-.13,2.82-.27,4.71-.45v-40.07h6.62v-9.1h103.54v8.79c2.29.13,4.32.25,6.59.38v75.44h-7.73c-.24,1.44-.44,2.62-.69,4.08h-99.7Z"/>
  <path class="cls-2" d="M1085.35,271.95h-48.32v-45.13h6.24c.13-2.29.25-4.32.38-6.6h41.7v51.73Z"/>
  <path class="cls-2" d="M1091.77,220.16h29.05v13.96h15.84v37.81h-44.89v-51.77Z"/>
  <path class="cls-2" d="M1148.1,241.19h56.67v30.66h-56.67v-30.66Z"/>
  <path class="cls-2" d="M1210.81,235.89h-39.14v-15.6h74.46c.11,1.82.24,3.83.39,6.29h11.37v15.75h-46.7c-.11-1.85-.23-3.86-.38-6.44Z"/>
  <path class="cls-2" d="M1348.84,238.77v65.11h-84.48v-65.11h84.48Z"/>
  <path class="cls-2" d="M646.44,268.46v-48.3h86.27c.12,2,.24,4.02.38,6.3,2.13.15,4.15.28,6.36.43v41.56h-93.01Z"/>
  <path class="cls-2" d="M1257.48,850.39v-44.98h88.79v43.8h-17.98c-.2,2.16-.35,3.91-.53,5.86h-49.23c-.12-1.52-.23-2.88-.38-4.68h-20.67Z"/>
  <path class="cls-2" d="M938.1,220.25v44.93h-92.9v-44.93h92.9Z"/>
  <path class="cls-2" d="M1352.59,845.89v-40.02h91.47c-1.38,13.48-2.73,26.71-4.1,40.02h-87.37Z"/>
  <path class="cls-2" d="M971.77,220.26v44.92h-27.26v-44.92h27.26Z"/>
</svg>