<?xml version="1.0" encoding="UTF-8"?>
<svg id="Capa_1" data-name="Capa 1" xmlns="http://www.w3.org/2000/svg" viewBox="0 0 1920 1080">
  <defs>
    <style>
      .cls-1 {
        fill: #000;
      }

      .cls-1, .cls-2 {
        stroke-width: 0px;
      }

      .cls-2 {
        fill: #fff;
      }
    </style>
  </defs>
  <path class="cls-2" d="M1631.32,1078H288c0-358.67,0-717.33,0-1076,448.33,0,896.67,0,1345,0,0,357.41,0,714.81-.03,1072.22,0,1.26-.53,2.52-.81,3.78V4.74c-.28,0-.56,0-.84,0v1073.26ZM1126.96,688.15v27.09h-9.58v71.9c1.35.22,2.51.4,3.49.56v64.96h53.56v-62.46c.28,0,.56,0,.84,0v62.39h53.21v-77.73c.41-.01.83-.02,1.24-.03.06,25.94-.02,51.89.05,78.27h20.81c.14,1.81.25,3.16.36,4.56h53.46c.09-1.9.17-3.54.27-5.62h19.17c0-15.68.06-30.91-.15-46.13-.01-.87-2.1-2.41-3.27-2.46-5.87-.25-11.76-.12-17.64-.12-8.36,0-16.73,0-25.09,0,0-.3,0-.6,0-.91h74.38v-98.82h-115.6c0,1.6,0,2.97,0,4.33,0,8.4.02,16.8-.01,25.2-.01,2.95-.09,2.95-3.45,2.3v-31.87c-1.46-.14-2.65-.26-3.79-.37v-7.47h112.58c.24-.55.44-.79.45-1.04.34-14.03-.03-27.99-2.27-41.93-1.75-10.88-2.33-21.93-3.57-32.89-1.59-14.09-3.4-28.15-4.98-42.24-.78-6.94-.64-6.96-7.68-6.96-30.1,0-60.2,0-90.3,0h-4.3v-6.84h23.79v-125.21h-23.73v-7.47h23.82v-113.02h-106.57v8.04c-.14,0-.27-.02-.41-.02v-9.23h82.91v-8.98c2.46-.15,4.47-.27,6.48-.39v-36.5h-364.1v36.71c1.68,0,3.08.09,4.46-.01,11.51-.84,23.07,1.43,34.62-1.41,4.13-1.02,8.99,1.46,13.49,1.33,28.74-.85,57.53,2.1,86.24-1.43,4.25-.52,8.73,1.42,13.12,1.45,23.24.16,46.48.18,69.72,0,4.94-.04,9.79.15,14.91-1.21,5.97-1.58,12.68-.37,19.07-.37v26.97h-6.18v92.96c2.25.13,4.27.26,6.27.37v17.25c-2.2.13-4.22.25-6.22.37v114.99h6.18v16.53c-2.26.13-4.27.26-6.27.37v112.24h6.22ZM1105.95,704.02v-391.87h-87.96v20.48h-10.98v-20.42h-88.27v20.51h-10.84v-20.45h-88.27v20.39h-10.98v-20.48h-88.12v20.42h-10.98v-20.36h-88.12v20.45h-10.98v-20.54h-88.12v27.2h-10.98v-27.14h-105.07v27.23h-10.84v-18.77h-50.93v112.33h12.04v126.05h-25.43v100.31h64.57v-30.45h10.98v30.54h104.92v-15.52h10.84v23.88h88.01c.13-1.64.23-3,.35-4.51h10.87v17.2h87.91c.12-1.63.22-3.09.33-4.55h10.98v17.95h87.76c.18-1.96.34-3.7.48-5.3h10.84v15.32h88.12v-15.41h10.98v15.5h88.12v-15.43h10.98v15.45h87.78ZM522.54,310.83h87.92c.1-1.63.19-3,.29-4.54h10.55c.16,1.67.31,3.13.44,4.51h87.81c.14-1.66.26-3.02.39-4.48h10.47c.21,1.7.38,3.16.54,4.45h87.76c.13-1.69.23-3.05.36-4.83h7.86v-52.96h-15.75v-23.84h-34.52v46.5c-.28,0-.55,0-.83,0v-46.6h-53.7v47.3h-100.01v-57.36h-91.25c-.13,2.28-.25,4.3-.36,6.24h-7.15c-.16-2.22-.3-4.23-.44-6.19h-108.14c0,22.41-.11,44.51.06,66.61.06,8.41-1.47,17,2.31,25.22h104.08c.21-1.71.4-3.17.58-4.58h10.4c.12,1.55.22,2.91.35,4.56ZM332.83,660.54v198.87h64.19c.14-2.2.28-4.22.41-6.22h7.45v6.18h108.12c.13-2.25.25-4.27.36-6.28h7.21c.11,2.19.2,4.21.3,6.24h91.49v-6.84c4.92-.78,5.23-1.41,5.85-6.84,1-8.6,2.2-17.18,3.45-25.75,1.56-10.73,3.34-21.43,4.89-32.16,1.52-10.48,3.47-20.94,4.13-31.47.72-11.6.16-23.28.16-35.4h-10.25v-30.99h-10.15v-20.72h-88.12v8.01c-2.46.14-4.47.26-6.77.4v144.82h-111.78v-159.38c-3.92-.91-7.27-2.32-10.62-2.36-20-.21-40.01-.1-60.32-.1ZM1486.51,808.94c7.41,0,14.11.03,20.81,0,10.54-.07,17.17-5.39,19.61-15.67,2.41-10.17-2.91-18.98-12.95-21.3-1.61-.37-3.31-.44-4.97-.44-10.26-.04-20.51-.02-30.9-.02v64.09h8.41v-26.65ZM1018.42,708.58c-3.78,16.44-1.64,32.67-1.98,48.79-.35,16.5-.08,33.01-.08,49.52v49.16h89.25c1.66-6.42,7.53-1.18,10.38-3.68v-137.41h-9.56c-.15-2.3-.28-4.32-.41-6.39h-87.61ZM1545.32,828.78c.93-1.94,1.23-3.45,2.15-4.33,4.3-4.15,8.81-8.07,13.16-12.17,4.25-4.01,8.83-7.79,12.49-12.3,5.24-6.45,5.23-16.3,1.26-21.26-6.37-7.96-15.17-9.4-24.73-7.04-8.63,2.13-12.18,8.48-13.77,16.85h7.2c3.34-9.41,5.99-11.97,14.96-11.57,5.22.23,8.6,2.82,10.57,7.26,1.96,4.42,1.05,9.06-2.09,12.33-7.07,7.36-14.68,14.21-22.09,21.24-5.13,4.86-9.32,10.22-10.08,17.82h42.59v-6.82h-31.61ZM951.02,269.68h161.65v-36.8h-14.03v-13.89h-82.1c-.14,2.29-.27,4.31-.39,6.23h-7.34c.98-5.15-1.63-5.93-5.9-5.76-7.26.3-14.54.04-21.82.03-9.97-.01-19.93,0-30.08,0v50.19ZM1326.06,307.57v-70.04h-89.36v70.04h89.36ZM1183.69,239.64v29.14h51.72v-43.42h-11.37c-.14-2.45-.26-4.47-.37-6.32h-96.18v20.6h56.21ZM614.14,275.53h96.93v-49.87h-96.93v49.87ZM916.23,225.77h-97.89v43.91h97.89v-43.91ZM1421.35,803.61h-96.35v45.08c22.96,0,45.61,0,68.25,0,6.43,0,12.87.1,19.3-.08,1.23-.03,3.14-.88,3.51-1.83.78-1.99.76-4.29,1.03-6.47.77-6,1.56-11.99,2.26-17.99.71-6.14,1.32-12.29,2-18.7ZM1114.01,268.81h68.36v-28.04h-68.36v28.04ZM870,271.09h-51.89c0,11.06-.03,21.81.02,32.57.01,2.78,1.59,4.1,4.38,4.09,7.55-.02,15.11,0,22.67,0,8.21,0,16.43,0,24.82,0v-36.66ZM949.77,269.75v-49.92h-32.22v49.92h32.22Z"/>
  <path class="cls-1" d="M1631.32,1078V4.74c.28,0,.56,0,.84,0v1073.26h-.84Z"/>
  <path class="cls-1" d="M1126.96,688.15h-6.22v-112.24c2-.12,4.01-.24,6.27-.37v-16.53h-6.18v-114.99c2-.12,4.02-.24,6.22-.37v-17.25c-1.99-.12-4.01-.24-6.27-.37v-92.96h6.18v-26.97c-6.39,0-13.1-1.21-19.07.37-5.12,1.36-9.98,1.17-14.91,1.21-23.24.19-46.48.17-69.72,0-4.38-.03-8.87-1.97-13.12-1.45-28.71,3.53-57.5.58-86.24,1.43-4.5.13-9.36-2.34-13.49-1.33-11.55,2.84-23.11.58-34.62,1.41-1.38.1-2.77.01-4.46.01v-36.71h364.1v36.5c-2.01.12-4.02.24-6.48.39v8.98h-82.91v9.23c.14,0,.27.02.41.02v-8.04h106.57v113.02h-23.82v7.47h23.73v125.21h-23.79v6.84h4.3c30.1,0,60.2,0,90.3,0,7.04,0,6.9.02,7.68,6.96,1.58,14.09,3.38,28.15,4.98,42.24,1.24,10.96,1.82,22.02,3.57,32.89,2.24,13.94,2.61,27.89,2.27,41.93,0,.25-.2.49-.45,1.04h-112.58v7.47c1.14.11,2.33.23,3.79.37v31.87c3.36.65,3.44.65,3.45-2.3.04-8.4.01-16.8.01-25.2,0-1.37,0-2.74,0-4.33h115.6v98.82h-74.38c0,.3,0,.6,0,.91,8.36,0,16.73,0,25.09,0,5.88,0,11.77-.14,17.64.12,1.17.05,3.25,1.59,3.27,2.46.2,15.22.15,30.45.15,46.13h-19.17c-.1,2.08-.18,3.72-.27,5.62h-53.46c-.11-1.4-.22-2.75-.36-4.56h-20.81c-.06-26.38.02-52.33-.05-78.27-.41.01-.83.02-1.24.03v77.73h-53.21v-62.39c-.28,0-.56,0-.84,0v62.46h-53.56v-64.96c-.98-.16-2.14-.34-3.49-.56v-71.9h9.58v-27.09ZM1159.65,701.29v-22.05s.02,0,.03,0v44.03c.39,0,.78,0,1.17-.01,0-6.83.02-13.67-.05-20.5,0-.49-.75-.98-1.15-1.47ZM1226.68,573.18v-11.97h23.85v-120.01h-23.8v-12.66h23.74v-107.87h-101.71c.41,4.49.94,8.61,1.15,12.74.39,7.64.59,15.28.87,22.93.56,15.57,1.12,31.13,1.68,46.7.56,15.29,1.12,30.57,1.68,45.86.57,15.57,1.12,31.13,1.68,46.7.28,7.64.56,15.29.84,22.93.56,15.57,1.12,31.13,1.68,46.7.56,15.29,1.12,30.57,1.68,45.86.56,15.43,1.18,30.85,1.66,46.28.38,12.26.56,24.52.87,36.78.24,9.32.46,18.65.88,27.97.18,4.08.82,8.15,1.24,12.1h65.65v-28.07c-1.45-.24-2.62-.43-3.71-.6v-12.34h113.93c-.82-11.28-1.47-22.05-2.41-32.8-.99-11.26-2.16-22.51-3.42-33.75-1.58-14.09-3.29-28.16-5.03-42.23-.46-3.74-1.2-7.45-1.82-11.25h-101.2ZM1123.35,446.24v110.25h6.18v21.57c-2.26.13-4.27.26-6.27.37v107.12c2.2.13,4.22.25,6.21.37v31.84h-9.56v66.94c17.35-1.96,34.48-3.9,51.98-5.89v7.46h5.59c.07-.78.27-1.35.16-1.85-1.12-4.91,1.63-6.6,5.84-7.07,3.02-.34,6.05-.57,9.07-.91,9.44-1.09,18.87-2.25,28.31-3.3,3.66-.41,7.34-.58,11.49-.89v27.4h117.33v-93.49h-110.86v32.26h-80.04c-.43-5.74-1-11.25-1.23-16.77-.65-15.71-1.14-31.42-1.71-47.13-.55-15.29-1.13-30.58-1.68-45.87-.57-15.85-1.12-31.7-1.68-47.55-.56-15.57-1.12-31.14-1.68-46.71-.56-15.43-1.12-30.86-1.68-46.29-.57-15.71-1.12-31.42-1.68-47.13-.55-15.29-1.16-30.58-1.66-45.87-.35-10.44-.58-20.89-.85-31.33-.29-11.42-.56-22.85-.85-34.27-.02-.69-.18-1.37-.23-2.06-.27-4.23-.53-8.46-.82-13.17h83.54v-8.85c2.3-.16,4.32-.29,6.23-.42v-31.46h-358.94v31.55c.97.05,1.66.17,2.34.12,10.52-.86,21.05,1.09,31.69-1.33,5.77-1.31,12.34,1.42,18.52,1.23,27.06-.79,54.16,2,81.21-1.38,5.9-.74,12.09,1.36,18.15,1.41,21.56.2,43.12.19,64.68,0,4.94-.05,9.82-.14,14.9-1.16,7.76-1.56,16.06-.41,24.15-.41v32h-6.18v87.93c2.25.14,4.27.26,6.27.38v22.36h-6.23ZM1321.12,805.58h-88.57v44.97h20.54c.15,1.8.26,3.16.38,4.6h48.31c.18-1.98.33-3.72.51-5.73h18.82v-43.84ZM1226.15,850.2v-71.84c-7.05.78-13.88,1.51-20.69,2.31-6.83.8-13.65,1.66-20.46,2.53-1.96.25-3.4,1.01-3.15,3.41.13,1.22.02,2.46.02,3.74-1.58.32-2.86.57-3.96.8v59.05h48.24ZM1171.63,850.17v-59.07c-1.09-.27-2.1-.52-3.06-.75-.13-1.97-.24-3.69-.35-5.36-15.35,1.64-30.2,3.22-44.95,4.8v60.38h48.36ZM1156.48,585.9c-.14,0-.27,0-.41,0v20.72c.14,0,.27,0,.41,0v-20.72ZM1158.54,676.29c.14-.02.28-.03.42-.05v-20.67c-.14,0-.28,0-.42,0v20.72ZM1154.75,539.84c-.14-.02-.28-.04-.42-.06v19.88c.14,0,.28,0,.42,0v-19.82ZM1155.19,583.18h.38v-19.84h-.38v19.84ZM1158.11,632.92c-.11,0-.21,0-.32,0v19.78c.11,0,.21,0,.32,0v-19.78ZM1156.86,629.26c.14-.02.28-.03.42-.05v-19.83c-.14,0-.28,0-.42,0v19.88ZM1152.67,513.27c.14,0,.28,0,.42,0v-19.84c-.14,0-.28,0-.42,0v19.83ZM1153.96,517.06c-.14.05-.28.1-.42.14v18.9c.14,0,.28,0,.42,0v-19.04ZM1151.81,489.9c.14,0,.27,0,.41,0v-19.04c-.14,0-.27,0-.41,0v19.04ZM1151,466.27c.14,0,.28.01.42.02v-19.04c-.14,0-.28,0-.42,0v19.02ZM1148.49,396.53c.14.02.28.04.42.06v-19.04c-.14,0-.28,0-.42,0v18.98Z"/>
  <path class="cls-1" d="M1105.95,704.02h-87.78v-15.45h-10.98v15.43h-88.12v-15.5h-10.98v15.41h-88.12v-15.32h-10.84c-.14,1.6-.3,3.34-.48,5.3h-87.76v-17.95h-10.98c-.11,1.46-.21,2.92-.33,4.55h-87.91v-17.2h-10.87c-.12,1.51-.22,2.87-.35,4.51h-88.01v-23.88h-10.84v15.52h-104.92v-30.54h-10.98v30.45h-64.57v-100.31h25.43v-126.05h-12.04v-112.33h50.93v18.77h10.84v-27.23h105.07v27.14h10.98v-27.2h88.12v20.54h10.98v-20.45h88.12v20.36h10.98v-20.42h88.12v20.48h10.98v-20.39h88.27v20.45h10.84v-20.51h88.27v20.42h10.98v-20.48h87.96v391.87ZM359.1,430.28v131.25h-25.47v95.33h59.52v-30.48h16.03v30.56h99.89v-15.37h16.03v23.73h82.82c.13-1.65.24-3.01.36-4.51h15.91v17.19h82.86c.12-1.64.23-3.1.34-4.54h15.89v17.92h82.86c.18-1.98.33-3.72.48-5.42h15.75v15.43h83.24v-15.36h16.03v15.44h83.09v-15.37h16.03v15.31h82.77v-386.66h-83.13v20.51h-15.88v-20.44h-83.24v20.38h-16.03v-20.46h-83.09v20.54h-15.88v-20.47h-83.24v20.4h-16.03v-20.48h-83.09v20.41h-16.03v-20.35h-83.09v27.15h-16.03v-27.23h-99.89v27.16h-16.03v-18.69h-45.84v107.11h12.1Z"/>
  <path class="cls-1" d="M522.54,310.83c-.13-1.65-.23-3.01-.35-4.56h-10.4c-.18,1.41-.36,2.87-.58,4.58h-104.08c-3.78-8.22-2.24-16.81-2.31-25.22-.17-22.1-.06-44.2-.06-66.61h108.14c.14,1.96.28,3.98.44,6.19h7.15c.11-1.94.23-3.96.36-6.24h91.25v57.36h100.01v-47.3h53.7v46.6c.28,0,.55,0,.83,0v-46.5h34.52v23.84h15.75v52.96h-7.86c-.13,1.78-.23,3.13-.36,4.83h-87.76c-.16-1.29-.33-2.75-.54-4.45h-10.47c-.13,1.46-.24,2.82-.39,4.48h-87.81c-.13-1.38-.28-2.83-.44-4.51h-10.55c-.1,1.54-.18,2.9-.29,4.54h-87.92ZM525.08,308.31h82.85c.12-1.64.22-3,.34-4.53h15.55c.18,1.68.33,3.14.47,4.48h82.76c.14-1.68.24-3.03.36-4.45h15.63c.11,1.62.19,2.98.3,4.55h82.83c.14-1.65.27-3.11.43-5h7.94v-24.27h-204.95v-57.64h-86.14c-.15,2.23-.29,4.24-.43,6.17h-12.25c-.1-2.23-.19-4.15-.28-6.12h-103.18c0,18.88-.2,37.48.08,56.08.15,10.22-1.7,20.62,2.04,30.75h99.29c.2-1.7.38-3.16.55-4.59h15.44c.13,1.54.24,2.9.38,4.56ZM763.29,231.59h-48.2v42.36h48.2v-42.36ZM769.68,231.52v42.43h44.81v-18.42h-15.81v-24.01h-29Z"/>
  <path class="cls-1" d="M332.83,660.54c20.3,0,40.31-.11,60.32.1,3.36.04,6.7,1.45,10.62,2.36v159.38h111.78v-144.82c2.3-.14,4.31-.25,6.77-.4v-8.01h88.12v20.72h10.15v30.99h10.25c0,12.11.55,23.79-.16,35.4-.65,10.54-2.61,21-4.13,31.47-1.55,10.73-3.32,21.43-4.89,32.16-1.25,8.57-2.45,17.15-3.45,25.75-.63,5.43-.93,6.06-5.85,6.84v6.84h-91.49c-.1-2.03-.19-4.05-.3-6.24h-7.21c-.12,2.01-.23,4.03-.36,6.28h-108.12v-6.18h-7.45c-.13,2-.26,4.02-.41,6.22h-64.19v-198.87ZM510.46,856.9c.14-2.33.25-4.35.37-6.32h12.19c.15,2.21.29,4.23.43,6.2h86.42v-6.86c5.32-.7,5.15-.72,5.81-5.97,1.01-8.04,2.24-16.06,3.44-24.07,1.61-10.72,3.34-21.43,4.89-32.16,1.51-10.48,3.43-20.94,4.13-31.48.71-10.76.16-21.6.16-32.87h-10.27v-30.99h-10.15v-20.7h-83.08v8c-2.46.15-4.47.27-6.77.4v144.81h-116.82v-160.92h-65.87v192.91h59.12c.16-2.21.3-4.23.44-6.2h12.51v6.22h103.04Z"/>
  <path class="cls-1" d="M1486.51,808.94v26.65h-8.41v-64.09c10.39,0,20.65-.02,30.9.02,1.66,0,3.36.07,4.97.44,10.05,2.32,15.37,11.13,12.95,21.3-2.44,10.27-9.08,15.6-19.61,15.67-6.7.04-13.4,0-20.81,0ZM1486.83,778.74v23.16c7.23,0,14.23.47,21.13-.18,3.92-.37,7.9-1.95,10.09-6.21,3.17-6.15-.2-16.22-6.32-16.63-8.18-.55-16.42-.14-24.9-.14Z"/>
  <path class="cls-1" d="M1018.42,708.58h87.61c.13,2.07.26,4.08.41,6.39h9.56v137.41c-2.86,2.5-8.72-2.75-10.38,3.68h-89.25v-49.16c0-16.51-.27-33.02.08-49.52.34-16.12-1.8-32.35,1.98-48.79ZM1018.89,853.39c.9.17,1.3.31,1.69.31,26.72.02,53.44.05,80.17-.07,1.34,0,2.67-1.45,4.01-2.23-.13-.38-.26-.76-.39-1.15h9.22v-132.7h-9.67c-.15-2.46-.27-4.47-.39-6.42h-83.48c-.39,8.57-1.08,16.97-1.1,25.37-.12,37.21-.05,74.42-.05,111.63v5.26Z"/>
  <path class="cls-1" d="M1545.32,828.78h31.61v6.82h-42.59c.76-7.6,4.95-12.96,10.08-17.82,7.41-7.03,15.02-13.88,22.09-21.24,3.14-3.27,4.06-7.91,2.09-12.33-1.97-4.44-5.34-7.03-10.57-7.26-8.97-.4-11.63,2.16-14.96,11.57h-7.2c1.59-8.37,5.14-14.73,13.77-16.85,9.56-2.36,18.36-.92,24.73,7.04,3.97,4.96,3.98,14.81-1.26,21.26-3.66,4.51-8.24,8.29-12.49,12.3-4.35,4.1-8.86,8.03-13.16,12.17-.91.88-1.22,2.39-2.15,4.33Z"/>
  <path class="cls-1" d="M951.02,269.68v-50.19c10.15,0,20.12,0,30.08,0,7.27,0,14.56.27,21.82-.03,4.27-.18,6.88.61,5.9,5.76h7.34c.12-1.92.24-3.94.39-6.23h82.1v13.89h14.03v36.8h-161.65ZM1006.13,221.75h-52.56v45.42h156.57v-31.78h-14.05v-13.84h-77.35v6.14h-12.33c-.09-1.89-.17-3.53-.28-5.94Z"/>
  <path class="cls-1" d="M1326.06,307.57h-89.36v-70.04h89.36v70.04ZM1239.18,304.93h84.33v-64.99h-84.33v64.99Z"/>
  <path class="cls-1" d="M1183.69,239.64h-56.21v-20.6h96.18c.11,1.85.23,3.86.37,6.32h11.37v43.42h-51.72v-29.14ZM1186.14,266.37h46.71v-38.56h-11.61v-6.35h-91.2v15.89h56.1v29.03Z"/>
  <path class="cls-1" d="M614.14,275.53v-49.87h96.93v49.87h-96.93ZM616.67,273.09h91.96v-44.84h-91.96v44.84Z"/>
  <path class="cls-1" d="M916.23,225.77v43.91h-97.89v-43.91h97.89ZM820.83,267.16h92.72v-39h-92.72v39Z"/>
  <path class="cls-1" d="M1421.35,803.61c-.68,6.41-1.29,12.56-2,18.7-.7,6-1.49,12-2.26,17.99-.28,2.18-.26,4.48-1.03,6.47-.37.95-2.27,1.79-3.51,1.83-6.43.18-12.86.08-19.3.08-22.65,0-45.29,0-68.25,0v-45.08h96.35ZM1413.85,845.98c1.6-13.33,3.18-26.52,4.77-39.8h-91.2v39.8h86.43Z"/>
  <path class="cls-1" d="M1114.01,268.81v-28.04h68.36v28.04h-68.36ZM1179.99,243.36h-63.32v23.02h63.32v-23.02Z"/>
  <path class="cls-1" d="M870,271.09v36.66c-8.4,0-16.61,0-24.82,0-7.56,0-15.11-.02-22.67,0-2.79,0-4.37-1.32-4.38-4.09-.05-10.76-.02-21.51-.02-32.57h51.89ZM867.37,305.23v-31.58h-46.74c0,9.29.01,18.24,0,27.19,0,2.79,1.32,4.36,4.1,4.37,14.12.04,28.23.02,42.65.02Z"/>
  <path class="cls-1" d="M949.77,269.75h-32.22v-49.92h32.22v49.92ZM920.05,222.26v44.83h27.2v-44.83h-27.2Z"/>
  <path class="cls-2" d="M1226.68,573.18h101.2c.62,3.8,1.36,7.51,1.82,11.25,1.73,14.07,3.45,28.14,5.03,42.23,1.26,11.24,2.43,22.49,3.42,33.75.94,10.75,1.59,21.52,2.41,32.8h-113.93v12.34c1.09.18,2.26.37,3.71.6v28.07h-65.65c-.42-3.95-1.06-8.01-1.24-12.1-.41-9.32-.64-18.64-.88-27.97-.31-12.26-.49-24.53-.87-36.78-.48-15.43-1.1-30.85-1.66-46.28-.56-15.29-1.12-30.57-1.68-45.86-.57-15.57-1.12-31.13-1.68-46.7-.28-7.64-.56-15.29-.84-22.93-.56-15.57-1.12-31.13-1.68-46.7-.55-15.29-1.12-30.57-1.68-45.86-.57-15.57-1.12-31.13-1.68-46.7-.28-7.64-.48-15.29-.87-22.93-.21-4.13-.73-8.25-1.15-12.74h101.71v107.87h-23.74v12.66h23.8v120.01h-23.85v11.97Z"/>
  <path class="cls-2" d="M1123.35,446.24h6.23v-22.36c-2-.12-4.02-.24-6.27-.38v-87.93h6.18v-32c-8.09,0-16.39-1.15-24.15.41-5.08,1.02-9.96,1.12-14.9,1.16-21.56.2-43.12.21-64.68,0-6.06-.06-12.26-2.15-18.15-1.41-27.05,3.38-54.15.59-81.21,1.38-6.18.18-12.74-2.55-18.52-1.23-10.64,2.42-21.17.47-31.69,1.33-.68.06-1.37-.06-2.34-.12v-31.55h358.94v31.46c-1.91.13-3.93.26-6.23.42v8.85h-83.54c.29,4.71.55,8.94.82,13.17.04.69.21,1.37.23,2.06.29,11.42.56,22.85.85,34.27.27,10.45.5,20.89.85,31.33.51,15.29,1.11,30.58,1.66,45.87.57,15.71,1.12,31.42,1.68,47.13.56,15.43,1.12,30.86,1.68,46.29.56,15.57,1.12,31.14,1.68,46.71.57,15.85,1.11,31.7,1.68,47.55.55,15.29,1.12,30.58,1.68,45.87.57,15.71,1.07,31.42,1.71,47.13.23,5.52.8,11.02,1.23,16.77h80.04v-32.26h110.86v93.49h-117.33v-27.4c-4.15.31-7.83.48-11.49.89-9.44,1.05-18.87,2.21-28.31,3.3-3.02.35-6.05.58-9.07.91-4.21.47-6.95,2.16-5.84,7.07.11.5-.08,1.07-.16,1.85h-5.59v-7.46c-17.51,1.98-34.64,3.92-51.98,5.89v-66.94h9.56v-31.84c-1.99-.12-4.01-.24-6.21-.37v-107.12c2-.12,4.01-.24,6.27-.37v-21.57h-6.18v-110.25Z"/>
  <path class="cls-2" d="M1321.12,805.58v43.84h-18.82c-.18,2.01-.33,3.75-.51,5.73h-48.31c-.12-1.44-.23-2.79-.38-4.6h-20.54v-44.97h88.57Z"/>
  <path class="cls-2" d="M1226.15,850.2h-48.24v-59.05c1.11-.22,2.38-.48,3.96-.8,0-1.29.11-2.53-.02-3.74-.26-2.4,1.18-3.16,3.15-3.41,6.82-.86,13.64-1.72,20.46-2.53,6.81-.8,13.64-1.53,20.69-2.31v71.84Z"/>
  <path class="cls-2" d="M1171.63,850.17h-48.36v-60.38c14.75-1.57,29.6-3.16,44.95-4.8.11,1.66.22,3.39.35,5.36.96.24,1.97.48,3.06.75v59.07Z"/>
  <path class="cls-2" d="M1159.64,701.3c.4.49,1.15.97,1.16,1.47.08,6.83.05,13.67.05,20.5-.39,0-.78,0-1.17.01v-22.01l-.03.03Z"/>
  <path class="cls-2" d="M1156.48,585.9v20.72c-.14,0-.27,0-.41,0v-20.72c.14,0,.27,0,.41,0Z"/>
  <path class="cls-2" d="M1158.54,676.29v-20.72c.14,0,.28,0,.42,0v20.67c-.14.02-.28.03-.42.05Z"/>
  <path class="cls-2" d="M1159.68,701.26v-22.02s-.02,0-.03,0c0,7.35,0,14.7,0,22.05,0,0,.03-.03.03-.03Z"/>
  <path class="cls-2" d="M1154.75,539.84v19.82c-.14,0-.28,0-.42,0v-19.88c.14.02.28.04.42.06Z"/>
  <path class="cls-2" d="M1155.19,583.18v-19.84h.38v19.84h-.38Z"/>
  <path class="cls-2" d="M1158.11,632.92v19.78c-.11,0-.21,0-.32,0v-19.78c.11,0,.21,0,.32,0Z"/>
  <path class="cls-2" d="M1156.86,629.26v-19.88c.14,0,.28,0,.42,0v19.83c-.14.02-.28.03-.42.05Z"/>
  <path class="cls-2" d="M1152.67,513.27v-19.83c.14,0,.28,0,.42,0v19.84c-.14,0-.28,0-.42,0Z"/>
  <path class="cls-2" d="M1153.96,517.06v19.04c-.14,0-.28,0-.42,0v-18.9c.14-.05.28-.1.42-.14Z"/>
  <path class="cls-2" d="M1151.81,489.9v-19.04c.14,0,.27,0,.41,0v19.04c-.14,0-.27,0-.41,0Z"/>
  <path class="cls-2" d="M1151,466.27v-19.02c.14,0,.28,0,.42,0v19.04c-.14,0-.28-.01-.42-.02Z"/>
  <path class="cls-2" d="M1148.49,396.53v-18.98c.14,0,.28,0,.42,0v19.04c-.14-.02-.28-.04-.42-.06Z"/>
  <path class="cls-2" d="M359.1,430.28h-12.1v-107.11h45.84v18.69h16.03v-27.16h99.89v27.23h16.03v-27.15h83.09v20.35h16.03v-20.41h83.09v20.48h16.03v-20.4h83.24v20.47h15.88v-20.54h83.09v20.46h16.03v-20.38h83.24v20.44h15.88v-20.51h83.13v386.66h-82.77v-15.31h-16.03v15.37h-83.09v-15.44h-16.03v15.36h-83.24v-15.43h-15.75c-.15,1.7-.31,3.44-.48,5.42h-82.86v-17.92h-15.89c-.11,1.43-.22,2.9-.34,4.54h-82.86v-17.19h-15.91c-.12,1.5-.23,2.86-.36,4.51h-82.82v-23.73h-16.03v15.37h-99.89v-30.56h-16.03v30.48h-59.52v-95.33h25.47v-131.25Z"/>
  <path class="cls-2" d="M525.08,308.31c-.14-1.66-.25-3.02-.38-4.56h-15.44c-.17,1.44-.35,2.89-.55,4.59h-99.29c-3.75-10.13-1.89-20.53-2.04-30.75-.28-18.59-.08-37.2-.08-56.08h103.18c.09,1.97.18,3.88.28,6.12h12.25c.13-1.93.27-3.94.43-6.17h86.14v57.64h204.95v24.27h-7.94c-.16,1.89-.29,3.35-.43,5h-82.83c-.1-1.57-.19-2.93-.3-4.55h-15.63c-.11,1.41-.22,2.77-.36,4.45h-82.76c-.14-1.34-.29-2.8-.47-4.48h-15.55c-.11,1.53-.22,2.89-.34,4.53h-82.85Z"/>
  <path class="cls-2" d="M763.29,231.59v42.36h-48.2v-42.36h48.2Z"/>
  <path class="cls-2" d="M769.68,231.52h29v24.01h15.81v18.42h-44.81v-42.43Z"/>
  <path class="cls-2" d="M510.46,856.9h-103.04v-6.22h-12.51c-.14,1.97-.28,3.99-.44,6.2h-59.12v-192.91h65.87v160.92h116.82v-144.81c2.3-.14,4.31-.26,6.77-.4v-8h83.08v20.7h10.15v30.99h10.27c0,11.27.56,22.11-.16,32.87-.7,10.54-2.62,21-4.13,31.48-1.55,10.73-3.29,21.43-4.89,32.16-1.2,8.02-2.43,16.03-3.44,24.07-.66,5.25-.5,5.27-5.81,5.97v6.86h-86.42c-.14-1.98-.28-3.99-.43-6.2h-12.19c-.11,1.97-.23,3.99-.37,6.32Z"/>
  <path class="cls-2" d="M1486.83,778.74c8.48,0,16.72-.41,24.9.14,6.12.41,9.49,10.48,6.32,16.63-2.2,4.27-6.17,5.84-10.09,6.21-6.9.65-13.9.18-21.13.18v-23.16Z"/>
  <path class="cls-2" d="M1018.89,853.39v-5.26c0-37.21-.07-74.42.05-111.63.03-8.4.71-16.8,1.1-25.37h83.48c.12,1.95.24,3.96.39,6.42h9.67v132.7h-9.22c.13.38.26.76.39,1.15-1.34.78-2.67,2.22-4.01,2.23-26.72.13-53.44.09-80.17.07-.4,0-.79-.14-1.69-.31Z"/>
  <path class="cls-2" d="M1006.13,221.75c.11,2.41.19,4.05.28,5.94h12.33v-6.14h77.35v13.84h14.05v31.78h-156.57v-45.42h52.56Z"/>
  <path class="cls-2" d="M1239.18,304.93v-64.99h84.33v64.99h-84.33Z"/>
  <path class="cls-2" d="M1186.14,266.37v-29.03h-56.1v-15.89h91.2v6.35h11.61v38.56h-46.71Z"/>
  <path class="cls-2" d="M616.67,273.09v-44.84h91.96v44.84h-91.96Z"/>
  <path class="cls-2" d="M820.83,267.16v-39h92.72v39h-92.72Z"/>
  <path class="cls-2" d="M1413.85,845.98h-86.43v-39.8h91.2c-1.59,13.28-3.17,26.47-4.77,39.8Z"/>
  <path class="cls-2" d="M1179.99,243.36v23.02h-63.32v-23.02h63.32Z"/>
  <path class="cls-2" d="M867.37,305.23c-14.42,0-28.53.02-42.65-.02-2.79,0-4.11-1.58-4.1-4.37.02-8.95,0-17.9,0-27.19h46.74v31.58Z"/>
  <path class="cls-2" d="M920.05,222.26h27.2v44.83h-27.2v-44.83Z"/>
</svg>