<?xml version="1.0" encoding="UTF-8"?>
<svg id="Capa_1" data-name="Capa 1" xmlns="http://www.w3.org/2000/svg" viewBox="0 0 1920 1080">
  <defs>
    <style>
      .cls-1 {
        fill: #000;
      }

      .cls-1, .cls-2 {
        stroke-width: 0px;
      }

      .cls-2 {
        fill: #fff;
      }
    </style>
  </defs>
  <path class="cls-2" d="M1634.15,1080H285c0-359.84,0-719.69,0-1079.53,448.73,0,897.47,0,1346.2.12,1.09,0,3.9-2.08,3.8,1.57-.28,1.83-.81,3.66-.81,5.49-.04,357.45-.03,714.9-.03,1072.35ZM1226.48,853.94c.18-.55.34-.81.34-1.06.03-22.61.06-45.22.01-67.82,0-1.07-.7-2.14-1.07-3.21,1.08.7,1.88,1.78,1.9,2.87.13,5.97.06,11.94.06,17.79h120.53v-41.32q6.8-1.7,6.8-8.5c0-16.85,0-33.71,0-50.56v-4.42h-29.37c-.12,1.95-.22,3.59-.32,5.33h-19.01c-.18-2-.34-3.74-.49-5.43h-58.58c-.12,1.93-.23,3.68-.36,5.68-6.2,0-12.08.02-17.96-.02-.65,0-1.83-.28-1.86-.53-.37-3.05-2.71-1.91-4.24-1.92-17.71-.07-35.41-.05-53.12-.05h-4.27c0-.34,0-.67,0-1.01h61.15v-65.69h-61.02c0-.28,0-.56,0-.84h60.96v-65.68h-61.88v-4.22h205.55c-.94-9.37-1.76-18.31-2.76-27.23-.97-8.64-2.22-17.25-3.15-25.9-.98-9.09-1.65-18.21-2.61-27.29-1.31-12.37-2.87-24.71-4.13-37.08-.72-7.08-.61-7.15-7.55-7.15-60.14,0-120.29,0-180.43,0h-5.22v64.83c-.16,0-.33,0-.49,0v-193.77h4.85c18.13,0,36.25.05,54.38-.09,1.62-.01,3.22-1.35,4.83-2.07-.13-.36-.25-.73-.38-1.09,1.91-.1,3.83-.21,5.72-.31v-36.54h-358.66v39.82h29.95c.12-1.65.23-3.01.34-4.54h10.55c.18,1.68.33,3.15.47,4.5h88.13c.14-1.68.25-3.04.37-4.47h10.51c.22,1.72.41,3.18.59,4.58h88.03c.13-1.66.24-3.13.35-4.53h20.68v27.58h-9.58v93.6h9.52v17.76h-9.61v114.51h9.55v17.76h-9.49v112.14h9.59v27.41c-2.25.14-4.28.27-6.18.38v94.38c2.66-.3,4.95-.56,6.63-.74-.34,1.69-.99,3.5-1.01,5.31-.09,12.88-.05,25.76-.05,38.85h102.47ZM1103.46,708.15v-393.97h-88.3v21.38h-11.03v-21.31h-88.6v21.4h-10.88v-21.33h-88.6v21.26h-10.88v-21.35h-88.6v21.43h-10.88v-21.36h-88.6v21.3h-11.03v-21.38h-89.3v27.36h-10.04v-27.3h-104.86c-.74,14.96-1.88,29.58-2.08,44.22-.34,24.57-.09,49.16-.09,73.74v4.93h-73.14v225.42h64.05v-30.68h10.88v30.62h105.47v-15.38h10.04v24.74h89.09c.18-1.97.33-3.72.49-5.46h10.73v18.05h88.37c.1-1.93.18-3.58.27-5.35h10.97v18.08h88.23c.12-1.93.22-3.67.32-5.38h10.91v16.27h88.6v-16.36h10.88v16.29h88.6v-16.22h10.88v16.35h88.15ZM859,857.37h45.94c1.91-1.81,3.19-3.03,4.88-4.63,0-15.87-.05-32.44.04-49,.02-2.86-1.19-3.49-3.8-3.58-4.89-.17-9.76-.73-14.65-1.13,4.46-.42,8.85.09,13.25.32,12.53.64,25.07,1.12,37.6,1.73,10.29.5,20.57,1.14,30.86,1.66,11.83.6,23.67,1.12,35.5,1.71,10.71.53,21.42,1.14,32.13,1.67,12.11.59,24.22,1.19,36.34,1.68,9.21.37,18.44.57,27.65.88.82.03,1.62.37,2.44.42,3.27.19,6.55.31,9.85.46v-47.86h-308.95v89.23h7.91c.15,2.3.29,4.33.42,6.31h41.86v-60.13h.7v60.28ZM607.76,224.46v-8.87h-91.8v8.73h-7.64v-8.69h-108.65c0,18.63-.27,37.01.09,55.37.25,12.79-1.89,25.73,1.97,38.53h104.84c.14-1.67.26-3.13.38-4.54h9.75c.14,1.67.26,3.03.39,4.51h88.93c.2-1.7.36-3.16.51-4.47h10.54c.12,1.7.22,3.05.33,4.45h88.12c.22-1.73.41-3.19.58-4.58h10.45c.13,1.66.25,3.12.36,4.55h88.19c.14-1.66.25-3.02.39-4.63,2.18-.1,4.2-.2,6.25-.3v-79.77c-1.64-.1-3.01-.19-4.61-.29-.12-2.77-.24-5.36-.35-7.99h-91.94v7.92h-7.49v-8.72h-91.95v8.77h-7.64ZM1306.9,432.48c-.02-.46-.05-.92-.07-1.37,5.33,0,10.66-.02,15.99.02.81,0,2.27.13,2.33.42.67,3.31,3.24,1.97,5.03,2.04,4.49.16,8.99.05,13.48.05h14.42v-122.94h-31.89c.11.4.23.8.34,1.2-1.61.69-3.18,1.88-4.82,1.98-4.48.28-9,.28-13.47,0-1.65-.1-3.22-1.32-4.83-2.02.12-.38.24-.77.35-1.15h-55.99c.11.4.23.8.34,1.2-1.6.69-3.18,1.87-4.82,1.98-4.19.28-8.44.29-12.63,0-1.65-.11-3.22-1.32-4.83-2.03l.35-1.01h-61.43v123.37c.66.12,1.06.25,1.46.25,19.24.02,38.49.07,57.73-.08,1.34-.01,2.67-1.54,4-2.36-.13-.27-.25-.54-.38-.81h18.06c1.03,1.74,2.33,3.16,3.64,3.17,17.98.15,35.96.14,53.94.01,1.24,0,2.47-1.24,3.7-1.91ZM1469.47,794.04c6.72,0,12.87.08,19.02-.02,10.57-.17,19.88-3.81,22.09-17.14,1.12-6.76-2.87-18.05-11.08-19.13-12.64-1.66-25.48-1.86-38.42-2.7v65.61h8.39v-26.63ZM1231.39,571v125.24h151.44c0-9.58.43-18.86-.13-28.08-.49-8.09-2.21-16.11-3.16-24.18-1.26-10.71-2.23-21.45-3.46-32.16-1.3-11.24-2.89-22.44-4.12-33.69-.77-7.08-.61-7.13-7.57-7.13-42.56,0-85.12,0-127.68,0h-5.31ZM1552.31,820.79v-15.59c2.88-.15,5.36-.28,7.81-.4v-5.81c-2.85-.16-5.31-.29-8.14-.44v-42.2c-4.61-1.46-7.19.13-9.63,3.78-7.79,11.62-15.77,23.13-24.11,34.37-2.54,3.42-3.23,6.49-2.14,10.71h28.14v15.59h8.06ZM1233.33,268.27v-40.5h-11.69v-12.15h-96.49v26.09h56.34v26.56h51.83ZM1324.5,236.73h-89.7v69.43h89.7v-69.43ZM1010.17,268.18h100.03v-44.52h-6.51v-8.01h-90.21v8.59c-1.71.66-3.19,1.73-3.2,2.83-.16,13.6-.1,27.19-.1,41.11ZM1322.73,853.43v-49.54h-94.68v49.56h22.25c.14,1.74.26,3.21.37,4.64h53.63c.12-1.64.22-3.01.34-4.66h18.09ZM958.81,760.26h51.13v-44.3h-5.28c-.27-1.24-.5-2.24-.68-3.05h-45.17v47.35ZM906.26,218.19h-91.38v50.05h91.38v-50.05ZM1421.71,803.87h-97.54v45.22c19.82,0,39.33,0,58.83,0,9.97,0,19.93.06,29.9-.08,1.23-.02,3.14-.89,3.51-1.84.78-2,.76-4.31,1.04-6.49.77-6.02,1.57-12.03,2.27-18.05.71-6.16,1.32-12.33,2-18.75ZM910.83,760.32h46.75v-47.74c-12.92,0-25.53-.08-38.14.1-1.62.02-3.21,1.35-4.82,2.08.13.36.25.73.38,1.09-1.35.09-2.7.17-4.17.26v44.21ZM947.92,268.16h61.4c0-13.88.07-27.46-.12-41.04-.02-1.21-1.65-2.39-2.54-3.59-.2.14-.4.27-.61.41-.09-1.91-.19-3.83-.29-5.78h-57.86v50.01ZM959.02,802.47v51.34h50.31c0-15.21-.05-30.08.04-44.96.02-2.79-1.04-3.6-3.73-3.64-6.83-.12-13.66-.43-20.48-.85-8.59-.53-17.18-1.23-26.14-1.89ZM910.97,799.98v53.97h46.43c.2-.44.4-.68.4-.93.04-15.72.02-31.45.11-47.17.02-2.83-1.53-3.07-3.78-3.14-6.27-.19-12.54-.47-18.8-.87-8.03-.52-16.04-1.21-24.37-1.85ZM1010.47,805.01v48.79h50.29c0-14.39-.05-28.42.04-42.46.02-2.83-1.14-3.55-3.77-3.6-6.83-.13-13.66-.44-20.48-.86-8.59-.53-17.16-1.23-26.08-1.88ZM1113.88,853.98c0-13.6.06-26.78-.12-39.96-.01-.96-1.64-2.65-2.62-2.73-6.39-.52-12.8-.69-19.21-.97-1.25-.06-2.51-.14-3.76-.21-8.71-.54-17.41-1.08-26.32-1.63v45.5h52.03ZM873.37,269.53h-58.55v36.54h58.55v-36.54ZM1165.47,268.28v-10.04h14.69v-15.68h-68.53v25.71h53.83ZM946.68,268.37v-50.19h-32.32v50.19h32.32ZM1105.16,715.98c-1.45-1.62-2.2-3.23-3.03-3.27-4.99-.24-10-.12-14.88-.12v47.77h26.34v-44.38h-8.42ZM884.67,760.29h24.85v-44.17c-1.68-.14-3.04-.26-3.42-.29-1.39-1.51-2.16-3.09-2.99-3.12-6.1-.21-12.22-.12-18.44-.12v47.7ZM833.39,712.76v47.51h24.78v-47.51h-24.78ZM859.51,712.78v47.51h23.97v-47.51h-23.97ZM1035.17,760.45v-47.71h-19.52c.17.33.33.65.5.98-1.52,1.03-3.04,2.07-4.88,3.32v43.41h23.91ZM1036.6,712.77v47.51h23.95v-47.51h-23.95ZM832.04,760.41v-47.63h-15.3c-.74,6.12-6.23,1.48-8.62,3.68v43.95h23.92ZM1061.91,712.76v47.51h23.93v-47.51h-23.93Z"/>
  <path class="cls-1" d="M1634.15,1080c0-357.45,0-714.9.03-1072.35,0-1.83.53-3.66.81-5.49,0,358.02,0,716.03-.03,1074.05,0,1.26-.53,2.53-.81,3.79Z"/>
  <path class="cls-1" d="M1226.48,853.94h-102.47c0-13.08-.04-25.97.05-38.85.01-1.81.67-3.62,1.01-5.31-1.68.19-3.97.45-6.63.74v-94.38c1.9-.12,3.92-.24,6.18-.38v-27.41h-9.59v-112.14h9.49v-17.76h-9.55v-114.51h9.61v-17.76h-9.52v-93.6h9.58v-27.58h-20.68c-.11,1.4-.22,2.87-.35,4.53h-88.03c-.18-1.4-.37-2.86-.59-4.58h-10.51c-.12,1.42-.23,2.78-.37,4.47h-88.13c-.14-1.35-.29-2.81-.47-4.5h-10.55c-.12,1.53-.22,2.9-.34,4.54h-29.95v-39.82h358.66v36.54c-1.9.1-3.81.21-5.72.31.13.36.25.73.38,1.09-1.61.72-3.22,2.06-4.83,2.07-18.13.15-36.25.09-54.38.09h-4.85v193.77c.16,0,.33,0,.49,0v-64.83h5.22c60.14,0,120.29,0,180.43,0,6.95,0,6.83.06,7.55,7.15,1.27,12.37,2.82,24.71,4.13,37.08.96,9.09,1.63,18.21,2.61,27.29.93,8.64,2.18,17.25,3.15,25.9,1,8.92,1.82,17.85,2.76,27.23h-205.55v4.22h61.88v65.68h-60.96c0,.28,0,.56,0,.84h61.02v65.69h-61.15c0,.34,0,.67,0,1.01h4.27c17.71,0,35.41-.03,53.12.05,1.53,0,3.87-1.13,4.24,1.92.03.26,1.21.53,1.86.53,5.88.04,11.76.02,17.96.02.13-2,.24-3.75.36-5.68h58.58c.15,1.69.31,3.43.49,5.43h19.01c.1-1.73.2-3.37.32-5.33h29.37v4.42c0,16.85,0,33.71,0,50.56q0,6.8-6.8,8.5v41.32h-120.53c0-5.86.07-11.83-.06-17.79-.02-1.09-.82-2.17-1.9-2.87.37,1.07,1.07,2.14,1.07,3.21.05,22.61.01,45.22-.01,67.82,0,.26-.16.51-.34,1.06ZM1249.5,705.83c-7.89,0-15.32,0-22.75-.02-.68,0-1.88-.1-1.95-.36-.82-3.36-3.49-2.09-5.42-2.1-17.57-.08-35.13-.14-52.7.03-3.64.03-4.81-.95-4.82-4.72-.17-65.67-.59-131.35-.73-197.02-.14-63.2-.03-126.4-.03-189.6v-4.82h5.03c18.13,0,36.26.05,54.38-.09,1.61-.01,3.22-1.29,4.82-1.98-.12-.48-.23-.95-.35-1.43h5.82v-31.57h-353.65v34.81h24.93c.11-1.62.19-2.99.3-4.57h15.69c.13,1.65.25,3.12.36,4.53h83.12c.14-1.66.26-3.03.39-4.51h15.56c.2,1.7.38,3.17.55,4.61h83c.12-1.64.23-3.1.34-4.56h25.76v32.62h-9.6v88.55h9.54v22.82h-9.63v109.46h9.57v22.82h-9.51v107.09h9.6v32.47c-2.25.14-4.27.27-6.2.4v89.56c19.15-5.34,37.86-10.56,57.07-15.91v10.14h9.24c0-3.19.19-6.13-.05-9.04-.24-2.94,1.01-4.36,3.73-5.01,3.87-.92,7.7-1.97,11.55-2.99,9.11-2.41,18.22-4.84,27.84-7.4v21.9h115.46c0-12.48.08-24.68-.07-36.88-.03-2.7.85-4.67,3.37-4.8,3.26-.18,3.48-1.85,3.47-4.39-.06-16.85-.03-33.71-.04-50.56,0-1.06-.19-2.13-.29-3.16h-23.99c-.12,1.93-.22,3.67-.32,5.4h-24.17c-.1-1.93-.18-3.58-.27-5.36h-53.68c-.09,1.88-.17,3.52-.27,5.65ZM1167.09,560.51h200.41c-4.41-39.96-8.77-79.57-13.12-118.97h-187.29v118.97ZM1224.17,637.03h-56.82v60.15h56.82v-60.15ZM1224.16,570.45h-56.82v60.15h56.82v-60.15ZM1224.15,785.5c-11.08,3.14-21.82,6.19-32.82,9.32v12.23h-13.04v44.36h45.86v-65.9ZM1172.68,851.45v-51.64c-15.6,4.29-30.84,8.49-45.91,12.64v39.01h45.91ZM1214.45,785.72c-.08-.3-.16-.6-.24-.9-8.13,2.21-16.27,4.41-24.4,6.62.1.38.2.76.31,1.15,8.11-2.29,16.23-4.57,24.34-6.86Z"/>
  <path class="cls-1" d="M1103.46,708.15h-88.15v-16.35h-10.88v16.22h-88.6v-16.29h-10.88v16.36h-88.6v-16.27h-10.91c-.1,1.71-.21,3.45-.32,5.38h-88.23v-18.08h-10.97c-.09,1.78-.17,3.42-.27,5.35h-88.37v-18.05h-10.73c-.16,1.74-.31,3.48-.49,5.46h-89.09v-24.74h-10.04v15.38h-105.47v-30.62h-10.88v30.68h-64.05v-225.42h73.14v-4.93c0-24.58-.25-49.16.09-73.74.21-14.64,1.35-29.26,2.08-44.22h104.86v27.3h10.04v-27.36h89.3v21.38h11.03v-21.3h88.6v21.36h10.88v-21.43h88.6v21.35h10.88v-21.26h88.6v21.33h10.88v-21.4h88.6v21.31h11.03v-21.38h88.3v393.97ZM504.44,660.14v-15.59h15.1v24.71h84.05c.13-1.97.23-3.61.33-5.27h16.07v18.01h83.03c.18-1.97.34-3.72.49-5.46h15.78v18.05h83.32c.1-1.93.18-3.57.27-5.35h16.02v16.39h83.4v-16.32h16.09v16.25h83.55v-16.33h15.94v16.27h83.11v-388.69h-83.33v21.35h-16.09v-21.43h-83.4v21.36h-16.09v-21.3h-83.55v21.38h-15.94v-21.46h-83.4v21.39h-16.09v-21.32h-83.55v21.41h-15.94v-21.34h-84.39v27.17h-15.1v-27.25h-99.45c-.84,11.25-2.24,22.2-2.37,33.16-.34,28.23-.11,56.46-.11,84.69v4.98h-73.05v220.54h58.79v-30.65h16.09v30.67h100.41Z"/>
  <path class="cls-1" d="M859,857.37v-60.29h-.7v60.14h-41.86c-.13-1.98-.27-4.01-.42-6.31h-7.91v-89.23h308.95v47.86c-3.31-.15-6.58-.28-9.85-.46-.82-.05-1.62-.39-2.44-.42-9.22-.31-18.44-.51-27.65-.88-12.12-.49-24.23-1.09-36.34-1.68-10.71-.53-21.42-1.13-32.13-1.67-11.83-.59-23.67-1.11-35.5-1.71-10.29-.52-20.57-1.15-30.86-1.66-12.53-.61-25.07-1.1-37.6-1.73-4.4-.22-8.79-.74-13.25-.32,4.88.4,9.76.96,14.65,1.13,2.6.09,3.81.72,3.8,3.58-.09,16.56-.04,33.13-.04,49-1.69,1.6-2.98,2.83-4.88,4.63h-45.94ZM810.52,791.4c3.64.44,6.92,1,10.22,1.2,10.99.64,21.98,1.17,32.97,1.71,12.11.59,24.23,1.11,36.34,1.7,10.57.52,21.14,1.13,31.71,1.66,11.83.59,23.67,1.12,35.5,1.7,10.99.54,21.98,1.12,32.97,1.67,11.55.58,23.1,1.13,34.66,1.69,11.27.56,22.54,1.19,33.81,1.66,14.92.63,29.85,1.11,44.77,1.73,3.66.15,7.3.64,10.92.97v-42.91h-303.87v27.21ZM855.58,854.83v-55.47c-15.17-.84-30.07-1.66-44.95-2.47v51.47h7.98c.11,2.3.22,4.32.32,6.48h36.65ZM907.02,850.41v-47.7c-15.15-1.11-30.03-2.19-44.95-3.28v55.39h40.45c1.79-1.76,2.97-2.91,4.5-4.41Z"/>
  <path class="cls-1" d="M607.76,224.46h7.64v-8.77h91.95v8.72h7.49v-7.92h91.94c.12,2.64.23,5.23.35,7.99,1.6.1,2.97.19,4.61.29v79.77c-2.05.1-4.08.19-6.25.3-.13,1.6-.25,2.97-.39,4.63h-88.19c-.11-1.43-.23-2.89-.36-4.55h-10.45c-.18,1.39-.36,2.85-.58,4.58h-88.12c-.1-1.4-.2-2.75-.33-4.45h-10.54c-.15,1.31-.32,2.78-.51,4.47h-88.93c-.13-1.48-.24-2.85-.39-4.51h-9.75c-.12,1.41-.24,2.87-.38,4.54h-104.84c-3.87-12.81-1.73-25.75-1.97-38.53-.36-18.36-.09-36.74-.09-55.37h108.65v8.69h7.64v-8.73h91.8v8.87ZM717.51,226.93h-12.7v-8.71h-86.89v8.66h-12.71v-8.76h-86.74v8.72h-12.71v-8.67h-103.56c0,17.66-.26,35.06.09,52.44.24,12.08-1.87,24.32,2.02,36.39h99.72c.15-1.67.29-3.14.42-4.52h14.79c.14,1.67.26,3.03.38,4.5h83.87c.2-1.7.38-3.16.55-4.61h15.55c.12,1.64.23,3.1.34,4.59h83.17c.11-1.63.19-3,.3-4.57h15.67c.14,1.67.27,3.13.39,4.54h83.11c.14-1.66.26-3.03.39-4.61,2.18-.11,4.21-.21,6.25-.32v-74.69c-1.64-.12-3.01-.22-4.61-.33-.12-2.74-.24-5.34-.35-7.97h-86.73v7.91Z"/>
  <path class="cls-1" d="M1306.9,432.48c-1.23.66-2.46,1.9-3.7,1.91-17.98.13-35.96.13-53.94-.01-1.31-.01-2.61-1.43-3.64-3.17h-18.06c.13.27.25.54.38.81-1.33.82-2.66,2.35-4,2.36-19.24.15-38.49.1-57.73.08-.4,0-.8-.13-1.46-.25v-123.37h61.43l-.35,1.01c1.61.71,3.18,1.91,4.83,2.03,4.19.29,8.43.29,12.63,0,1.64-.11,3.22-1.29,4.82-1.98-.11-.4-.23-.8-.34-1.2h55.99c-.12.38-.24.77-.35,1.15,1.61.71,3.18,1.92,4.83,2.02,4.48.28,8.99.28,13.47,0,1.64-.1,3.22-1.29,4.82-1.98-.11-.4-.23-.8-.34-1.2h31.89v122.94h-14.42c-4.49,0-8.99.11-13.48-.05-1.79-.06-4.36,1.28-5.03-2.04-.06-.29-1.52-.41-2.33-.42-5.33-.04-10.66-.02-15.99-.02.02.46.05.92.07,1.37ZM1167.3,313.23v118.71c18.4,0,36.5.05,54.6-.12,1.2-.01,2.38-1.7,4.24-3.13h22.07l-.31,1.26c1.6.66,3.2,1.89,4.8,1.91,15.73.14,31.46.15,47.19,0,1.62-.02,3.22-1.36,4.83-2.09-.12-.4-.25-.79-.37-1.19,7.02,0,14.04,0,21.06.01.69,0,1.87-.05,1.99.25,1.45,3.74,4.62,2.14,7.06,2.2,7.09.18,14.19.06,21.22.06v-117.78h-27.54c1.08,4.01-1.77,3.16-3.97,3.16-6.18.02-12.37.16-18.54-.09-1.64-.07-3.22-1.36-4.83-2.09.12-.36.25-.71.37-1.07h-50.93c.1.42.21.83.32,1.25-1.6.67-3.18,1.85-4.81,1.91-5.89.23-11.8.25-17.69,0-1.64-.07-3.22-1.36-4.83-2.09.12-.36.25-.72.37-1.07h-56.29Z"/>
  <path class="cls-1" d="M1469.47,794.04v26.63h-8.39v-65.61c12.94.83,25.77,1.04,38.42,2.7,8.21,1.08,12.2,12.37,11.08,19.13-2.2,13.33-11.52,16.96-22.09,17.14-6.15.1-12.3.02-19.02.02ZM1469.67,787c6.87,0,13.36.5,19.73-.11,10.78-1.03,14.08-6.3,12.25-16.31-.48-2.59-4.17-6.25-6.68-6.5-8.29-.82-16.71-.31-25.3-.31v23.23Z"/>
  <path class="cls-1" d="M1231.39,571h5.31c42.56,0,85.12,0,127.68,0,6.96,0,6.8.05,7.57,7.13,1.23,11.25,2.82,22.45,4.12,33.69,1.24,10.71,2.2,21.45,3.46,32.16.95,8.07,2.67,16.09,3.16,24.18.56,9.22.13,18.5.13,28.08h-151.44v-125.24ZM1233.92,573.68v120.03h146.31c0-8.88.42-17.46-.12-25.98-.54-8.52-2.1-16.96-3.13-25.45-.95-7.82-1.73-15.66-2.67-23.48-1.03-8.63-2.16-17.24-3.25-25.86-.81-6.39-1.64-12.78-2.47-19.26h-134.67Z"/>
  <path class="cls-1" d="M1552.31,820.79h-8.06v-15.59h-28.14c-1.09-4.23-.4-7.29,2.14-10.71,8.34-11.24,16.32-22.74,24.11-34.37,2.44-3.64,5.02-5.24,9.63-3.78v42.2c2.83.15,5.29.29,8.14.44v5.81c-2.46.13-4.93.25-7.81.4v15.59ZM1543.92,798.58v-30.45c-7.3,10.62-13.92,20.27-20.91,30.45h20.91Z"/>
  <path class="cls-1" d="M1233.33,268.27h-51.83v-26.56h-56.34v-26.09h96.49v12.15h11.69v40.5ZM1184.06,238.93v26.79h46.79v-35.31h-11.78v-12.31h-91.44v20.83h56.43Z"/>
  <path class="cls-1" d="M1324.5,236.73v69.43h-89.7v-69.43h89.7ZM1321.86,303.67v-64.37h-84.64v64.37h84.64Z"/>
  <path class="cls-1" d="M1010.17,268.18c0-13.92-.06-27.52.1-41.11.01-1.09,1.5-2.17,3.2-2.83v-8.59h90.21v8.01h6.51v44.52h-100.03ZM1012.7,265.63h94.95v-39.17c-2.25-.11-4.17-.21-6.53-.32v-7.93h-85.15v8.6c-.32-.15-.63-.29-.95-.44-.77,1.09-2.21,2.18-2.22,3.28-.16,11.91-.1,23.81-.1,35.98Z"/>
  <path class="cls-1" d="M1322.73,853.43h-18.09c-.12,1.65-.22,3.01-.34,4.66h-53.63c-.12-1.43-.23-2.9-.37-4.64h-22.25v-49.56h94.68v49.54ZM1253.15,855.56h48.62c.12-1.64.22-3.01.35-4.8h18.08v-44.34h-89.62v44.51h22.27c.11,1.65.19,3.01.3,4.64Z"/>
  <path class="cls-1" d="M958.81,760.26v-47.35h45.17c.18.8.4,1.81.68,3.05h5.28v44.3h-51.13ZM1003.4,718.5c-1.83-1.69-2.71-3.21-3.68-3.27-4.27-.27-8.57-.12-12.9-.12v42.67h20.53v-39.28h-3.95ZM961.46,757.79h19.72v-42.47h-19.72v42.47Z"/>
  <path class="cls-1" d="M906.26,218.19v50.05h-91.38v-50.05h91.38ZM903.73,220.72h-86.32v44.99h86.32v-44.99Z"/>
  <path class="cls-1" d="M1421.71,803.87c-.68,6.42-1.28,12.59-2,18.75-.7,6.02-1.5,12.03-2.27,18.05-.28,2.19-.26,4.5-1.04,6.49-.37.95-2.28,1.83-3.51,1.84-9.96.15-19.93.08-29.9.08-19.5,0-39,0-58.83,0v-45.22h97.54ZM1418.99,806.39h-92.3v40.01h87.49c1.6-13.33,3.19-26.56,4.81-40.01Z"/>
  <path class="cls-1" d="M910.83,760.32v-44.21c1.48-.09,2.82-.18,4.17-.26-.13-.36-.25-.73-.38-1.09,1.61-.73,3.2-2.06,4.82-2.08,12.61-.17,25.22-.1,38.14-.1v47.74h-46.75ZM955.15,715.38h-19.72v42.5h19.72v-42.5ZM913.48,718.74v39.02h16.26v-42.47h-11.43c.8,4.52-2.7,2.73-4.83,3.45Z"/>
  <path class="cls-1" d="M947.92,268.16v-50.01h57.86c.1,1.95.19,3.87.29,5.78.2-.14.4-.27.61-.41.88,1.2,2.52,2.38,2.54,3.59.18,13.58.12,27.17.12,41.04h-61.4ZM950.59,220.58v45.05h56.21c0-11.78.08-23.26-.1-34.73-.03-1.62-1.34-3.21-2.06-4.82-.36.13-.73.25-1.09.38-.1-1.91-.2-3.82-.31-5.87h-52.65Z"/>
  <path class="cls-1" d="M959.02,802.47c8.97.66,17.55,1.36,26.14,1.89,6.82.42,13.65.73,20.48.85,2.69.05,3.74.86,3.73,3.64-.09,14.88-.04,29.75-.04,44.96h-50.31v-51.34ZM961.45,851.39h45.07v-43.6c-15.17-.84-30.08-1.66-45.07-2.48v46.08Z"/>
  <path class="cls-1" d="M910.97,799.98c8.33.64,16.35,1.33,24.37,1.85,6.26.41,12.53.69,18.8.87,2.24.07,3.79.31,3.78,3.14-.09,15.72-.08,31.45-.11,47.17,0,.24-.2.49-.4.93h-46.43v-53.97ZM913.5,802.79v48.63h41.62v-46.17c-13.93-.82-27.64-1.63-41.62-2.45Z"/>
  <path class="cls-1" d="M1010.47,805.01c8.91.65,17.49,1.35,26.08,1.88,6.82.42,13.65.73,20.48.86,2.64.05,3.79.76,3.77,3.6-.1,14.04-.04,28.08-.04,42.46h-50.29v-48.79ZM1012.92,807.82v43.54h45.02v-41.03c-15.11-.84-29.93-1.67-45.02-2.51Z"/>
  <path class="cls-1" d="M1113.88,853.98h-52.03v-45.5c8.91.55,17.62,1.09,26.32,1.63,1.25.08,2.5.16,3.76.21,6.41.29,12.82.45,19.21.97.98.08,2.61,1.77,2.62,2.73.17,13.18.12,26.36.12,39.96ZM1064.36,851.35h46.69v-37.67c-15.68-.83-31.07-1.64-46.69-2.46v40.14Z"/>
  <path class="cls-1" d="M873.37,269.53v36.54h-58.55v-36.54h58.55ZM870.79,303.65v-31.54h-53.4v31.54h53.4Z"/>
  <path class="cls-1" d="M1165.47,268.28h-53.83v-25.71h68.53v15.68h-14.69v10.04ZM1114.13,245.05v20.59h48.89v-9.99h14.67v-10.6h-63.55Z"/>
  <path class="cls-1" d="M946.68,268.37h-32.32v-50.19h32.32v50.19ZM944.1,265.74v-44.98h-27.31v44.98h27.31Z"/>
  <path class="cls-1" d="M1105.16,715.98h8.42v44.38h-26.34v-47.77c4.88,0,9.89-.12,14.88.12.83.04,1.58,1.65,3.03,3.27ZM1089.73,714.81v42.95h21.3v-39.41h-8.52c-3.75-5.73-8.7-1.95-12.78-3.54Z"/>
  <path class="cls-1" d="M884.67,760.29v-47.7c6.22,0,12.34-.1,18.44.12.83.03,1.6,1.62,2.99,3.12.37.03,1.74.15,3.42.29v44.17h-24.85ZM887.38,715.11v42.77h19.71v-39.24c-1.54-.1-2.9-.19-3.1-.2-1.82-1.54-2.82-3.12-3.94-3.21-4.15-.31-8.34-.12-12.67-.12Z"/>
  <path class="cls-1" d="M833.39,712.76h24.78v47.51h-24.78v-47.51ZM855.57,757.89v-42.45h-19.72v42.45h19.72Z"/>
  <path class="cls-1" d="M859.51,712.78h23.97v47.51h-23.97v-47.51ZM880.96,715.39h-18.88v42.47h18.88v-42.47Z"/>
  <path class="cls-1" d="M1035.17,760.45h-23.91v-43.41c1.84-1.25,3.36-2.29,4.88-3.32-.17-.33-.33-.65-.5-.98h19.52v47.71ZM1032.65,757.91v-42.65h-14.46c.17.32.33.64.49.96-1.51,1.04-3.03,2.08-4.9,3.38v38.32h18.87Z"/>
  <path class="cls-1" d="M1036.6,712.77h23.95v47.51h-23.95v-47.51ZM1057.94,757.89v-42.45h-18.87v42.45h18.87Z"/>
  <path class="cls-1" d="M832.04,760.41h-23.92v-43.95c2.39-2.2,7.88,2.44,8.62-3.68h15.3v47.63ZM829.5,758v-42.71h-10.26c-.72,6.21-6.28,1.43-8.58,3.68v39.03h18.84Z"/>
  <path class="cls-1" d="M1061.91,712.76h23.93v47.51h-23.93v-47.51ZM1064.44,715.29v42.45h18.87v-42.45h-18.87Z"/>
  <path class="cls-2" d="M1249.5,705.83c.1-2.13.18-3.77.27-5.65h53.68c.09,1.79.18,3.43.27,5.36h24.17c.1-1.73.21-3.47.32-5.4h23.99c.1,1.03.29,2.1.29,3.16.02,16.85-.02,33.71.04,50.56,0,2.54-.21,4.21-3.47,4.39-2.52.14-3.4,2.1-3.37,4.8.15,12.2.07,24.4.07,36.88h-115.46v-21.9c-9.61,2.56-18.72,4.98-27.84,7.4-3.84,1.02-7.68,2.07-11.55,2.99-2.71.65-3.97,2.07-3.73,5.01.24,2.91.05,5.85.05,9.04h-9.24v-10.14c-19.21,5.36-37.92,10.58-57.07,15.91v-89.56c1.93-.12,3.95-.25,6.2-.4v-32.47h-9.6v-107.09h9.51v-22.82h-9.57v-109.46h9.63v-22.82h-9.54v-88.55h9.6v-32.62h-25.76c-.11,1.45-.22,2.92-.34,4.56h-83c-.17-1.44-.35-2.9-.55-4.61h-15.56c-.13,1.48-.25,2.84-.39,4.51h-83.12c-.11-1.41-.23-2.88-.36-4.53h-15.69c-.1,1.58-.19,2.94-.3,4.57h-24.93v-34.81h353.65v31.57h-5.82c.12.48.23.95.35,1.43-1.61.69-3.21,1.97-4.82,1.98-18.13.14-36.26.09-54.38.09h-5.03v4.82c0,63.2-.11,126.4.03,189.6.15,65.67.56,131.35.73,197.02,0,3.77,1.18,4.75,4.82,4.72,17.56-.17,35.13-.11,52.7-.03,1.93,0,4.6-1.26,5.42,2.1.07.27,1.27.36,1.95.36,7.43.02,14.86.02,22.75.02Z"/>
  <path class="cls-2" d="M1167.09,560.51v-118.97h187.29c4.35,39.4,8.71,79.01,13.12,118.97h-200.41Z"/>
  <path class="cls-2" d="M1224.17,637.03v60.15h-56.82v-60.15h56.82Z"/>
  <path class="cls-2" d="M1224.16,570.45v60.15h-56.82v-60.15h56.82Z"/>
  <path class="cls-2" d="M1224.15,785.5v65.9h-45.86v-44.36h13.04v-12.23c11-3.12,21.74-6.17,32.82-9.32Z"/>
  <path class="cls-2" d="M1172.68,851.45h-45.91v-39.01c15.07-4.15,30.31-8.34,45.91-12.64v51.64Z"/>
  <path class="cls-2" d="M1214.45,785.72c-8.11,2.29-16.23,4.57-24.34,6.86-.1-.38-.2-.76-.31-1.15,8.13-2.21,16.27-4.41,24.4-6.62.08.3.16.6.24.9Z"/>
  <path class="cls-2" d="M504.44,660.14h-100.41v-30.67h-16.09v30.65h-58.79v-220.54h73.05v-4.98c0-28.23-.22-56.46.11-84.69.13-10.96,1.53-21.91,2.37-33.16h99.45v27.25h15.1v-27.17h84.39v21.34h15.94v-21.41h83.55v21.32h16.09v-21.39h83.4v21.46h15.94v-21.38h83.55v21.3h16.09v-21.36h83.4v21.43h16.09v-21.35h83.33v388.69h-83.11v-16.27h-15.94v16.33h-83.55v-16.25h-16.09v16.32h-83.4v-16.39h-16.02c-.09,1.78-.17,3.42-.27,5.35h-83.32v-18.05h-15.78c-.16,1.74-.32,3.49-.49,5.46h-83.03v-18.01h-16.07c-.1,1.66-.21,3.29-.33,5.27h-84.05v-24.71h-15.1v15.59Z"/>
  <path class="cls-2" d="M810.52,791.4v-27.21h303.87v42.91c-3.62-.33-7.26-.81-10.92-.97-14.92-.63-29.85-1.1-44.77-1.73-11.27-.48-22.54-1.11-33.81-1.66-11.55-.57-23.11-1.12-34.66-1.69-10.99-.55-21.98-1.13-32.97-1.67-11.83-.58-23.67-1.11-35.5-1.7-10.57-.53-21.14-1.14-31.71-1.66-12.11-.6-24.23-1.12-36.34-1.7-10.99-.53-21.98-1.06-32.97-1.71-3.3-.19-6.58-.76-10.22-1.2Z"/>
  <path class="cls-2" d="M855.58,854.83h-36.65c-.11-2.16-.21-4.18-.32-6.48h-7.98v-51.47c14.88.82,29.78,1.64,44.95,2.47v55.47Z"/>
  <path class="cls-2" d="M907.02,850.41c-1.53,1.5-2.71,2.65-4.5,4.41h-40.45v-55.39c14.93,1.09,29.81,2.18,44.95,3.28v47.7Z"/>
  <path class="cls-2" d="M717.51,226.93v-7.91h86.73c.12,2.63.23,5.22.35,7.97,1.6.11,2.97.21,4.61.33v74.69c-2.04.1-4.06.21-6.25.32-.14,1.58-.25,2.95-.39,4.61h-83.11c-.12-1.41-.24-2.87-.39-4.54h-15.67c-.1,1.57-.19,2.94-.3,4.57h-83.17c-.11-1.49-.22-2.95-.34-4.59h-15.55c-.17,1.45-.35,2.91-.55,4.61h-83.87c-.12-1.46-.24-2.82-.38-4.5h-14.79c-.13,1.38-.26,2.85-.42,4.52h-99.72c-3.89-12.07-1.78-24.31-2.02-36.39-.35-17.38-.09-34.78-.09-52.44h103.56v8.67h12.71v-8.72h86.74v8.76h12.71v-8.66h86.89v8.71h12.7Z"/>
  <path class="cls-2" d="M1167.3,313.23h56.29c-.12.36-.25.72-.37,1.07,1.61.73,3.2,2.01,4.83,2.09,5.89.26,11.8.24,17.69,0,1.62-.06,3.21-1.25,4.81-1.91-.11-.42-.21-.83-.32-1.25h50.93c-.12.36-.25.71-.37,1.07,1.61.73,3.2,2.02,4.83,2.09,6.17.25,12.36.11,18.54.09,2.19,0,5.04.84,3.97-3.16h27.54v117.78c-7.03,0-14.13.12-21.22-.06-2.43-.06-5.61,1.54-7.06-2.2-.12-.3-1.3-.25-1.99-.25-7.02-.02-14.04-.01-21.06-.01.12.4.25.79.37,1.19-1.61.73-3.21,2.07-4.83,2.09-15.73.16-31.46.15-47.19,0-1.61-.01-3.2-1.24-4.8-1.91l.31-1.26h-22.07c-1.87,1.43-3.05,3.12-4.24,3.13-18.1.17-36.21.12-54.6.12v-118.71Z"/>
  <path class="cls-2" d="M1469.67,787v-23.23c8.58,0,17.01-.51,25.3.31,2.51.25,6.21,3.91,6.68,6.5,1.84,10.01-1.46,15.28-12.25,16.31-6.38.61-12.86.11-19.73.11Z"/>
  <path class="cls-2" d="M1233.92,573.68h134.67c.83,6.47,1.66,12.86,2.47,19.26,1.09,8.62,2.22,17.24,3.25,25.86.94,7.82,1.72,15.66,2.67,23.48,1.03,8.49,2.58,16.94,3.13,25.45.54,8.52.12,17.1.12,25.98h-146.31v-120.03Z"/>
  <path class="cls-2" d="M1543.92,798.58h-20.91c6.99-10.18,13.62-19.82,20.91-30.45v30.45Z"/>
  <path class="cls-2" d="M1184.06,238.93h-56.43v-20.83h91.44v12.31h11.78v35.31h-46.79v-26.79Z"/>
  <path class="cls-2" d="M1321.86,303.67h-84.64v-64.37h84.64v64.37Z"/>
  <path class="cls-2" d="M1012.7,265.63c0-12.17-.06-24.08.1-35.98.02-1.1,1.45-2.19,2.22-3.28.32.15.63.29.95.44v-8.6h85.15v7.93c2.35.12,4.27.21,6.53.32v39.17h-94.95Z"/>
  <path class="cls-2" d="M1253.15,855.56c-.1-1.63-.19-2.99-.3-4.64h-22.27v-44.51h89.62v44.34h-18.08c-.13,1.8-.23,3.16-.35,4.8h-48.62Z"/>
  <path class="cls-2" d="M1003.4,718.5h3.95v39.28h-20.53v-42.67c4.32,0,8.62-.15,12.9.12.97.06,1.85,1.58,3.68,3.27Z"/>
  <path class="cls-2" d="M961.46,757.79v-42.47h19.72v42.47h-19.72Z"/>
  <path class="cls-2" d="M903.73,220.72v44.99h-86.32v-44.99h86.32Z"/>
  <path class="cls-2" d="M1418.99,806.39c-1.62,13.46-3.21,26.69-4.81,40.01h-87.49v-40.01h92.3Z"/>
  <path class="cls-2" d="M955.15,715.38v42.5h-19.72v-42.5h19.72Z"/>
  <path class="cls-2" d="M913.48,718.74c2.13-.72,5.63,1.07,4.83-3.45h11.43v42.47h-16.26v-39.02Z"/>
  <path class="cls-2" d="M950.59,220.58h52.65c.11,2.05.21,3.96.31,5.87.36-.13.73-.25,1.09-.38.72,1.61,2.04,3.2,2.06,4.82.18,11.48.1,22.96.1,34.73h-56.21v-45.05Z"/>
  <path class="cls-2" d="M961.45,851.39v-46.08c14.99.83,29.91,1.65,45.07,2.48v43.6h-45.07Z"/>
  <path class="cls-2" d="M913.5,802.79c13.98.82,27.69,1.63,41.62,2.45v46.17h-41.62v-48.63Z"/>
  <path class="cls-2" d="M1012.92,807.82c15.09.84,29.91,1.67,45.02,2.51v41.03h-45.02v-43.54Z"/>
  <path class="cls-2" d="M1064.36,851.35v-40.14c15.62.82,31.01,1.64,46.69,2.46v37.67h-46.69Z"/>
  <path class="cls-2" d="M870.79,303.65h-53.4v-31.54h53.4v31.54Z"/>
  <path class="cls-2" d="M1114.13,245.05h63.55v10.6h-14.67v9.99h-48.89v-20.59Z"/>
  <path class="cls-2" d="M944.1,265.74h-27.31v-44.98h27.31v44.98Z"/>
  <path class="cls-2" d="M1089.73,714.81c4.08,1.59,9.03-2.19,12.78,3.54h8.52v39.41h-21.3v-42.95Z"/>
  <path class="cls-2" d="M887.38,715.11c4.33,0,8.52-.19,12.67.12,1.12.08,2.12,1.67,3.94,3.21.2.01,1.56.1,3.1.2v39.24h-19.71v-42.77Z"/>
  <path class="cls-2" d="M855.57,757.89h-19.72v-42.45h19.72v42.45Z"/>
  <path class="cls-2" d="M880.96,715.39v42.47h-18.88v-42.47h18.88Z"/>
  <path class="cls-2" d="M1032.65,757.91h-18.87v-38.32c1.88-1.29,3.39-2.34,4.9-3.38-.16-.32-.33-.64-.49-.96h14.46v42.65Z"/>
  <path class="cls-2" d="M1057.94,757.89h-18.87v-42.45h18.87v42.45Z"/>
  <path class="cls-2" d="M829.5,758h-18.84v-39.03c2.3-2.25,7.86,2.53,8.58-3.68h10.26v42.71Z"/>
  <path class="cls-2" d="M1064.44,715.29h18.87v42.45h-18.87v-42.45Z"/>
</svg>