<?xml version="1.0" encoding="UTF-8"?>
<svg id="Capa_1" data-name="Capa 1" xmlns="http://www.w3.org/2000/svg" viewBox="0 0 1920 1080">
  <defs>
    <style>
      .cls-1 {
        fill: #000;
      }

      .cls-1, .cls-2 {
        stroke-width: 0px;
      }

      .cls-2 {
        fill: #fff;
      }
    </style>
  </defs>
  <path class="cls-2" d="M1633.46,1079.64H286c0-359.39,0-718.78,0-1078.17,448.17,0,896.34,0,1344.51.12,1.09,0,3.9-2.08,3.79,1.56-.28,1.83-.81,3.65-.81,5.48-.04,357-.03,714.01-.03,1071.01ZM879.93,329.86h328.74v357.73h-57.77v4.85c0,25.25,0,50.49-.02,75.74,0,1.36-.11,2.79-.53,4.07-.43,1.31-1.88,2.47-1.89,3.7-.13,17.67-.09,35.35-.08,53.02,0,.97-.2,2.52.29,2.82,3.43,2.11,2.15,5.4,2.18,8.23.12,10.1.05,20.2.05,30.3v5.36h102.48c1.46-17.16.53-70.2-.62-72.09.93,1.06,1.66,2.31,1.67,3.57.07,21.32.05,42.64.05,63.96v4.93h22.46c.25,1.91.43,3.37.61,4.76h53.38c.13-1.94.25-3.68.4-5.85h18.46v-48.5c.28,0,.56,0,.84,0v44.47h21.11c22.31,0,44.63.04,66.94-.08,1.47,0,3.69-.87,4.23-1.97.91-1.89.77-4.28,1.05-6.47.78-6.01,1.63-12.01,2.32-18.03.71-6.14,1.27-12.29,1.94-18.88h-75v-4.96c0-11.08.02-22.16-.01-33.24,0-2.12.04-3.79,2.94-3.97,3.63-.22,4.81-2.32,4.75-6.1-.24-15.14-.1-30.29-.1-45.44q0-5.6-5.45-5.61c-38.88,0-77.75,0-116.63,0h-4.77v-396.3c2.24-.1,4.16-.19,6.42-.29,0-1.79.02-3.3,0-4.82-.28-23.93-.65-47.86-.75-71.79-.02-3.93-1.14-4.97-5.01-4.95-37.33.14-74.66.08-111.99.09-1.36,0-2.71.12-4.51.21v44.49h-258.18v37.07ZM354.52,456.72v225.46h63.75v-30.62h11.01v30.56h105.33v-15.5h10.02v24.71h89.03c.12-1.95.22-3.59.32-5.3h10.13v18.02h88.86c.17-1.95.32-3.69.46-5.34h10.01v18.76h88.95c.14-2.29.26-4.31.38-6.23h10v16.26h89.33v-16.2h10.86v16.28h88.49v-16.37h10.87v16.31h88.15v-393.32h-88.38v21.41h-10.87v-21.34h-88.49v21.28h-11.01v-21.37h-89.18v21.3h-10.17v-21.24h-89.18v21.33h-10.17v-21.42h-89.18v21.35h-10.17v-21.29h-89.33v28.11h-10.02v-28.11c-.86-.13-1.27-.25-1.67-.25-33.54-.01-67.09.01-100.63-.07-3.09,0-3.91,1.25-3.73,4.03.36,5.69.88,11.4.77,17.09-.08,4.4-1.49,8.77-1.51,13.16-.15,27.91-.08,55.82-.08,83.74v4.82h-72.97ZM1031.98,738.68c.12-.39.23-.79.35-1.18-1.6-.7-3.21-2-4.81-2-26.94-.13-53.88-.13-80.82,0-1.61,0-3.21,1.3-4.81,2,.11.4.23.79.34,1.19h-10.18c1.05-4.4-2.09-3.26-4.33-3.26-23.29-.03-46.59-.02-69.88-.02h-14.76c-.31,1.26-.56,2.26-.87,3.51h-6.01v134.36c2.28.13,4.3.25,6.6.38v8.78h90.63c.17-1.98.32-3.73.47-5.44h7.17c.1,1.92.2,3.66.29,5.42h91.42c.19-2.02.36-3.76.51-5.39h7.08c.17,1.95.32,3.69.46,5.36h89.73c.11-1.95.21-3.59.31-5.39,2.25-.15,4.27-.28,6.28-.42v-104.26h-6.49v-36.6c-.84-.16-1.24-.31-1.64-.31-27.92-.02-55.85-.05-83.77.08-1.34,0-2.68,1.49-4.01,2.28.13.3.26.59.38.89h-9.62ZM1492.55,796.37v65.56h8.48v-26.65c6.68,0,12.96.16,19.22-.03,11.37-.35,19.63-4.22,21.86-17.36,1.09-6.42-3.11-18.22-12.24-19.06-12.3-1.14-24.66-1.66-37.32-2.47ZM1405.11,719.33c.27-25.18.77-49.97-2.42-74.67-1.85-14.36-3.53-28.75-4.97-43.16-.74-7.36-.53-7.48-8.07-7.48-41.4,0-82.79,0-124.19,0h-4.74v125.32h144.39ZM1591.33,812.05c-1-2.7-1.48-5.39-2.88-7.47-4.42-6.6-11.1-8.43-18.56-7.39-7.25,1.01-13.2,4.42-16.05,11.53-4.26,10.64-5.57,21.7-3.41,33.01,1.83,9.6,5.81,17.54,16.19,20.68,5.02,1.52,14.69-.28,18.41-3.89,6.46-6.27,7.79-14.12,6.77-22.49-.92-7.52-7.77-15-13.69-15.32-7.65-.41-15.29-.47-20.43,7.76-.84-7.99.21-14.67,4.65-20.49,5.08-6.68,16.11-6.72,19.3.24,2.07,4.51,4.94,4.96,9.71,3.82ZM1395.96,586.2c0-1.17.09-2.14-.01-3.08-1.38-12.06-2.84-24.12-4.16-36.19-1.47-13.46-2.89-26.92-4.21-40.39-1.22-12.53-2.3-25.07-3.39-37.61-.62-7.06-.57-7.07-7.59-7.07-37.05,0-74.1,0-111.14,0h-4.73v124.34h135.23ZM1260.57,453.99h120.75v-116.47h-120.75v116.47ZM933.32,291.66v-49.98h-91.26v49.98h91.26ZM1137.13,291.66v-43.25h-96.32v43.25h96.32ZM975.09,241.51v50.1h64.36v-50.1h-64.36ZM1207.97,633.85h-62.64v45.79h62.64v-45.79ZM1151.64,589.49h56.32v-44.89h-62.66v36.89h6.34v8ZM1207.87,457.44v-43.21h-62.62v34.84c2.25.13,4.28.26,6.58.39v7.98h56.05ZM1145.2,632.47h62.67v-41.64h-56.16v8.04c-2.46.15-4.48.28-6.51.4v33.2ZM1207.87,500.37v-41.67h-55.94c-.13,2.49-.26,4.79-.39,7.21-2.3.14-4.32.26-6.33.38v34.08h62.66ZM1207.87,543.32v-41.56h-62.63v41.56h62.63ZM1207.91,412.97v-40.87h-62.57v40.87h62.57ZM1207.87,370.76v-39.99h-56.16v24.87c-2.46.15-4.48.27-6.5.39v14.73h62.66ZM973.73,291.68v-50.12h-32.28v50.12h32.28ZM842.06,292.88v36.56h36.51v-36.56h-36.51Z"/>
  <path class="cls-1" d="M1633.46,1079.64c0-357,0-714.01.03-1071.01,0-1.83.53-3.65.81-5.48,0,357.57,0,715.14-.03,1072.7,0,1.26-.53,2.52-.81,3.79Z"/>
  <path class="cls-1" d="M879.93,329.86v-37.07h258.18v-44.49c1.8-.09,3.15-.21,4.51-.21,37.33-.01,74.66.05,111.99-.09,3.87-.01,5,1.02,5.01,4.95.09,23.93.47,47.86.75,71.79.02,1.51,0,3.02,0,4.82-2.26.1-4.18.19-6.42.29v396.3h4.77c38.88,0,77.75,0,116.63,0q5.44,0,5.45,5.61c0,15.15-.14,30.3.1,45.44.06,3.78-1.12,5.88-4.75,6.1-2.9.18-2.95,1.85-2.94,3.97.03,11.08.02,22.16.01,33.24v4.96h75c-.67,6.59-1.23,12.75-1.94,18.88-.7,6.02-1.54,12.02-2.32,18.03-.29,2.18-.14,4.58-1.05,6.47-.54,1.11-2.76,1.97-4.23,1.97-22.31.12-44.63.08-66.94.08h-21.11v-44.47c-.28,0-.56,0-.84,0v48.5h-18.46c-.15,2.16-.27,3.91-.4,5.85h-53.38c-.18-1.39-.37-2.85-.61-4.76h-22.46v-4.93c0-21.32.02-42.64-.05-63.96,0-1.25-.73-2.5-1.67-3.57,1.15,1.89,2.07,54.93.62,72.09h-102.48v-5.36c0-10.1.07-20.2-.05-30.3-.03-2.84,1.25-6.12-2.18-8.23-.49-.3-.29-1.85-.29-2.82-.01-17.67-.05-35.35.08-53.02,0-1.23,1.47-2.39,1.89-3.7.42-1.28.52-2.71.53-4.07.03-25.25.02-50.49.02-75.74v-4.85h57.77v-357.73h-328.74ZM1378.28,728.52h-126.84v-401.2c2.25-.1,4.16-.19,5.76-.27v-76.18h-116.6v44.47h-258.08v32.02h328.67v362.77h-57.76v4.86c0,25.25,0,50.49-.01,75.74,0,1.24.18,3.38-.33,3.58-3.64,1.43-2.08,4.42-2.12,6.71-.16,9.68-.07,19.35-.07,29.03v20.08c18.39-5.08,36.27-10.01,54.79-15.12v10.24h8.13c.09-.71.19-1.24.22-1.77.21-3.87-.93-8.73,1-11.31,1.86-2.49,6.84-2.75,10.51-3.76,10.28-2.84,20.59-5.56,31.53-8.5v22.81h113.61c0-11.96.18-23.71-.1-35.45-.09-3.91.89-5.92,4.91-6.55,1.06-.17,2.64-2.01,2.65-3.1.17-16.11.12-32.23.12-49.1ZM1279.89,878.18h48.56c.11-1.95.21-3.59.33-5.66h18.04v-44.22h-89.61v45.16h22.37c.11,1.79.2,3.16.3,4.71ZM1353.19,868.25h87.52c1.59-13.34,3.18-26.63,4.78-40.03h-92.3v40.03ZM1205.1,829.57v43.66h45.81v-65.82c-11.03,3.13-21.76,6.17-32.74,9.28v12.88h-13.07ZM1153.54,873.15h45.94v-51.46c-15.6,4.3-30.82,8.49-45.94,12.66v38.8ZM1241.17,807.62c-.13-.3-.26-.6-.38-.89-8.04,2.21-16.08,4.42-24.12,6.63.11.38.21.76.32,1.13,8.06-2.29,16.12-4.58,24.18-6.87Z"/>
  <path class="cls-1" d="M354.52,456.72h72.97v-4.82c0-27.91-.07-55.83.08-83.74.02-4.39,1.43-8.77,1.51-13.16.11-5.69-.41-11.39-.77-17.09-.18-2.78.64-4.04,3.73-4.03,33.54.09,67.09.06,100.63.07.4,0,.81.12,1.67.25v28.11h10.02v-28.11h89.33v21.29h10.17v-21.35h89.18v21.42h10.17v-21.33h89.18v21.24h10.17v-21.3h89.18v21.37h11.01v-21.28h88.49v21.34h10.87v-21.41h88.38v393.32h-88.15v-16.31h-10.87v16.37h-88.49v-16.28h-10.86v16.2h-89.33v-16.26h-10c-.12,1.92-.24,3.94-.38,6.23h-88.95v-18.76h-10.01c-.14,1.65-.29,3.39-.46,5.34h-88.86v-18.02h-10.13c-.1,1.71-.2,3.35-.32,5.3h-89.03v-24.71h-10.02v15.5h-105.33v-30.56h-11.01v30.62h-63.75v-225.46ZM357.06,459.27v220.37h58.71v-30.6h16.07v30.54h100.27v-15.48h15.08v24.69h83.95c.12-1.96.23-3.6.33-5.28h15.2v18h83.78c.18-1.96.33-3.7.48-5.32h15.07v18.74h84.12v-6.21h15.21v16.24h84.27v-16.18h15.92v16.27h83.43v-16.35h15.92v16.29h83.08v-388.26h-83.33v21.4h-15.92v-21.34h-83.43v21.28h-16.07v-21.36h-84.13v21.3h-15.22v-21.24h-84.13v21.32h-15.22v-21.41h-84.13v21.35h-15.22v-21.29h-84.27v28.11h-15.07v-28.05h-101.29c.41,5.49,1.19,10.62,1.08,15.72-.14,6.22-1.47,12.42-1.51,18.63-.18,27.77-.08,55.54-.08,83.31v4.81h-72.95Z"/>
  <path class="cls-1" d="M1031.98,738.68h9.62c-.13-.3-.26-.59-.38-.89,1.34-.79,2.67-2.28,4.01-2.28,27.92-.13,55.85-.09,83.77-.08.4,0,.79.14,1.64.31v36.6h6.49v104.26c-2,.13-4.02.27-6.28.42-.1,1.8-.2,3.44-.31,5.39h-89.73c-.14-1.67-.29-3.41-.46-5.36h-7.08c-.15,1.63-.32,3.37-.51,5.39h-91.42c-.1-1.76-.19-3.5-.29-5.42h-7.17c-.15,1.72-.3,3.46-.47,5.44h-90.63v-8.78c-2.3-.13-4.32-.25-6.6-.38v-134.36h6.01c.31-1.25.56-2.25.87-3.51h14.76c23.29,0,46.59-.01,69.88.02,2.24,0,5.38-1.14,4.33,3.26h10.18c-.11-.4-.23-.79-.34-1.19,1.6-.69,3.21-1.99,4.81-2,26.94-.12,53.88-.12,80.82,0,1.61,0,3.21,1.31,4.81,2-.12.39-.23.79-.35,1.18ZM1134.61,874.38v-99.51h-6.49v-36.71c-.98-.11-1.51-.22-2.05-.22-26.1-.01-52.2-.05-78.29.09-1.34,0-2.68,1.47-4.01,2.25.13.27.25.54.38.82h-15.3c.66-3.63-1.72-3.17-3.84-3.17-25.26.01-50.51-.03-75.77.1-1.61,0-3.21,1.29-4.81,1.98.11.37.22.73.33,1.1h-15.29c.66-3.64-1.73-3.17-3.85-3.17-25.54,0-51.07-.03-76.61.09-1.61,0-3.21,1.29-4.82,1.98.12.47.24.95.36,1.42h-5.84v129.33c2.27.13,4.29.25,6.59.38v8.79h85.58c.18-1.97.33-3.71.48-5.31h12.21c.12,1.97.23,3.61.33,5.28h86.44c.09-1.9.17-3.54.26-5.4h12.29c.16,1.94.3,3.68.44,5.37h84.71c.09-1.94.17-3.58.27-5.49h6.3Z"/>
  <path class="cls-1" d="M1492.55,796.37c12.66.81,25.02,1.33,37.32,2.47,9.12.84,13.33,12.64,12.24,19.06-2.23,13.13-10.49,17-21.86,17.36-6.26.19-12.54.03-19.22.03v26.65h-8.48v-65.56ZM1501.17,828.26c2.02,0,3.55,0,5.07,0,5.33,0,10.71.46,15.97-.16,4.16-.5,8.2-2.05,10.41-6.46,3.04-6.05-.23-15.98-6.2-16.43-8.31-.63-16.7-.16-25.25-.16v23.21Z"/>
  <path class="cls-1" d="M1405.11,719.33h-144.39v-125.32h4.74c41.4,0,82.79,0,124.19,0,7.54,0,7.33.12,8.07,7.48,1.45,14.41,3.12,28.8,4.97,43.16,3.19,24.7,2.69,49.49,2.42,74.67ZM1263.11,716.58h139.05c3.18-40.58-3.34-80.17-7.86-119.85h-131.19v119.85Z"/>
  <path class="cls-1" d="M1591.33,812.05c-4.77,1.14-7.64.7-9.71-3.82-3.19-6.96-14.21-6.92-19.3-.24-4.43,5.83-5.49,12.51-4.65,20.49,5.15-8.23,12.78-8.17,20.43-7.76,5.92.32,12.77,7.79,13.69,15.32,1.03,8.37-.31,16.22-6.77,22.49-3.72,3.61-13.39,5.41-18.41,3.89-10.38-3.15-14.36-11.08-16.19-20.68-2.16-11.31-.85-22.37,3.41-33.01,2.85-7.11,8.8-10.53,16.05-11.53,7.46-1.03,14.14.8,18.56,7.39,1.39,2.08,1.87,4.77,2.88,7.47ZM1571.8,856.88c7.4.51,12.92-6.99,13.01-15.72.09-8.68-5.67-14.24-12.18-14.41-9.09-.24-14.43,5.94-14.3,14.41.13,8.29,5.25,15.71,13.47,15.73Z"/>
  <path class="cls-1" d="M1395.96,586.2h-135.23v-124.34h4.73c37.05,0,74.1,0,111.14,0,7.02,0,6.97,0,7.59,7.07,1.09,12.54,2.17,25.09,3.39,37.61,1.31,13.47,2.73,26.94,4.21,40.39,1.32,12.07,2.79,24.12,4.16,36.19.11.94.01,1.91.01,3.08ZM1263.22,464.49v119.08h130.07c-4.14-39.93-8.25-79.53-12.35-119.08h-117.72Z"/>
  <path class="cls-1" d="M1260.57,453.99v-116.47h120.75v116.47h-120.75ZM1263.09,451.46h115.7v-111.42h-115.7v111.42Z"/>
  <path class="cls-1" d="M933.32,291.66h-91.26v-49.98h91.26v49.98ZM930.8,289.14v-44.93h-86.22v44.93h86.22Z"/>
  <path class="cls-1" d="M1137.13,291.66h-96.32v-43.25h96.32v43.25ZM1134.71,250.9h-91.27v38.21h91.27v-38.21Z"/>
  <path class="cls-1" d="M975.09,241.51h64.36v50.1h-64.36v-50.1ZM977.72,244.05v44.93h59.26v-44.93h-59.26Z"/>
  <path class="cls-1" d="M1207.97,633.85v45.79h-62.64v-45.79h62.64ZM1205.45,636.38h-57.58v40.72h57.58v-40.72Z"/>
  <path class="cls-1" d="M1151.64,589.49v-8h-6.34v-36.89h62.66v44.89h-56.32ZM1205.39,587.07v-39.91h-57.67v31.53c2.2.12,4.22.22,6.68.36v8.03h50.99Z"/>
  <path class="cls-1" d="M1207.87,457.44h-56.05v-7.98c-2.3-.14-4.32-.26-6.58-.39v-34.84h62.62v43.21ZM1147.79,416.51v30.04c2.27.13,4.29.25,6.59.38v7.93h50.95v-38.36h-57.54Z"/>
  <path class="cls-1" d="M1145.2,632.47v-33.2c2.03-.13,4.05-.25,6.51-.4v-8.04h56.16v41.64h-62.67ZM1147.74,601.58v28.36h57.59v-36.57h-51.12v8.21h-6.48Z"/>
  <path class="cls-1" d="M1207.87,500.37h-62.66v-34.08c2.02-.12,4.04-.24,6.33-.38.13-2.41.26-4.72.39-7.21h55.94v41.67ZM1154.24,468.72h-6.44v29.02h57.62v-36.45h-51.18v7.43Z"/>
  <path class="cls-1" d="M1207.87,543.32h-62.63v-41.56h62.63v41.56ZM1147.83,504.13v36.52h57.58v-36.52h-57.58Z"/>
  <path class="cls-1" d="M1207.91,412.97h-62.57v-40.87h62.57v40.87ZM1147.73,410.23h57.58v-35.68h-57.58v35.68Z"/>
  <path class="cls-1" d="M1207.87,370.76h-62.66v-14.73c2.01-.12,4.03-.24,6.5-.39v-24.87h56.16v39.99ZM1205.48,333.29h-51.25v24.87c-2.46.15-4.49.27-6.5.39v9.64h57.75v-34.9Z"/>
  <path class="cls-1" d="M973.73,291.68h-32.28v-50.12h32.28v50.12ZM944.02,244.06v44.92h27.28v-44.92h-27.28Z"/>
  <path class="cls-1" d="M842.06,292.88h36.51v36.56h-36.51v-36.56ZM844.53,326.89h31.48v-31.44h-31.48v31.44Z"/>
  <path class="cls-2" d="M1378.28,728.52c0,16.87.05,32.99-.12,49.1-.01,1.09-1.59,2.93-2.65,3.1-4.01.63-5,2.65-4.91,6.55.28,11.74.1,23.49.1,35.45h-113.61v-22.81c-10.94,2.94-21.25,5.66-31.53,8.5-3.67,1.01-8.66,1.27-10.51,3.76-1.93,2.58-.79,7.45-1,11.31-.03.53-.13,1.06-.22,1.77h-8.13v-10.24c-18.52,5.11-36.4,10.05-54.79,15.12v-20.08c0-9.68-.09-19.36.07-29.03.04-2.29-1.52-5.27,2.12-6.71.51-.2.33-2.34.33-3.58.02-25.25.01-50.49.01-75.74v-4.86h57.76v-362.77h-328.67v-32.02h258.08v-44.47h116.6v76.18c-1.6.07-3.52.16-5.76.27v401.2h126.84Z"/>
  <path class="cls-2" d="M1279.89,878.18c-.1-1.56-.19-2.92-.3-4.71h-22.37v-45.16h89.61v44.22h-18.04c-.12,2.07-.22,3.71-.33,5.66h-48.56Z"/>
  <path class="cls-2" d="M1353.19,868.25v-40.03h92.3c-1.6,13.4-3.19,26.69-4.78,40.03h-87.52Z"/>
  <path class="cls-2" d="M1205.1,829.57h13.07v-12.88c10.98-3.11,21.7-6.16,32.74-9.28v65.82h-45.81v-43.66Z"/>
  <path class="cls-2" d="M1153.54,873.15v-38.8c15.12-4.17,30.34-8.36,45.94-12.66v51.46h-45.94Z"/>
  <path class="cls-2" d="M1241.17,807.62c-8.06,2.29-16.12,4.58-24.18,6.87-.11-.38-.21-.76-.32-1.13,8.04-2.21,16.08-4.42,24.12-6.63.13.3.26.6.38.89Z"/>
  <path class="cls-2" d="M357.06,459.27h72.95v-4.81c0-27.77-.1-55.54.08-83.31.04-6.21,1.37-12.41,1.51-18.63.11-5.11-.67-10.24-1.08-15.72h101.29v28.05h15.07v-28.11h84.27v21.29h15.22v-21.35h84.13v21.41h15.22v-21.32h84.13v21.24h15.22v-21.3h84.13v21.36h16.07v-21.28h83.43v21.34h15.92v-21.4h83.33v388.26h-83.08v-16.29h-15.92v16.35h-83.43v-16.27h-15.92v16.18h-84.27v-16.24h-15.21v6.21h-84.12v-18.74h-15.07c-.15,1.63-.3,3.36-.48,5.32h-83.78v-18h-15.2c-.11,1.68-.21,3.31-.33,5.28h-83.95v-24.69h-15.08v15.48h-100.27v-30.54h-16.07v30.6h-58.71v-220.37Z"/>
  <path class="cls-2" d="M1134.61,874.38h-6.3c-.09,1.91-.17,3.55-.27,5.49h-84.71c-.14-1.68-.28-3.43-.44-5.37h-12.29c-.09,1.85-.17,3.49-.26,5.4h-86.44c-.11-1.67-.21-3.31-.33-5.28h-12.21c-.14,1.6-.3,3.34-.48,5.31h-85.58v-8.79c-2.3-.13-4.32-.25-6.59-.38v-129.33h5.84c-.12-.47-.24-.95-.36-1.42,1.61-.69,3.21-1.98,4.82-1.98,25.54-.13,51.07-.09,76.61-.09,2.12,0,4.51-.47,3.85,3.17h15.29c-.11-.37-.22-.73-.33-1.1,1.6-.69,3.2-1.97,4.81-1.98,25.26-.13,50.51-.08,75.77-.1,2.12,0,4.5-.45,3.84,3.17h15.3c-.13-.27-.25-.54-.38-.82,1.34-.78,2.67-2.24,4.01-2.25,26.1-.13,52.2-.1,78.29-.09.54,0,1.07.11,2.05.22v36.71h6.49v99.51Z"/>
  <path class="cls-2" d="M1501.17,828.26v-23.21c8.55,0,16.94-.47,25.25.16,5.97.45,9.23,10.38,6.2,16.43-2.21,4.41-6.25,5.97-10.41,6.46-5.25.63-10.64.16-15.97.16-1.53,0-3.05,0-5.07,0Z"/>
  <path class="cls-2" d="M1263.11,716.58v-119.85h131.19c4.52,39.67,11.04,79.26,7.86,119.85h-139.05Z"/>
  <path class="cls-2" d="M1571.8,856.88c-8.22-.02-13.34-7.44-13.47-15.73-.13-8.47,5.2-14.64,14.3-14.41,6.51.17,12.26,5.73,12.18,14.41-.09,8.73-5.61,16.23-13.01,15.72Z"/>
  <path class="cls-2" d="M1263.22,464.49h117.72c4.1,39.55,8.21,79.15,12.35,119.08h-130.07v-119.08Z"/>
  <path class="cls-2" d="M1263.09,451.46v-111.42h115.7v111.42h-115.7Z"/>
  <path class="cls-2" d="M930.8,289.14h-86.22v-44.93h86.22v44.93Z"/>
  <path class="cls-2" d="M1134.71,250.9v38.21h-91.27v-38.21h91.27Z"/>
  <path class="cls-2" d="M977.72,244.05h59.26v44.93h-59.26v-44.93Z"/>
  <path class="cls-2" d="M1205.45,636.38v40.72h-57.58v-40.72h57.58Z"/>
  <path class="cls-2" d="M1205.39,587.07h-50.99v-8.03c-2.46-.13-4.48-.24-6.68-.36v-31.53h57.67v39.91Z"/>
  <path class="cls-2" d="M1147.79,416.51h57.54v38.36h-50.95v-7.93c-2.3-.13-4.32-.25-6.59-.38v-30.04Z"/>
  <path class="cls-2" d="M1147.74,601.58h6.48v-8.21h51.12v36.57h-57.59v-28.36Z"/>
  <path class="cls-2" d="M1154.24,468.72v-7.43h51.18v36.45h-57.62v-29.02h6.44Z"/>
  <path class="cls-2" d="M1147.83,504.13h57.58v36.52h-57.58v-36.52Z"/>
  <path class="cls-2" d="M1147.73,410.23v-35.68h57.58v35.68h-57.58Z"/>
  <path class="cls-2" d="M1205.48,333.29v34.9h-57.75v-9.64c2.01-.12,4.04-.24,6.5-.39v-24.87h51.25Z"/>
  <path class="cls-2" d="M944.02,244.06h27.28v44.92h-27.28v-44.92Z"/>
  <path class="cls-2" d="M844.53,326.89v-31.44h31.48v31.44h-31.48Z"/>
</svg>