<?xml version="1.0" encoding="UTF-8"?>
<svg id="Capa_1" data-name="Capa 1" xmlns="http://www.w3.org/2000/svg" viewBox="0 0 1920 1080">
  <defs>
    <style>
      .cls-1 {
        fill: #000;
      }

      .cls-1, .cls-2 {
        stroke-width: 0px;
      }

      .cls-2 {
        fill: #fff;
      }
    </style>
  </defs>
  <path class="cls-2" d="M1593.62,1079.64H247c0-359.55,0-719.1,0-1078.64,449.44,0,898.87,0,1348.31,0,0,358.28,0,716.57-.03,1074.85,0,1.26-.53,2.53-.81,3.79V3.75c-.28,0-.56,0-.84,0v1075.89ZM638.5,729.91h88.41c.1-1.93.18-3.57.27-5.35h10.95v16.38h88.34v-16.32h11.01v16.25h88.49v-16.34h10.87v16.27h88.08v-393.44h-88.41v20.51h-10.87v-20.6h-88.34v20.53h-11.01v-20.47h-88.49v20.55h-10.87v-20.49h-88.49v20.42h-11.01v-20.51h-88.34v20.59h-10.87v-20.53h-88.49v27.2h-11.01v-27.28h-105.18v27.77h-11.64c-.77,96.7-1.54,192.94-2.32,289.65h14.22v30.67h105.33v-15.46h10.87v23.98h88.13c.12-1.64.23-3.1.33-4.56h10.87v17.14h88.1c.19-1.69.36-3.16.53-4.61h10.55v18.04ZM1039.77,368.02v93.67h6.2v17.42c-2.26.14-4.28.26-6.3.38v114.99c2.19.11,4.22.21,6.25.31v16.77h-6.21v112.57c2.25.14,4.27.27,6.5.41v4.93c0,22.45.12,44.9-.12,67.35-.04,3.87,1.51,5.2,4.74,5.77,13.09,2.32,26.18,4.63,39.27,6.95-.05.29-.09.59-.14.88-14.43-2.38-28.85-4.75-43.53-7.17v85.81h53.34c.14-.54.27-.8.27-1.07.02-24.27.08-48.55-.07-72.82,0-1.4-1.7-2.79-2.55-4.08,3.21-.83,3.55,1.35,3.54,4.3-.06,23.01-.03,46.02-.03,69.04v4.66h46.85v-49.56h-11.37c0-.28,0-.56,0-.84h12.03c-1.62-6.64,1.96-13.33-2.43-19.15,2.54-.53,2.96,1.14,2.94,3.42-.05,5.15-.02,10.31-.02,15.6h120.85v-41.51c.57-.21,1.45-.85,2.31-.81,4.89.21,4.97-2.75,4.92-6.49-.17-13.05-.07-26.1-.07-39.15v-11.14h-5.01c-14.17,0-28.35.07-42.52-.09-1.61-.02-3.21-1.28-4.81-1.97.11-.37.22-.74.33-1.11h-55.37c-1.33,1.43-2.1,3.01-2.93,3.04-6.11.21-12.23.11-18.34.11v-7.36h19.4c-.11.38-.21.76-.32,1.13,1.6.68,3.2,1.92,4.8,1.94,16.56.14,33.12.15,49.68,0,1.61-.02,3.22-1.35,4.82-2.07-.12-.46-.25-.93-.37-1.39h73.37c0-1.28.03-2.24,0-3.2-.6-19.53,1.32-39.11-1.59-58.61-1.35-9.02-1.74-18.18-2.69-27.26-1.01-9.61-2.21-19.19-3.28-28.8-.66-5.91-1.15-11.84-1.83-17.75-1.03-8.91-2.23-17.79-3.21-26.7-.96-8.66-1.69-17.34-2.62-26.01-1.04-9.74-2.22-19.48-3.29-29.22-.64-5.77-1.15-11.56-1.77-17.34-1.07-9.88-3.04-19.75-3.14-29.64-.38-37.18-.15-74.37-.15-111.55v-4.88h-230.01v17.28h-6.35ZM936.42,341.28c-.24,3.45,2.02,3.32,4.53,3.31,26.67-.06,53.33-.06,80,0,2.51,0,4.77.15,4.54-3.17h20.85v7.84h55.22v-43.58h-69.74v-45.14c-2.31-.15-4.34-.27-6.48-.41-.14-2.29-.26-4.31-.39-6.33h-89.72c-.13,2.2-.25,4.23-.36,6.25h-7.47v-6.2h-58.17v62.7h-34.45v-10.43h-98.48c0,8.86-.15,17.41.06,25.96.1,4.17.86,8.32,1.32,12.46,29.29,0,57.5.03,85.71-.1,1.34,0,2.68-1.43,4.02-2.2-.13-.29-.25-.58-.38-.87h10.26c-.65,3.59,1.69,3.18,3.83,3.18,26.95-.01,53.9.03,80.84-.1,1.61,0,3.21-1.29,4.81-1.98-.11-.4-.23-.8-.34-1.21h9.98ZM1045.08,889.44v-138.25h-19.85c.64-3.59-1.59-3.32-3.78-3.32-26.94.02-53.88-.02-80.82.1-1.6,0-3.2,1.25-4.8,1.91.1.4.21.79.31,1.19h-10.27c.63-3.49-1.62-3.2-3.8-3.2-26.94.02-53.88-.02-80.82.1-1.6,0-3.2,1.25-4.8,1.92.1.39.21.79.31,1.18h-10.27c.63-3.51-1.63-3.2-3.8-3.2-26.94.02-53.88-.02-80.82.1-1.6,0-3.2,1.25-4.8,1.92.11.48.22.97.32,1.45h-7.59v134.76h8.41v9.76h89.71c.14-2.24.27-4.26.4-6.19h7.52v6.15h91.49c.13-2.28.25-4.3.36-6.26h8.01c.15,2.21.29,4.24.43,6.23h89.16v-6.35h19.81ZM1409.12,852.63v-26.71c7.13,0,13.84.03,20.55,0,10.58-.06,17.31-5.43,19.72-15.64,2.42-10.28-2.82-19.02-12.92-21.39-1.61-.38-3.32-.44-4.98-.45-10.29-.04-20.57-.02-31.06-.02v64.21h8.7ZM1102.68,349.38h45.16v-88.71h-114.88v44.39h69.71v44.32ZM1458.48,796.6h31.16c-12.1,17.32-20.83,35.18-22.03,55.93h7.75c.68-16.97,7.5-31.54,15.62-45.6,2.13-3.68,5.35-6.73,7.45-10.43,1.22-2.15,1.21-5.01,1.76-7.58h-41.7v7.69ZM1150.94,839.84v49.72h22.27c.14,1.8.25,3.16.37,4.59h53.5c.18-1.98.33-3.72.51-5.73h17.99v-48.57h-94.63ZM736.6,260.53v44.11h98v-44.11h-98ZM1246.74,885.13h37.27c16.98,0,33.95.05,50.93-.09,1.44-.01,3.79-.99,4.14-2.04.85-2.56.76-5.43,1.06-8.18.79-7.13,1.65-14.26,2.36-21.4.44-4.48.67-8.98.99-13.44h-96.74v45.15ZM835.86,315.62h32.33v-61.78h-32.33v61.78Z"/>
  <path class="cls-1" d="M1593.62,1079.64V3.75c.28,0,.56,0,.84,0v1075.89h-.84Z"/>
  <path class="cls-1" d="M638.5,729.91v-18.04h-10.55c-.17,1.46-.33,2.92-.53,4.61h-88.1v-17.14h-10.87c-.11,1.46-.21,2.92-.33,4.56h-88.13v-23.98h-10.87v15.46h-105.33v-30.67h-14.22c.77-96.71,1.54-192.95,2.32-289.65h11.64v-27.77h105.18v27.28h11.01v-27.2h88.49v20.53h10.87v-20.59h88.34v20.51h11.01v-20.42h88.49v20.49h10.87v-20.55h88.49v20.47h11.01v-20.53h88.34v20.6h10.87v-20.51h88.41v393.44h-88.08v-16.27h-10.87v16.34h-88.49v-16.25h-11.01v16.32h-88.34v-16.38h-10.95c-.09,1.79-.17,3.43-.27,5.35h-88.41ZM724.29,727.47c.18-2.02.34-3.76.49-5.48h15.78v16.32h83.44v-16.26h16.07v16.34h83.29v-16.27h16.07v16.21h82.87v-388.48h-83.16v20.61h-15.92v-20.54h-83.44v20.48h-16.07v-20.56h-83.29v20.5h-16.07v-20.43h-83.44v20.52h-15.92v-20.6h-83.29v20.53h-16.07v-20.47h-83.44v27.29h-15.92v-27.22h-100.28v27.57h-11.23c-1.87,33.3-.53,66.17-1.55,99.05-1.86,60.14-.53,120.39-.53,180.59v4.95h13.69v30.81h100.13v-15.56h15.92v23.94h83.17c.13-1.65.24-3.01.36-4.52h15.95v17.23h83.07c.12-1.64.23-3.11.34-4.55h15.93v18.02h83.06Z"/>
  <path class="cls-1" d="M1039.77,368.02h6.35v-17.28h230.01v4.88c0,37.18-.23,74.37.15,111.55.1,9.89,2.07,19.76,3.14,29.64.63,5.78,1.14,11.56,1.77,17.34,1.07,9.74,2.25,19.47,3.29,29.22.93,8.66,1.66,17.35,2.62,26.01.99,8.91,2.19,17.8,3.21,26.7.68,5.91,1.17,11.84,1.83,17.75,1.06,9.6,2.26,19.19,3.28,28.8.96,9.08,1.34,18.24,2.69,27.26,2.92,19.5.99,39.08,1.59,58.61.03.96,0,1.91,0,3.2h-73.37c.12.46.25.93.37,1.39-1.61.72-3.21,2.06-4.82,2.07-16.56.15-33.12.15-49.68,0-1.61-.01-3.2-1.26-4.8-1.94.11-.38.21-.76.32-1.13h-19.4v7.36c6.11,0,12.23.1,18.34-.11.83-.03,1.61-1.61,2.93-3.04h55.37c-.11.37-.22.74-.33,1.11,1.6.69,3.2,1.95,4.81,1.97,14.17.16,28.35.09,42.52.09h5.01v11.14c0,13.05-.11,26.1.07,39.15.05,3.74-.03,6.71-4.92,6.49-.85-.04-1.73.6-2.31.81v41.51h-120.85c0-5.29-.04-10.45.02-15.6.02-2.28-.39-3.95-2.94-3.42,4.39,5.81.81,12.51,2.43,19.15h-12.03c0,.28,0,.56,0,.84h11.37v49.56h-46.85v-4.66c0-23.01-.03-46.02.03-69.04,0-2.96-.33-5.13-3.54-4.3.84,1.29,2.54,2.68,2.55,4.08.15,24.27.09,48.55.07,72.82,0,.26-.13.52-.27,1.07h-53.34v-85.81c14.67,2.42,29.1,4.79,43.53,7.17.05-.29.09-.59.14-.88-13.09-2.32-26.18-4.63-39.27-6.95-3.23-.57-4.78-1.9-4.74-5.77.24-22.45.12-44.9.12-67.35v-4.93c-2.23-.14-4.25-.27-6.5-.41v-112.57h6.21v-16.77c-2.03-.1-4.06-.2-6.25-.31v-114.99c2.02-.12,4.04-.24,6.3-.38v-17.42h-6.2v-93.67ZM1042.3,370.56v88.61h6.2v22.47c-2.25.14-4.27.26-6.16.38v109.97c2.25.11,4.17.2,6.13.29v21.8h-6.24v107.5c2.23.16,4.25.3,6.71.48v11.31h96.49c.12-1.37.23-2.55.36-4,7.29,0,14.29-.13,21.27.1,1.63.05,3.21,1.3,4.82,2-.12.39-.23.79-.35,1.18h51.24c-.29-3.53,2.04-3.31,4.52-3.31,21.75.05,43.5.03,65.25.03h4.64c0-2,0-3.39,0-4.78.06-21.89.56-43.8-2.5-65.58-.77-5.47-1.16-11-1.79-16.49-1.07-9.46-2.22-18.91-3.28-28.37-.68-6.05-1.18-12.11-1.87-18.15-1.01-8.91-2.19-17.8-3.17-26.71-.95-8.66-1.69-17.34-2.62-26-1.04-9.6-2.22-19.19-3.28-28.79-.65-5.91-1.16-11.84-1.81-17.75-1.05-9.6-3.01-19.19-3.1-28.8-.37-36.61-.15-73.23-.15-109.85v-4.81h-224.97v17.28h-6.34ZM1048.75,737.88c0,20.15-.03,39.9.09,59.65,0,.85,1.24,2.29,2.09,2.45,15.8,2.94,31.62,5.75,47.45,8.52,3.33.58,5.81,1.54,5.16,5.75-.33,2.14-.06,4.38-.06,6.6h11.01v-8.49c.52-.22.77-.44.99-.4,10.72,1.71,21.45,3.4,32.16,5.18,2.79.46,4.17,1.93,3.92,5.15-.35,4.55-.09,9.15-.09,13.71h116.22c0-5.61.11-10.93-.03-16.25-.14-5.42-.68-10.83-.78-16.25-.14-8.08-.04-8.08,7.27-10.55v-50.96c-15.97,0-31.66.06-47.35-.09-1.61-.02-3.21-1.33-4.82-2.05.12-.37.24-.75.36-1.12h-49.84c-1.71,1.46-2.75,3.11-3.83,3.14-7.54.23-15.1.12-22.71.12-.32-1.57-.58-2.85-.83-4.1h-96.4ZM1048.9,886.57h48.29c.17-.49.34-.75.34-1,.03-22.84.01-45.68.11-68.53.01-2.68-1.46-3.16-3.55-3.5-15.01-2.41-30.01-4.87-45.19-7.34v80.36ZM1103.78,825.28v61.2h41.58v-44.37h-12.09v-5.93h12.3c0-4.06.16-7.82-.11-11.55-.07-.93-1.45-2.37-2.41-2.54-8.04-1.43-16.12-2.62-24.53-3.94v7.14h-14.75Z"/>
  <path class="cls-1" d="M936.42,341.28h-9.98c.11.4.23.8.34,1.21-1.6.69-3.21,1.97-4.81,1.98-26.95.12-53.9.08-80.84.1-2.14,0-4.48.41-3.83-3.18h-10.26c.13.29.25.58.38.87-1.34.77-2.68,2.19-4.02,2.2-28.21.13-56.42.1-85.71.1-.46-4.15-1.22-8.3-1.32-12.46-.21-8.54-.06-17.1-.06-25.96h98.48v10.43h34.45v-62.7h58.17v6.2h7.47c.12-2.02.24-4.05.36-6.25h89.72c.12,2.02.25,4.04.39,6.33,2.13.13,4.17.26,6.48.41v45.14h69.74v43.58h-55.22v-7.84h-20.85c.24,3.32-2.03,3.17-4.54,3.17-26.67-.06-53.33-.06-80,0-2.51,0-4.77.14-4.53-3.31ZM738.63,308.55c1.18,11.29-1.68,22.5,1.94,33.27h82.97c-.14-.39-.28-.78-.42-1.17,1.23-.67,2.62-2.09,3.67-1.87,4.59.97,10.34-2.99,14.23,3.14h81.94c-.26-3.49,2.11-3.83,4.51-3.21,4.15,1.08,9.65-3.07,12.69,3.2h81.35c1.13-1.29,1.98-3.1,2.87-3.13,8.07-.22,16.15-.13,24.51-.13v8.13h50.07v-38.6h-69.67v-26.16h-67.43v-25.62h-24.34v6.22h-12.38c-.14-2.24-.27-4.26-.4-6.16h-53.02v62.52h-39.49v-10.44h-93.59ZM967.24,276.95h61.85v-13.9c-2.3-.15-4.33-.28-6.32-.4-.11-2.35-.2-4.27-.29-6.22h-55.23v20.53Z"/>
  <path class="cls-1" d="M1045.08,889.44h-19.81v6.35h-89.16c-.14-1.99-.28-4.02-.43-6.23h-8.01c-.11,1.96-.23,3.99-.36,6.26h-91.49v-6.15h-7.52c-.12,1.92-.25,3.95-.4,6.19h-89.71v-9.76h-8.41v-134.76h7.59c-.11-.48-.22-.97-.32-1.45,1.6-.67,3.2-1.91,4.8-1.92,26.94-.12,53.88-.08,80.82-.1,2.17,0,4.43-.31,3.8,3.2h10.27c-.1-.39-.21-.79-.31-1.18,1.6-.67,3.2-1.91,4.8-1.92,26.94-.12,53.88-.08,80.82-.1,2.18,0,4.43-.3,3.8,3.2h10.27c-.1-.4-.21-.79-.31-1.19,1.6-.67,3.2-1.9,4.8-1.91,26.94-.12,53.88-.08,80.82-.1,2.19,0,4.41-.27,3.78,3.32h19.85v138.25ZM925.05,893.39v-6.33h13.2c.14,2.26.26,4.28.38,6.29h83.86c.1-2.19.2-4.22.32-6.67h19.7v-132.93h-19.23c.11-.43.23-.85.34-1.28-1.6-.69-3.2-1.97-4.81-1.98-25.26-.13-50.51-.13-75.77,0-1.61,0-3.21,1.31-4.81,2.01.12.39.23.78.35,1.17h-14.67c.11-.4.22-.8.34-1.21-1.6-.69-3.2-1.97-4.81-1.98-25.26-.13-50.51-.13-75.77,0-1.61,0-3.21,1.31-4.82,2.02.12.39.23.78.35,1.16h-15.25c1.08-3.97-1.65-3.27-3.9-3.27-25.26,0-50.51-.04-75.77.09-1.61,0-3.21,1.32-4.82,2.02.12.47.24.94.36,1.41h-7.47v129.71h8.29v9.65h84.75c.13-2.28.25-4.3.37-6.26h12.21c.16,2.22.3,4.24.45,6.36h86.61Z"/>
  <path class="cls-1" d="M1409.12,852.63h-8.7v-64.21c10.49,0,20.78-.02,31.06.02,1.66,0,3.37.07,4.98.45,10.1,2.37,15.34,11.11,12.92,21.39-2.41,10.22-9.14,15.58-19.72,15.64-6.71.04-13.42,0-20.55,0v26.71ZM1409.14,818.88c7.25,0,14,.38,20.68-.14,4.37-.34,8.5-2,10.76-6.56,2.96-5.95-.04-15.72-5.9-16.25-8.42-.76-16.96-.19-25.54-.19v23.14Z"/>
  <path class="cls-1" d="M1102.68,349.38v-44.32h-69.71v-44.39h114.88v88.71h-45.16ZM1035.47,302.6h69.79v44.22h40.02v-83.74h-109.81v39.52Z"/>
  <path class="cls-1" d="M1458.48,796.6v-7.69h41.7c-.55,2.58-.54,5.43-1.76,7.58-2.1,3.69-5.32,6.75-7.45,10.43-8.12,14.06-14.94,28.63-15.62,45.6h-7.75c1.19-20.75,9.93-38.61,22.03-55.93h-31.16Z"/>
  <path class="cls-1" d="M1150.94,839.84h94.63v48.57h-17.99c-.18,2.01-.33,3.75-.51,5.73h-53.5c-.11-1.43-.22-2.79-.37-4.59h-22.27v-49.72ZM1224.92,885.94h18.08v-43.44h-89.49v44.48h22.2c.15,1.74.28,3.2.4,4.61h48.52c.1-1.93.18-3.57.29-5.64Z"/>
  <path class="cls-1" d="M736.6,260.53h98v44.11h-98v-44.11ZM739.02,302.16h92.95v-39.07h-92.95v39.07Z"/>
  <path class="cls-1" d="M1246.74,885.13v-45.15h96.74c-.32,4.46-.55,8.96-.99,13.44-.71,7.14-1.57,14.27-2.36,21.4-.3,2.75-.21,5.62-1.06,8.18-.35,1.05-2.69,2.03-4.14,2.04-16.98.14-33.95.09-50.93.09h-37.27ZM1249.38,882.45h87.43c1.36-13.32,2.72-26.57,4.1-40.05h-91.52v40.05Z"/>
  <path class="cls-1" d="M835.86,315.62v-61.78h32.33v61.78h-32.33ZM865.65,313.23v-56.85h-27.18v56.85h27.18Z"/>
  <path class="cls-2" d="M724.29,727.47h-83.06v-18.02h-15.93c-.11,1.44-.22,2.92-.34,4.55h-83.07v-17.23h-15.95c-.12,1.51-.23,2.87-.36,4.52h-83.17v-23.94h-15.92v15.56h-100.13v-30.81h-13.69v-4.95c0-60.2-1.33-120.44.53-180.59,1.02-32.88-.32-65.75,1.55-99.05h11.23v-27.57h100.28v27.22h15.92v-27.29h83.44v20.47h16.07v-20.53h83.29v20.6h15.92v-20.52h83.44v20.43h16.07v-20.5h83.29v20.56h16.07v-20.48h83.44v20.54h15.92v-20.61h83.16v388.48h-82.87v-16.21h-16.07v16.27h-83.29v-16.34h-16.07v16.26h-83.44v-16.32h-15.78c-.15,1.72-.31,3.46-.49,5.48Z"/>
  <path class="cls-2" d="M1042.3,370.56h6.34v-17.28h224.97v4.81c0,36.62-.22,73.24.15,109.85.1,9.61,2.05,19.2,3.1,28.8.65,5.91,1.16,11.84,1.81,17.75,1.06,9.6,2.25,19.19,3.28,28.79.93,8.66,1.67,17.34,2.62,26,.98,8.91,2.16,17.8,3.17,26.71.69,6.04,1.2,12.11,1.87,18.15,1.06,9.46,2.21,18.91,3.28,28.37.62,5.49,1.02,11.02,1.79,16.49,3.06,21.78,2.56,43.68,2.5,65.58,0,1.39,0,2.78,0,4.78h-4.64c-21.75,0-43.5.02-65.25-.03-2.48,0-4.81-.22-4.52,3.31h-51.24c.12-.39.23-.79.35-1.18-1.6-.7-3.19-1.95-4.82-2-6.99-.22-13.98-.1-21.27-.1-.13,1.45-.24,2.63-.36,4h-96.49v-11.31c-2.45-.17-4.48-.32-6.71-.48v-107.5h6.24v-21.8c-1.96-.09-3.87-.18-6.13-.29v-109.97c1.89-.11,3.9-.24,6.16-.38v-22.47h-6.2v-88.61Z"/>
  <path class="cls-2" d="M1048.75,737.88h96.4c.25,1.25.51,2.53.83,4.1,7.62,0,15.17.11,22.71-.12,1.08-.03,2.11-1.68,3.83-3.14h49.84c-.12.37-.24.75-.36,1.12,1.61.71,3.21,2.03,4.82,2.05,15.69.16,31.38.09,47.35.09v50.96c-7.31,2.47-7.41,2.47-7.27,10.55.09,5.42.63,10.83.78,16.25.14,5.31.03,10.63.03,16.25h-116.22c0-4.57-.26-9.16.09-13.71.25-3.22-1.13-4.68-3.92-5.15-10.71-1.78-21.44-3.48-32.16-5.18-.22-.03-.48.19-.99.4v8.49h-11.01c0-2.22-.27-4.45.06-6.6.65-4.21-1.82-5.17-5.16-5.75-15.83-2.77-31.65-5.58-47.45-8.52-.85-.16-2.09-1.6-2.09-2.45-.12-19.75-.09-39.5-.09-59.65Z"/>
  <path class="cls-2" d="M1048.9,886.57v-80.36c15.17,2.47,30.18,4.92,45.19,7.34,2.08.33,3.56.82,3.55,3.5-.1,22.84-.08,45.68-.11,68.53,0,.25-.16.5-.34,1h-48.29Z"/>
  <path class="cls-2" d="M1103.78,825.28h14.75v-7.14c8.41,1.32,16.49,2.51,24.53,3.94.96.17,2.34,1.61,2.41,2.54.28,3.73.11,7.49.11,11.55h-12.3v5.93h12.09v44.37h-41.58v-61.2Z"/>
  <path class="cls-2" d="M738.63,308.55h93.59v10.44h39.49v-62.52h53.02c.12,1.9.25,3.92.4,6.16h12.38v-6.22h24.34v25.62h67.43v26.16h69.67v38.6h-50.07v-8.13c-8.36,0-16.44-.09-24.51.13-.89.02-1.73,1.84-2.87,3.13h-81.35c-3.04-6.28-8.53-2.12-12.69-3.2-2.4-.63-4.77-.29-4.51,3.21h-81.94c-3.89-6.13-9.64-2.18-14.23-3.14-1.04-.22-2.44,1.2-3.67,1.87.14.39.28.78.42,1.17h-82.97c-3.62-10.78-.76-21.98-1.94-33.27Z"/>
  <path class="cls-2" d="M967.24,276.95v-20.53h55.23c.09,1.96.18,3.88.29,6.22,1.99.13,4.02.26,6.32.4v13.9h-61.85Z"/>
  <path class="cls-2" d="M925.05,893.39h-86.61c-.15-2.12-.3-4.14-.45-6.36h-12.21c-.12,1.96-.23,3.98-.37,6.26h-84.75v-9.65h-8.29v-129.71h7.47c-.12-.47-.24-.94-.36-1.41,1.61-.7,3.21-2.01,4.82-2.02,25.26-.13,50.51-.09,75.77-.09,2.25,0,4.98-.7,3.9,3.27h15.25c-.12-.39-.23-.78-.35-1.16,1.61-.7,3.21-2.01,4.82-2.02,25.26-.13,50.51-.13,75.77,0,1.61,0,3.21,1.29,4.81,1.98-.11.4-.22.8-.34,1.21h14.67c-.12-.39-.23-.78-.35-1.17,1.6-.7,3.21-2,4.81-2.01,25.26-.13,50.51-.13,75.77,0,1.61,0,3.21,1.29,4.81,1.98-.11.43-.23.85-.34,1.28h19.23v132.93h-19.7c-.12,2.45-.21,4.48-.32,6.67h-83.86c-.12-2.01-.24-4.03-.38-6.29h-13.2v6.33Z"/>
  <path class="cls-2" d="M1409.14,818.88v-23.14c8.59,0,17.12-.57,25.54.19,5.86.53,8.86,10.3,5.9,16.25-2.26,4.56-6.39,6.23-10.76,6.56-6.68.52-13.43.14-20.68.14Z"/>
  <path class="cls-2" d="M1035.47,302.6v-39.52h109.81v83.74h-40.02v-44.22h-69.79Z"/>
  <path class="cls-2" d="M1224.92,885.94c-.1,2.07-.19,3.72-.29,5.64h-48.52c-.12-1.41-.25-2.87-.4-4.61h-22.2v-44.48h89.49v43.44h-18.08Z"/>
  <path class="cls-2" d="M739.02,302.16v-39.07h92.95v39.07h-92.95Z"/>
  <path class="cls-2" d="M1249.38,882.45v-40.05h91.52c-1.38,13.48-2.73,26.73-4.1,40.05h-87.43Z"/>
  <path class="cls-2" d="M865.65,313.23h-27.18v-56.85h27.18v56.85Z"/>
</svg>