<?xml version="1.0" encoding="UTF-8"?>
<svg id="Capa_1" data-name="Capa 1" xmlns="http://www.w3.org/2000/svg" viewBox="0 0 1920 1080">
  <defs>
    <style>
      .cls-1 {
        fill: #000;
      }

      .cls-1, .cls-2 {
        stroke-width: 0px;
      }

      .cls-2 {
        fill: #fff;
      }
    </style>
  </defs>
  <path class="cls-2" d="M1632.62,1079.64H286c0-359.55,0-719.1,0-1078.64,449.44,0,898.87,0,1348.31,0,0,358.28,0,716.57-.03,1074.85,0,1.26-.53,2.53-.81,3.79V3.75c-.28,0-.56,0-.84,0v1075.89ZM1074.66,275.97s0-.02,0-.02c-.63.41-1.23,1.14-1.88,1.18-5.98.37-11.96.74-17.94.87-16.08.35-32.17.59-48.26.86-.94.02-1.89-.13-2.83-.2,7.95-.69,15.87-1.33,23.8-1.36,3.8-.02,4.78-1.27,4.69-4.87-.22-8.84-.07-17.68-.07-26.52v-23.19h-58.65v57.14h8.86c-1.8.71-3.6.84-5.38.68-3.01-.28-3.96,1.05-3.84,3.93.18,3.92.04,7.86.04,11.79,0,4.84,0,9.68,0,14.63,1.81,0,2.93.05,4.05,0,18.55-1.01,37.18,1.89,55.73-1.49,4.01-.73,8.46,1.38,12.71,1.42,21.47.17,42.95.26,64.42-.03,7.19-.1,14.34.84,21.68-1.26,5.54-1.58,11.9-.31,18-.31v26.77c-2.28.14-4.3.26-6.25.37v93.89c2.23.16,4.25.31,6.21.45v16.75h-6.16v115.05c2.28.14,4.3.26,6.25.37v17.26c-2.23.16-4.25.3-6.2.44v111.9h6.15v27h-9.6v87.45h9.27c.63,2.5,1.14,4.49,1.35,5.35-1.57,15.49-.3,30.12-.8,44.82h50.59c0-18.5.02-36.72-.05-54.94,0-.91-.81-1.82-1.24-2.73,1.3.73,2.07,1.84,2.08,2.96.08,13.75.05,27.5.05,41.26,0,4.45,0,8.9,0,13.46h50.59v-70.39l.84-.02v18.99h123.74c0-11.69.04-23.05-.03-34.41-.01-2.38.25-3.96,3.27-4.12,3.18-.17,4.49-1.94,4.44-5.53-.23-17.82-.11-35.64-.11-53.47v-4.03c-10.23,0-20.02-.09-29.81.09-1.61.03-3.2,1.26-4.8,1.93.11.39.21.77.32,1.16h-19.53c.64-3.55-1.67-3.19-3.82-3.19-16.56.02-33.12-.05-49.68.1-1.61.01-3.21,1.28-4.81,1.97.11.37.22.74.33,1.11h-20.5c.97-3.4-1.15-3.19-3.27-3.18-10.39.04-20.77.02-31.16,0-1.05,0-2.1-.09-3.16-.14.03-.3.07-.6.1-.9h37.32v-36.54h-39.45c.39,7.37.76,14.41,1.14,21.46-1.3-7.92-2.06-15.87-2.68-23.82-.63-8.02-1.17-16.06-1.68-24.09-.87-13.59-1.75-27.17-2.53-40.77-.64-11.25-1.1-22.52-1.73-33.77-.28-5.12-.79-10.23-1.15-15.35-.57-8.14-1.09-16.29-1.64-24.43,1.7,12.62,2.81,25.27,3.56,37.94.19,3.13,1.1,4.1,4.18,4.07,11.79-.14,23.58-.06,35.37-.06,2.19,0,4.38,0,6.54,0v-62.11h-50.06c-.12,1.97-.22,3.76-.33,5.55-.13-.02-.27-.03-.4-.05-.72-12.22-1.44-24.44-2.16-36.65,1.34,8.67,2.21,17.36,2.63,26.07.15,3.11,1.04,4.13,4.16,4.1,13.33-.13,26.67-.06,40-.06,2.05,0,4.11,0,6.16,0v-62.12h-54.26c-.13,1.97-.24,3.78-.36,5.59-.66-3.25-.53-6.46-.7-9.66-.17-3.12-.64-6.22-.98-9.33q1.38,6.47,8.41,6.47h177.6v-116.71h-192.42c-.12,2.32-.22,4.31-.32,6.3-.11-.01-.22-.03-.33-.04v-14.32h70.12v-81.74h-11.37c-.11-2.37-.21-4.29-.3-6.23h-79.49v20.1h39.89v28.34c-.22,0-.45.02-.67.02v-9.22h-14.21c0-.28,0-.56,0-.84h13.91v-17.78h-69.66v-14.38h-6.8v-6.27h-90.49v53.62c10.51,0,20.7.02,30.88-.02,1.52,0,3.04-.24,4.56-.36ZM1030.32,335.92v-20.63h-89.19v20.51h-10.17v-20.45h-89.34v20.53h-10.87v-20.61h-88.34v20.54h-11.01v-20.48h-88.49v20.56h-10.87v-20.49h-88.49v27.16h-11.01v-27.24h-104.24c-.84,11.09-2.25,21.89-2.38,32.7-.34,28.2-.11,56.41-.11,84.62,0,1.47,0,2.93,0,4.71h-72.12v226.11h62.92v-30.63h11.01v30.56h105.34v-15.49h10.87v23.85h88.15c.13-1.69.24-3.05.35-4.43h10.98v18h87.99c.18-1.97.34-3.71.48-5.32h10.86v17.9h88.13c.1-1.92.18-3.56.27-5.36h10.94v16.39h89.19v-16.32h10.17v16.25h89.34v-16.34h10.03v16.27h88.92v-393.43h-89.12v20.55h-10.17ZM830.87,705.68c-33.59.63-66.73-.93-99.94,1.11v150.55h54.09c115.21,0,230.42,0,345.63.04,3.15,0,5.18-.03,5.19-4.32.12-42.74.47-85.48.75-128.22,0-1.4.03-2.81,0-4.21-.03-1.21-.15-2.43-.21-3.45-.42-.23-.54-.35-.66-.35-30.87-.04-61.74-.09-92.61-.05-.85,0-1.67,1.17-2.54,1.25-3.31.29-6.65.51-9.97.41-1.17-.04-2.3-1.63-3.45-1.63-27.5-.1-55.01-.1-82.51,0-1.17,0-2.31,1.48-3.52,1.57-3.56.26-7.16.34-10.73.13-1.3-.08-2.55-1.69-3.82-1.69-27.08-.1-54.17-.08-81.25-.07-.97,0-2.46-.22-2.82.28-3.32,4.69-7.66,1.04-11.62,2.35v-13.69ZM1486.62,765.91v65.65h8.45c0-4.55,0-8.87,0-13.18s0-8.84,0-13.51c6.87,0,13.03.13,19.18-.03,11.04-.28,19.68-4.04,21.94-17.27,1.09-6.36-3.09-18.31-12.11-19.15-12.31-1.15-24.68-1.68-37.46-2.5ZM1259.8,575.27v124.31h148.72c-.82-12.71-1.4-25.08-2.49-37.4-1.13-12.79-2.8-25.54-4.14-38.31-1.47-14.03-2.77-28.07-4.27-42.09-.7-6.52-.83-6.51-7.68-6.51-41.68,0-83.37,0-125.05,0h-5.08ZM1259.83,442.23v125.18h135.29c0-1.26.1-2.25-.02-3.22-1.37-11.5-2.88-22.99-4.15-34.5-1.27-11.54-2.22-23.11-3.44-34.66-1.61-15.24-3.42-30.45-4.99-45.69-.73-7.06-.6-7.11-7.56-7.11-35.77,0-71.54,0-107.3,0h-7.83ZM1544.75,815.23c-.19,9.32,8.81,18.85,22.32,17.32,10.13-1.14,19.12-9.51,19.81-21.56.37-6.4-1.12-12.05-5.92-16.55-8.11-7.6-17.41-5.5-26.97-2.54.94-4.6,2.02-8.47,2.46-12.41.36-3.21,1.7-4.23,4.83-4.16,7.25.17,14.5.05,21.85.05v-7.87c-9.75,0-19.13-.08-28.51.11-1.13.02-3.01,1.33-3.22,2.32-2.13,10.04-3.98,20.15-5.91,30.24,6.33,1.01,6.49.97,10.66-2.58,3.53-3.01,15.04-2.6,18.1.64,7.43,7.83,5.94,21.84-3.85,27-5.69,3-14.61.18-16.94-5.84-2.08-5.38-2.44-5.55-8.73-4.18ZM840.14,273.82c0,10.72,0,20.93,0,31.14,0,5.31.61,5.91,5.96,5.91,40.67,0,81.35,0,122.02,0,1.34,0,2.69-.12,3.89-.18v-36.63h-67.14v17.19c-.73-4.63-.8-9.24-.7-13.85.05-2.39-.61-3.62-3.29-3.61-20.04.06-40.09.04-60.74.04ZM1259.84,241.16v69.37h90.42v-69.37h-90.42ZM836.78,272.67h101.56v-44.18c-2.26-.12-4.18-.23-6.17-.34-.18-2-.33-3.73-.48-5.41h-91.42c-.09,1.94-.17,3.59-.24,5.24-1.68.65-3.12,1.73-3.13,2.83-.15,13.86-.1,27.73-.1,41.86ZM1253.1,807v50.57h22.27c.14,1.8.25,3.16.36,4.58h53.5c.18-1.98.33-3.72.51-5.74h17.98v-49.41h-94.63ZM1348.97,853.14c30.02,0,59.59-.01,89.15.02,2.24,0,3.13-.72,3.4-3.1,1.25-11.22,2.76-22.42,4.13-33.63.37-3.08.57-6.18.86-9.34h-97.53v46.04ZM1251.76,575.57h-45.27c0,2.25-.11,4.21.02,6.15.8,11.62,1.58,23.24,2.53,34.85.54,6.7.67,6.69,7.29,6.69h35.43v-47.7ZM939.67,272.64h32.47v-49.93h-32.47v49.93ZM1150.74,228.39h-13.01v14.07h28.08v-19.71h-14.78c-.1,1.93-.18,3.57-.28,5.65Z"/>
  <path class="cls-1" d="M1632.62,1079.64V3.75c.28,0,.56,0,.84,0v1075.89h-.84Z"/>
  <path class="cls-1" d="M1074.66,275.96c-1.52.13-3.04.36-4.56.36-10.18.03-20.37.02-30.88.02v-53.62h90.49v6.27h6.8v14.38h69.66v17.78h-13.91c0,.28,0,.56,0,.84h14.21v9.22c.22,0,.45-.02.67-.02v-28.34h-39.89v-20.1h79.49c.09,1.94.19,3.86.3,6.23h11.37v81.74h-70.12v14.32c.11.01.22.03.33.04.1-1.99.2-3.98.32-6.3h192.42v116.71h-177.6q-7.03,0-8.41-6.47c.34,3.11.81,6.21.98,9.33.17,3.2.04,6.41.7,9.66.12-1.81.23-3.61.36-5.59h54.26v62.12c-2.05,0-4.11,0-6.16,0-13.33,0-26.67-.08-40,.06-3.12.03-4-.99-4.16-4.1-.43-8.71-1.29-17.4-2.63-26.07.72,12.22,1.44,24.44,2.16,36.65.13.02.27.03.4.05.11-1.79.21-3.57.33-5.55h50.06v62.11c-2.16,0-4.35,0-6.54,0-11.79,0-23.58-.08-35.37.06-3.08.04-4-.93-4.18-4.07-.75-12.67-1.86-25.32-3.56-37.94.54,8.15,1.07,16.29,1.64,24.43.36,5.12.87,10.23,1.15,15.35.62,11.25,1.08,22.52,1.73,33.77.78,13.59,1.65,27.18,2.53,40.77.52,8.03,1.05,16.06,1.68,24.09.63,7.96,1.39,15.9,2.68,23.82-.37-7.04-.75-14.09-1.14-21.46h39.45v36.54h-37.32c-.03.3-.07.6-.1.9,1.05.05,2.1.14,3.16.14,10.39.01,20.77.03,31.16,0,2.12,0,4.24-.22,3.27,3.18h20.5c-.11-.37-.22-.74-.33-1.11,1.6-.69,3.2-1.95,4.81-1.97,16.56-.15,33.12-.08,49.68-.1,2.15,0,4.46-.36,3.82,3.19h19.53c-.11-.39-.21-.77-.32-1.16,1.6-.67,3.19-1.9,4.8-1.93,9.79-.18,19.58-.09,29.81-.09v4.03c0,17.82-.13,35.65.11,53.47.05,3.59-1.27,5.36-4.44,5.53-3.02.16-3.28,1.74-3.27,4.12.06,11.36.03,22.72.03,34.41h-123.74v-18.99l-.84.02v70.39h-50.59c0-4.56,0-9.01,0-13.46,0-13.75.03-27.51-.05-41.26,0-1.12-.78-2.23-2.08-2.96.43.91,1.23,1.82,1.24,2.73.07,18.22.05,36.44.05,54.94h-50.59c.51-14.7-.77-29.33.8-44.82-.22-.85-.72-2.85-1.35-5.35h-9.27v-87.45h9.6v-27h-6.15v-111.9c1.95-.14,3.98-.28,6.2-.44v-17.26c-1.95-.12-3.97-.24-6.25-.37v-115.05h6.16v-16.75c-1.96-.14-3.98-.29-6.21-.45v-93.89c1.96-.12,3.98-.24,6.25-.37v-26.77c-6.1,0-12.45-1.27-18,.31-7.34,2.09-14.49,1.16-21.68,1.26-21.47.29-42.95.19-64.42.03-4.25-.03-8.7-2.15-12.71-1.42-18.54,3.38-37.18.47-55.73,1.49-1.12.06-2.24,0-4.05,0,0-4.95,0-9.79,0-14.63,0-3.93.13-7.86-.04-11.79-.13-2.88.83-4.21,3.84-3.93,1.77.16,3.58.03,5.38-.68h-8.86v-57.14h58.65v23.19c0,8.84-.15,17.69.07,26.52.09,3.6-.88,4.85-4.69,4.87-7.92.03-15.84.67-23.8,1.36.94.07,1.89.22,2.83.2,16.09-.27,32.17-.5,48.26-.86,5.98-.13,11.96-.5,17.94-.87.65-.04,1.26-.77,1.88-1.18,8.99-.31,17.98-.63,26.96-.95,13.11-.4,26.21-.97,39.32-1.14,14.86-.2,29.72-.05,44.59-.05h4.04c-.38-.62-.76-.82-1.16-.82-17.33-.26-34.65-.74-51.98-.66-10.82.05-21.64.94-32.46,1.53-.79.04-1.54.77-2.32,1.17-9,.31-18,.62-26.99.93ZM1146.14,582.74v107.14h6.2v32.05h-9.65v82.4h9.65c.21,1.92.37,3.41.58,5.25,1.3-.33,2.35-.58,3.39-.86,14.81-4.02,29.64-7.93,44.39-12.15,2.73-.78,3.26-.03,3.27,2.28.01,2.6,0,5.2,0,7.77h9.27c0-3.25.2-6.32-.05-9.35-.28-3.41.93-5.06,4.4-5.67,4.03-.71,7.96-2.04,11.95-3.02,8.47-2.09,16.94-4.14,25.91-6.32v20.91h118.65c0-11.23.16-22.16-.1-33.09-.08-3.21,1.16-4.95,3.93-5.07,3.67-.17,3.79-2.2,3.78-5-.07-16.42-.04-32.83-.04-49.25v-4.02h-28l.33,1.21c-1.6.69-3.18,1.9-4.81,1.96-5.88.24-11.79.25-17.67,0-1.63-.07-3.22-1.33-4.83-2.05l.36-1.12h-51.45c1.14,4.1-1.72,3.24-3.92,3.25-6.17.02-12.36.16-18.52-.09-1.63-.07-3.22-1.35-4.83-2.07.12-.4.25-.8.37-1.2-11.08,0-22.16-.01-33.25.01-2.1,0-3.76,0-3.97-2.94-.68-9.39-1.71-18.75-2.45-28.13-.93-11.9-1.74-23.8-2.53-35.71-.88-13.16-1.77-26.33-2.52-39.5-.66-11.53-1.13-23.07-1.72-34.61-.24-4.72-.49-9.44-.86-14.15-1.08-14.1-2.26-28.18-3.33-42.28-.63-8.3-1.13-16.62-1.69-24.93-.85-12.74-1.75-25.49-2.52-38.23-.65-10.69-1.13-21.39-1.71-32.08-.24-4.44-.5-8.88-.86-13.31-1.09-13.53-2.31-27.06-3.31-40.6-.49-6.66-.56-13.36-.9-20.04-.22-4.44-.61-8.87-.89-13.3-.38-6.05-.73-12.11-1.12-18.65h70.86v-33.59h-52.17v-9.82h-10.86v11.36c-.99.09-1.54.19-2.08.19-23.52.29-47.05.44-70.57.91-11.26.23-22.52,1.05-33.77,1.63-10.56.54-21.11,1.26-31.67,1.65-12.15.44-24.31.59-36.46.88-10.89.27-21.79.48-32.67.89-3.26.12-6.51.79-9.62,1.18v25.24c18.18-1.87,36.08,1.57,53.97-1.8,5.63-1.06,11.81,1.28,17.75,1.35,17.96.21,35.93.37,53.89-.04,9.16-.21,18.26,1,27.57-1.21,7.27-1.72,15.27-.35,23.08-.35v31.83c-2.27.13-4.29.25-6.27.37v88.85c2.21.14,4.23.28,6.23.41v21.8h-6.19v110.02c2.26.14,4.28.26,6.28.38v22.42h-6.24ZM1378.96,321.24h-187.41c.51,9.82.99,19.38,1.51,28.93.23,4.16.52,8.31.83,12.46,1.1,14.79,2.26,29.58,3.32,44.37.61,8.54,1.07,17.09,1.6,25.72h180.15v-111.48ZM975.9,277.23c18.18-.89,35.89-1.77,53.5-2.63v-49.34h-53.5v51.97ZM1249.36,445h-49.57c1.4,19.12,2.78,37.97,4.15,56.67h45.42v-56.67ZM1209.79,270.15h46.06v-38.59h-11.25c-.16-2.3-.3-4.33-.44-6.29h-74.38v15.02h40.02v29.86ZM1249.19,854.62v-65.84c-10.81,3.15-21.25,6.19-31.94,9.3v13.11h-13.08v43.43h45.02ZM1249.13,564.98v-56.74h-45.13c1.4,19.09,2.77,37.84,4.15,56.74h40.98ZM1041.64,225.17v49.53c14.88-.61,29.53-1.22,44.11-1.82v-47.71h-44.11ZM1197.93,803.03c-15.44,4.32-30.37,8.51-45.09,12.63v38.88h45.09v-51.51ZM1091.3,272.2c14.49-.63,28.49-1.23,42.46-1.83v-38.76h-6.28c-.12-2.29-.22-4.31-.32-6.33h-35.86v46.92ZM1203.73,258.63v-12.33h-64.3v23.93h49.45v-11.6h14.86ZM1214.83,668.9c.64,10.82,1.26,21.25,1.87,31.62h32.49v-31.62h-34.36Z"/>
  <path class="cls-1" d="M1030.32,335.92h10.17v-20.55h89.12v393.43h-88.92v-16.27h-10.03v16.34h-89.34v-16.25h-10.17v16.32h-89.19v-16.39h-10.94c-.09,1.8-.17,3.44-.27,5.36h-88.13v-17.9h-10.86c-.15,1.61-.3,3.35-.48,5.32h-87.99v-18h-10.98c-.11,1.39-.22,2.74-.35,4.43h-88.15v-23.85h-10.87v15.49h-105.34v-30.56h-11.01v30.63h-62.92v-226.11h72.12c0-1.77,0-3.24,0-4.71,0-28.21-.22-56.42.11-84.62.13-10.81,1.53-21.61,2.38-32.7h104.24v27.24h11.01v-27.16h88.49v20.49h10.87v-20.56h88.49v20.48h11.01v-20.54h88.34v20.61h10.87v-20.53h89.34v20.45h10.17v-20.51h89.19v20.63ZM629.42,669.41c.15-1.79.27-3.15.39-4.63h15.95v18.05h83.05c.12-1.93.23-3.68.33-5.37h15.96v17.95h83.04c.18-2,.34-3.74.49-5.41h15.81v16.29h84.28v-16.22h15.23v16.31h84.13v-16.39h15.08v16.32h83.94v-388.44h-84.18v20.55h-15.08v-20.49h-84.28v20.42h-15.08v-20.5h-84.28v20.58h-15.92v-20.52h-83.44v20.45h-16.07v-20.53h-83.29v20.61h-15.92v-20.54h-83.44v27.21h-16.07v-27.3h-99.23c-.84,11.06-2.25,21.85-2.38,32.65-.34,28.2-.11,56.41-.11,84.62v4.73h-72.15v220.99h57.99v-30.54h16.07v30.62h100.13v-15.54h15.92v24.05h83.14Z"/>
  <path class="cls-1" d="M830.87,705.68v13.69c3.96-1.31,8.3,2.34,11.62-2.35.36-.51,1.85-.28,2.82-.28,27.08-.01,54.17-.04,81.25.07,1.27,0,2.52,1.62,3.82,1.69,3.56.21,7.16.13,10.73-.13,1.21-.09,2.34-1.56,3.52-1.57,27.5-.09,55.01-.09,82.51,0,1.15,0,2.28,1.6,3.45,1.63,3.32.11,6.66-.12,9.97-.41.88-.08,1.7-1.25,2.54-1.25,30.87-.03,61.74.01,92.61.05.12,0,.23.12.66.35.07,1.03.18,2.24.21,3.45.04,1.4.02,2.81,0,4.21-.28,42.74-.62,85.48-.75,128.22-.01,4.29-2.04,4.32-5.19,4.32-115.21-.05-230.42-.04-345.63-.04h-54.09v-150.55c33.2-2.04,66.35-.48,99.94-1.11ZM733.35,854.52h400.18v-135.01c-.3-.08-.57-.2-.83-.2-28.91-.02-57.81-.04-86.72-.03-.82,0-2.25.01-2.36.35-1.06,3.33-3.76,1.98-5.84,2.13-2.37.17-4.77.11-7.15,0-.87-.04-1.77-.4-2.58-.77-1.07-.49-2.06-1.64-3.09-1.64-26.1-.09-52.2-.08-78.3-.05-.93,0-2.63.23-2.67.53-.43,3.03-2.71,1.84-4.26,1.92-3.08.16-6.17.07-9.26.03-.81-.01-2.27-.1-2.33-.4-.71-3.18-3.21-2.04-5.02-2.06-8.56-.1-17.12-.04-25.68-.04-9.4,0-18.83-.47-28.2.13-9.05.58-18.23-2.2-27.28,2.1-3.63,1.73-8.77.28-13.68.28v-13.6c-31.9.7-63.36-.94-94.94,1.18v145.16Z"/>
  <path class="cls-1" d="M1486.62,765.91c12.78.82,25.15,1.35,37.46,2.5,9.02.85,13.2,12.79,12.11,19.15-2.26,13.23-10.9,16.99-21.94,17.27-6.15.16-12.31.03-19.18.03,0,4.67,0,9.09,0,13.51s0,8.63,0,13.18h-8.45v-65.65ZM1495.22,797.8c7.46,0,14.62.51,21.66-.2,3.89-.39,7.87-2.11,9.92-6.52,2.77-5.96-.24-15.73-6.02-16.23-8.42-.72-16.95-.18-25.56-.18v23.13Z"/>
  <path class="cls-1" d="M1259.8,575.27h5.08c41.68,0,83.37,0,125.05,0,6.85,0,6.99-.01,7.68,6.51,1.5,14.02,2.8,28.06,4.27,42.09,1.34,12.78,3.01,25.52,4.14,38.31,1.09,12.32,1.66,24.69,2.49,37.4h-148.72v-124.31ZM1262.28,697.05h143.35c-.42-9.37-.51-18.45-1.3-27.46-1.11-12.65-2.79-25.26-4.12-37.89-1.48-14.03-2.79-28.07-4.27-42.09-.41-3.91-1.17-7.78-1.76-11.62h-131.9v119.06Z"/>
  <path class="cls-1" d="M1259.83,442.23h7.83c35.77,0,71.54,0,107.3,0,6.96,0,6.83.04,7.56,7.11,1.57,15.24,3.38,30.46,4.99,45.69,1.22,11.55,2.17,23.12,3.44,34.66,1.26,11.51,2.77,23,4.15,34.5.12.96.02,1.95.02,3.22h-135.29v-125.18ZM1262.24,564.91h130.2c-4.41-40.21-8.79-80.17-13.15-119.92h-117.05v119.92Z"/>
  <path class="cls-1" d="M1544.75,815.23c6.29-1.37,6.65-1.2,8.73,4.18,2.33,6.03,11.24,8.85,16.94,5.84,9.79-5.16,11.27-19.17,3.85-27-3.07-3.23-14.57-3.64-18.1-.64-4.17,3.55-4.33,3.59-10.66,2.58,1.93-10.09,3.78-20.19,5.91-30.24.21-.99,2.09-2.3,3.22-2.32,9.38-.19,18.77-.11,28.51-.11v7.87c-7.35,0-14.6.12-21.85-.05-3.12-.07-4.46.95-4.83,4.16-.44,3.94-1.52,7.81-2.46,12.41,9.56-2.96,18.86-5.06,26.97,2.54,4.8,4.5,6.29,10.15,5.92,16.55-.7,12.05-9.68,20.42-19.81,21.56-13.52,1.53-22.52-8-22.32-17.32Z"/>
  <path class="cls-1" d="M840.14,273.82c20.65,0,40.7.03,60.74-.04,2.68,0,3.35,1.22,3.29,3.61-.1,4.61-.03,9.21.7,13.85v-17.19h67.14v36.63c-1.2.06-2.54.18-3.89.18-40.67,0-81.35,0-122.02,0-5.35,0-5.96-.6-5.96-5.91,0-10.21,0-20.42,0-31.14ZM969.54,308.16v-31.48h-61.79v31.48h61.79ZM901.9,276.65h-59.23c0,8.83,0,17.36,0,25.89,0,5.19.58,5.8,5.63,5.8,16.81.01,33.61,0,50.42,0,1.2,0,2.39-.16,3.17-.21v-31.47Z"/>
  <path class="cls-1" d="M1259.84,241.16h90.42v69.37h-90.42v-69.37ZM1262.26,308.05h85.38v-64.32h-85.38v64.32Z"/>
  <path class="cls-1" d="M836.78,272.67c0-14.13-.05-27.99.1-41.86.01-1.1,1.45-2.18,3.13-2.83.08-1.65.15-3.3.24-5.24h91.42c.15,1.67.31,3.41.48,5.41,2,.11,3.91.21,6.17.34v44.18h-101.56ZM839.6,231.2v38.92h96.33v-39.04c-2.23-.15-4.25-.29-6.31-.43-.18-2.02-.34-3.76-.48-5.34h-86.49v5.15c-1.1.27-2.1.51-3.05.75Z"/>
  <path class="cls-1" d="M1253.1,807h94.63v49.41h-17.98c-.18,2.02-.33,3.75-.51,5.74h-53.5c-.11-1.42-.22-2.78-.36-4.58h-22.27v-50.57ZM1345.26,809.63h-89.61v45.3h22.25c.13,1.74.24,3.2.35,4.67h48.54c.09-1.91.17-3.54.27-5.62h18.2v-44.35Z"/>
  <path class="cls-1" d="M1348.97,853.14v-46.04h97.53c-.28,3.16-.48,6.26-.86,9.34-1.37,11.21-2.87,22.41-4.13,33.63-.27,2.38-1.16,3.1-3.4,3.1-29.57-.04-59.13-.02-89.15-.02ZM1443.81,809.63h-92.15v40.82h87.36c1.6-13.6,3.18-27.1,4.79-40.82Z"/>
  <path class="cls-1" d="M1251.76,575.57v47.7h-35.43c-6.62,0-6.75.01-7.29-6.69-.94-11.61-1.73-23.23-2.53-34.85-.13-1.94-.02-3.9-.02-6.15h45.27ZM1209.05,577.99c.86,14.37,1.69,28.43,2.53,42.43h37.65v-42.43h-40.18Z"/>
  <path class="cls-1" d="M939.67,272.64v-49.93h32.47v49.93h-32.47ZM969.65,225.28h-27.27v44.94h27.27v-44.94Z"/>
  <path class="cls-1" d="M1150.74,228.39c.1-2.08.19-3.72.28-5.65h14.78v19.71h-28.08v-14.07h13.01ZM1140.3,230.85v9.05h22.95v-14.58h-9.66c-.12,1.97-.23,3.61-.35,5.53h-12.94Z"/>
  <path class="cls-2" d="M1146.14,582.74h6.24v-22.42c-2-.12-4.02-.24-6.28-.38v-110.02h6.19v-21.8c-1.99-.13-4.01-.26-6.23-.41v-88.85c1.98-.12,4-.24,6.27-.37v-31.83c-7.81,0-15.81-1.38-23.08.35-9.31,2.21-18.41,1-27.57,1.21-17.95.41-35.93.26-53.89.04-5.94-.07-12.12-2.41-17.75-1.35-17.89,3.36-35.79-.07-53.97,1.8v-25.24c3.12-.4,6.36-1.06,9.62-1.18,10.89-.4,21.78-.62,32.67-.89,12.15-.3,24.31-.44,36.46-.88,10.56-.38,21.11-1.1,31.67-1.65,11.26-.58,22.51-1.4,33.77-1.63,23.52-.47,47.04-.62,70.57-.91.54,0,1.09-.1,2.08-.19v-11.36h10.86v9.82h52.17v33.59h-70.86c.39,6.54.74,12.6,1.12,18.65.28,4.44.66,8.87.89,13.3.34,6.68.41,13.37.9,20.04,1,13.54,2.22,27.06,3.31,40.6.36,4.43.61,8.87.86,13.31.58,10.69,1.07,21.39,1.71,32.08.77,12.75,1.67,25.49,2.52,38.23.55,8.31,1.06,16.62,1.69,24.93,1.07,14.1,2.25,28.19,3.33,42.28.36,4.71.62,9.43.86,14.15.59,11.54,1.05,23.08,1.72,34.61.76,13.17,1.64,26.33,2.52,39.5.8,11.91,1.6,23.81,2.53,35.71.73,9.38,1.77,18.74,2.45,28.13.21,2.93,1.86,2.94,3.97,2.94,11.08-.03,22.16-.01,33.25-.01-.12.4-.25.8-.37,1.2,1.61.72,3.19,2.01,4.83,2.07,6.16.25,12.35.11,18.52.09,2.19,0,5.05.84,3.92-3.25h51.45l-.36,1.12c1.61.71,3.19,1.98,4.83,2.05,5.88.25,11.79.24,17.67,0,1.63-.07,3.21-1.28,4.81-1.96l-.33-1.21h28v4.02c0,16.42-.04,32.83.04,49.25.01,2.8-.11,4.83-3.78,5-2.77.13-4.01,1.86-3.93,5.07.26,10.92.1,21.86.1,33.09h-118.65v-20.91c-8.97,2.18-17.44,4.23-25.91,6.32-3.99.99-7.91,2.31-11.95,3.02-3.47.61-4.68,2.26-4.4,5.67.25,3.03.05,6.1.05,9.35h-9.27c0-2.57,0-5.17,0-7.77,0-2.3-.53-3.06-3.27-2.28-14.75,4.22-29.58,8.14-44.39,12.15-1.04.28-2.09.53-3.39.86-.2-1.84-.37-3.33-.58-5.25h-9.65v-82.4h9.65v-32.05h-6.2v-107.14Z"/>
  <path class="cls-2" d="M1378.96,321.24v111.48h-180.15c-.53-8.63-.99-17.18-1.6-25.72-1.06-14.79-2.22-29.58-3.32-44.37-.31-4.15-.6-8.3-.83-12.46-.52-9.55-1-19.11-1.51-28.93h187.41Z"/>
  <path class="cls-2" d="M975.9,277.23v-51.97h53.5v49.34c-17.61.87-35.32,1.74-53.5,2.63Z"/>
  <path class="cls-2" d="M1249.36,445v56.67h-45.42c-1.37-18.7-2.75-37.55-4.15-56.67h49.57Z"/>
  <path class="cls-2" d="M1209.79,270.15v-29.86h-40.02v-15.02h74.38c.14,1.97.28,3.99.44,6.29h11.25v38.59h-46.06Z"/>
  <path class="cls-2" d="M1249.19,854.62h-45.02v-43.43h13.08v-13.11c10.69-3.11,21.13-6.15,31.94-9.3v65.84Z"/>
  <path class="cls-2" d="M1249.13,564.98h-40.98c-1.38-18.9-2.75-37.65-4.15-56.74h45.13v56.74Z"/>
  <path class="cls-2" d="M1041.64,225.17h44.11v47.71c-14.58.6-29.23,1.2-44.11,1.82v-49.53Z"/>
  <path class="cls-2" d="M1197.93,803.03v51.51h-45.09v-38.88c14.72-4.12,29.65-8.31,45.09-12.63Z"/>
  <path class="cls-2" d="M1091.3,272.2v-46.92h35.86c.1,2.01.2,4.04.32,6.33h6.28v38.76c-13.97.6-27.97,1.21-42.46,1.83Z"/>
  <path class="cls-2" d="M1203.73,258.63h-14.86v11.6h-49.45v-23.93h64.3v12.33Z"/>
  <path class="cls-2" d="M1214.83,668.9h34.36v31.62h-32.49c-.61-10.37-1.23-20.8-1.87-31.62Z"/>
  <path class="cls-2" d="M1101.66,275.04c.77-.41,1.52-1.13,2.31-1.17,10.82-.59,21.64-1.48,32.46-1.53,17.32-.08,34.65.4,51.98.66.39,0,.78.2,1.16.82h-4.04c-14.86,0-29.73-.15-44.59.05-13.11.18-26.21.75-39.32,1.14l.03.03Z"/>
  <path class="cls-2" d="M1101.63,275.01c-8.99.32-17.98.63-26.96.95,0,0,0,.02,0,.01,9-.31,17.99-.62,26.99-.93,0,0-.03-.03-.03-.03Z"/>
  <path class="cls-2" d="M629.42,669.41h-83.14v-24.05h-15.92v15.54h-100.13v-30.62h-16.07v30.54h-57.99v-220.99h72.15v-4.73c0-28.21-.22-56.42.11-84.62.13-10.81,1.53-21.6,2.38-32.65h99.23v27.3h16.07v-27.21h83.44v20.54h15.92v-20.61h83.29v20.53h16.07v-20.45h83.44v20.52h15.92v-20.58h84.28v20.5h15.08v-20.42h84.28v20.49h15.08v-20.55h84.18v388.44h-83.94v-16.32h-15.08v16.39h-84.13v-16.31h-15.23v16.22h-84.28v-16.29h-15.81c-.15,1.68-.31,3.42-.49,5.41h-83.04v-17.95h-15.96c-.1,1.69-.21,3.44-.33,5.37h-83.05v-18.05h-15.95c-.13,1.48-.24,2.84-.39,4.63Z"/>
  <path class="cls-2" d="M733.35,854.52v-145.16c31.58-2.12,63.04-.49,94.94-1.18v13.6c4.9,0,10.04,1.44,13.68-.28,9.05-4.3,18.23-1.53,27.28-2.1,9.36-.6,18.79-.13,28.2-.13,8.56,0,17.12-.05,25.68.04,1.81.02,4.3-1.12,5.02,2.06.07.3,1.52.39,2.33.4,3.09.05,6.18.13,9.26-.03,1.55-.08,3.83,1.11,4.26-1.92.04-.3,1.74-.53,2.67-.53,26.1-.03,52.2-.04,78.3.05,1.03,0,2.02,1.15,3.09,1.64.81.37,1.71.73,2.58.77,2.38.11,4.78.16,7.15,0,2.08-.14,4.78,1.2,5.84-2.13.11-.34,1.54-.35,2.36-.35,28.91,0,57.81.01,86.72.03.26,0,.53.13.83.2v135.01h-400.18Z"/>
  <path class="cls-2" d="M1495.22,797.8v-23.13c8.61,0,17.14-.53,25.56.18,5.78.49,8.8,10.27,6.02,16.23-2.05,4.4-6.03,6.12-9.92,6.52-7.04.71-14.2.2-21.66.2Z"/>
  <path class="cls-2" d="M1262.28,697.05v-119.06h131.9c.59,3.84,1.35,7.71,1.76,11.62,1.48,14.02,2.8,28.07,4.27,42.09,1.33,12.64,3.01,25.24,4.12,37.89.79,9.01.88,18.09,1.3,27.46h-143.35Z"/>
  <path class="cls-2" d="M1262.24,564.91v-119.92h117.05c4.36,39.75,8.74,79.71,13.15,119.92h-130.2Z"/>
  <path class="cls-2" d="M969.54,308.16h-61.79v-31.48h61.79v31.48Z"/>
  <path class="cls-2" d="M901.9,276.65v31.47c-.78.05-1.97.21-3.17.21-16.81.02-33.61.02-50.42,0-5.05,0-5.63-.61-5.63-5.8,0-8.53,0-17.06,0-25.89h59.23Z"/>
  <path class="cls-2" d="M1262.26,308.05v-64.32h85.38v64.32h-85.38Z"/>
  <path class="cls-2" d="M839.6,231.2c.95-.23,1.95-.48,3.05-.75v-5.15h86.49c.14,1.58.3,3.32.48,5.34,2.06.14,4.08.28,6.31.43v39.04h-96.33v-38.92Z"/>
  <path class="cls-2" d="M1345.26,809.63v44.35h-18.2c-.1,2.08-.18,3.72-.27,5.62h-48.54c-.11-1.47-.22-2.94-.35-4.67h-22.25v-45.3h89.61Z"/>
  <path class="cls-2" d="M1443.81,809.63c-1.61,13.72-3.2,27.22-4.79,40.82h-87.36v-40.82h92.15Z"/>
  <path class="cls-2" d="M1209.05,577.99h40.18v42.43h-37.65c-.83-14-1.67-28.06-2.53-42.43Z"/>
  <path class="cls-2" d="M969.65,225.28v44.94h-27.27v-44.94h27.27Z"/>
  <path class="cls-2" d="M1140.3,230.85h12.94c.12-1.92.22-3.56.35-5.53h9.66v14.58h-22.95v-9.05Z"/>
</svg>