<?xml version="1.0" encoding="UTF-8"?>
<svg id="Capa_1" data-name="Capa 1" xmlns="http://www.w3.org/2000/svg" xmlns:xlink="http://www.w3.org/1999/xlink" viewBox="0 0 1920 1080">
  <defs>
    <style>
      .cls-1 {
        fill: #000;
      }

      .cls-1, .cls-2 {
        stroke-width: 0px;
      }

      .cls-2 {
        fill: #fff;
      }
    </style>
  </defs>
  <image width="1600" height="1280" transform="translate(246) scale(.84)" xlink:href="../../../Documents/sede-Layout1 (5).png"/>
  <image width="1600" height="1280" transform="translate(246) scale(.84)" xlink:href="../../../Documents/sede-Layout1 (6).png"/>
  <g>
    <path class="cls-2" d="M1594.31,1080H246c0-360,0-720,0-1080,450,0,900,0,1350,0,0,358.74,0,717.47-.03,1076.21,0,1.26-.53,2.53-.81,3.79V2.75c-.28,0-.56,0-.84,0v1077.24ZM1062.71,785.49h6.91v-94.07h-5.58c-.95-1.39-1.6-3.24-2.33-3.28-5.12-.26-10.25-.14-15.69-.14v47.82c-.23,0-.46,0-.69,0v-47.6h-24.44v47.7c-.28,0-.56,0-.84,0v-47.64h-24.57v47.61c-.28,0-.56,0-.84,0v-47.73h-20.27c1.83,4.71-2.43,2.47-4.13,3.73v44.07c-.27,0-.55,0-.82,0v-44.5c-2.12-.1-3.77-.17-4.34-.2-1.63-1.54-2.53-3.14-3.49-3.18-5.7-.24-11.41-.12-17.45-.12v47.97c-.28,0-.56,0-.84,0v-47.66h-25.41v47.57c-.28,0-.56,0-.84,0v-47.66h-24.42v47.53c-.28,0-.56,0-.84,0v-47.76c-4.54,0-8.74-.19-12.91.09-1.65.11-3.22,1.29-4.83,1.98.12.48.23.95.35,1.43h-7.78c0,5.76,0,11.2,0,16.65,0,19.11,0,38.22.01,57.32,0,1.88-.56,4.07,2.54,4.32,9.67.78,19.33,1.72,29.01,2.5,8.85.71,17.71,1.3,26.56,1.94,0,.14.02.27.02.41-2.14.13-4.28.26-6.41.38v54.41h50.09v-51.48c10.07.71,20.28,1.44,30.5,2.17-.01.27-.02.54-.03.81-9.72-.64-19.45-1.28-29.21-1.93v50.37h50.39v-38.95q0-7.33-6.68-8.77c3.42.04,6.8.51,10.19.74,9.16.63,18.33,1.07,27.49,1.75,3.93.29,7.84.98,11.77,1.5-13.83-.72-27.65-1.44-41.71-2.18v45.92h48.68c0-12.41-.16-24.58.09-36.75.09-4.24-.52-6.89-5.56-6.1-.48.08-1.1-.66-1.65-1.02ZM1133.3,771.64c.32-.13.64-.26.96-.39.45,1.19,1.27,2.37,1.28,3.56.08,16.72.06,33.43.06,50.15,0,1.48,0,2.96,0,4.44h50.39v-70.82c-12.07,3.18-23.88,6.29-35.69,9.4l-.27-1.13c12.16-3.36,24.32-6.72,37.06-10.24v22.13h118.84c0-5.04.12-9.8-.05-14.55-.09-2.3.87-3.39,2.93-3.67,8.9-1.17,17.81-2.22,26.7-3.44,7.51-1.03,14.97-2.34,22.49-3.28,2.62-.33,2.95-1.76,2.71-3.74-1.08-8.63-2.35-17.23-3.3-25.87-1.52-13.75-2.84-27.53-4.27-41.3-.7-6.74-.73-6.73-7.5-6.73-18.97,0-37.94-.05-56.91.09-1.61.01-3.21,1.27-4.81,1.94l.32,1.15h-13.64c.64-3.57-1.68-3.19-3.83-3.19-20.8.02-41.59-.04-62.39.1-1.61.01-3.21,1.28-4.82,1.97.11.36.22.73.33,1.09h-76.68v-397.03h69.52v-37.85h-123.05v-44.74h-6.39c-.15-2.3-.28-4.32-.41-6.32h-90.13v6.26c-2.3.13-4.32.25-6.67.39v43.53c-.28,0-.56,0-.84,0v-50.18h-58.29v50.14c-.28,0-.56,0-.84,0v-50.23h-32.85v50.1c-.28,0-.56,0-.84,0v-43.29h-98.23v80.42h47.85v-34.89c.28,0,.56,0,.84.01v36.8c43.89,0,87.42.2,130.95-.06,43.39-.26,86.79,1.58,130.1-2.03v27.17c-2.23.16-4.26.3-6.21.44v93.5h6.16v17.39c-2.28.14-4.31.26-6.26.37v115.08c2.23.16,4.25.31,6.22.45v16.77h-6.17v112.67c2.28.13,4.3.25,6.26.37v26.86h-9.5c-.2.72-.34.98-.34,1.24-.02,29.93-.05,59.85-.03,89.78,0,2.99,2.47,4.55,5.73,3.83,2.06-.46,4.1-.96,6.9-1.61-2.74,2.89-3.73,37.69-1.91,44.73h49.96c0-18.59.02-36.96-.06-55.33,0-.8-.91-1.61-1.39-2.41ZM665.37,307.64v-26.55h10.52c.13,1.7.23,3.05.33,4.45h88.13c.21-1.74.38-3.21.59-4.94h7.79v-32.94h-205.62v-47.56h-91.75c0,14.74-.37,29.21.11,43.65.43,13.11-1.04,26.17,1.23,39.38,1.73,10.06.34,20.64.34,31.06h-11.17v-27.29h-104.38c-.85,11.09-2.25,21.9-2.38,32.72-.34,28.24-.11,56.48-.11,84.72v4.72h-73.07v226.29h63.97v-30.56h10.88v30.65h105.46v-15.56h10.88v23.95h88.31c.14-1.66.26-3.03.38-4.51h10.91v17.24h88.21c.13-1.65.24-3.12.35-4.54h10.89v17.99h88.22c.18-1.99.33-3.73.48-5.44h10.75v15.49h88.6v-15.43h11.03v15.51h88.45v-15.45h11.03v15.38h88.03v-393.19h-88.32v20.49h-11.03v-20.42h-88.45v20.51h-11.03v-20.6h-88.45v20.53h-11.03v-20.47h-88.6v20.71h-10.46ZM360.68,829.68v-5.18c0-16.16.09-32.32-.07-48.47-.04-3.54,1.32-4.49,4.59-4.67,5.24-.3,10.47-.98,15.67-1.69,11.61-1.59,23.19-3.4,34.81-4.95,11.64-1.54,23.32-2.8,34.97-4.31,14.64-1.89,29.26-3.96,43.91-5.82,5.8-.74,6.1-.87,6.1-6.9,0-15.74,0-31.47,0-47.21v-4.98h-97.97v-58.75h-89.8v199.29h38.66v-6.36h9.14ZM1445.71,770.31c6.69,0,12.98.16,19.25-.04,11.41-.36,19.64-4.26,21.86-17.41,1.08-6.41-3.13-18.29-12.28-19.06-11.52-.97-23.1-1.2-34.66-1.71-.92-.04-1.85.26-2.68.38v64.51h8.5v-26.68ZM1194.09,546.32v125.41h147.96c.05-1,.11-1.8.14-2.61.62-16.75-1.04-33.34-3.28-49.92-1.24-9.19-1.71-18.49-2.67-27.72-1.32-12.65-2.88-25.28-4.14-37.94-.71-7.18-.56-7.22-7.91-7.22-41.6,0-83.19,0-124.79,0h-5.33ZM1510.11,766.13c10.84-2.88,19.71,2.45,18.81,12.62-.57,6.43-4.13,11.81-10.64,13.05-5.22,1-12.17-.36-14.33-7.7-1.52-5.17-4.36-5.49-8.5-4.46-.51,6.47,3.99,14.2,9.88,16.48,10.65,4.12,20.33,2.34,27.86-6.62,4.97-5.91,5.12-16.79-.12-22.65-2.01-2.25-5.05-3.59-7.57-5.3,10.03-5.94,10.96-17.25,3.73-24.44-5.7-5.67-13.43-6.38-21.1-4.15-7.41,2.15-11.09,7.49-12.03,14.92,4.75,1.85,8.29,1.75,8.7-4.39.03-.39.82-.68,1.08-1.12,3.25-5.54,8.67-4.48,13.44-3.84,4.08.55,6.33,4.25,6.79,8.07.43,3.61.25,7.83-3.58,9.9-3.34,1.8-7.09,2.83-11.27,4.43-.23,1.03-.63,2.83-1.16,5.21ZM359.29,200v85.47h106.56v-85.47h-106.56ZM1283.71,282.25v-70.3h-89.71v70.3h89.71ZM1187.34,780.02v49.81h20.62c.14,1.81.24,3.16.35,4.57h53.58c.18-1.99.33-3.73.51-5.75h18.84v-48.63h-93.89ZM568.41,200v46.7h98.13v-46.7h-98.13ZM1192.71,243.45v-43.74h-11.39c-.15-2.46-.27-4.48-.38-6.3h-79.66v20.84h39.57v29.2h51.86ZM1282.5,825.39c15.63,0,30.91,0,46.19,0,13.76,0,27.51.05,41.27-.08,1.41-.01,3.59-.72,4.05-1.72.88-1.92.79-4.29,1.07-6.48.81-6.15,1.68-12.29,2.38-18.45.7-6.13,1.22-12.27,1.84-18.57h-96.79v45.29ZM1186.01,477.49h-61.88v65.24h61.88v-65.24ZM1185.99,476.18v-65.36h-61.92v65.36h61.92ZM1186.04,283.62h-62.02v63.47h62.02v-63.47ZM1185.96,409.54v-61.08h-61.85v61.08h61.85ZM1192.64,637.19v-43.32h-68.62v43.32h68.62ZM1186,544.09h-61.87v48.39h61.87v-48.39ZM866.86,770.68v58.63h50.34c0-17.41.05-34.52-.13-51.64-.01-.97-1.87-2.62-3.01-2.76-6.6-.8-13.25-1.18-19.87-1.83-4.12-.41-8.2-1.2-12.32-1.55-4.94-.43-9.9-.58-15.02-.86ZM1186.1,638.57h-62.02v39.8h62.02v-39.8ZM721.28,246.84v-43.32h-53.44v43.32h53.44ZM772.83,203.48h-50.07v43.32h50.07v-43.32ZM1077.6,243.35h61.87v-28.14h-61.87v28.14Z"/>
    <path class="cls-1" d="M1594.31,1080V2.76c.28,0,.56,0,.84,0v1077.25h-.84Z"/>
    <path class="cls-1" d="M1133.3,771.64c.48.8,1.39,1.6,1.39,2.41.08,18.37.06,36.74.06,55.33h-49.96c-1.82-7.04-.83-41.84,1.91-44.73-2.8.66-4.85,1.16-6.9,1.61-3.26.72-5.73-.84-5.73-3.83-.02-29.93,0-59.85.03-89.78,0-.26.14-.52.34-1.24h9.5v-26.86c-1.96-.12-3.99-.24-6.26-.37v-112.67h6.17v-16.77c-1.97-.14-3.99-.29-6.22-.45v-115.08c1.95-.12,3.98-.24,6.26-.37v-17.39h-6.16v-93.5c1.95-.14,3.98-.28,6.21-.44v-27.17c-43.32,3.61-86.72,1.77-130.1,2.03-43.53.26-87.06.06-130.95.06v-36.8c-.28,0-.56,0-.84-.01v34.89h-47.85v-80.42h98.23v43.29c.28,0,.56,0,.84,0v-50.1h32.85v50.23c.28,0,.56,0,.84,0v-50.14h58.29v50.18c.28,0,.56,0,.84,0v-43.53c2.35-.14,4.37-.26,6.67-.39v-6.26h90.13c.13,2,.26,4.03.41,6.32h6.39v44.74h123.05v37.85h-69.52v397.03h76.68c-.11-.36-.22-.73-.33-1.09,1.61-.69,3.21-1.96,4.82-1.97,20.8-.13,41.59-.08,62.39-.1,2.15,0,4.48-.39,3.83,3.19h13.64l-.32-1.15c1.6-.68,3.2-1.93,4.81-1.94,18.97-.14,37.94-.09,56.91-.09,6.77,0,6.8,0,7.5,6.73,1.43,13.76,2.75,27.54,4.27,41.3.96,8.64,2.23,17.24,3.3,25.87.25,1.98-.08,3.41-2.71,3.74-7.52.94-14.98,2.25-22.49,3.28-8.89,1.22-17.81,2.27-26.7,3.44-2.06.27-3.02,1.37-2.93,3.67.18,4.75.05,9.51.05,14.55h-118.84v-22.13c-12.74,3.52-24.9,6.88-37.06,10.24l.27,1.13c11.81-3.11,23.62-6.22,35.69-9.4v70.82h-50.39c0-1.48,0-2.96,0-4.44,0-16.72.03-33.44-.06-50.15,0-1.19-.83-2.37-1.28-3.56-.32.13-.64.26-.96.39ZM825.5,280.15c87.22-1.32,174.15,1.7,260.95-1.99v31.93c-2.25.14-4.28.26-6.31.39v88.16c2.2.11,4.22.2,6.26.3v22.7h-6.22v110.18c2.25.14,4.28.27,6.31.39v21.55c-2.2.11-4.22.2-6.26.3v107.85h6.21v32.09h-9.87v5.05c0,26.41,0,52.83,0,79.24,0,.84,0,1.69,0,2.53-.02,2.81.86,3.71,3.87,2.66,3.74-1.31,7.74-1.85,11.59-2.89,14.29-3.88,28.6-7.72,42.82-11.85,2.75-.8,3.26-.01,3.27,2.28.01,2.61,0,5.21,0,7.77h9.28c0-3.54.21-6.9-.07-10.21-.22-2.64.97-4,3.19-4.62,11.36-3.16,22.73-6.3,34.13-9.35,4.72-1.26,4.89-1.05,4.9,3.77.01,5.98,0,11.95,0,17.86h113.84c0-4.82.06-9.42-.02-14.02-.04-2.15.52-3.24,2.98-3.54,7.66-.93,15.27-2.22,22.91-3.27,8.75-1.2,17.53-2.21,26.27-3.55.95-.15,2.44-1.97,2.36-2.89-.52-5.76-1.55-11.46-2.18-17.21-1.49-13.76-2.8-27.54-4.29-41.3-.42-3.91-1.19-7.78-1.78-11.59h-61.91c.17.37.34.74.5,1.12-1.26.69-2.49,1.92-3.78,1.98-14.98.7-15.87.48-17.16-3.19h-63.93c.25,3.47-2.03,3.32-4.53,3.31-24.73-.06-49.47-.04-74.2-.04-1.34,0-2.68,0-4.01,0v-402.2h69.48v-32.63h-364.6v32.92ZM1060.62,195.88h-85.05c-.15,2.31-.28,4.34-.41,6.33-2.35.11-4.27.2-6.24.29v39.17h98.06v-39.21c-2.24-.1-4.17-.18-6.36-.28v-6.3ZM869.72,241.89v-39.25h-92.99v39.25h92.99ZM1183.46,761.76c-10.79,2.87-21.27,5.66-32.01,8.52v13.08h-13v43.51h45v-65.11ZM909.77,241.64h52.75v-45.79h-52.75v45.79ZM1086.92,787.85v38.97h45.1v-51.57c-15.22,4.25-30.09,8.41-45.1,12.6ZM819.07,278.05v-30.82h-42.44v30.82h42.44ZM903.42,241.78v-45.84h-27.31v45.84h27.31Z"/>
    <path class="cls-1" d="M665.37,307.64h10.46v-20.71h88.6v20.47h11.03v-20.53h88.45v20.6h11.03v-20.51h88.45v20.42h11.03v-20.49h88.32v393.19h-88.03v-15.38h-11.03v15.45h-88.45v-15.51h-11.03v15.43h-88.6v-15.49h-10.75c-.15,1.71-.31,3.45-.48,5.44h-88.22v-17.99h-10.89c-.11,1.42-.22,2.9-.35,4.54h-88.21v-17.24h-10.91c-.13,1.48-.24,2.85-.38,4.51h-88.31v-23.95h-10.88v15.56h-105.46v-30.65h-10.88v30.56h-63.97v-226.29h73.07v-4.72c0-28.24-.22-56.49.11-84.72.13-10.82,1.53-21.63,2.38-32.72h104.38v27.29h11.17c0-10.41,1.38-21-.34-31.06-2.27-13.21-.8-26.27-1.23-39.38-.47-14.44-.11-28.91-.11-43.65h91.75v47.56h205.62v32.94h-7.79c-.21,1.73-.38,3.2-.59,4.94h-88.13c-.1-1.4-.2-2.76-.33-4.45h-10.52v26.55ZM1060.25,677.64v-388.25h-83.24v20.55h-16.09v-20.48h-83.55v20.56h-15.94v-20.49h-83.55v20.43h-15.94v-20.51h-83.55v20.59h-15.94v-20.52h-83.55v20.45h-16.09v-20.54h-83.4v27.36h-15.94v-27.3h-99.79c-.74,14.97-1.88,29.6-2.08,44.24-.35,24.3-.09,48.62-.09,72.92,0,1.49,0,2.98,0,4.93h-73.14v221.29h59v-30.69h15.94v30.62h100.41v-15.38h15.94v23.91h83.15c.2-1.7.36-3.16.53-4.61h15.78v17.21h83.26c.14-1.65.25-3.02.38-4.51h15.97v18.08h83.17c.11-1.93.22-3.68.32-5.38h15.98v15.44h83.55v-15.52h15.94v15.45h83.55v-15.38h15.94v15.51h83.08ZM678.72,283h83.17c.12-1.65.23-3.01.35-4.61,2.75-.12,5.34-.24,7.94-.36v-27.84h-205.58v-47.59h-86.72c0,12.32-.26,24.38.06,36.43.4,15.18-1.79,30.48,2.04,45.71h82.86c.15-2.23.29-4.26.43-6.2h15.67c.1,2.24.19,4.16.28,6.16h83.16c.13-2.28.25-4.3.37-6.27h15.63c.11,1.56.21,2.93.33,4.57ZM565.77,307.43h10.45v-26.45h-10.45v26.45Z"/>
    <path class="cls-1" d="M1062.84,785.61c-3.92-.51-7.82-1.2-11.75-1.49-9.16-.68-18.33-1.13-27.49-1.75-3.4-.23-6.78-.7-10.19-.74q6.68,1.44,6.68,8.77v38.95h-50.39v-50.37c9.77.64,19.49,1.28,29.21,1.93.01-.27.02-.54.03-.81-10.22-.73-20.44-1.45-30.5-2.17v51.48h-50.09v-54.41c2.13-.13,4.27-.26,6.41-.38,0-.14-.02-.27-.02-.41-8.86-.64-17.71-1.23-26.56-1.94-9.67-.78-19.33-1.72-29.01-2.5-3.1-.25-2.53-2.44-2.54-4.32-.02-19.11-.01-38.22-.01-57.32,0-5.45,0-10.9,0-16.65h7.78c-.12-.48-.23-.95-.35-1.43,1.61-.69,3.18-1.87,4.83-1.98,4.17-.29,8.37-.09,12.91-.09v47.76c.28,0,.56,0,.84,0v-47.53h24.42v47.66c.28,0,.56,0,.84,0v-47.57h25.41v47.66c.28,0,.56,0,.84,0v-47.97c6.04,0,11.75-.12,17.45.12.96.04,1.86,1.63,3.49,3.18.57.03,2.22.1,4.34.2v44.5c.27,0,.55,0,.82,0v-44.07c1.7-1.26,5.97.98,4.13-3.73h20.27v47.73c.28,0,.56,0,.84,0v-47.61h24.57v47.64c.28,0,.56,0,.84,0v-47.7h24.44v47.6c.23,0,.46,0,.69,0v-47.82c5.44,0,10.57-.12,15.69.14.74.04,1.39,1.89,2.33,3.28h5.58v94.07h-6.91l.13.12ZM869.34,767.13c9.05.88,17.85,1.84,26.66,2.58,14.38,1.21,28.77,2.27,43.15,3.41,10.37.82,20.73,1.69,31.1,2.51,14.38,1.14,28.77,2.3,43.16,3.37,8.87.66,17.76,1.06,26.63,1.74,4.82.37,9.6,1.19,14.42,1.6,4.2.36,8.42.43,12.63.62v-43.36h-197.75v27.53ZM920.87,777.37v49.38h44.9v-46.08c-15.1-1.11-29.88-2.2-44.9-3.3ZM972.18,826.77h45.07v-41.89c-15.15-1.11-30.01-2.2-45.07-3.3v45.19ZM920.81,690.7v43.36h19.69v-43.36h-19.69ZM966.7,734.16v-40c-2.46-.89-6.41,1.36-6-3.44h-13.74v43.44h19.74ZM869.3,734.04h19.79v-43.99c-4.17,2.12-9.69-2.94-12.38,4.01h-7.41v39.98ZM914.48,690.78h-18.88v43.33h18.88v-43.33ZM1042.77,690.76h-19.02v43.23h19.02v-43.23ZM998.45,690.68v43.31h18.87v-43.31h-18.87ZM991.98,734.15v-43.51h-14.44l.48,1.02c-1.62,1.08-3.25,2.16-4.92,3.27v39.22h18.88ZM1049.02,690.13v43.89h17.98v-40.27h-5.25c-3.58-5.87-8.61-1.89-12.74-3.62Z"/>
    <path class="cls-1" d="M360.68,829.68h-9.14v6.36h-38.66v-199.29h89.8v58.75h97.97v4.98c0,15.74,0,31.47,0,47.21,0,6.03-.29,6.17-6.1,6.9-14.65,1.86-29.27,3.93-43.91,5.82-11.65,1.5-23.33,2.76-34.97,4.31-11.62,1.54-23.2,3.35-34.81,4.95-5.21.71-10.43,1.39-15.67,1.69-3.26.19-4.62,1.13-4.59,4.67.17,16.16.07,32.32.07,48.47v5.18ZM315.45,639.27v194.34h33.23c.14-2.21.27-4.24.43-6.7h9.04c0-1.29,0-2.12,0-2.95,0-16.72.02-33.44-.02-50.16,0-2.33.15-3.91,3.21-4.19,5.75-.52,11.45-1.63,17.19-2.39,7.4-.97,14.82-1.76,22.21-2.77,11.34-1.55,22.65-3.3,34-4.8,9.59-1.27,19.22-2.25,28.81-3.48,10.12-1.3,20.21-2.88,30.35-4.06,3.07-.36,4.33-1.25,4.29-4.54-.16-12.36-.07-24.73-.07-37.09,0-4.03,0-8.06,0-12.53h-97.9v-58.68h-84.77Z"/>
    <path class="cls-1" d="M1445.71,770.31v26.68h-8.5v-64.51c.84-.13,1.77-.42,2.68-.38,11.56.51,23.14.74,34.66,1.71,9.15.77,13.36,12.65,12.28,19.06-2.22,13.14-10.45,17.05-21.86,17.41-6.27.2-12.56.04-19.25.04ZM1445.88,763.25c7.34,0,14.38.47,21.31-.16,4.88-.44,9.68-2.83,10.75-8.27.91-4.58,1.28-9.63-3.47-12.93-1.11-.77-2.41-1.78-3.64-1.81-8.24-.16-16.48-.08-24.96-.08v23.25Z"/>
    <path class="cls-1" d="M1194.09,546.32h5.33c41.6,0,83.19,0,124.79,0,7.34,0,7.19.04,7.91,7.22,1.26,12.66,2.82,25.29,4.14,37.94.96,9.23,1.43,18.53,2.67,27.72,2.24,16.58,3.9,33.16,3.28,49.92-.03.81-.09,1.62-.14,2.61h-147.96v-125.41ZM1339.66,669.25c0-1.29.04-2.12,0-2.95-.55-10.57-1.04-21.14-1.7-31.7-.44-6.92-1-13.84-1.75-20.74-.96-8.78-2.29-17.53-3.25-26.31-.99-9.09-1.67-18.21-2.62-27.31-.4-3.77-1.17-7.51-1.76-11.19h-132v120.2h143.09Z"/>
    <path class="cls-1" d="M1510.11,766.13c.53-2.38.93-4.19,1.16-5.21,4.18-1.6,7.93-2.63,11.27-4.43,3.83-2.07,4.01-6.28,3.58-9.9-.46-3.82-2.71-7.52-6.79-8.07-4.77-.64-10.19-1.7-13.44,3.84-.26.44-1.05.73-1.08,1.12-.4,6.14-3.94,6.25-8.7,4.39.94-7.44,4.62-12.78,12.03-14.92,7.68-2.22,15.4-1.51,21.1,4.15,7.23,7.18,6.3,18.5-3.73,24.44,2.52,1.72,5.55,3.05,7.57,5.3,5.24,5.86,5.09,16.74.12,22.65-7.53,8.95-17.21,10.74-27.86,6.62-5.9-2.28-10.39-10.01-9.88-16.48,4.15-1.03,6.98-.7,8.5,4.46,2.16,7.34,9.11,8.7,14.33,7.7,6.51-1.24,10.07-6.62,10.64-13.05.9-10.17-7.98-15.5-18.81-12.62Z"/>
    <path class="cls-1" d="M359.29,200h106.56v85.47h-106.56v-85.47ZM361.82,202.53v80.42h101.51v-80.42h-101.51Z"/>
    <path class="cls-1" d="M1283.71,282.25h-89.71v-70.3h89.71v70.3ZM1281.28,214.44h-84.64v65.25h84.64v-65.25Z"/>
    <path class="cls-1" d="M1187.34,780.02h93.89v48.63h-18.84c-.18,2.02-.34,3.76-.51,5.75h-53.58c-.11-1.41-.21-2.76-.35-4.57h-20.62v-49.81ZM1210.79,831.84h48.65c.1-1.93.18-3.57.28-5.65h18.95v-43.51h-88.77v44.53h20.58c.11,1.65.2,3.01.3,4.63Z"/>
    <path class="cls-1" d="M568.41,200h98.13v46.7h-98.13v-46.7ZM570.83,244.2h93.07v-41.64h-93.07v41.64Z"/>
    <path class="cls-1" d="M1192.71,243.45h-51.86v-29.2h-39.57v-20.84h79.66c.11,1.82.23,3.84.38,6.3h11.39v43.74ZM1103.75,211.77h39.67v29.13h46.74v-38.7h-11.65v-6.39h-74.75v15.95Z"/>
    <path class="cls-1" d="M1282.5,825.39v-45.29h96.79c-.62,6.3-1.14,12.44-1.84,18.57-.7,6.16-1.57,12.3-2.38,18.45-.29,2.19-.2,4.56-1.07,6.48-.46,1-2.64,1.71-4.05,1.72-13.75.12-27.51.08-41.27.08-15.28,0-30.55,0-46.19,0ZM1371.8,822.76c1.61-13.39,3.2-26.63,4.82-40.1h-91.46v40.1h86.64Z"/>
    <path class="cls-1" d="M1186.01,477.49v65.24h-61.88v-65.24h61.88ZM1183.48,480.02h-56.82v60.18h56.82v-60.18Z"/>
    <path class="cls-1" d="M1185.99,476.18h-61.92v-65.36h61.92v65.36ZM1126.41,473.46h56.97v-60.03h-56.97v60.03Z"/>
    <path class="cls-1" d="M1186.04,283.62v63.47h-62.02v-63.47h62.02ZM1126.61,286.01v58.49h56.85v-58.49h-56.85Z"/>
    <path class="cls-1" d="M1185.96,409.54h-61.85v-61.08h61.85v61.08ZM1126.51,406.92h56.82v-55.97h-56.82v55.97Z"/>
    <path class="cls-1" d="M1192.64,637.19h-68.62v-43.32h68.62v43.32ZM1126.6,596.28v38.26h63.61v-38.26h-63.61Z"/>
    <path class="cls-1" d="M1186,544.09v48.39h-61.87v-48.39h61.87ZM1126.51,589.86h56.81v-43.32h-56.81v43.32Z"/>
    <path class="cls-1" d="M866.86,770.68c5.11.28,10.08.43,15.02.86,4.12.36,8.2,1.15,12.32,1.55,6.62.65,13.27,1.03,19.87,1.83,1.14.14,3,1.79,3.01,2.76.18,17.11.13,34.23.13,51.64h-50.34v-58.63ZM869.47,773.22v53.63h45.02v-49.58c-14.96-1.34-29.91-2.69-45.02-4.05Z"/>
    <path class="cls-1" d="M1186.1,638.57v39.8h-62.02v-39.8h62.02ZM1126.49,675.81h56.94v-34.79h-56.94v34.79Z"/>
    <path class="cls-1" d="M721.28,246.84h-53.44v-43.32h53.44v43.32ZM670.23,244.14h48.53v-38.11h-48.53v38.11Z"/>
    <path class="cls-1" d="M772.83,203.48v43.32h-50.07v-43.32h50.07ZM725.14,244.2h45.01v-38.26h-45.01v38.26Z"/>
    <path class="cls-1" d="M1062.71,785.49c.55.36,1.16,1.1,1.65,1.02,5.04-.79,5.64,1.86,5.56,6.1-.25,12.17-.09,24.35-.09,36.75h-48.68v-45.92c14.06.73,27.88,1.45,41.7,2.17,0,0-.13-.12-.13-.12ZM1067.02,826.91v-37.88c-14.57-1.06-28.88-2.11-43.31-3.16v41.04h43.31Z"/>
    <path class="cls-1" d="M1077.6,243.35v-28.14h61.87v28.14h-61.87ZM1080.27,217.68v23.24h56.77v-23.24h-56.77Z"/>
    <path class="cls-2" d="M825.5,280.15v-32.92h364.6v32.63h-69.48v402.2c1.34,0,2.68,0,4.01,0,24.73,0,49.47-.02,74.2.04,2.51,0,4.78.16,4.53-3.31h63.93c1.28,3.68,2.18,3.89,17.16,3.19,1.29-.06,2.52-1.29,3.78-1.98-.17-.37-.34-.74-.5-1.12h61.91c.6,3.82,1.36,7.69,1.78,11.59,1.48,13.76,2.8,27.54,4.29,41.3.62,5.75,1.65,11.46,2.18,17.21.08.92-1.4,2.74-2.36,2.89-8.73,1.34-17.51,2.34-26.27,3.55-7.64,1.05-15.26,2.34-22.91,3.27-2.46.3-3.01,1.39-2.98,3.54.08,4.6.02,9.21.02,14.02h-113.84c0-5.91,0-11.89,0-17.86-.01-4.82-.19-5.04-4.9-3.77-11.39,3.05-22.76,6.18-34.13,9.35-2.23.62-3.41,1.97-3.19,4.62.28,3.32.07,6.67.07,10.21h-9.28c0-2.56,0-5.17,0-7.77-.01-2.3-.52-3.08-3.27-2.28-14.22,4.13-28.53,7.97-42.82,11.85-3.84,1.04-7.85,1.58-11.59,2.89-3.02,1.06-3.9.15-3.87-2.66,0-.84,0-1.69,0-2.53,0-26.41,0-52.83,0-79.24v-5.05h9.87v-32.09h-6.21v-107.85c2.04-.1,4.06-.2,6.26-.3v-21.55c-2.03-.13-4.06-.25-6.31-.39v-110.18h6.22v-22.7c-2.04-.1-4.06-.19-6.26-.3v-88.16c2.03-.13,4.06-.25,6.31-.39v-31.93c-86.8,3.68-173.73.67-260.95,1.99Z"/>
    <path class="cls-2" d="M1060.62,195.88v6.3c2.19.1,4.12.18,6.36.28v39.21h-98.06v-39.17c1.97-.09,3.89-.18,6.24-.29.13-1.99.26-4.02.41-6.33h85.05Z"/>
    <path class="cls-2" d="M869.72,241.89h-92.99v-39.25h92.99v39.25Z"/>
    <path class="cls-2" d="M1183.46,761.76v65.11h-45v-43.51h13v-13.08c10.74-2.86,21.22-5.65,32.01-8.52Z"/>
    <path class="cls-2" d="M909.77,241.64v-45.79h52.75v45.79h-52.75Z"/>
    <path class="cls-2" d="M1086.92,787.85c15.01-4.19,29.88-8.35,45.1-12.6v51.57h-45.1v-38.97Z"/>
    <path class="cls-2" d="M819.07,278.05h-42.44v-30.82h42.44v30.82Z"/>
    <path class="cls-2" d="M903.42,241.78h-27.31v-45.84h27.31v45.84Z"/>
    <path class="cls-2" d="M1060.25,677.64h-83.08v-15.51h-15.94v15.38h-83.55v-15.45h-15.94v15.52h-83.55v-15.44h-15.98c-.1,1.7-.2,3.45-.32,5.38h-83.17v-18.08h-15.97c-.13,1.49-.24,2.86-.38,4.51h-83.26v-17.21h-15.78c-.17,1.45-.34,2.91-.53,4.61h-83.15v-23.91h-15.94v15.38h-100.41v-30.62h-15.94v30.69h-59v-221.29h73.14c0-1.95,0-3.44,0-4.93,0-24.31-.25-48.62.09-72.92.21-14.64,1.35-29.27,2.08-44.24h99.79v27.3h15.94v-27.36h83.4v20.54h16.09v-20.45h83.55v20.52h15.94v-20.59h83.55v20.51h15.94v-20.43h83.55v20.49h15.94v-20.56h83.55v20.48h16.09v-20.55h83.24v388.25Z"/>
    <path class="cls-2" d="M678.72,283c-.12-1.64-.22-3.01-.33-4.57h-15.63c-.12,1.97-.24,3.99-.37,6.27h-83.16c-.09-2-.18-3.92-.28-6.16h-15.67c-.13,1.93-.27,3.96-.43,6.2h-82.86c-3.84-15.23-1.64-30.53-2.04-45.71-.32-12.05-.06-24.11-.06-36.43h86.72v47.59h205.58v27.84c-2.61.12-5.2.23-7.94.36-.12,1.59-.22,2.96-.35,4.61h-83.17Z"/>
    <path class="cls-2" d="M565.77,307.43v-26.45h10.45v26.45h-10.45Z"/>
    <path class="cls-2" d="M869.34,767.13v-27.53h197.75v43.36c-4.22-.2-8.44-.26-12.63-.62-4.82-.41-9.6-1.23-14.42-1.6-8.87-.68-17.76-1.09-26.63-1.74-14.39-1.06-28.77-2.23-43.16-3.37-10.37-.82-20.73-1.69-31.1-2.51-14.38-1.14-28.77-2.2-43.15-3.41-8.81-.74-17.61-1.7-26.66-2.58Z"/>
    <path class="cls-2" d="M920.87,777.37c15.02,1.1,29.8,2.19,44.9,3.3v46.08h-44.9v-49.38Z"/>
    <path class="cls-2" d="M972.18,826.77v-45.19c15.05,1.1,29.91,2.19,45.07,3.3v41.89h-45.07Z"/>
    <path class="cls-2" d="M920.81,690.7h19.69v43.36h-19.69v-43.36Z"/>
    <path class="cls-2" d="M966.7,734.16h-19.74v-43.44h13.74c-.41,4.8,3.54,2.55,6,3.44v40Z"/>
    <path class="cls-2" d="M869.3,734.04v-39.98h7.41c2.69-6.95,8.21-1.89,12.38-4.01v43.99h-19.79Z"/>
    <path class="cls-2" d="M914.48,690.78v43.33h-18.88v-43.33h18.88Z"/>
    <path class="cls-2" d="M1042.77,690.76v43.23h-19.02v-43.23h19.02Z"/>
    <path class="cls-2" d="M998.45,690.68h18.87v43.31h-18.87v-43.31Z"/>
    <path class="cls-2" d="M991.98,734.15h-18.88v-39.22c1.67-1.11,3.29-2.19,4.92-3.27l-.48-1.02h14.44v43.51Z"/>
    <path class="cls-2" d="M1049.02,690.13c4.12,1.74,9.16-2.25,12.74,3.62h5.25v40.27h-17.98v-43.89Z"/>
    <path class="cls-2" d="M315.45,639.27h84.77v58.68h97.9c0,4.48,0,8.5,0,12.53,0,12.36-.1,24.73.07,37.09.04,3.29-1.22,4.18-4.29,4.54-10.14,1.18-20.23,2.76-30.35,4.06-9.6,1.23-19.22,2.21-28.81,3.48-11.35,1.5-22.66,3.25-34,4.8-7.39,1.01-14.81,1.8-22.21,2.77-5.74.76-11.43,1.86-17.19,2.39-3.06.28-3.22,1.86-3.21,4.19.04,16.72.02,33.44.02,50.16,0,.83,0,1.66,0,2.95h-9.04c-.16,2.46-.29,4.48-.43,6.7h-33.23v-194.34Z"/>
    <path class="cls-2" d="M1445.88,763.25v-23.25c8.48,0,16.72-.08,24.96.08,1.23.02,2.53,1.03,3.64,1.81,4.74,3.3,4.37,8.35,3.47,12.93-1.08,5.44-5.87,7.82-10.75,8.27-6.93.63-13.97.16-21.31.16Z"/>
    <path class="cls-2" d="M1339.66,669.25h-143.09v-120.2h132c.59,3.69,1.36,7.42,1.76,11.19.96,9.09,1.63,18.22,2.62,27.31.96,8.78,2.29,17.53,3.25,26.31.76,6.89,1.32,13.81,1.75,20.74.67,10.56,1.15,21.13,1.7,31.7.04.83,0,1.66,0,2.95Z"/>
    <path class="cls-2" d="M361.82,202.53h101.51v80.42h-101.51v-80.42Z"/>
    <path class="cls-2" d="M1281.28,214.44v65.25h-84.64v-65.25h84.64Z"/>
    <path class="cls-2" d="M1210.79,831.84c-.1-1.61-.19-2.98-.3-4.63h-20.58v-44.53h88.77v43.51h-18.95c-.1,2.08-.19,3.72-.28,5.65h-48.65Z"/>
    <path class="cls-2" d="M570.83,244.2v-41.64h93.07v41.64h-93.07Z"/>
    <path class="cls-2" d="M1103.75,211.77v-15.95h74.75v6.39h11.65v38.7h-46.74v-29.13h-39.67Z"/>
    <path class="cls-2" d="M1371.8,822.76h-86.64v-40.1h91.46c-1.62,13.47-3.21,26.71-4.82,40.1Z"/>
    <path class="cls-2" d="M1183.48,480.02v60.18h-56.82v-60.18h56.82Z"/>
    <path class="cls-2" d="M1126.41,473.46v-60.03h56.97v60.03h-56.97Z"/>
    <path class="cls-2" d="M1126.61,286.01h56.85v58.49h-56.85v-58.49Z"/>
    <path class="cls-2" d="M1126.51,406.92v-55.97h56.82v55.97h-56.82Z"/>
    <path class="cls-2" d="M1126.6,596.28h63.61v38.26h-63.61v-38.26Z"/>
    <path class="cls-2" d="M1126.51,589.86v-43.32h56.81v43.32h-56.81Z"/>
    <path class="cls-2" d="M869.47,773.22c15.11,1.36,30.06,2.7,45.02,4.05v49.58h-45.02v-53.63Z"/>
    <path class="cls-2" d="M1126.49,675.81v-34.79h56.94v34.79h-56.94Z"/>
    <path class="cls-2" d="M670.23,244.14v-38.11h48.53v38.11h-48.53Z"/>
    <path class="cls-2" d="M725.14,244.2v-38.26h45.01v38.26h-45.01Z"/>
    <path class="cls-2" d="M1067.02,826.91h-43.31v-41.04c14.43,1.05,28.74,2.1,43.31,3.16v37.88Z"/>
    <path class="cls-2" d="M1080.27,217.68h56.77v23.24h-56.77v-23.24Z"/>
  </g>
</svg>