<?xml version="1.0" encoding="UTF-8"?>
<svg id="Capa_1" data-name="Capa 1" xmlns="http://www.w3.org/2000/svg" viewBox="0 0 1920 1080">
  <defs>
    <style>
      .cls-1 {
        fill: #000;
      }

      .cls-1, .cls-2 {
        stroke-width: 0px;
      }

      .cls-2 {
        fill: #fff;
      }
    </style>
  </defs>
  <path class="cls-2" d="M1634.16,1080H285c0-360,0-720,0-1080,448.73,0,897.47,0,1346.2.03,1.27,0,2.53.53,3.8.81-.28,1.83-.81,3.66-.81,5.5-.04,357.89-.03,715.77-.03,1073.66ZM1189.04,674.46h-89.59v7.88h-10.18v-7.97h-89.29v7.91h-11.02v-7.86h-88.58v7.99c-1.8.15-3.17.27-4.62.39v30.34h202.24v55.61h96.57c0,.17,0,.35,0,.52h-303.06c-.09-.74-.19-1.27-.21-1.81-.98-29.98,1.93-60.03-1.62-89.98-.55-4.65-.08-9.42-.08-14.08h-88.32c-.16,2.22-.31,4.25-.45,6.21h-10.87v-17.13h-88.15c-.22,1.73-.41,3.19-.59,4.58h-9.03v-49.23h-90.29v35.67h-11.03v-13.1c-1.16-.05-1.86-.11-2.56-.11-75.75,0-151.49,0-227.24,0-.56,0-1.32-.23-1.65.05-1,.84-2.52,1.79-2.64,2.84-1.03,8.95-2.36,17.92-2.51,26.91-.28,16.63-5.13,32.36-8.49,48.38-2.7,12.91-5.71,25.76-8.47,38.66-3.8,17.74-7.47,35.51-11.25,53.25-1.31,6.15-2.78,12.27-4.28,18.87h10c-8.97,35.96-17.81,71.38-26.66,106.9h65.05c0-2.95,0-5.61,0-8.27,0-5.48-.94-11.18.21-16.41,3.61-16.32,8.03-32.47,12.09-48.54.45-.21.72-.46.91-.41,15.87,3.83,31.79,7.48,47.56,11.72,3.29.88,4.03-.46,4.91-2.51,4-9.35,8.09-18.67,11.72-28.16.99-2.59,2.02-3.4,4.64-3.35,7.96.14,15.92.05,24.33.05v-9.09h7.33c.09,1.92.18,3.66.26,5.43h108.42c.19-2.03.36-3.78.51-5.4h7.08c.17,1.96.33,3.71.47,5.35h91.51c.12-1.97.22-3.61.32-5.32h7.25c.13,2.29.25,4.31.37,6.26h91.5c.15-2.24.29-4.26.42-6.21h7.5v6.16h90.28v-9.62h10.87v9.57h89.99c.1-2.25.19-4.18.29-6.15h8.33v6.25h90.82c.15-2.24.28-4.27.41-6.2h8.06c.12,1.96.22,3.61.33,5.32h89.92c.09-1.9.17-3.55.26-5.41h20.75c.15,1.94.29,3.68.42,5.36h79.19v-12.33c6.04,0,11.77-.17,17.49.06,3.33.13,4.41-.95,4.36-4.32-.18-11.95-.07-23.9-.07-35.86v-4.74h96.69v-98.77h-28.17v-7.51h28.11v-273.88h-95.91v148.48h-35.9v125.63h36.01c0,13.67.06,26.87-.11,40.07-.01,1.09-1.61,2.16-2.84,3.71.94-2.51,2.01-4.06,2.03-5.62.14-11.53.09-23.06.06-34.59,0-.92-.25-1.84-.36-2.62h-101.78v18.12h-20v-7.94ZM1311.35,524.6v-252.17h90.66v-63.34h-80.81v-18.47h-14.89c-.15-2.47-.27-4.5-.38-6.47h-95.7c-.16,2.22-.3,4.25-.44,6.22h-20.99v-9.53h-156.9v54.71h-232.32c-.16,2.32-.31,4.34-.45,6.28h-100.25v-50.95c-2.32-.15-4.35-.28-6.44-.42-.14-2.34-.26-4.36-.37-6.3h-91.51c-.15,2.23-.29,4.27-.42,6.21h-7.51v-6.17h-108.82v6.3c-1.79.15-3.16.27-4.61.39v80.1h730.06v253.6h102.08ZM1188.64,671.42v-394.32h-89.27v21.28h-10.03v-21.37h-89.44v21.46h-10.88v-21.4h-88.6v21.34h-11.03v-21.43h-88.45v21.36h-11.03v-21.3h-87.75c-.79,10.6-2.36,20.9-2.15,31.15.62,30.13-2.14,60.3,1.37,90.41.58,4.97-1.55,10.19-1.43,15.28.9,39.12-2.19,78.3,1.47,117.39.34,3.61-1.5,7.38-1.49,11.07.11,34.91-1.07,69.85,1.72,104.72.02.23.28.45.4.62h87.88c.12-1.96.22-3.6.32-5.32h10.98v18.91h88.14c.16-2.23.3-4.26.43-6.2h10.89v16.26h88.6v-16.35h10.88v16.29h89.44v-16.22h10.03v16.37h88.98ZM697.18,275.06h-4.54c-104.53,0-209.06,0-313.6,0-.7,0-1.41.06-2.11,0-2.58-.24-3.41.96-3.45,3.47-.05,3.46-.62,6.92-.76,10.38-.61,15.35-1.13,30.71-1.72,46.06-.23,5.99-.58,11.98-.82,17.97-.59,14.79-1.12,29.59-1.71,44.38-.53,13.39-1.14,26.77-1.67,40.16-.59,14.79-1.12,29.59-1.7,44.38-.54,13.67-1.14,27.34-1.67,41-.59,15.21-1.19,30.43-1.68,45.64-.37,11.61-.58,23.23-.87,34.84-.02.69-.17,1.38-.22,2.07-.27,3.97-.53,7.93-.8,11.9h238.07v-12.4h99.24v-329.86ZM1573.1,827.45c11.07,0,21.68.38,32.25-.13,7.52-.36,12.91-4.82,15.55-11.88,2.72-7.27.39-14.5-5.91-19.41-1.54-1.2-3.58-1.75-5.8-2.78.89-.71,1.5-1.46,2.28-1.79,5.64-2.34,7.15-7.31,7.08-12.53-.07-5.44-2.21-10.15-7.74-12.7-12.18-5.61-24.97-2.17-37.72-3.33v64.55ZM1520.91,801.29c6.72,0,12.87.08,19.02-.02,10.56-.17,19.88-3.81,22.09-17.15,1.12-6.77-2.86-18.07-11.07-19.15-12.64-1.66-25.48-1.87-38.42-2.7v65.69h8.39v-26.66ZM700.07,234.28h197.62v-50.13h-197.62v50.13ZM1202.61,639.26h72v-104.94h-72v104.94ZM995.19,768.37h101.5v-54.34h-101.5v54.34ZM899.15,184.14v50.11h98.17v-50.11h-98.17ZM1312.35,770.51v49.84h21.46c.14,1.81.24,3.17.35,4.58h53.54c.21-1.72.39-3.18.61-4.91h17.95v-49.51h-93.89ZM1505.2,770.62h-97.56v45.28c23.04,0,45.77,0,68.5,0,6.74,0,13.48.09,20.21-.08,1.24-.03,3.16-.87,3.53-1.83.78-2,.76-4.31,1.04-6.5.77-6.02,1.56-12.04,2.26-18.07.72-6.17,1.33-12.35,2.02-18.8ZM895.73,714.01v47.62h50.05v-47.62h-50.05ZM947.11,761.6h46.7v-47.56h-46.7v47.56ZM1202.73,640.59v20.58h71.15v-20.58h-71.15ZM1030.96,234.37v-50.1h-32.37v50.1h32.37Z"/>
  <path class="cls-1" d="M1634.16,1080c0-357.89,0-715.77.03-1073.66,0-1.83.53-3.66.81-5.5,0,358.45,0,716.91-.03,1075.36,0,1.27-.53,2.53-.81,3.8Z"/>
  <path class="cls-1" d="M1189.04,674.46v7.94h20v-18.12h101.78c.11.78.36,1.7.36,2.62.03,11.53.08,23.06-.06,34.59-.02,1.56-1.09,3.1-2.03,5.62,1.23-1.55,2.82-2.62,2.84-3.71.17-13.2.11-26.4.11-40.07h-36.01v-125.63h35.9v-148.48h95.91v273.88h-28.11v7.51h28.17v98.77h-96.69v4.74c0,11.95-.11,23.91.07,35.86.05,3.37-1.03,4.45-4.36,4.32-5.72-.23-11.45-.06-17.49-.06v12.33h-79.19c-.13-1.68-.27-3.42-.42-5.36h-20.75c-.09,1.86-.17,3.51-.26,5.41h-89.92c-.1-1.71-.21-3.36-.33-5.32h-8.06c-.13,1.93-.26,3.96-.41,6.2h-90.82v-6.25h-8.33c-.09,1.97-.18,3.9-.29,6.15h-89.99v-9.57h-10.87v9.62h-90.28v-6.16h-7.5c-.13,1.95-.27,3.98-.42,6.21h-91.5c-.11-1.95-.23-3.97-.37-6.26h-7.25c-.1,1.71-.2,3.35-.32,5.32h-91.51c-.15-1.65-.3-3.4-.47-5.35h-7.08c-.15,1.62-.32,3.37-.51,5.4h-108.42c-.09-1.77-.17-3.52-.26-5.43h-7.33v9.09c-8.41,0-16.37.09-24.33-.05-2.62-.05-3.65.76-4.64,3.35-3.63,9.49-7.72,18.81-11.72,28.16-.88,2.05-1.62,3.4-4.91,2.51-15.76-4.24-31.69-7.88-47.56-11.72-.2-.05-.47.2-.91.41-4.07,16.07-8.48,32.22-12.09,48.54-1.16,5.23-.21,10.93-.21,16.41,0,2.66,0,5.31,0,8.27h-65.05c8.86-35.52,17.7-70.94,26.66-106.9h-10c1.5-6.6,2.97-12.72,4.28-18.87,3.78-17.74,7.45-35.51,11.25-53.25,2.76-12.9,5.77-25.75,8.47-38.66,3.36-16.03,8.21-31.76,8.49-48.38.15-8.98,1.48-17.95,2.51-26.91.12-1.05,1.64-2,2.64-2.84.33-.28,1.09-.05,1.65-.05,75.75,0,151.49,0,227.24,0,.7,0,1.4.06,2.56.11v13.1h11.03v-35.67h90.29v49.23h9.03c.18-1.39.37-2.85.59-4.58h88.15v17.13h10.87c.14-1.96.29-3.98.45-6.21h88.32c0,4.66-.48,9.43.08,14.08,3.56,29.95.64,60,1.62,89.98.02.54.12,1.07.21,1.81h303.06c0-.17,0-.35,0-.52h-96.57v-55.61h-202.24v-30.34c1.46-.12,2.82-.24,4.62-.39v-7.99h88.58v7.86h11.02v-7.91h89.29v7.97h10.18v-7.88h89.59ZM1405.35,766.93v-93.71h-28.12v-12.72h28.21v-268.75h-91.01v148.34h-35.85v120.71h36c0,14.51-.16,28.56.11,42.61.07,3.58-1.65,4.66-4.38,5.26-7.91,1.75-15.84,3.44-23.77,5.09-28.65,5.94-57.32,11.82-85.93,17.92-1.03.22-2.26,2.54-2.29,3.91-.19,10.68-.1,21.37-.11,32.06,0,1.36-.12,2.72-.19,4.09h-309.03c-.1-.69-.21-1.1-.21-1.51-.34-33.51,1.05-67.04-1.7-100.51-.1-1.22-.13-2.44-.19-3.73h-83.35v6.24h-16.08v-17.15h-83.2c-.13,1.69-.24,3.05-.37,4.73-3.44,0-6.66-.19-9.84.05-3.35.26-4.39-.97-4.35-4.32.16-13.64.07-27.28.07-40.92,0-1.48,0-2.95,0-4.37h-85.26v35.72h-16.09v-12.91h-228.93c-.4,2.3-.94,4.32-1.08,6.37-.64,9.16-1.1,18.34-1.76,27.5-.24,3.3-.63,6.62-1.32,9.85-3.12,14.5-6.41,28.97-9.58,43.46-3.93,17.98-7.82,35.98-11.69,53.97-3.03,14.09-6.01,28.19-9.09,42.69h9.96c-8.93,35.79-17.75,71.15-26.63,106.72h59.36c0-5.16-.21-10.07.06-14.95.24-4.25.8-8.52,1.63-12.7,1.21-6.06,2.73-12.06,4.24-18.05,2.15-8.51,4.34-17.02,6.74-25.46.3-1.06,2.24-2.61,3.07-2.41,16.53,3.91,33,8.04,49.71,12.18,4.06-9.79,8.18-19.52,12.11-29.33,1.41-3.52,3.04-5.64,7.48-5.32,6.94.49,13.94.13,21.37.13v-9.07h12.33c.11,1.94.22,3.68.32,5.4h103.43c.1-1.94.18-3.58.27-5.37h12.28c.18,1.98.34,3.72.48,5.32h86.43c.13-1.98.23-3.62.33-5.28h12.55v6.23h86.59c.14-2.25.27-4.28.39-6.17h12.3c.11,2.26.21,4.18.31,6.12h85.23v-9.59h15.93v9.68h84.86c.12-2.21.22-4.23.33-6.26h13.42v6.21h85.74c.14-2.26.26-4.28.38-6.31h13.14c.1,1.92.19,3.66.29,5.43h84.9c.1-1.92.18-3.57.27-5.39h25.77c.18,1.96.34,3.71.48,5.34h74.11v-12.45h21.99v-44.63h96.44ZM1100.43,724.78h5.02c27.26,0,54.53-.06,81.79.03,10.58.03,20.9-.81,31.36-3.15,29.09-6.52,58.4-12.04,87.6-18.07.96-.2,2.35-1.7,2.36-2.61.16-11.34.11-22.69.11-34.15h-97.15v18.06h-25.21v-7.88h-84.38v7.83h-15.24v-7.92h-84.23v7.85h-16.07v-7.8h-83.39v7.97c-1.74.13-3.2.23-4.67.34v25.37h202.11v14.11ZM1192.97,729.3h-92.22v36.6h92.22v-36.6ZM1195.26,729.52c.3.19.59.37.89.56,13.87-2.96,27.74-5.91,41.61-8.87-.79-.62-1.5-.73-2.16-.61-12.7,2.23-25.41,4.44-38.08,6.8-.85.16-1.5,1.39-2.25,2.12Z"/>
  <path class="cls-1" d="M1311.35,524.6h-102.08v-253.6H479.21v-80.1c1.46-.12,2.82-.24,4.61-.39v-6.3h108.82v6.17h7.51c.13-1.94.27-3.98.42-6.21h91.51c.12,1.95.24,3.97.37,6.3,2.09.14,4.11.27,6.44.42v50.95h100.25c.14-1.94.28-3.97.45-6.28h232.32v-54.71h156.9v9.53h20.99c.14-1.97.29-3.99.44-6.22h95.7c.12,1.97.24,3.99.38,6.47h14.89v18.47h80.81v63.34h-90.66v252.17ZM481.66,268.48h730.14v253.55h97.02v-252.13h90.66v-58.28h-80.81v-18.47h-14.88c-.15-2.47-.27-4.5-.38-6.46h-90.64c-.16,2.23-.31,4.25-.45,6.21h-26.05v-9.53h-151.84v54.71h-232.32c-.16,2.32-.31,4.34-.45,6.28h-105.31v-50.95c-2.32-.15-4.35-.28-6.44-.42-.14-2.34-.26-4.36-.37-6.3h-86.44c-.16,2.23-.3,4.26-.44,6.21h-12.29c-.1-2.24-.18-4.16-.27-6.17h-103.76v6.31c-1.79.14-3.16.25-4.68.38v75.05Z"/>
  <path class="cls-1" d="M1188.64,671.42h-88.98v-16.37h-10.03v16.22h-89.44v-16.29h-10.88v16.35h-88.6v-16.26h-10.89c-.13,1.93-.28,3.96-.43,6.2h-88.14v-18.91h-10.98c-.1,1.72-.2,3.36-.32,5.32h-87.88c-.11-.17-.38-.38-.4-.62-2.8-34.87-1.62-69.81-1.72-104.72-.01-3.69,1.83-7.46,1.49-11.07-3.66-39.1-.58-78.27-1.47-117.39-.12-5.08,2.01-10.31,1.43-15.28-3.51-30.1-.75-60.28-1.37-90.41-.21-10.25,1.37-20.55,2.15-31.15h87.75v21.3h11.03v-21.36h88.45v21.43h11.03v-21.34h88.6v21.4h10.88v-21.46h89.44v21.37h10.03v-21.28h89.27v394.32ZM1002.42,279.47v21.45h-16.09v-21.39h-83.39v21.48h-15.94v-21.42h-83.54v21.36h-16.09v-21.44h-82.53c-.83,9.25-2.5,18.26-2.3,27.22.66,29.85-2.12,59.73,1.35,89.57.69,5.94-1.55,12.16-1.41,18.23.87,38.14-2.09,76.32,1.42,114.45.6,6.54-1.11,13.27-1.47,19.93-.26,4.91-.07,9.84-.05,14.76.12,26.76-.65,53.55,1.71,80.26.03.39.19.78.32,1.3h82.92c.18-1.98.33-3.72.49-5.45h15.79v18.9h83.54v-6.19h16.07v16.4h83.39v-16.34h16.09v16.28h84.38v-16.36h15.09v16.3h83.98v-389.2h-84.29v21.43h-15.09v-21.51h-84.38Z"/>
  <path class="cls-1" d="M697.18,275.06v329.86h-99.24v12.4h-238.07c.27-3.97.53-7.94.8-11.9.05-.69.2-1.38.22-2.07.29-11.61.5-23.23.87-34.84.49-15.22,1.09-30.43,1.68-45.64.53-13.67,1.13-27.34,1.67-41,.58-14.79,1.11-29.59,1.7-44.38.53-13.39,1.14-26.77,1.67-40.16.59-14.79,1.12-29.59,1.71-44.38.24-5.99.59-11.98.82-17.97.59-15.35,1.11-30.71,1.72-46.06.14-3.47.71-6.92.76-10.38.04-2.51.87-3.71,3.45-3.47.7.07,1.4,0,2.11,0,104.53,0,209.06,0,313.6,0h4.54ZM694.64,277.88h-318.39c-.63,10.98-1.37,21.67-1.84,32.37-.67,15.07-1.13,30.15-1.72,45.22-.52,13.25-1.13,26.49-1.67,39.74-.59,14.65-1.12,29.3-1.7,43.95-.55,13.81-1.13,27.62-1.68,41.43-.57,14.37-1.13,28.74-1.69,43.11-.56,14.09-1.2,28.18-1.66,42.27-.39,11.89-.52,23.79-.9,35.68-.14,4.37-.65,8.73-1,13.15h233v-12.39h99.25v-324.53Z"/>
  <path class="cls-1" d="M1573.1,827.45v-64.55c12.75,1.16,25.53-2.28,37.72,3.33,5.52,2.54,7.66,7.26,7.74,12.7.07,5.22-1.44,10.19-7.08,12.53-.78.33-1.39,1.07-2.28,1.79,2.22,1.04,4.26,1.58,5.8,2.78,6.3,4.91,8.63,12.14,5.91,19.41-2.64,7.06-8.03,11.52-15.55,11.88-10.57.5-21.19.13-32.25.13ZM1581.02,797.53v23.71c6.1,0,11.99.47,17.76-.17,3.79-.42,7.81-1.8,11.01-3.87,3.67-2.36,4.22-6.75,3.36-10.91-.78-3.77-3.18-6.96-6.98-7.36-8.24-.86-16.57-.98-25.15-1.41ZM1581,790.87c5.72,0,10.93.28,16.08-.11,3.07-.23,6.17-1.25,9.06-2.4,4.37-1.75,4.85-5.88,4.57-9.79-.28-3.94-2.87-7.12-6.71-7.38-7.61-.52-15.29-.15-22.99-.15v19.83Z"/>
  <path class="cls-1" d="M1520.91,801.29v26.66h-8.39v-65.69c12.94.83,25.78,1.04,38.42,2.7,8.21,1.08,12.19,12.39,11.07,19.15-2.2,13.34-11.53,16.98-22.09,17.15-6.15.1-12.3.02-19.02.02ZM1521.02,795.02c8.88-.83,17.4-.86,25.56-2.62,7.6-1.64,10-12.82,4.33-18.24-1.8-1.72-4.77-2.96-7.27-3.1-7.49-.4-15.01-.14-22.62-.14v24.11Z"/>
  <path class="cls-1" d="M700.07,234.28v-50.13h197.62v50.13h-197.62ZM702.58,231.73h192.71v-45.03h-192.71v45.03Z"/>
  <path class="cls-1" d="M1202.61,639.26v-104.94h72v104.94h-72ZM1205.16,636.78h66.97v-99.84h-66.97v99.84Z"/>
  <path class="cls-1" d="M995.19,768.37v-54.34h101.5v54.34h-101.5ZM997.72,765.83h96.44v-49.27h-96.44v49.27Z"/>
  <path class="cls-1" d="M899.15,184.14h98.17v50.11h-98.17v-50.11ZM994.8,186.76h-93.07v45.05h93.07v-45.05Z"/>
  <path class="cls-1" d="M1312.35,770.51h93.89v49.51h-17.95c-.21,1.73-.39,3.2-.61,4.91h-53.54c-.11-1.41-.21-2.77-.35-4.58h-21.46v-49.84ZM1403.77,773.16h-88.88v44.55h21.43c.13,1.74.24,3.21.35,4.67h48.59c.11-1.64.19-3,.31-4.8h18.2v-44.42Z"/>
  <path class="cls-1" d="M1505.2,770.62c-.69,6.45-1.3,12.63-2.02,18.8-.7,6.03-1.5,12.05-2.26,18.07-.28,2.19-.26,4.5-1.04,6.5-.37.95-2.29,1.79-3.53,1.83-6.73.18-13.47.08-20.21.08-22.73,0-45.46,0-68.5,0v-45.28h97.56ZM1410.05,813.15h87.64c1.59-13.43,3.17-26.67,4.76-40.06h-92.4v40.06Z"/>
  <path class="cls-1" d="M895.73,714.01h50.05v47.62h-50.05v-47.62ZM943.29,759.29v-42.65h-44.93v42.65h44.93Z"/>
  <path class="cls-1" d="M947.11,761.6v-47.56h46.7v47.56h-46.7ZM991.42,716.63h-41.64v42.54h41.64v-42.54Z"/>
  <path class="cls-1" d="M1202.73,640.59h71.15v20.58h-71.15v-20.58ZM1205.15,658.67h66.08v-15.51h-66.08v15.51Z"/>
  <path class="cls-1" d="M1030.96,234.37h-32.37v-50.1h32.37v50.1ZM1000.97,231.76h27.45v-44.96h-27.45v44.96Z"/>
  <path class="cls-2" d="M1405.35,766.93h-96.44v44.63h-21.99v12.45h-74.11c-.15-1.62-.31-3.37-.48-5.34h-25.77c-.09,1.82-.17,3.47-.27,5.39h-84.9c-.09-1.76-.18-3.51-.29-5.43h-13.14c-.12,2.03-.25,4.05-.38,6.31h-85.74v-6.21h-13.42c-.11,2.03-.21,4.05-.33,6.26h-84.86v-9.68h-15.93v9.59h-85.23c-.1-1.94-.19-3.86-.31-6.12h-12.3c-.12,1.9-.25,3.93-.39,6.17h-86.59v-6.23h-12.55c-.11,1.66-.21,3.29-.33,5.28h-86.43c-.14-1.6-.3-3.34-.48-5.32h-12.28c-.09,1.79-.17,3.43-.27,5.37h-103.43c-.1-1.73-.2-3.47-.32-5.4h-12.33v9.07c-7.42,0-14.42.36-21.37-.13-4.44-.31-6.07,1.8-7.48,5.32-3.93,9.8-8.05,19.53-12.11,29.33-16.71-4.14-33.18-8.27-49.71-12.18-.82-.19-2.77,1.36-3.07,2.41-2.41,8.44-4.59,16.95-6.74,25.46-1.51,5.99-3.03,11.99-4.24,18.05-.83,4.18-1.39,8.44-1.63,12.7-.28,4.88-.06,9.79-.06,14.95h-59.36c8.88-35.57,17.7-70.93,26.63-106.72h-9.96c3.09-14.5,6.06-28.6,9.09-42.69,3.87-18,7.76-35.99,11.69-53.97,3.17-14.49,6.46-28.96,9.58-43.46.7-3.23,1.08-6.55,1.32-9.85.66-9.16,1.12-18.34,1.76-27.5.14-2.05.68-4.08,1.08-6.37h228.93v12.91h16.09v-35.72h85.26c0,1.41,0,2.89,0,4.37,0,13.64.1,27.28-.07,40.92-.04,3.35.99,4.58,4.35,4.32,3.19-.24,6.41-.05,9.84-.05.13-1.68.24-3.04.37-4.73h83.2v17.15h16.08v-6.24h83.35c.06,1.28.09,2.51.19,3.73,2.76,33.47,1.36,67,1.7,100.51,0,.41.11.81.21,1.51h309.03c.07-1.37.19-2.73.19-4.09.02-10.69-.08-21.37.11-32.06.02-1.36,1.26-3.69,2.29-3.91,28.62-6.1,57.28-11.98,85.93-17.92,7.93-1.65,15.86-3.34,23.77-5.09,2.73-.6,4.45-1.68,4.38-5.26-.27-14.04-.11-28.1-.11-42.61h-36v-120.71h35.85v-148.34h91.01v268.75h-28.21v12.72h28.12v93.71Z"/>
  <path class="cls-2" d="M1100.43,724.78v-14.11h-202.11v-25.37c1.47-.11,2.93-.21,4.67-.34v-7.97h83.39v7.8h16.07v-7.85h84.23v7.92h15.24v-7.83h84.38v7.88h25.21v-18.06h97.15c0,11.45.06,22.8-.11,34.15-.01.91-1.4,2.41-2.36,2.61-29.2,6.03-58.51,11.55-87.6,18.07-10.46,2.34-20.78,3.18-31.36,3.15-27.26-.09-54.52-.03-81.79-.03h-5.02Z"/>
  <path class="cls-2" d="M1192.97,729.3v36.6h-92.22v-36.6h92.22Z"/>
  <path class="cls-2" d="M1195.26,729.52c.74-.73,1.4-1.97,2.25-2.12,12.68-2.36,25.38-4.57,38.08-6.8.67-.12,1.37-.02,2.16.61-13.87,2.96-27.74,5.91-41.61,8.87-.3-.19-.59-.37-.89-.56Z"/>
  <path class="cls-2" d="M481.66,268.48v-75.05c1.53-.12,2.89-.23,4.68-.38v-6.31h103.76c.09,2,.17,3.93.27,6.17h12.29c.14-1.95.28-3.98.44-6.21h86.44c.12,1.95.24,3.97.37,6.3,2.09.14,4.12.27,6.44.42v50.95h105.31c.14-1.94.28-3.97.45-6.28h232.32v-54.71h151.84v9.53h26.05c.14-1.96.29-3.99.45-6.21h90.64c.12,1.96.24,3.99.38,6.46h14.88v18.47h80.81v58.28h-90.66v252.13h-97.02v-253.55H481.66Z"/>
  <path class="cls-2" d="M1002.42,279.47h84.38v21.51h15.09v-21.43h84.29v389.2h-83.98v-16.3h-15.09v16.36h-84.38v-16.28h-16.09v16.34h-83.39v-16.4h-16.07v6.19h-83.54v-18.9h-15.79c-.16,1.73-.31,3.47-.49,5.45h-82.92c-.13-.52-.29-.91-.32-1.3-2.36-26.71-1.59-53.5-1.71-80.26-.02-4.92-.21-9.85.05-14.76.36-6.66,2.07-13.39,1.47-19.93-3.51-38.13-.55-76.31-1.42-114.45-.14-6.07,2.1-12.29,1.41-18.23-3.47-29.83-.69-59.72-1.35-89.57-.2-8.97,1.47-17.97,2.3-27.22h82.53v21.44h16.09v-21.36h83.54v21.42h15.94v-21.48h83.39v21.39h16.09v-21.45Z"/>
  <path class="cls-2" d="M694.64,277.88v324.53h-99.25v12.39h-233c.35-4.41.86-8.77,1-13.15.38-11.89.51-23.79.9-35.68.46-14.09,1.1-28.18,1.66-42.27.57-14.37,1.12-28.74,1.69-43.11.55-13.81,1.13-27.62,1.68-41.43.58-14.65,1.11-29.3,1.7-43.95.53-13.25,1.14-26.49,1.67-39.74.6-15.07,1.05-30.15,1.72-45.22.48-10.7,1.21-21.4,1.84-32.37h318.39Z"/>
  <path class="cls-2" d="M1581.02,797.53c8.58.43,16.9.54,25.15,1.41,3.8.4,6.2,3.59,6.98,7.36.86,4.16.31,8.54-3.36,10.91-3.2,2.06-7.21,3.45-11.01,3.87-5.77.63-11.66.17-17.76.17v-23.71Z"/>
  <path class="cls-2" d="M1581,790.87v-19.83c7.71,0,15.38-.36,22.99.15,3.85.26,6.43,3.44,6.71,7.38.28,3.91-.2,8.03-4.57,9.79-2.89,1.16-5.99,2.17-9.06,2.4-5.15.39-10.36.11-16.08.11Z"/>
  <path class="cls-2" d="M1521.02,795.02v-24.11c7.61,0,15.13-.26,22.62.14,2.5.13,5.46,1.37,7.27,3.1,5.67,5.42,3.27,16.6-4.33,18.24-8.15,1.76-16.68,1.79-25.56,2.62Z"/>
  <path class="cls-2" d="M702.58,231.73v-45.03h192.71v45.03h-192.71Z"/>
  <path class="cls-2" d="M1205.16,636.78v-99.84h66.97v99.84h-66.97Z"/>
  <path class="cls-2" d="M997.72,765.83v-49.27h96.44v49.27h-96.44Z"/>
  <path class="cls-2" d="M994.8,186.76v45.05h-93.07v-45.05h93.07Z"/>
  <path class="cls-2" d="M1403.77,773.16v44.42h-18.2c-.12,1.8-.2,3.17-.31,4.8h-48.59c-.11-1.46-.22-2.93-.35-4.67h-21.43v-44.55h88.88Z"/>
  <path class="cls-2" d="M1410.05,813.15v-40.06h92.4c-1.59,13.39-3.16,26.63-4.76,40.06h-87.64Z"/>
  <path class="cls-2" d="M943.29,759.29h-44.93v-42.65h44.93v42.65Z"/>
  <path class="cls-2" d="M991.42,716.63v42.54h-41.64v-42.54h41.64Z"/>
  <path class="cls-2" d="M1205.15,658.67v-15.51h66.08v15.51h-66.08Z"/>
  <path class="cls-2" d="M1000.97,231.76v-44.96h27.45v44.96h-27.45Z"/>
</svg>