<?xml version="1.0" encoding="UTF-8"?>
<svg id="Capa_1" data-name="Capa 1" xmlns="http://www.w3.org/2000/svg" xmlns:xlink="http://www.w3.org/1999/xlink" viewBox="0 0 1920 1080">
  <defs>
    <style>
      .cls-1 {
        fill: #000;
      }

      .cls-1, .cls-2 {
        stroke-width: 0px;
      }

      .cls-2 {
        fill: #fff;
      }
    </style>
  </defs>
  <image width="1600" height="1280" transform="translate(246) scale(.84)" xlink:href="../../../Documents/sede-Layout1 (2).png"/>
  <g>
    <path class="cls-2" d="M1594.31,1080H246c0-360,0-720,0-1080,450,0,900,0,1350,0,0,358.73,0,717.47-.03,1076.2,0,1.27-.53,2.53-.81,3.8V1.91c-.28,0-.56,0-.84,0v1078.09ZM1419.03,74.79h-367.86v-19.17h-25.36v-31.78h-72.99c-.14,1.94-.27,3.69-.42,5.69h-213.56c-17.71,0-35.41-.04-53.12.01-17.74.05-35.49-.25-53.22.21v80.86h362.88v398.7h-52.13v-14.28c-33.27,1.29-66.24-1.63-99.49,1.98v-24.26h-89.45v11.34h-10.04v-21.41h-105.18c-.12,1.95-.21,3.6-.34,5.68h-118.7v5.03c0,24.61.04,49.22-.06,73.83-.01,2.71-.48,5.53-1.35,8.1-7.5,22.26-15.16,44.45-22.71,66.69-3.57,10.54-7.06,21.1-10.46,31.7-3.29,10.25-7.33,20.11-9.01,31.05-2.37,15.4-7.37,30.38-11.2,45.56-1.26,5-2.38,10.04-3.59,15.15,16.9,4.17,33.34,8,49.62,12.4,4.27,1.15,4.68-.86,5.4-3.75,4.89-19.56,9.81-39.12,14.89-59.37,16.07,4.41,32,8.77,48.46,13.29,4.87-10.86,9.68-21.59,14.69-32.77-3.06-.18-5.47-.33-8.05-.48.65-1.87,1.17-3.41,1.72-4.94,1.01-2.78,2.29-4.54,5.96-4.24,5.86.48,11.79.13,17.7.13h10.61v-87.05h-7.98v-20.69h10.92v103.31h68.22v-106.94h3.77c116.36,0,232.72.01,349.08-.05,4,0,5.58,1.01,5.55,5.42-.19,31.22-.04,62.43-.18,93.65-.02,3.83,1.43,4.9,4.86,4.8,4.07-.13,8.15-.03,12.23-.03,9.94,0,19.88,0,30.21,0v-92.68q0-7.26-7.13-7.84c-.1,0-.17-.3-.58-1.07,3.57.43,6.7.96,9.85,1.15,10.85.64,21.7,1.15,32.55,1.72,10.57.56,21.14,1.13,31.71,1.68,10.71.57,21.42,1.13,32.13,1.69,10.99.57,21.98,1.26,32.98,1.65,12.31.44,24.62.73,36.94.85,15.32.14,30.64.03,45.95.03h3.8c0,.34,0,.69-.01,1.03h-66.18v42.15h67.31v49.38h45.96v-47.96h-9.89v-87.81h-13.32v-26.99c.4.11.8.23,1.19.34.7-1.61,1.99-3.21,2-4.82.12-34.87.12-69.75,0-104.62,0-1.61-1.32-3.22-2.03-4.83-.38.12-.77.23-1.15.35v-16.96c4.03,1.11,3.27-1.68,3.27-3.91,0-35.72.03-71.43-.09-107.15,0-1.61-1.34-3.22-2.06-4.83-.37.12-.74.24-1.11.36v-16.39c.41.11.83.21,1.24.32.67-1.6,1.92-3.2,1.93-4.81.12-28.69.12-57.37,0-86.06,0-1.61-1.37-3.22-2.1-4.84-.46.13-.93.25-1.39.38v-19.5c-1.85,0-3.38,0-4.9,0-16.3,0-32.6.01-48.91,0-3.39,0-3.39-.06-2.52-3.53h56.25c.22-1.49.4-2.67.56-3.71h20.98v7.8h101.95v-6.33c2-.1,3.75-.18,5.51-.26v-59.57h-51.04v22.27ZM506.02,121.7v336.29h233.36c2.12-1.89,3.43-3.07,4.87-4.36.11-1.05.24-2.38.4-4h12.39v-11.88h88.6c-.73-22.85,1.3-45.28-1.79-67.61,3.85-22.45,1.21-45.08,1.51-67.61.3-22.31,1.58-44.68-1.89-67.27h8.54v-97.09h-8.31v-24.83h-89.45v29.25c-30.25,0-60.04-.32-89.82.2-9.03.16-18.37-2.87-27.3,2.11-2.53,1.41-6.5.21-10.11.21v-23.41h-121.01ZM853.96,114.06c0,1.57,0,2.68,0,3.79-.28,44.09-.66,88.17-.81,132.26-.14,38.1,0,76.19-.08,114.29,0,3.89,1.15,5.28,5.28,5.25,26.97-.18,53.95-.09,80.92-.1,5.17,0,5.76-.59,5.76-5.71,0-25.73,0-51.45,0-77.18v-4.96h49.42v-43.56h-41.08v7.89h-9.8v-10.07c17.14.51,34.07,1.02,51,1.52v-125.87h-40.42v26.53h-10.87v-24.1h-89.32ZM505.56,762.76c.02-.46.05-.92.07-1.38-1.23-.67-2.46-1.91-3.7-1.92-16.72-.13-33.44-.16-50.15.05-1.4.02-3.64,1.74-4.03,3.09-2.82,9.61-5.19,19.35-7.82,29.01-5.55,20.39-11.18,40.75-16.76,61.13-5.11,18.66-10.16,37.34-15.27,56-4.17,15.21-8.01,30.53-12.73,45.58-3.94,12.56-8.92,24.79-13.46,37.16-5.87,15.98-11.67,31.98-17.68,47.9-2.22,5.88-2.31,6.03,3.8,6.03,55.07,0,110.15,0,165.22,0,.98,0,2.13.31,2.91-.09,1.03-.53,2.44-1.57,2.52-2.49.74-8.45,1.23-16.92,1.8-25.38.55-8.04,1.18-16.08,1.65-24.13.9-15.3,1.68-30.6,2.58-45.9.47-8.05,1.17-16.09,1.64-24.13.9-15.3,1.68-30.6,2.57-45.9.47-8.05,1.15-16.09,1.64-24.13.89-14.59,1.76-29.19,2.54-43.79.4-7.53.46-15.08.91-22.61.35-5.81,1.13-11.59,1.6-17.39.18-2.17.03-4.36.03-6.69h-49.89ZM853.81,370.59v123.53h89.67v-12.06h11.03v12.15h40v-211.22h-48.4v84.99h7.87v10.63h-10.75v-8.02h-89.42ZM1044.37,555.32c-1.2-.05-2.03-.12-2.85-.12-61.65,0-123.31.03-184.96-.09-3.84,0-4.34,1.55-4.33,4.77.08,31.48.05,62.96.06,94.43,0,1.21.15,2.41.26,3.93,64.11-.65,127.89.91,191.82-1.13v-101.79ZM1500.2,619.53c.89-5.71-1.71-10.23-5.7-13.32-6.85-5.31-15.3-6.51-23.49-4.88-4.9.97-10.72,3.36-13.65,7.07-8.08,10.27-1.72,22.3,9.31,25.75,7.08,2.22,14.35,3.84,21.42,6.08,6.67,2.11,9.78,11.11,5.1,15.01-6.4,5.33-14.01,7.35-22.19,4.78-6.77-2.13-11.21-6.71-12.26-14.03h-7.54c.71,7.7,3.65,13.72,10.08,17.77,9.6,6.04,26.45,6.53,36.09-2.64,3.76-3.58,5.97-8.25,5.45-13.44-.63-6.34-3.65-12.04-9.73-14.32-7.95-2.98-16.35-4.81-24.59-7.01-3.97-1.06-6.07-3.8-6.76-7.53-.73-3.95.85-7.1,4.61-8.84,6.39-2.96,13.02-2.76,19.4-.35,2.32.88,5.22,3.21,5.72,5.37,1.2,5.15,4.14,5.53,8.73,4.52ZM694.78,661.2h50.94v-105.81h-50.89v63.19h14.7c0,.28-.01.55-.02.83h-14.73v41.79ZM848.62,657.93v-102.41h-50.09v102.41h50.09ZM747.16,555.39v101.56h50.09v-101.56h-50.09ZM1248.03,23.83v50.11h99.87V23.83h-99.87ZM1196.62,563.35v94.57h53.66c0-7.33,0-14.46,0-21.59,0-21.93,0-43.86,0-65.8,0-2.07.48-4.33-2.89-4.41-6.55-.15-13.1-.53-19.65-.81-1.12-.05-2.25.02-3.37-.06-9.14-.62-18.29-1.26-27.75-1.91ZM1100.49,558.22v99.7h46.43c.2-.44.4-.68.4-.92.04-30.93.05-61.86.11-92.79,0-2.42-1.08-3.09-3.34-3.16-5.57-.16-11.13-.49-16.69-.86-8.86-.6-17.72-1.29-26.92-1.97ZM1195.47,657.92v-4.86c0-19.26,0-38.52,0-57.78,0-9.28.08-18.56-.1-27.84-.02-1.28-1.16-3.4-2.14-3.63-3.07-.73-6.31-.87-9.49-1.01-8.23-.36-16.47-.52-24.7-.9-3.51-.16-7.01-.67-10.59-1.02v97.03h47.02ZM1053.27,23.81v49.26h90.54V23.81h-90.54ZM1533.74,615.77v51.1h6.98v-66.06c-2.4,1.48-4.25,2.21-5.54,3.5-3.58,3.58-6.62,7.5-11.4,9.96-6.47,3.33-6.57,4.41-5.28,10.9,4.93-3.04,9.66-5.96,15.23-9.39ZM1317.55,610.33h-66.09v47.57h66.09v-47.57ZM1422.09,610.31h-55.97v47.62h55.97v-47.62ZM516.45,759.84c.92.17,1.45.35,1.97.35,11.79.02,23.58.11,35.36-.1,1.35-.02,3.26-1.46,3.89-2.74,3.23-6.53,6.14-13.21,9.12-19.86,4.1-9.13,8.16-18.27,12.62-28.26-15.51-4.21-30.77-8.34-46.34-12.56-5.58,21.2-11.09,42.1-16.63,63.17ZM1183.37,74.06V23.96h-31.53v50.1h31.53ZM1246.61,74.06V23.97h-30.67v50.1h30.67ZM1184.81,23.81v50.1h29.83V23.81h-29.83Z"/>
    <path class="cls-1" d="M1594.31,1080V1.91c.28,0,.56,0,.84,0v1078.09h-.84Z"/>
    <path class="cls-1" d="M1419.03,74.79v-22.27h51.04v59.57c-1.76.08-3.51.17-5.51.26v6.33h-101.95v-7.8h-20.98c-.16,1.03-.33,2.22-.56,3.71h-56.25c-.88,3.47-.88,3.53,2.52,3.53,16.3.02,32.6,0,48.91,0,1.52,0,3.05,0,4.9,0v19.5c.46-.13.93-.25,1.39-.38.73,1.61,2.09,3.22,2.1,4.84.13,28.69.13,57.37,0,86.06,0,1.61-1.26,3.21-1.93,4.81-.41-.11-.83-.21-1.24-.32v16.39c.37-.12.74-.24,1.11-.36.72,1.61,2.06,3.22,2.06,4.83.12,35.72.09,71.43.09,107.15,0,2.23.76,5.02-3.27,3.91v16.96c.38-.12.77-.23,1.15-.35.71,1.61,2.02,3.22,2.03,4.83.12,34.87.12,69.75,0,104.62,0,1.61-1.3,3.22-2,4.82-.4-.11-.8-.23-1.19-.34v26.99h13.32v87.81h9.89v47.96h-45.96v-49.38h-67.31v-42.15h66.18c0-.34,0-.69.01-1.03h-3.8c-15.32,0-30.64.11-45.95-.03-12.31-.11-24.63-.41-36.94-.85-11-.39-21.99-1.08-32.98-1.65-10.71-.56-21.42-1.12-32.13-1.69-10.57-.56-21.14-1.13-31.71-1.68-10.85-.57-21.71-1.08-32.55-1.72-3.15-.19-6.28-.72-9.85-1.15.41.77.48,1.06.58,1.07q7.13.58,7.13,7.84v92.68c-10.34,0-20.28,0-30.21,0-4.08,0-8.15-.1-12.23.03-3.43.11-4.88-.97-4.86-4.8.15-31.22,0-62.44.18-93.65.03-4.41-1.55-5.42-5.55-5.42-116.36.07-232.72.05-349.08.05h-3.77v106.94h-68.22v-103.31h-10.92v20.69h7.98v87.05h-10.61c-5.9,0-11.83.35-17.7-.13-3.67-.3-4.96,1.47-5.96,4.24-.55,1.53-1.07,3.07-1.72,4.94,2.58.16,4.99.3,8.05.48-5.01,11.17-9.82,21.9-14.69,32.77-16.46-4.51-32.39-8.88-48.46-13.29-5.09,20.26-10.01,39.81-14.89,59.37-.72,2.89-1.13,4.9-5.4,3.75-16.28-4.4-32.72-8.23-49.62-12.4,1.2-5.1,2.33-10.14,3.59-15.15,3.83-15.17,8.83-30.16,11.2-45.56,1.68-10.94,5.72-20.8,9.01-31.05,3.4-10.59,6.89-21.16,10.46-31.7,7.54-22.24,15.21-44.44,22.71-66.69.86-2.57,1.34-5.39,1.35-8.1.1-24.61.06-49.22.06-73.83v-5.03h118.7c.12-2.08.22-3.73.34-5.68h105.18v21.41h10.04v-11.34h89.45v24.26c33.25-3.61,66.23-.69,99.49-1.98v14.28h52.13V110.62h-362.88V29.76c17.72-.47,35.48-.16,53.22-.21,17.71-.05,35.41-.01,53.12-.01h213.56c.15-2,.28-3.75.42-5.69h72.99v31.78h25.36v19.17h367.86ZM522.58,470.73v5.17c0,20.39-.25,40.78.11,61.16.17,9.45-.8,18.5-4.34,27.27-1.23,3.05-2.33,6.17-3.38,9.29-4.33,12.89-8.58,25.81-12.92,38.7-3.85,11.46-7.94,22.83-11.59,34.35-3.64,11.49-8.89,22.36-10.53,34.66-1.56,11.62-5.58,22.91-8.46,34.36-2.32,9.24-4.55,18.49-6.86,27.92,16.65,4.16,32.85,8.22,49.2,12.31,2.38-9.78,4.73-19.52,7.12-29.25,2.53-10.27,5.11-20.52,7.64-30.79.71-2.9,1.68-4.45,5.34-3.25,7.16,2.35,14.53,4.07,21.8,6.08,7.71,2.14,15.42,4.32,23.17,6.49,4.16-9.4,8.11-18.29,12.08-27.27q-7.67-1-5.08-7.99c.33-.9.96-1.7,1.24-2.62,1-3.27,3.01-4.34,6.51-4.23,8.8.29,17.61.09,26.49.09v-82.06h-7.92v-25.65h16.01v103.24h63.15v-106.91c1.29,0,2.12,0,2.95,0,125.1,1.05,250.21-2.17,375.3,1.72,10.58.33,21.14,1.1,31.71,1.65,10.99.57,21.98,1.12,32.98,1.7,10.43.55,20.86,1.13,31.29,1.68,10.85.57,21.7,1.13,32.55,1.69s21.7,1.22,32.56,1.66c10.2.41,20.4.76,30.61.84,18.41.13,36.82.04,55.23.04h4.73v92.53h40.84v-42.91h-9.9v-87.81h-13.27v-32.06c.41.11.82.22,1.23.33.68-1.6,1.95-3.21,1.96-4.81.12-33.18.12-66.37,0-99.55,0-1.61-1.35-3.22-2.07-4.83-.37.12-.73.24-1.1.36v-21.45c.42.11.83.21,1.25.32.67-1.6,1.92-3.2,1.93-4.81.11-34.03.12-68.06,0-102.08,0-1.61-1.37-3.22-2.1-4.83-.39.12-.79.25-1.18.37,0-6.18-.14-12.37.1-18.55.06-1.5,1.33-2.95,2.05-4.42.35.11.7.23,1.04.34v-87.61c-.45.13-.91.25-1.36.38-.61-1.36-1.7-2.69-1.75-4.07-.2-5.56-.08-11.13-.08-17.14h-57.11v-8.33h56.83c.26-1.62.44-2.8.62-3.91h25.89v7.9h96.75c.1-2.24.19-4.17.28-6.23,2-.15,3.75-.29,5.42-.42v-54.41h-46.15v22.23h-372.75v-19.18h-25.36v-31.73h-67.87c-.18,1.96-.33,3.7-.51,5.68h-106.88c-35.55,0-71.11-.02-106.66,0-35.44.02-70.88-.11-106.3.09v75.95h362.87v403.76h-57.18v-14.16c-33.27.83-66.24-1.55-99.49,2.22v-24.64h-84.39v11.35h-15.09v-21.43h-100.15c-.1,1.94-.19,3.59-.29,5.52h-118.73ZM1096.53,655.59v-95.39c-14.06-.81-27.84-1.61-41.54-2.4-.18.8-.3,1.06-.3,1.33-.02,30.92,0,61.83-.09,92.75,0,2.88,1.4,3.69,3.77,3.7,12.62.03,25.24.01,38.16.01ZM1315.72,605.66v-36.76h-61.8v36.76h61.8Z"/>
    <path class="cls-1" d="M506.02,121.7h121.01v23.41c3.61,0,7.58,1.19,10.11-.21,8.93-4.97,18.27-1.95,27.3-2.11,29.78-.52,59.57-.2,89.82-.2v-29.25h89.45v24.83h8.31v97.09h-8.54c3.48,22.6,2.2,44.96,1.89,67.27-.31,22.53,2.33,45.16-1.51,67.61,3.09,22.32,1.07,44.76,1.79,67.61h-88.6v11.88h-12.39c-.16,1.62-.3,2.95-.4,4-1.44,1.29-2.75,2.46-4.87,4.36h-233.36V121.7ZM508.55,124.23v331.23h228.49c1.79-1.76,2.96-2.92,4.68-4.61.06-.54.22-2.01.4-3.75h12.39v-11.88h89.01c-3.04-67.7,2.13-134.97-2.2-202.5h8.15v-92.02h-8.31v-24.82h-84.39v29.25c-30.11,0-59.76-.32-89.4.19-9.17.16-18.48-2.37-27.75,2-4.09,1.93-9.84.32-15.13.32v-23.41h-115.95Z"/>
    <path class="cls-1" d="M853.96,114.06h89.32v24.1h10.87v-26.53h40.42v125.87c-16.93-.51-33.86-1.01-51-1.52v10.07h9.8v-7.89h41.08v43.56h-49.42v4.96c0,25.73,0,51.45,0,77.18,0,5.12-.6,5.71-5.76,5.71-26.97,0-53.95-.08-80.92.1-4.12.03-5.28-1.37-5.28-5.25.09-38.1-.06-76.19.08-114.29.16-44.09.53-88.17.81-132.26,0-1.11,0-2.22,0-3.79ZM856.49,116.65c0,1.26,0,2.21,0,3.17-.28,44.38-.65,88.76-.82,133.14-.14,36.28,0,72.56-.08,108.84,0,3.82,1,5.36,5.21,5.33,25.15-.19,50.31-.09,75.46-.1,5.86,0,6.23-.36,6.23-6.09,0-25.59,0-51.19,0-76.78v-4.97h49.42v-38.49h-36.04v7.87h-14.82v-15.6c17.16.71,34.08,1.41,50.95,2.1v-94.29h-51.28v-24.13h-84.24ZM957.19,113.99v21.57h34.74v-21.57h-34.74Z"/>
    <path class="cls-1" d="M505.56,762.76h49.89c0,2.34.15,4.53-.03,6.69-.47,5.8-1.25,11.58-1.6,17.39-.45,7.53-.51,15.08-.91,22.61-.78,14.6-1.65,29.2-2.54,43.79-.49,8.05-1.17,16.09-1.64,24.13-.9,15.3-1.68,30.6-2.57,45.9-.47,8.05-1.17,16.09-1.64,24.13-.9,15.3-1.68,30.6-2.58,45.9-.47,8.05-1.11,16.09-1.65,24.13-.58,8.46-1.06,16.94-1.8,25.38-.08.92-1.49,1.96-2.52,2.49-.78.4-1.93.09-2.91.09-55.07,0-110.15,0-165.22,0-6.11,0-6.02-.15-3.8-6.03,6.01-15.92,11.81-31.92,17.68-47.9,4.54-12.37,9.53-24.6,13.46-37.16,4.72-15.04,8.55-30.36,12.73-45.58,5.12-18.66,10.17-37.34,15.27-56,5.57-20.38,11.21-40.74,16.76-61.13,2.63-9.66,5.01-19.4,7.82-29.01.4-1.35,2.63-3.07,4.03-3.09,16.72-.21,33.44-.18,50.15-.05,1.24,0,2.47,1.25,3.7,1.92-.02.46-.05.92-.07,1.38ZM535.67,1042.66c.46-2.88,1.04-5.33,1.2-7.81.91-14.17,1.72-28.35,2.57-42.52.55-9.17,1.13-18.34,1.68-27.51.85-14.17,1.68-28.35,2.54-42.52.55-9.17,1.13-18.34,1.68-27.51.85-14.17,1.68-28.35,2.54-42.52.55-9.17,1.19-18.33,1.66-27.51.63-12.26,1.14-24.52,1.72-36.78.05-1.1.33-2.19.4-3.29.43-6.33.82-12.67,1.26-19.4h-51.28v-3.23h-51.18c-3.07,11.52-6.03,22.93-9.16,34.28-7.69,27.91-15.48,55.79-23.21,83.69-8.83,31.85-15.85,64.22-27.85,95.14-6.36,16.37-12.25,32.93-18.3,49.42-2.16,5.89-4.16,11.84-6.35,18.07h170.11Z"/>
    <path class="cls-1" d="M853.81,370.59h89.42v8.02h10.75v-10.63h-7.87v-84.99h48.4v211.22h-40v-12.15h-11.03v12.06h-89.67v-123.53ZM948.65,285.38v80.09h7.84v15.65h-15.82v-7.99h-84.33c-1.4,39.64-.78,79.08.39,118.44h84.25v-12.03h16.09v12.12h34.9v-206.28h-43.32Z"/>
    <path class="cls-1" d="M1044.37,555.32v101.79c-63.93,2.05-127.72.49-191.82,1.13-.1-1.52-.26-2.72-.26-3.93-.01-31.48.02-62.96-.06-94.43,0-3.21.49-4.77,4.33-4.77,61.65.12,123.31.08,184.96.09.83,0,1.65.07,2.85.12ZM1041.79,558.03h-186.78v96.94h186.78v-96.94Z"/>
    <path class="cls-1" d="M1500.2,619.53c-4.59,1.01-7.54.63-8.73-4.52-.5-2.16-3.39-4.49-5.72-5.37-6.37-2.41-13-2.61-19.4.35-3.76,1.74-5.34,4.89-4.61,8.84.69,3.73,2.78,6.47,6.76,7.53,8.24,2.2,16.63,4.03,24.59,7.01,6.08,2.28,9.1,7.98,9.73,14.32.51,5.19-1.69,9.87-5.45,13.44-9.64,9.17-26.49,8.68-36.09,2.64-6.43-4.05-9.37-10.07-10.08-17.77h7.54c1.05,7.32,5.49,11.9,12.26,14.03,8.18,2.57,15.79.56,22.19-4.78,4.69-3.9,1.57-12.9-5.1-15.01-7.07-2.24-14.34-3.87-21.42-6.08-11.02-3.45-17.39-15.48-9.31-25.75,2.92-3.71,8.75-6.1,13.65-7.07,8.19-1.63,16.64-.43,23.49,4.88,3.99,3.09,6.59,7.61,5.7,13.32Z"/>
    <path class="cls-1" d="M694.78,661.2v-41.79h14.73c0-.28.01-.55.02-.83h-14.7v-63.19h50.89v105.81h-50.94ZM712.96,600.14c.14,1.67.26,3.13.37,4.51h29.82v-46.7h-45.77v57.68h11.63v-15.49h3.95ZM743.2,658.77v-48.53h-30.1v11.76h-15.76v36.77h45.86Z"/>
    <path class="cls-1" d="M848.62,657.93h-50.09v-102.41h50.09v102.41ZM846.19,558.02h-45.02v97.34h45.02v-97.34Z"/>
    <path class="cls-1" d="M747.16,555.39h50.09v101.56h-50.09v-101.56ZM794.64,654.56v-96.5h-45.02v96.5h45.02Z"/>
    <path class="cls-1" d="M1248.03,23.83h99.87v50.11h-99.87V23.83ZM1250.47,71.43h94.75V26.37h-94.75v45.06Z"/>
    <path class="cls-1" d="M1196.62,563.35c9.47.65,18.61,1.29,27.75,1.91,1.12.08,2.25.01,3.37.06,6.55.27,13.09.65,19.65.81,3.37.08,2.89,2.34,2.89,4.41,0,21.93,0,43.86,0,65.8,0,7.13,0,14.26,0,21.59h-53.66v-94.57ZM1199.03,655.36h48.45v-86.65c-16.3-.86-32.33-1.7-48.45-2.55v89.2Z"/>
    <path class="cls-1" d="M1100.49,558.22c9.2.68,18.05,1.37,26.92,1.97,5.56.38,11.12.7,16.69.86,2.26.07,3.34.73,3.34,3.16-.06,30.93-.07,61.86-.11,92.79,0,.24-.21.49-.4.92h-46.43v-99.7ZM1103.02,560.97v94.42h41.62v-91.85c-13.91-.86-27.62-1.7-41.62-2.57Z"/>
    <path class="cls-1" d="M1195.47,657.92h-47.02v-97.03c3.58.36,7.08.86,10.59,1.02,8.23.38,16.47.55,24.7.9,3.18.14,6.42.28,9.49,1.01.98.23,2.11,2.35,2.14,3.63.18,9.28.1,18.56.1,27.84,0,19.26,0,38.52,0,57.78v4.86ZM1192.66,655.39v-89.29c-14.06-.81-27.85-1.61-41.67-2.4v91.69h41.67Z"/>
    <path class="cls-1" d="M1053.27,23.81h90.54v49.26h-90.54V23.81ZM1141.2,70.69V26.49h-85.48v44.2h85.48Z"/>
    <path class="cls-1" d="M1533.74,615.77c-5.57,3.44-10.3,6.35-15.23,9.39-1.29-6.49-1.2-7.57,5.28-10.9,4.79-2.46,7.82-6.39,11.4-9.96,1.29-1.29,3.13-2.01,5.54-3.5v66.06h-6.98v-51.1Z"/>
    <path class="cls-1" d="M1317.55,610.33v47.57h-66.09v-47.57h66.09ZM1315.02,612.86h-61.03v42.52h61.03v-42.52Z"/>
    <path class="cls-1" d="M1422.09,610.31v47.62h-55.97v-47.62h55.97ZM1419.59,612.87h-50.91v42.5h50.91v-42.5Z"/>
    <path class="cls-1" d="M516.45,759.84c5.55-21.06,11.05-41.97,16.63-63.17,15.56,4.22,30.82,8.36,46.34,12.56-4.46,9.98-8.52,19.13-12.62,28.26-2.98,6.65-5.9,13.33-9.12,19.86-.63,1.28-2.55,2.72-3.89,2.74-11.78.21-23.58.12-35.36.1-.53,0-1.05-.18-1.97-.35ZM534.78,699.73c-5.07,19.34-10.07,38.43-15.16,57.84h35.6c7.02-15.64,14-31.2,20.97-46.72-13.8-3.7-27.53-7.39-41.41-11.12Z"/>
    <path class="cls-1" d="M1183.37,74.06h-31.53V23.96h31.53v50.1ZM1180.84,71.52V26.49h-26.48v45.03h26.48Z"/>
    <path class="cls-1" d="M1246.61,74.06h-30.67V23.97h30.67v50.1ZM1218.53,26.34v45.03h25.62V26.34h-25.62Z"/>
    <path class="cls-1" d="M1184.81,23.81h29.83v50.1h-29.83V23.81ZM1212.04,71.53V26.49h-24.79v45.03h24.79Z"/>
    <path class="cls-2" d="M522.58,470.73h118.73c.1-1.93.18-3.58.29-5.52h100.15v21.43h15.09v-11.35h84.39v24.64c33.25-3.77,66.22-1.39,99.49-2.22v14.16h57.18V108.1h-362.87V32.15c35.42-.2,70.86-.06,106.3-.09,35.55-.02,71.11,0,106.66,0h106.88c.18-1.97.33-3.72.51-5.68h67.87v31.73h25.36v19.18h372.75v-22.23h46.15v54.41c-1.67.13-3.42.26-5.42.42-.09,2.06-.18,3.99-.28,6.23h-96.75v-7.9h-25.89c-.17,1.1-.36,2.28-.62,3.91h-56.83v8.33h57.11c0,6.01-.12,11.58.08,17.14.05,1.38,1.14,2.71,1.75,4.07.45-.13.91-.25,1.36-.38v87.61c-.35-.11-.7-.23-1.04-.34-.71,1.47-1.99,2.92-2.05,4.42-.23,6.17-.1,12.36-.1,18.55.39-.12.79-.25,1.18-.37.73,1.61,2.09,3.22,2.1,4.83.12,34.03.12,68.06,0,102.08,0,1.61-1.26,3.21-1.93,4.81-.42-.11-.83-.21-1.25-.32v21.45c.37-.12.73-.24,1.1-.36.72,1.61,2.06,3.22,2.07,4.83.12,33.18.12,66.37,0,99.55,0,1.61-1.28,3.21-1.96,4.81-.41-.11-.82-.22-1.23-.33v32.06h13.27v87.81h9.9v42.91h-40.84v-92.53h-4.73c-18.41,0-36.82.09-55.23-.04-10.21-.07-20.41-.42-30.61-.84-10.86-.44-21.7-1.1-32.56-1.66s-21.7-1.12-32.55-1.69c-10.43-.55-20.86-1.13-31.29-1.68-10.99-.58-21.98-1.12-32.98-1.7-10.57-.55-21.13-1.32-31.71-1.65-125.08-3.89-250.2-.66-375.3-1.72-.83,0-1.66,0-2.95,0v106.91h-63.15v-103.24h-16.01v25.65h7.92v82.06c-8.88,0-17.69.19-26.49-.09-3.5-.11-5.51.95-6.51,4.23-.28.91-.9,1.72-1.24,2.62q-2.59,6.98,5.08,7.99c-3.98,8.98-7.92,17.87-12.08,27.27-7.75-2.17-15.45-4.36-23.17-6.49-7.27-2.02-14.64-3.73-21.8-6.08-3.66-1.2-4.62.35-5.34,3.25-2.53,10.27-5.11,20.52-7.64,30.79-2.39,9.73-4.74,19.47-7.12,29.25-16.35-4.09-32.55-8.14-49.2-12.31,2.31-9.42,4.54-18.68,6.86-27.92,2.88-11.45,6.9-22.74,8.46-34.36,1.65-12.29,6.89-23.16,10.53-34.66,3.65-11.52,7.74-22.9,11.59-34.35,4.33-12.89,8.59-25.81,12.92-38.7,1.05-3.12,2.15-6.24,3.38-9.29,3.54-8.77,4.51-17.82,4.34-27.27-.37-20.38-.11-40.78-.11-61.16v-5.17ZM1255.04,524.62V108.34h-212.82v416.28h212.82Z"/>
    <path class="cls-2" d="M1096.53,655.59c-12.92,0-25.54.02-38.16-.01-2.37,0-3.78-.82-3.77-3.7.1-30.92.07-61.83.09-92.75,0-.27.11-.53.3-1.33,13.7.79,27.48,1.59,41.54,2.4v95.39Z"/>
    <path class="cls-2" d="M1315.72,605.66h-61.8v-36.76h61.8v36.76Z"/>
    <path class="cls-2" d="M508.55,124.23h115.95v23.41c5.29,0,11.04,1.6,15.13-.32,9.27-4.37,18.58-1.85,27.75-2,29.64-.51,59.29-.19,89.4-.19v-29.25h84.39v24.82h8.31v92.02h-8.15c4.33,67.53-.83,134.8,2.2,202.5h-89.01v11.88h-12.39c-.19,1.74-.34,3.2-.4,3.75-1.71,1.69-2.89,2.85-4.68,4.61h-228.49V124.23Z"/>
    <path class="cls-2" d="M856.49,116.65h84.24v24.13h51.28v94.29c-16.87-.7-33.79-1.4-50.95-2.1v15.6h14.82v-7.87h36.04v38.49h-49.42v4.97c0,25.59,0,51.19,0,76.78,0,5.73-.37,6.09-6.23,6.09-25.15,0-50.31-.1-75.46.1-4.21.03-5.21-1.51-5.21-5.33.08-36.28-.06-72.56.08-108.84.17-44.38.54-88.76.82-133.14,0-.96,0-1.91,0-3.17Z"/>
    <path class="cls-2" d="M957.19,113.99h34.74v21.57h-34.74v-21.57Z"/>
    <path class="cls-2" d="M535.67,1042.66h-170.11c2.18-6.23,4.18-12.18,6.35-18.07,6.05-16.49,11.95-33.05,18.3-49.42,12.01-30.93,19.03-63.3,27.85-95.14,7.73-27.9,15.52-55.78,23.21-83.69,3.13-11.36,6.09-22.76,9.16-34.28h51.18v3.23h51.28c-.43,6.73-.83,13.07-1.26,19.4-.07,1.1-.35,2.19-.4,3.29-.58,12.26-1.09,24.53-1.72,36.78-.47,9.17-1.11,18.34-1.66,27.51-.85,14.17-1.68,28.35-2.54,42.52-.55,9.17-1.13,18.34-1.68,27.51-.85,14.17-1.68,28.35-2.54,42.52-.55,9.17-1.13,18.34-1.68,27.51-.85,14.17-1.66,28.35-2.57,42.52-.16,2.47-.74,4.92-1.2,7.81Z"/>
    <path class="cls-2" d="M948.65,285.38h43.32v206.28h-34.9v-12.12h-16.09v12.03h-84.25c-1.17-39.36-1.79-78.8-.39-118.44h84.33v7.99h15.82v-15.65h-7.84v-80.09Z"/>
    <path class="cls-2" d="M1041.79,558.03v96.94h-186.78v-96.94h186.78Z"/>
    <path class="cls-2" d="M712.96,600.14h-3.95v15.49h-11.63v-57.68h45.77v46.7h-29.82c-.11-1.38-.24-2.85-.37-4.51Z"/>
    <path class="cls-2" d="M743.2,658.77h-45.86v-36.77h15.76v-11.76h30.1v48.53Z"/>
    <path class="cls-2" d="M846.19,558.02v97.34h-45.02v-97.34h45.02Z"/>
    <path class="cls-2" d="M794.64,654.56h-45.02v-96.5h45.02v96.5Z"/>
    <path class="cls-2" d="M1250.47,71.43V26.37h94.75v45.06h-94.75Z"/>
    <path class="cls-2" d="M1199.03,655.36v-89.2c16.11.85,32.15,1.69,48.45,2.55v86.65h-48.45Z"/>
    <path class="cls-2" d="M1103.02,560.97c14.01.86,27.71,1.71,41.62,2.57v91.85h-41.62v-94.42Z"/>
    <path class="cls-2" d="M1192.66,655.39h-41.67v-91.69c13.82.8,27.61,1.59,41.67,2.4v89.29Z"/>
    <path class="cls-2" d="M1141.2,70.69h-85.48V26.49h85.48v44.2Z"/>
    <path class="cls-2" d="M1315.02,612.86v42.52h-61.03v-42.52h61.03Z"/>
    <path class="cls-2" d="M1419.59,612.87v42.5h-50.91v-42.5h50.91Z"/>
    <path class="cls-2" d="M534.78,699.73c13.88,3.73,27.61,7.41,41.41,11.12-6.97,15.52-13.95,31.08-20.97,46.72h-35.6c5.09-19.41,10.09-38.5,15.16-57.84Z"/>
    <path class="cls-2" d="M1180.84,71.52h-26.48V26.49h26.48v45.03Z"/>
    <path class="cls-2" d="M1218.53,26.34h25.62v45.03h-25.62V26.34Z"/>
    <path class="cls-2" d="M1212.04,71.53h-24.79V26.49h24.79v45.03Z"/>
    <path class="cls-1" d="M1255.04,524.62h-212.82V108.34h212.82v416.28ZM1044.71,521.98h207.76V110.76h-207.76v411.21Z"/>
    <path class="cls-2" d="M1044.71,521.98V110.76h207.76v411.21h-207.76ZM1243.38,113.4h-196.95v404.4h196.95V113.4Z"/>
    <path class="cls-1" d="M1243.38,113.4v404.4h-196.95V113.4h196.95ZM1240.71,515.34V115.93h-191.73v399.41h191.73Z"/>
    <path class="cls-2" d="M1240.71,515.34h-191.73V115.93h191.73v399.41Z"/>
  </g>
</svg>