<?xml version="1.0" encoding="UTF-8"?>
<svg id="Capa_1" data-name="Capa 1" xmlns="http://www.w3.org/2000/svg" viewBox="0 0 1920 1080">
  <defs>
    <style>
      .cls-1 {
        fill: #000;
      }

      .cls-1, .cls-2 {
        stroke-width: 0px;
      }

      .cls-2 {
        fill: #fff;
      }
    </style>
  </defs>
  <path class="cls-2" d="M1635.16,1080H286c0-360,0-720,0-1080,448.73,0,897.47,0,1346.2.03,1.27,0,2.53.53,3.8.81-.28,1.83-.81,3.66-.81,5.5-.04,357.89-.03,715.77-.03,1073.66ZM1246.53,571.25h13.57v42.29h70.75v47.7h45.98v-47.11h-9.88v-87.79h-36.09c-.62-8.34-1.3-16.24-1.76-24.15-.42-7.25-.56-14.51-.89-21.77-.24-5.15-.54-10.3-.89-15.44-.65-9.42-1.35-18.84-2.02-28.12h41.46v-50.57h-12.51v-7.5h-32.6v-7.48c.68,1.31.37,2.74.77,3.92.37,1.06,1.51,2.62,2.34,2.63,9.78.18,19.57.12,29.8.12v-8.56h12.18v-115.65h-12.53v-8h-39.31c-.12,1.74-.22,3.24-.32,4.74-.16,0-.32-.01-.48-.02-.4-8.93-.81-17.86-1.21-26.78,1.05,5.64,1.68,11.32,1.76,16.99.05,3.21,1.17,4.13,4.22,4.04,6.04-.18,12.08-.05,18.13-.05,5.71,0,11.42,0,17.57,0v-8.58h12.16v-74.8h-56.84c-.14,1.45-.28,2.77-.41,4.09-.14,0-.27-.02-.41-.03v-5.21h26.85v-43.77h147.15v-59.63h-52.05v22.24h-367.7v-44.97h-419.47v81.18c43.2,1.92,86.09-.6,129.02,1.6,28.57,1.47,57.44,2.52,86.11-1.06,3.84-.48,7.95,1.57,11.9,1.45,29.12-.88,58.3,2.1,87.4-1.44,4.26-.52,8.79,1.57,13.16,1.44,28.84-.86,57.74,2.12,86.56-1.44,3.98-.49,8.23,1.57,12.32,1.45,28.98-.89,58.03,2.14,86.98-1.45,3.84-.48,7.93,1.45,11.9,1.47,26.98.14,53.96.08,80.94.07,1.11,0,2.23-.06,3.33-.25,3.73-.62,7.45-1.3,11.28-1.98v411.19h-10.58c-.13-2.28-.25-4.3-.37-6.27h-88.12c-.16,2.23-.31,4.25-.45,6.22h-10.87v-6.18h-88.24c-.13,2.28-.25,4.31-.37,6.26h-10.84v-16.48h-88.09c-.29,1.43-.55,2.7-.77,3.78h-10.54c0-5.02-.22-9.79.06-14.53.28-4.7,1.44-9.35,1.54-14.04.23-11.63.08-23.26.08-35.28h-4.51c-22.91,0-45.81.1-68.72-.1-3.87-.03-5.34,1.27-6.09,4.91-1.97,9.55-4.56,18.97-6.36,28.54-.65,3.46-2.16,3.82-5.02,3.81-31.48-.07-62.96-.04-94.44-.04-1.26,0-2.55-.1-3.78.12-3.75.66-7.47,1.45-11.84,2.32v-17.63c-1.99,0-3.51-.02-5.03,0-37.42.68-74.88-1.64-112.26,1.71-.39.04-.77.19-1.76.45v25.6c-.62.05-1.24.09-1.86.14-.15-3.01-.36-6.02-.42-9.04-.07-3.44-.02-6.88-.02-10.43-37.23,0-73.77,0-110.3-.02-2.09,0-3.34.37-3.61,2.9-.67,6.17-1.65,12.31-2.57,18.45-1.62,10.77-3.22,21.54-4.96,32.29-1.76,10.87-3.41,21.77-5.6,32.56-2.94,14.54-6.38,28.98-9.54,43.48-3.93,17.98-7.83,35.98-11.7,53.97-1.26,5.86-2.39,11.76-3.57,17.59,1.58.42,2.73.72,4.11,1.08-6.88,27.55-13.68,54.78-20.48,82-.36-.34-.72-.68-1.08-1.02-1.71,1.38-4.45,2.46-4.95,4.19-3.45,11.86-6.42,23.85-9.58,35.8-4.92,18.57-9.86,37.14-14.83,55.71-6,22.41-12.46,44.7-17.92,67.24-5.97,24.63-14.59,48.31-23.72,71.87-6.4,16.51-12.64,33.09-18.82,49.68-.22.6.7,2.11,1.44,2.47.91.44,2.2.13,3.32.13,55.09,0,110.18,0,165.26,0,.98,0,2.12.31,2.91-.08,1.04-.51,2.51-1.51,2.6-2.42.76-7.6,1.28-15.23,1.79-22.86.61-9.03,1.14-18.06,1.69-27.09.86-14.18,1.69-28.36,2.54-42.54.55-9.17,1.12-18.34,1.68-27.51.85-14.18,1.69-28.36,2.54-42.54.55-9.17,1.12-18.34,1.68-27.51.85-14.18,1.75-28.35,2.52-42.54.41-7.67.52-15.36.89-23.04.26-5.28.72-10.55,1.1-15.82.21-2.83.43-5.66.67-8.72h-6.61c-13.35,0-26.7.01-40.05-.02-1.6,0-4,.63-3.15-1.77,1.54.36,2.77.9,4.02.9,14.05.06,28.11-.05,42.16.11,2.84.03,4.19-.96,5.29-3.49,3.95-9.09,8.21-18.04,12.23-27.1,9.75-22,19.38-44.06,29.16-66.05,6.49-14.58,13.02-29.16,19.82-43.59,2.93-6.21,3.85-12.51,3.73-19.31-.29-16.45-.09-32.9-.09-49.36v-4.75h6.8v-15.61h223.51v20.78h5.26c44.97,0,89.94,0,134.91.03,1.57,0,3.14.47,4.72.72-1.68.03-3.37.09-5.05.09-44.96,0-89.91.06-134.87-.09-4.14-.01-5.17,1.25-5.15,5.25.15,32.19.08,64.39.08,96.58v4.23h390.41v-29.43c0-19.68-.11-39.36.09-59.04.04-4.01-1.22-5.32-5.06-4.91-1.36.15-2.81-.47-4.21-.74ZM1055.12,124.34h-88.42c-.09.71-.19,1.12-.2,1.53-.98,44.32,1.82,88.68-1.59,132.99-.81,10.48-.36,21.09-.07,31.62.81,29.28-1.96,58.62,1.51,87.86.39,3.3-1.56,6.83-1.47,10.22.91,33.5-2.17,67.05,1.52,100.51.59,5.35.08,10.81.08,16.09h88.32c.18-1.97.34-3.71.48-5.33h10.87v15.39h88.59v-15.49h10.88v15.78c28.69,0,56.92-.03,85.15.04,3.13,0,3.25-1.73,3.27-4.07.25-31.58.62-63.16.8-94.74.34-61.39.73-122.77.8-184.16.04-35.61,1.09-71.25-1.66-106.83-.04-.52-.24-1.03-.33-1.4h-88.35v17.93h-11.03v-18.02h-88.44v18.11h-10.73v-18.05ZM756.38,250.49v-33.45h-105.02v246.74h105.38v-9.6h10.87v24.75h88.25c.14-1.69.25-3.05.38-4.73,4.13,0,8.06-.3,11.94.09,3.7.37,4.93-1.47,5.53-4.55,1.1-5.67,2.68-11.29,3.22-17.01.35-3.71,2.01-3.89,4.85-3.88,23.04.06,46.09.04,69.13.04,1.48,0,2.95,0,4.27,0V124.28h-88.32v18.12h-10.88v-18.06h-88.73v126.16h-10.87ZM518.91,462.07h115.85V125.95h-115.85v336.12ZM860.9,539.46h-216.18v126.03h216.18v-126.03ZM1526.47,616.24c.93-5.73-2.17-11.62-6.75-14.38-6.68-4.02-13.9-4.92-21.35-4.13-5.61.6-11.25,2.41-14.63,7.11-7.66,10.61-1.65,22.42,9.39,25.92,7.07,2.24,14.34,3.85,21.42,6.08,6.72,2.12,9.87,11.02,5.18,14.98-6.37,5.37-13.98,7.38-22.17,4.83-6.79-2.12-11.22-6.69-12.34-14.05h-7.5c.66,7.7,3.63,13.71,10.02,17.76,9.49,6.02,26.43,6.61,36.1-2.59,3.78-3.59,5.98-8.25,5.49-13.42-.6-6.32-3.59-12.06-9.68-14.35-7.95-2.99-16.34-4.84-24.58-7.02-3.98-1.06-6.1-3.77-6.8-7.48-.74-3.93.78-7.11,4.55-8.88,6.39-2.99,13.04-2.8,19.4-.39,2.41.91,5.25,3.43,5.87,5.75,1.39,5.28,4.56,4.93,8.39,4.25ZM1471.62,28.12h-96.79c-.19,2.03-.35,3.78-.52,5.51-2.28.1-4.2.19-6.19.27v44.27h62.21v-28.34c.2,0,.39-.01.59-.02.12,1.87.24,3.74.36,5.58h51.77v-20.96h-11.42v-6.31ZM1553.58,632.24c.89.06,1.32.2,1.67.09,8.03-2.55,18.08,2.21,17.05,13.02-.6,6.32-4.38,11.84-10.77,12.94-5.39.93-11.63-.77-14.43-7.8-2.17-5.48-2.55-5.5-8.38-4.16-.18,6.54,4.46,14.19,10.12,16.33,10.54,3.99,20.07,2.06,27.28-6.16,5.18-5.91,5.77-17.28.54-23-2.12-2.32-5.15-3.8-7.89-5.76,5.88-2.43,8.47-7.62,8.5-13.37.03-6.78-3.74-12.08-10.38-14.32-3.34-1.13-7.07-1.42-10.63-1.47-9.1-.11-15.98,6.72-16.44,15.77,4.79,2.15,8.01,1.36,8.38-4.56.02-.3.62-.51.83-.85,3.39-5.52,8.87-4.74,13.81-3.95,4.04.65,6.34,4.33,6.66,8.18.29,3.56.3,7.82-3.69,9.84-3.4,1.71-7.11,2.8-11.18,4.36-.24,1.14-.62,2.93-1.03,4.88ZM1366.82,34.04h-168.95v44.21h168.95v-44.21ZM755.49,117.59h-105.72v96.5h105.72v-96.5ZM1162.6,78.38v-44.35h-97.98v44.35h97.98ZM1366.72,499.59v-61.37h-40.53c.42,3.52.95,6.67,1.15,9.83.91,14.58,1.77,29.16,2.54,43.75.41,7.66.54,15.34.89,23.01.13,2.9.42,5.81.93,8.67.15.81,1.32,2.04,2.05,2.06,6.81.16,13.62.09,20.72.09v-26.04h12.24ZM1329.59,661.33v-46.88h-69.42v46.88h69.42ZM1434.28,614.54h-55.97v46.74h55.97v-46.74ZM1163.98,78.17h32.37v-44.19h-32.37v44.19Z"/>
  <path class="cls-1" d="M1635.16,1080c0-357.89,0-715.77.03-1073.66,0-1.83.53-3.66.81-5.5,0,358.45,0,716.91-.03,1075.36,0,1.27-.53,2.53-.81,3.8Z"/>
  <path class="cls-1" d="M1010.29,559.31c-1.57-.25-3.14-.72-4.72-.72-44.97-.04-89.94-.03-134.91-.03h-5.26v-20.78h-223.51v15.61h-6.8v4.75c0,16.45-.2,32.91.09,49.36.12,6.81-.8,13.1-3.73,19.31-6.81,14.44-13.33,29.01-19.82,43.59-9.78,21.99-19.41,44.05-29.16,66.05-4.02,9.06-8.28,18.01-12.23,27.1-1.1,2.53-2.45,3.52-5.29,3.49-14.05-.15-28.11-.05-42.16-.11-1.24,0-2.48-.54-4.02-.9-.84,2.4,1.55,1.77,3.15,1.77,13.35.03,26.7.02,40.05.02h6.61c-.23,3.06-.46,5.89-.67,8.72-.38,5.27-.85,10.54-1.1,15.82-.37,7.67-.48,15.36-.89,23.04-.76,14.18-1.66,28.36-2.52,42.54-.55,9.17-1.12,18.34-1.68,27.51-.85,14.18-1.69,28.36-2.54,42.54-.55,9.17-1.12,18.34-1.68,27.51-.85,14.18-1.69,28.36-2.54,42.54-.55,9.03-1.08,18.06-1.69,27.09-.51,7.63-1.04,15.25-1.79,22.86-.09.91-1.55,1.9-2.6,2.42-.79.39-1.93.08-2.91.08-55.09,0-110.18,0-165.26,0-1.12,0-2.41.31-3.32-.13-.74-.36-1.66-1.87-1.44-2.47,6.18-16.6,12.43-33.17,18.82-49.68,9.13-23.56,17.75-47.23,23.72-71.87,5.46-22.54,11.93-44.83,17.92-67.24,4.97-18.56,9.91-37.13,14.83-55.71,3.17-11.94,6.13-23.94,9.58-35.8.5-1.73,3.25-2.81,4.95-4.19.36.34.72.68,1.08,1.02,6.8-27.22,13.6-54.45,20.48-82-1.39-.36-2.53-.67-4.11-1.08,1.18-5.83,2.31-11.73,3.57-17.59,3.87-18,7.76-35.99,11.7-53.97,3.17-14.5,6.6-28.94,9.54-43.48,2.18-10.79,3.84-21.69,5.6-32.56,1.74-10.75,3.34-21.52,4.96-32.29.92-6.14,1.9-12.28,2.57-18.45.27-2.53,1.52-2.9,3.61-2.9,36.54.03,73.07.02,110.3.02,0,3.55-.06,6.99.02,10.43.06,3.01.28,6.02.42,9.04.62-.05,1.24-.09,1.86-.14v-25.6c.98-.26,1.36-.42,1.76-.45,37.38-3.35,74.84-1.04,112.26-1.71,1.52-.03,3.05,0,5.03,0v17.63c4.37-.87,8.09-1.66,11.84-2.32,1.23-.22,2.52-.12,3.78-.12,31.48,0,62.96-.03,94.44.04,2.86,0,4.37-.36,5.02-3.81,1.8-9.57,4.39-19,6.36-28.54.75-3.64,2.21-4.94,6.09-4.91,22.9.2,45.81.1,68.72.1h4.51c0,12.02.16,23.66-.08,35.28-.09,4.69-1.26,9.35-1.54,14.04-.28,4.74-.06,9.51-.06,14.53h10.54c.22-1.07.48-2.35.77-3.78h88.09v16.48h10.84c.12-1.96.23-3.98.37-6.26h88.24v6.18h10.87c.14-1.97.29-3.99.45-6.22h88.12c.12,1.96.24,3.99.37,6.27h10.58V115.04c-3.83.68-7.55,1.36-11.28,1.98-1.09.18-2.22.25-3.33.25-26.98.01-53.96.08-80.94-.07-3.98-.02-8.06-1.94-11.9-1.47-28.96,3.59-58,.56-86.98,1.45-4.09.13-8.34-1.94-12.32-1.45-28.82,3.56-57.72.58-86.56,1.44-4.37.13-8.9-1.96-13.16-1.44-29.1,3.54-58.28.56-87.4,1.44-3.95.12-8.06-1.93-11.9-1.45-28.67,3.59-57.55,2.53-86.11,1.06-42.94-2.2-85.82.32-129.02-1.6V34.02h419.47v44.97h367.7v-22.24h52.05v59.63h-147.15v43.77h-26.85v5.21c.14,0,.27.02.41.03.13-1.32.26-2.64.41-4.09h56.84v74.8h-12.16v8.58c-6.15,0-11.86,0-17.57,0-6.04,0-12.09-.13-18.13.05-3.05.09-4.17-.83-4.22-4.04-.08-5.68-.71-11.35-1.76-16.99.4,8.93.81,17.86,1.21,26.78.16,0,.32.01.48.02.1-1.5.2-3,.32-4.74h39.31v8h12.53v115.65h-12.18v8.56c-10.23,0-20.02.07-29.8-.12-.83-.02-1.97-1.57-2.34-2.63-.41-1.18-.09-2.61-.77-3.92v7.48h32.6v7.5h12.51v50.57h-41.46c.67,9.28,1.37,18.7,2.02,28.12.35,5.14.66,10.29.89,15.44.33,7.26.47,14.52.89,21.77.46,7.91,1.14,15.81,1.76,24.15h36.09v87.79h9.88v47.11h-45.98v-47.7h-70.75v-42.29h-13.57c-6.58-.28-13.16-.52-19.74-.84-17.07-.83-34.14-1.75-51.22-2.53-14.56-.66-29.13-1.15-43.69-1.75-6.16-.26-12.32-.59-18.47-.93-19.44-1.08-38.88-2.25-58.33-3.23-13.86-.7-27.72-1.15-41.59-1.78-1.08-.05-2.13-.57-3.2-.87ZM1333.18,658.66h41.21v-41.94h-10.08v-87.69c-2,0-3.53,0-5.07,0-9.13,0-18.27-.02-27.4.01-2.02,0-3.51-.19-3.66-2.83-.44-7.77-1.11-15.53-1.64-23.29-.59-8.75-1.16-17.5-1.68-26.25-.88-14.88-1.68-29.76-2.56-44.64-.51-8.75-1.15-17.5-1.66-26.25-.88-14.88-1.68-29.76-2.56-44.64-.52-8.75-1.15-17.5-1.66-26.25-.88-14.88-1.68-29.76-2.55-44.64-.51-8.75-1.15-17.5-1.66-26.25-.88-14.88-1.74-29.76-2.53-44.65-.39-7.39-.46-14.8-.9-22.19-.37-6.09-1.32-12.15-1.57-18.24-.28-6.91-.06-13.85-.06-21.24h26.33v-43.94h147.07v-54.34h-47.11v22.14h-372.61v-45.02h-414.48v76.31c.7.1,1.11.2,1.52.21,42.61,1.06,85.22-.88,127.88,1.26,26.75,1.34,53.77,2.33,80.64-1.05,5.92-.74,12.16,1.57,18.22,1.39,27.16-.81,54.36,2.02,81.51-1.39,5.92-.74,12.16,1.56,18.22,1.39,27.02-.79,54.08,2.02,81.09-1.4,5.5-.7,11.32,1.57,16.95,1.4,27.44-.84,54.93,2.07,82.35-1.4,5.5-.7,11.29,1.39,16.96,1.43,25.43.18,50.87.08,76.31.07.84,0,1.87.26,2.5-.12,5.46-3.33,11.21-.74,16.68-1.52v415.68h-15.51c-.14-2.26-.26-4.29-.39-6.31h-83.1c-.11,2.2-.22,4.23-.33,6.26h-15.95v-6.21h-83.21c-.14,2.26-.26,4.28-.38,6.3h-15.86v-16.51h-83.09c-.26,1.39-.51,2.68-.72,3.81h-16.01c.82-21.42,1.63-42.56,2.44-63.87-24.39,0-47.71.01-71.04-.02-2.08,0-3.14.41-3.65,2.87-2.01,9.82-4.55,19.53-6.57,29.35-.79,3.85-2.43,5.05-6.4,5.02-30.92-.18-61.83-.1-92.75-.09-1.26,0-2.8-.4-3.75.16-5.5,3.25-11.19.72-17.1,1.52v-16.86c-11.11,0-21.9-.1-32.7.02-26.46.28-52.96-1.14-79.37,1.7-.51.06-1,.32-1.76.57v25.26h-7.5v-18.93c-.97-.07-1.63-.16-2.3-.16-34.43,0-68.86.02-103.29-.06-3,0-3.73,1.35-3.99,3.96-.5,5.09-1.21,10.15-1.93,15.21-1.27,9.01-2.58,18.03-3.94,27.03-1.32,8.72-2.49,17.47-4.17,26.11-2.31,11.87-5.06,23.65-7.61,35.48-3.84,17.87-7.66,35.74-11.5,53.61-2.52,11.76-5.06,23.51-7.63,35.44,1.51.45,2.73.82,4.2,1.26-6.78,27.18-13.49,54.08-20.26,81.23h4.88c14.47,0,28.95-.01,43.42.03,1.2,0,2.47.2,3.6.6,1.32.47,2.51,1.81,3.77,1.83,12.93.14,25.86.04,38.78.13,2.1.01,3.19-.6,4.04-2.58,2.6-6.08,5.48-12.03,8.16-18.07,9.93-22.38,19.79-44.79,29.75-67.15,7.44-16.72,14.86-33.45,22.58-50.04,2.91-6.24,3.72-12.56,3.62-19.34-.25-17.15-.08-34.31-.08-51.46v-4.64c2.45-.18,4.47-.32,6.93-.5v-15.53h228.42v20.87h5.46c40.75,0,81.51-.12,122.26.08,11.14.05,22.27,1.05,33.4,1.6,11.69.58,23.39,1.12,35.08,1.7,10.85.54,21.7,1.13,32.56,1.67,11.55.58,23.11,1.12,34.66,1.7,10.99.55,21.98,1.13,32.98,1.68,11.41.57,22.83,1.12,34.24,1.69,11.13.56,22.26,1.23,33.4,1.66,11.04.42,22.09.77,33.14.84,21.08.13,42.16.04,63.24.04h4.83v89.97ZM515.64,767.1h-52.07c-5.69,21.17-11.35,42.21-17.01,63.26-6.3,23.46-12.48,46.95-18.93,70.36-6.34,23-12.33,46.12-19.63,68.82-5.83,18.14-13.38,35.73-20.16,53.56-3.09,8.13-6.16,16.27-9.29,24.55h170.15c.43-2.75,1.02-5.19,1.18-7.66.91-14.31,1.71-28.63,2.57-42.94.54-9.03,1.13-18.06,1.67-27.09.86-14.31,1.68-28.63,2.54-42.95.54-9.03,1.13-18.06,1.67-27.09.86-14.31,1.68-28.63,2.54-42.95.54-9.03,1.19-18.05,1.66-27.09.64-12.26,1.13-24.52,1.73-36.78.06-1.23.46-2.45.54-3.68.37-6.22.69-12.43,1.05-19.03h-50.42c.08-1.32.13-2.27.2-3.31ZM1364.18,367.12v-110.72h-12.4v-8.04h-34.65c.62,9.46,1.24,18.62,1.8,27.77.87,14.31,1.75,28.63,2.53,42.95.64,11.84,1.05,23.68,1.74,35.52.4,6.88,1.17,13.74,1.77,20.57h26.97v-8.05h12.24ZM1364.19,233.8v-69.81h-51.91c1.67,26.18,3.31,52.05,4.95,77.86h34.71v-8.05h12.24ZM1328.77,610.69v-37.45h-66.09v37.45h66.09ZM1324.88,381.57c1.12,17.73,2.21,35.15,3.32,52.73h36.01v-45.5h-12.51v-7.23h-26.82Z"/>
  <path class="cls-1" d="M1055.12,124.34v18.05h10.73v-18.11h88.44v18.02h11.03v-17.93h88.35c.09.37.29.88.33,1.4,2.74,35.57,1.7,71.21,1.66,106.83-.07,61.39-.46,122.77-.8,184.16-.18,31.58-.56,63.16-.8,94.74-.02,2.34-.14,4.08-3.27,4.07-28.23-.07-56.46-.04-85.15-.04v-15.78h-10.88v15.49h-88.59v-15.39h-10.87c-.15,1.62-.3,3.36-.48,5.33h-88.32c0-5.28.51-10.75-.08-16.09-3.68-33.46-.6-67.02-1.52-100.51-.09-3.39,1.86-6.92,1.47-10.22-3.47-29.25-.7-58.59-1.51-87.86-.29-10.54-.73-21.14.07-31.62,3.4-44.31.61-88.67,1.59-132.99,0-.41.1-.82.2-1.53h88.42ZM1251.49,512.84c0-1.25,0-2.08,0-2.91.28-30.59.65-61.19.82-91.78.35-62.09.71-124.17.81-186.26.06-34.63,1-69.28-1.68-103.87-.03-.39-.23-.76-.35-1.17h-83.3v18.03h-15.94v-17.97h-83.53v17.91h-15.94v-18.01h-83.18c-.08.78-.18,1.32-.19,1.86-1.04,43.48.39,86.94-1.19,130.46-1.39,38.47-2.56,77.14,1.04,115.68.42,4.45-1.49,9.06-1.47,13.6.15,37.86-1.16,75.75,1.73,113.57.02.23.3.44.39.57h82.82c.12-1.97.23-3.61.33-5.29h16.06v15.51h83.38v-15.45h16.08v15.52h83.3Z"/>
  <path class="cls-1" d="M756.38,250.49h10.87v-126.16h88.73v18.06h10.88v-18.12h88.32v324.6c-1.32,0-2.8,0-4.27,0-23.04,0-46.09.03-69.13-.04-2.84,0-4.51.18-4.85,3.88-.53,5.72-2.12,11.34-3.22,17.01-.59,3.08-1.83,4.91-5.53,4.55-3.87-.38-7.81-.09-11.94-.09-.14,1.68-.24,3.04-.38,4.73h-88.25v-24.75h-10.87v9.6h-105.38v-246.74h105.02v33.45ZM952.69,446.34V126.91h-83.37v17.91h-15.94v-18h-83.52v126.1h-15.93v-33.24h-99.95v241.61h100.12v-9.54h16.08v24.69h83.16c.1-1.64.19-3.01.31-4.79,4.49,0,8.81-.09,13.13.03,2.73.08,4.21-.28,4.57-3.72.61-5.86,2.09-11.63,3.29-17.42.58-2.82,1.83-4.43,5.32-4.3,8.7.32,17.42.1,26.13.1h46.59Z"/>
  <path class="cls-1" d="M1010.29,559.31c1.07.3,2.12.83,3.2.87,13.86.62,27.73,1.07,41.59,1.78,19.45.99,38.88,2.16,58.33,3.23,6.16.34,12.31.68,18.47.93,14.56.61,29.13,1.09,43.69,1.75,17.08.78,34.15,1.7,51.22,2.53,6.58.32,13.16.56,19.74.84,1.41.27,2.85.89,4.21.74,3.84-.41,5.1.9,5.06,4.91-.2,19.68-.09,39.36-.09,59.04v29.43h-390.41v-4.23c0-32.19.07-64.39-.08-96.58-.02-4,1.02-5.26,5.15-5.25,44.96.14,89.91.09,134.87.09,1.68,0,3.37-.06,5.05-.09ZM1253,575.01c-3.1-.45-5.82-1.07-8.56-1.21-12.39-.65-24.79-1.13-37.18-1.74-10.01-.5-20.01-1.14-30.02-1.66-11.83-.61-23.67-1.12-35.5-1.71-10.71-.53-21.42-1.16-32.13-1.66-13.1-.61-26.2-1.08-39.29-1.73-9.31-.46-18.61-1.16-27.91-1.64-12.11-.63-24.23-1.58-36.34-1.64-44.54-.2-89.08-.08-133.62-.08h-4.41v101.02h384.96v-87.95Z"/>
  <path class="cls-1" d="M518.91,462.07V125.95h115.85v336.12h-115.85ZM521.44,459.54h110.79V128.48h-110.79v331.07Z"/>
  <path class="cls-1" d="M860.9,539.46v126.03h-216.18v-126.03h216.18ZM858.25,663v-120.98h-211.12v120.98h211.12Z"/>
  <path class="cls-1" d="M1526.47,616.24c-3.83.68-7,1.02-8.39-4.25-.61-2.32-3.46-4.84-5.87-5.75-6.36-2.41-13-2.6-19.4.39-3.77,1.76-5.29,4.94-4.55,8.88.7,3.72,2.82,6.42,6.8,7.48,8.24,2.19,16.63,4.04,24.58,7.02,6.09,2.29,9.08,8.03,9.68,14.35.49,5.16-1.71,9.82-5.49,13.42-9.67,9.19-26.61,8.61-36.1,2.59-6.39-4.05-9.36-10.07-10.02-17.76h7.5c1.12,7.36,5.54,11.94,12.34,14.05,8.19,2.55,15.8.54,22.17-4.83,4.69-3.95,1.54-12.85-5.18-14.98-7.07-2.23-14.34-3.84-21.42-6.08-11.04-3.5-17.05-15.31-9.39-25.92,3.39-4.69,9.02-6.51,14.63-7.11,7.45-.79,14.67.11,21.35,4.13,4.58,2.76,7.68,8.64,6.75,14.38Z"/>
  <path class="cls-1" d="M1471.62,28.12v6.31h11.42v20.96h-51.77c-.12-1.84-.24-3.71-.36-5.58-.2,0-.39.01-.59.02v28.34h-62.21v-44.27c1.99-.09,3.9-.17,6.19-.27.16-1.73.33-3.48.52-5.51h96.79ZM1480.65,36.95h-11.43c-.14-2.32-.27-4.34-.39-6.26h-91.55c-.11,1.96-.21,3.6-.31,5.38-2.26.16-4.29.3-6.26.44v10h62.76c.12,2.3.23,4.33.33,6.35h46.85v-15.91ZM1370.57,75.63h56.81v-23.94h-56.81v23.94Z"/>
  <path class="cls-1" d="M1553.58,632.24c.41-1.95.79-3.75,1.03-4.88,4.08-1.56,7.79-2.65,11.18-4.36,3.99-2.01,3.98-6.27,3.69-9.84-.32-3.85-2.61-7.53-6.66-8.18-4.95-.79-10.43-1.58-13.81,3.95-.2.33-.81.55-.83.85-.37,5.93-3.59,6.71-8.38,4.56.46-9.05,7.34-15.88,16.44-15.77,3.56.04,7.29.34,10.63,1.47,6.64,2.24,10.41,7.54,10.38,14.32-.02,5.75-2.62,10.95-8.5,13.37,2.74,1.96,5.77,3.44,7.89,5.76,5.23,5.72,4.63,17.09-.54,23-7.2,8.22-16.73,10.15-27.28,6.16-5.67-2.14-10.3-9.79-10.12-16.33,5.84-1.33,6.21-1.31,8.38,4.16,2.79,7.03,9.04,8.73,14.43,7.8,6.4-1.11,10.17-6.62,10.77-12.94,1.03-10.81-9.02-15.57-17.05-13.02-.35.11-.78-.03-1.67-.09Z"/>
  <path class="cls-1" d="M1366.82,34.04v44.21h-168.95v-44.21h168.95ZM1200.24,75.64h163.89v-39.14h-163.89v39.14Z"/>
  <path class="cls-1" d="M755.49,117.59v96.5h-105.72v-96.5h105.72ZM652.26,119.99v91.45h100.65v-91.45h-100.65Z"/>
  <path class="cls-1" d="M1162.6,78.38h-97.98v-44.35h97.98v44.35ZM1160.23,36.58h-93.07v39.14h93.07v-39.14Z"/>
  <path class="cls-1" d="M1366.72,499.59h-12.24v26.04c-7.1,0-13.91.06-20.72-.09-.73-.02-1.9-1.24-2.05-2.06-.51-2.85-.8-5.76-.93-8.67-.36-7.67-.49-15.34-.89-23.01-.77-14.59-1.64-29.17-2.54-43.75-.2-3.16-.73-6.31-1.15-9.83h40.53v61.37ZM1334.06,522.89h17.87v-26.11h12.34v-56.11h-35.49c.4,2.58.94,4.85,1.07,7.14.91,15.42,1.72,30.85,2.58,46.27.53,9.55,1.07,19.1,1.62,28.82Z"/>
  <path class="cls-1" d="M1329.59,661.33h-69.42v-46.88h69.42v46.88ZM1327.08,658.78v-41.67h-64.4v41.67h64.4Z"/>
  <path class="cls-1" d="M1434.28,614.54v46.74h-55.97v-46.74h55.97ZM1431.59,658.88v-41.81h-50.76v41.81h50.76Z"/>
  <path class="cls-1" d="M1163.98,78.17v-44.19h32.37v44.19h-32.37ZM1193.85,75.75v-39.13h-27.3v39.13h27.3Z"/>
  <path class="cls-2" d="M1333.18,658.66v-89.97h-4.83c-21.08,0-42.16.09-63.24-.04-11.05-.07-22.1-.42-33.14-.84-11.14-.42-22.27-1.1-33.4-1.66-11.41-.57-22.83-1.12-34.24-1.69-10.99-.55-21.98-1.13-32.98-1.68-11.55-.58-23.11-1.12-34.66-1.7-10.85-.54-21.7-1.13-32.56-1.67-11.69-.58-23.39-1.13-35.08-1.7-11.13-.55-22.26-1.55-33.4-1.6-40.75-.19-81.51-.08-122.26-.08h-5.46v-20.87h-228.42v15.53c-2.46.18-4.48.32-6.93.5v4.64c0,17.16-.16,34.31.08,51.46.1,6.78-.71,13.1-3.62,19.34-7.73,16.59-15.14,33.32-22.58,50.04-9.96,22.36-19.82,44.77-29.75,67.15-2.68,6.04-5.56,12-8.16,18.07-.85,1.98-1.94,2.6-4.04,2.58-12.93-.09-25.86,0-38.78-.13-1.26-.01-2.45-1.36-3.77-1.83-1.13-.4-2.39-.59-3.6-.6-14.47-.04-28.95-.03-43.42-.03h-4.88c6.77-27.15,13.48-54.05,20.26-81.23-1.46-.44-2.69-.81-4.2-1.26,2.57-11.93,5.11-23.68,7.63-35.44,3.84-17.87,7.66-35.74,11.5-53.61,2.54-11.83,5.29-23.61,7.61-35.48,1.69-8.65,2.85-17.4,4.17-26.11,1.36-9,2.67-18.01,3.94-27.03.72-5.06,1.43-10.13,1.93-15.21.26-2.61.99-3.97,3.99-3.96,34.43.08,68.86.05,103.29.06.67,0,1.34.09,2.3.16v18.93h7.5v-25.26c.76-.25,1.25-.51,1.76-.57,26.41-2.84,52.91-1.42,79.37-1.7,10.79-.11,21.59-.02,32.7-.02v16.86c5.91-.8,11.6,1.73,17.1-1.52.95-.56,2.48-.16,3.75-.16,30.92,0,61.83-.08,92.75.09,3.97.02,5.62-1.18,6.4-5.02,2.01-9.82,4.55-19.53,6.57-29.35.5-2.46,1.57-2.87,3.65-2.87,23.32.03,46.65.02,71.04.02-.81,21.31-1.62,42.46-2.44,63.87h16.01c.22-1.13.46-2.42.72-3.81h83.09v16.51h15.86c.12-2.02.25-4.04.38-6.3h83.21v6.21h15.95c.11-2.03.21-4.06.33-6.26h83.1c.12,2.02.25,4.05.39,6.31h15.51V113.11c-5.47.77-11.22-1.81-16.68,1.52-.63.38-1.66.12-2.5.12-25.44,0-50.87.1-76.31-.07-5.66-.04-11.46-2.12-16.96-1.43-27.42,3.47-54.91.56-82.35,1.4-5.64.17-11.45-2.09-16.95-1.4-27,3.42-54.07.61-81.09,1.4-6.06.18-12.3-2.13-18.22-1.39-27.15,3.41-54.35.58-81.51,1.39-6.06.18-12.3-2.13-18.22-1.39-26.87,3.38-53.89,2.39-80.64,1.05-42.66-2.14-85.27-.2-127.88-1.26-.41-.01-.82-.11-1.52-.21V36.53h414.48v45.02h372.61v-22.14h47.11v54.34h-147.07v43.94h-26.33c0,7.4-.22,14.33.06,21.24.25,6.09,1.2,12.15,1.57,18.24.45,7.39.51,14.8.9,22.19.78,14.88,1.65,29.77,2.53,44.65.52,8.75,1.15,17.5,1.66,26.25.88,14.88,1.68,29.76,2.55,44.64.51,8.75,1.15,17.5,1.66,26.25.88,14.88,1.68,29.76,2.56,44.64.51,8.75,1.15,17.5,1.66,26.25.88,14.88,1.68,29.76,2.56,44.64.51,8.75,1.08,17.5,1.68,26.25.53,7.77,1.2,15.52,1.64,23.29.15,2.64,1.64,2.83,3.66,2.83,9.13-.03,18.27-.01,27.4-.01,1.54,0,3.07,0,5.07,0v87.69h10.08v41.94h-41.21Z"/>
  <path class="cls-2" d="M515.64,767.1c-.06,1.04-.12,1.99-.2,3.31h50.42c-.36,6.59-.68,12.81-1.05,19.03-.07,1.23-.48,2.45-.54,3.68-.59,12.26-1.09,24.53-1.73,36.78-.47,9.03-1.12,18.06-1.66,27.09-.86,14.31-1.68,28.63-2.54,42.95-.54,9.03-1.13,18.06-1.67,27.09-.86,14.31-1.68,28.63-2.54,42.95-.54,9.03-1.13,18.06-1.67,27.09-.86,14.31-1.66,28.63-2.57,42.94-.16,2.47-.74,4.91-1.18,7.66h-170.15c3.13-8.29,6.2-16.42,9.29-24.55,6.78-17.84,14.33-35.42,20.16-53.56,7.29-22.7,13.29-45.82,19.63-68.82,6.45-23.42,12.63-46.91,18.93-70.36,5.65-21.04,11.31-42.09,17.01-63.26h52.07Z"/>
  <path class="cls-2" d="M1364.18,367.12h-12.24v8.05h-26.97c-.6-6.84-1.36-13.69-1.77-20.57-.69-11.83-1.1-23.68-1.74-35.52-.78-14.32-1.65-28.63-2.53-42.95-.56-9.16-1.18-18.31-1.8-27.77h34.65v8.04h12.4v110.72Z"/>
  <path class="cls-2" d="M1364.19,233.8h-12.24v8.05h-34.71c-1.64-25.8-3.29-51.68-4.95-77.86h51.91v69.81Z"/>
  <path class="cls-2" d="M1328.77,610.69h-66.09v-37.45h66.09v37.45Z"/>
  <path class="cls-2" d="M1324.88,381.57h26.82v7.23h12.51v45.5h-36.01c-1.11-17.58-2.2-35-3.32-52.73Z"/>
  <path class="cls-2" d="M1251.49,512.84h-83.3v-15.52h-16.08v15.45h-83.38v-15.51h-16.06c-.11,1.68-.21,3.32-.33,5.29h-82.82c-.09-.13-.37-.34-.39-.57-2.89-37.82-1.58-75.71-1.73-113.57-.02-4.54,1.89-9.15,1.47-13.6-3.61-38.53-2.44-77.21-1.04-115.68,1.58-43.52.14-86.99,1.19-130.46.01-.54.11-1.08.19-1.86h83.18v18.01h15.94v-17.91h83.53v17.97h15.94v-18.03h83.3c.13.41.32.78.35,1.17,2.67,34.59,1.73,69.24,1.68,103.87-.1,62.09-.47,124.17-.81,186.26-.17,30.59-.54,61.19-.82,91.78,0,.83,0,1.66,0,2.91Z"/>
  <path class="cls-2" d="M952.69,446.34h-46.59c-8.71,0-17.43.21-26.13-.1-3.5-.13-4.74,1.48-5.32,4.3-1.19,5.79-2.68,11.56-3.29,17.42-.36,3.44-1.83,3.8-4.57,3.72-4.32-.13-8.64-.03-13.13-.03-.11,1.78-.2,3.15-.31,4.79h-83.16v-24.69h-16.08v9.54h-100.12v-241.61h99.95v33.24h15.93v-126.1h83.52v18h15.94v-17.91h83.37v319.43Z"/>
  <path class="cls-2" d="M1253,575.01v87.95h-384.96v-101.02h4.41c44.54,0,89.08-.12,133.62.08,12.12.05,24.23,1.01,36.34,1.64,9.31.48,18.61,1.18,27.91,1.64,13.09.64,26.2,1.11,39.29,1.73,10.71.5,21.42,1.13,32.13,1.66,11.83.59,23.67,1.11,35.5,1.71,10.01.51,20.01,1.16,30.02,1.66,12.39.62,24.79,1.09,37.18,1.74,2.74.14,5.46.76,8.56,1.21Z"/>
  <path class="cls-2" d="M521.44,459.54V128.48h110.79v331.07h-110.79Z"/>
  <path class="cls-2" d="M858.25,663h-211.12v-120.98h211.12v120.98Z"/>
  <path class="cls-2" d="M1480.65,36.95v15.91h-46.85c-.11-2.02-.21-4.04-.33-6.35h-62.76v-10c1.97-.14,4-.28,6.26-.44.1-1.78.2-3.42.31-5.38h91.55c.12,1.92.25,3.95.39,6.26h11.43Z"/>
  <path class="cls-2" d="M1370.57,75.63v-23.94h56.81v23.94h-56.81Z"/>
  <path class="cls-2" d="M1200.24,75.64v-39.14h163.89v39.14h-163.89Z"/>
  <path class="cls-2" d="M652.26,119.99h100.65v91.45h-100.65v-91.45Z"/>
  <path class="cls-2" d="M1160.23,36.58v39.14h-93.07v-39.14h93.07Z"/>
  <path class="cls-2" d="M1334.06,522.89c-.55-9.71-1.09-19.27-1.62-28.82-.85-15.42-1.67-30.85-2.58-46.27-.13-2.29-.67-4.55-1.07-7.14h35.49v56.11h-12.34v26.11h-17.87Z"/>
  <path class="cls-2" d="M1327.08,658.78h-64.4v-41.67h64.4v41.67Z"/>
  <path class="cls-2" d="M1431.59,658.88h-50.76v-41.81h50.76v41.81Z"/>
  <path class="cls-2" d="M1193.85,75.75h-27.3v-39.13h27.3v39.13Z"/>
</svg>