<?xml version="1.0" encoding="UTF-8"?>
<svg id="Capa_1" data-name="Capa 1" xmlns="http://www.w3.org/2000/svg"  xmlns:xlink="http://www.w3.org/1999/xlink" viewBox="0 0 1920 1080">
  <defs>
    <style>
      .cls-1 {
        fill: #000;
      }

      .cls-1, .cls-2 {
        stroke-width: 0px;
      }

      .cls-2 {
        fill: #fff;
      }
    </style>
  </defs>

  <defs>
    <filter id="shadow" x="0" y="0" width="150%" height="150%">
      <feOffset result="offOut" in="SourceAlpha" dx="5" dy="5" />
      <feGaussianBlur result="blurOut" in="offOut" stdDeviation="3" />
      <feBlend in="SourceGraphic" in2="blurOut" mode="normal" />
    </filter>
  </defs>

  <!-- Definir estilos CSS para hover -->
  <style>
    a:hover path {
      filter: url(#shadow);
      fill: rgb(176, 87, 13);
    }
  </style>
  
  <path class="cls-2" d="M1634.31,1080H286c0-360,0-720,0-1080,450,0,900,0,1350,0,0,358.73,0,717.47-.03,1076.2,0,1.27-.53,2.53-.81,3.8V1.91c-.28,0-.56,0-.84,0v1078.09ZM1348.26,111.39v-36.89h-593.98v35.91c9.44.33,18.62,1.15,27.76.87,23.93-.73,47.91,2.04,71.81-1.43,3.95-.57,8.2,1.39,12.32,1.45,13.91.2,27.82.08,41.74.08h4.38v6.68c-.15,0-.3,0-.45.01-.13-1.88-.25-3.75-.37-5.52h-50.1c-.82,19.14-1.63,37.94-2.45,57.04h41.87q8.1,0,8.39-8.2c.01-.34.24-.67.64-1.74v14.14c-.13.02-.25.03-.38.05-.22-1.12-.43-2.23-.61-3.16h-49.65c1.23,23-1.54,45.84,1.72,68.94h4.62c10.54,0,21.08,0,31.62,0q8.17,0,8.72-7.91c0-.12.31-.22.53-.37v15.75c-.15,0-.3,0-.46.01-.12-2.15-.25-4.3-.38-6.64h-44.03c-3.94,10.7-1.69,21.44-2.05,31.98-.37,10.9-.08,21.82-.08,32.74h43.23v33.92c-.22,0-.43,0-.65-.01v-32.81h-42.58c0,11.75-.14,22.98.04,34.2.18,10.99-1.38,22.1,2.38,33.3.72,0,1.81,0,2.91,0,10.82,0,21.64.06,32.46-.13.91-.02,2.39-1.72,2.55-2.8.38-2.54.12-5.18.12-7.78.22.01.43.03.65.04v13.32c-2.01-2.07-23.64-2.83-38.93-1.57-3.98,7.07-1.77,14.8-2.11,22.23-.34,7.65-.08,15.32-.08,23.09,11.93,0,23.17-.06,34.41.04,2.84.03,3.52-1.15,3.6-3.78.2-6.02.74-12.04,1.14-18.05.48,1.1.53,2.2.47,3.29-.55,10.72-1.2,21.43-1.64,32.16-.41,9.92-.6,19.86-.87,29.79-.04,1.52,0,3.04,0,4.55-.23.01-.45.02-.68.03-.11-2.41-.23-4.83-.34-7.24h-38.43v6.92c1.45.31,2.72.59,3.74.8v26.23h-10.85v-20.45h-88.46v17.63h-125.59v-21.31h-108.31c-8.15,0-8.4-.06-10.17,7.8-3.11,13.81-5.91,27.69-8.8,41.55-3.25,15.61-6.44,31.24-9.7,46.85-3.2,15.34-6.49,30.66-9.69,45.99-3.26,15.61-6.44,31.24-9.72,46.84-3.19,15.2-6.48,30.37-9.67,45.57-3.53,16.82-6.73,33.71-10.57,50.46-2.51,10.95-5.93,21.69-8.84,32.55-5.77,21.48-11.45,42.97-17.19,64.46-6.06,22.67-12.15,45.34-18.23,68-2.88,10.74-5.02,21.75-8.79,32.16-10.51,29.04-21.7,57.84-32.62,86.73-1.81,4.78-1.79,4.79,3.4,4.79,55.37,0,110.74,0,166.11,0,.84,0,1.86.29,2.49-.08,1.01-.6,2.3-1.51,2.53-2.51.59-2.54.77-5.2.93-7.82.88-14.32,1.7-28.64,2.56-42.96.54-9.03,1.13-18.06,1.67-27.09.86-14.32,1.68-28.64,2.54-42.96.54-9.03,1.13-18.06,1.67-27.09.86-14.32,1.68-28.64,2.54-42.96.54-9.03,1.19-18.06,1.66-27.09.64-12.26,1.13-24.53,1.73-36.79.06-1.23.47-2.45.54-3.68.42-7.06.78-14.11,1.18-21.62h-4.95c-13.77,0-27.54.02-41.32-.04-1.23,0-2.45-.54-3.68-.83.1-.55.2-1.11.3-1.66h4.52c13.07,0,26.14-.08,39.21.06,3,.03,4.69-.68,6-3.67,5.83-13.23,11.99-26.3,17.99-39.46,1.69-3.7,3.22-7.46,4.95-11.5-20.33-5.07-40.16-10.01-59.99-14.95,20.41,3.24,40.26,9.09,60.48,13.73,1.43-2.78,2.9-5.29,4.05-7.94,8.34-19.16,16.58-38.36,24.93-57.52,1.87-4.29,1.91-4.45-2.7-4.46-14.19-.03-28.39-.05-42.58.05-1.53.01-3.06.8-4.58,1.23,1.13-1.21,2.61-2.06,4.09-2.07,15.18-.1,30.35-.03,45.53-.12,1.36,0,3.64-.52,3.94-1.35,2.83-7.96,8.13-15.01,7.92-24.12-.35-15.18-.09-30.37-.09-45.56v-7.92h334.47c0,.22,0,.44,0,.66h-103.97v105.01h191.96c0-17.78,0-35.21,0-52.64,0-14.77.06-29.53-.11-44.29-.02-1.33-1.35-3.58-2.4-3.79-3.65-.72-7.44-.87-11.18-1-10.2-.36-20.41-.59-30.61-.89-.39-.01-.78-.2-1.17-.31.01-.25.03-.51.04-.76,19.62.73,39.23,1.47,59.05,2.21q-6.87,1.45-6.87,8.91v91.74h92.75v-33.2c0-19.41,0-38.81,0-58.22,0-2.33.25-4.38-3.27-4.51-9.31-.35-18.61-1.17-27.92-1.58-9.78-.43-19.56-.59-29.35-.89-.85-.03-1.71-.17-2.56-.25,1.27-.58,2.51-.63,3.74-.58,11.98.55,23.95,1.2,35.93,1.65,11.04.41,22.09.6,33.14.87,1.52.04,3.04,0,4.56,0-.48.65-.99.81-1.51.83q-6.04.27-6.04,6.31c0,28.41,0,56.81,0,85.22v4.33h96.13v-35.78c0-17.16.01-34.31-.02-51.47,0-1.85.65-4.17-2.46-4.38-3.6-.24-7.19-.7-10.8-.82-10.48-.36-20.97-.59-31.45-.88-.53-.01-1.06-.15-1.6-.23,7.24-.55,14.43-.07,21.63.22,9.5.37,19,.77,28.5.83,21.08.12,42.16.04,63.24.04h4.63v5.22c0,26.86.06,53.72-.07,80.57-.02,3.52,1.03,4.64,4.55,4.55,13.85-.35,27.71-.61,41.57-.6,17.95.02,35.89.35,53.84.52,1.21.01,2.42-.15,3.62-.23v-47.35c-.44-.2-.68-.41-.92-.41-17.42-.04-34.85-.04-52.27-.11-2.43,0-3.09,1.11-3.13,3.36-.21,12.6-.53,25.2-.81,37.8-.03,1.42,0,2.84,0,4.25h-1.01v-45.57h-9.23v-113.96h-74.67V111.39h61.11ZM750.72,119.27h-105.51c0,1.13,0,1.96,0,2.79,0,53.15.4,106.3-.11,159.45-.51,52.91,1.99,105.83-1.42,158.73-1,15.54-.15,31.2-.15,46.81v4.56h54.06v-57.02c.28,0,.56,0,.84,0v56.12h52.37v-57.16h101.01c0-18.02.01-35.58-.04-53.14,0-.83-.85-1.63-.92-2.48-.26-3.41-.61-6.85-.42-10.25.08-1.38,2.12-2.69,2.13-4.03.12-38.53.11-77.05.03-115.58,0-1.17-1.51-2.3-1.6-3.5-.25-3.29-.29-6.61-.07-9.9.08-1.18,1.67-2.3,1.66-3.43-.16-15.98-.26-31.96-.82-47.92-.57-16.42,1.69-32.91-1.49-49.3-.93-4.81-.14-9.95-.14-14.81h-88.67v24.02h-10.73v-23.96ZM1462.49,653.52c.75,7.78,3.68,13.8,9.93,17.74,9.92,6.27,26.63,6.67,36.44-2.67,3.73-3.55,5.94-8.32,5.27-13.51-.82-6.41-3.79-12.08-10.28-14.29-7.93-2.7-16.12-4.6-24.19-6.89-3.87-1.09-6.01-3.86-6.6-7.68-.58-3.8.84-6.86,4.44-8.55,6.51-3.05,13.27-3.01,19.74-.32,2.4,1,5.19,3.48,5.81,5.82,1.45,5.46,4.75,4.58,8.62,3.93.5-5.74-1.68-10.56-6.01-13.35-10.62-6.85-21.9-7.43-33.17-1.21-1.55.86-3.19,1.99-4.14,3.42-7.25,10.98-1.13,22.52,9.85,25.82,6.98,2.1,14.04,3.9,21.01,5.99,3.69,1.11,6.67,3.6,7,7.44.22,2.62-.46,6.4-2.23,7.93-12.39,10.68-29.33,5.75-34.25-9.63h-7.23ZM959.07,73.1h197.77V28.92h-197.77v44.19ZM1532.65,667.61c1.24-1.97,1.9-3.67,3.09-4.79,7.25-6.82,14.66-13.48,21.94-20.26,7.46-6.95,9.7-20.49,2.28-27.3-7.27-6.69-15.64-7.13-24.1-4.68-7.66,2.22-11.33,8.6-12.45,16.69h7.19c3.08-9.16,6.01-12.04,14.64-11.68,5.42.22,8.95,2.75,10.96,7.4,1.93,4.44,1.01,9.09-2.17,12.37-7.12,7.36-14.78,14.22-22.2,21.3-5.11,4.88-9.36,10.24-9.99,17.84h42.67v-6.88h-31.87ZM643.82,554.53v104.95h108.26v-104.95h-108.26ZM1191.8,73.1h163.2V28.07h-163.2v45.03ZM852.35,660.47v-105.79h-92.23v105.79h92.23ZM1358.28,231.26v-74.55h-30.22v-44.21h-40.02v126.82h60.56v-8.05h9.68ZM645.51,29.72v84.7h107.41V29.72h-107.41ZM754.18,73.11h104.03V28.91h-104.03v44.2ZM1358.3,318.85v-70.99h-10v-7.11h-60.21v78.1h70.22ZM859.58,73.11h92.23V28.91h-92.23v44.21ZM1358.38,433.08h-70.36v60.2h70.36v-60.2ZM1288.05,373.14v58.66h70.27v-50.57h-9.97v-8.09h-60.3ZM849.96,434.86h-88.16v38.22h88.16v-38.22ZM1358.38,363.66v-43.63h-70.33v51.86h60.45v-8.23h9.87ZM1324.01,656.25c0-14.75-.12-29.01.08-43.26.05-3.78-1.18-4.75-4.82-4.72-19.08.16-38.16.07-57.23.08-1.2,0-2.41.15-3.48.23v47.67h65.45ZM857.05,459.84c12.1,0,23.86-.04,35.62.03,2.93.02,2.9-1.76,3.02-3.89.48-8.88,1.12-17.75,1.62-26.63.15-2.72.02-5.46.02-8.09h-40.28v38.58ZM1158.19,28.88v44.19h32.37V28.88h-32.37Z"/>
  <path class="cls-1" d="M1634.31,1080V1.91c.28,0,.56,0,.84,0v1078.09h-.84Z"/>
  <path class="cls-1" d="M1348.26,111.39h-61.11v382.82h74.67v113.96h9.23v45.56h1.01c0-1.41-.03-2.83,0-4.25.27-12.6.59-25.2.81-37.8.04-2.25.7-3.37,3.13-3.36,17.42.07,34.85.07,52.27.11.24,0,.48.21.92.41v47.35c-1.21.08-2.42.25-3.62.23-17.95-.17-35.89-.5-53.84-.52-13.86-.02-27.72.25-41.57.6-3.53.09-4.57-1.03-4.55-4.55.13-26.86.07-53.72.07-80.57v-5.22h-4.63c-21.08,0-42.16.08-63.24-.04-9.5-.06-19.01-.46-28.5-.83-7.2-.28-14.39-.77-21.63-.22.53.08,1.06.21,1.6.23,10.48.29,20.97.53,31.45.88,3.6.12,7.2.58,10.8.82,3.11.21,2.46,2.53,2.46,4.38.03,17.16.02,34.31.02,51.47v35.78h-96.13v-4.33c0-28.41,0-56.81,0-85.22q0-6.05,6.04-6.31c.52-.02,1.02-.18,1.51-.83-1.52,0-3.04.03-4.56,0-11.05-.27-22.1-.46-33.14-.87-11.98-.44-23.95-1.1-35.93-1.65-1.23-.06-2.47,0-3.74.58.85.09,1.7.23,2.56.25,9.78.29,19.57.46,29.35.89,9.31.41,18.61,1.24,27.92,1.58,3.52.13,3.27,2.19,3.27,4.51-.01,19.41,0,38.81,0,58.22v33.2h-92.75v-91.74q0-7.46,6.87-8.91c-19.81-.74-39.43-1.47-59.05-2.21-.01.25-.03.51-.04.76.39.11.78.3,1.17.31,10.2.3,20.41.53,30.61.89,3.74.13,7.53.28,11.18,1,1.04.21,2.38,2.46,2.4,3.79.17,14.76.11,29.53.11,44.29,0,17.43,0,34.87,0,52.64h-191.96v-105.01h103.97c0-.22,0-.44,0-.66h-334.47v7.92c0,15.19-.25,30.38.09,45.56.21,9.11-5.09,16.16-7.92,24.12-.3.83-2.57,1.34-3.94,1.35-15.18.09-30.35.02-45.53.12-1.48,0-2.96.86-4.09,2.07,1.53-.43,3.05-1.22,4.58-1.23,14.19-.1,28.39-.07,42.58-.05,4.61,0,4.57.17,2.7,4.46-8.35,19.15-16.59,38.36-24.93,57.52-1.15,2.65-2.62,5.16-4.05,7.94-20.23-4.63-40.07-10.49-60.48-13.73,19.83,4.94,39.66,9.88,59.99,14.95-1.73,4.04-3.27,7.81-4.95,11.5-6,13.15-12.16,26.23-17.99,39.46-1.32,2.99-3,3.7-6,3.67-13.07-.14-26.14-.06-39.21-.06h-4.52c-.1.55-.2,1.11-.3,1.66,1.23.29,2.45.83,3.68.83,13.77.06,27.54.04,41.32.04h4.95c-.4,7.5-.77,14.56-1.18,21.62-.07,1.23-.48,2.45-.54,3.68-.59,12.26-1.09,24.53-1.73,36.79-.47,9.04-1.12,18.06-1.66,27.09-.86,14.32-1.68,28.64-2.54,42.96-.54,9.03-1.13,18.06-1.67,27.09-.86,14.32-1.68,28.64-2.54,42.96-.54,9.03-1.13,18.06-1.67,27.09-.86,14.32-1.67,28.64-2.56,42.96-.16,2.62-.34,5.28-.93,7.82-.23,1-1.52,1.91-2.53,2.51-.63.37-1.65.08-2.49.08-55.37,0-110.74,0-166.11,0-5.2,0-5.21-.02-3.4-4.79,10.92-28.9,22.11-57.69,32.62-86.73,3.77-10.42,5.91-21.42,8.79-32.16,6.08-22.67,12.17-45.33,18.23-68,5.74-21.48,11.43-42.98,17.19-64.46,2.91-10.86,6.34-21.6,8.84-32.55,3.83-16.75,7.04-33.64,10.57-50.46,3.19-15.2,6.48-30.37,9.67-45.57,3.27-15.61,6.45-31.23,9.72-46.84,3.21-15.34,6.49-30.66,9.69-45.99,3.26-15.61,6.45-31.23,9.7-46.85,2.89-13.86,5.69-27.74,8.8-41.55,1.77-7.85,2.02-7.8,10.17-7.8h108.31v21.31h125.59v-17.63h88.46v20.45h10.85v-26.23c-1.02-.22-2.29-.49-3.74-.8v-6.92h38.43c.11,2.41.23,4.83.34,7.24.23-.01.45-.02.68-.03,0-1.52-.04-3.04,0-4.55.27-9.93.46-19.86.87-29.79.44-10.72,1.1-21.44,1.64-32.16.06-1.09,0-2.19-.47-3.29-.4,6.02-.94,12.03-1.14,18.05-.09,2.63-.76,3.81-3.6,3.78-11.24-.11-22.48-.04-34.41-.04,0-7.77-.27-15.45.08-23.09.33-7.43-1.87-15.15,2.11-22.23,15.29-1.27,36.92-.5,38.93,1.57v-13.32c-.22-.01-.43-.03-.65-.04,0,2.6.26,5.23-.12,7.78-.16,1.08-1.65,2.78-2.55,2.8-10.82.2-21.64.13-32.46.13-1.1,0-2.19,0-2.91,0-3.76-11.2-2.2-22.31-2.38-33.3-.18-11.22-.04-22.45-.04-34.2h42.58v32.81c.22,0,.43,0,.65.01v-33.92h-43.23c0-10.92-.29-21.84.08-32.74.36-10.55-1.89-21.28,2.05-31.98h44.03c.13,2.34.26,4.49.38,6.64.15,0,.3,0,.46-.01v-15.75c-.22.15-.52.25-.53.37q-.56,7.91-8.72,7.91c-10.54,0-21.08,0-31.62,0h-4.62c-3.26-23.09-.49-45.93-1.72-68.94h49.65c.18.93.4,2.04.61,3.16.13-.02.25-.03.38-.05v-14.14c-.4,1.07-.63,1.4-.64,1.74q-.3,8.2-8.39,8.2h-41.87c.82-19.1,1.63-37.9,2.45-57.04h50.1c.12,1.76.25,3.64.37,5.52.15,0,.3,0,.45-.01v-6.68h-4.38c-13.91,0-27.83.13-41.74-.08-4.12-.06-8.37-2.02-12.32-1.45-23.9,3.47-47.88.7-71.81,1.43-9.15.28-18.33-.54-27.76-.87v-35.91h593.98v36.89ZM633.47,473.66c-1.01-.17-1.41-.29-1.82-.29-35.83-.01-71.67-.02-107.5-.02-.42,0-.97-.16-1.24.04-.88.67-2.2,1.35-2.4,2.24-2.11,9.53-4.02,19.1-6,28.65-3.25,15.61-6.5,31.22-9.76,46.82-2.92,13.99-5.85,27.98-8.79,41.97-3.28,15.6-6.58,31.2-9.86,46.8-2.91,13.86-5.8,27.72-8.69,41.57-3.26,15.61-6.5,31.22-9.76,46.83-1.97,9.45-3.95,18.9-5.94,28.45h47.36c1.83-7.37,3.65-14.67,5.45-21.96,3.69-14.93,7.36-29.87,11.07-44.8.68-2.74,1.4-4.63,5.34-3.33,6.52,2.16,13.35,3.35,20.22,4.99,4.76-19.45,9.42-38.37,14.01-57.31.73-2.99,2.19-4.17,5.49-4.13,14.19.21,28.39-.2,42.57.24,5.02.16,7.63-1.22,8.82-6.02,1.32-5.28,4.82-9.75,4.72-15.68-.3-17.71-.11-35.43-.11-53.15,0-1.48,0-2.96,0-4.62h6.08c99.07,0,198.14-.09,297.21.08,19.14.03,38.29.99,57.43,1.63,13.67.46,27.32,1.1,40.99,1.67,13.38.56,26.76,1.13,40.14,1.68,13.66.57,27.32,1.12,40.99,1.69,12.96.55,25.92,1.13,38.88,1.68,13.66.58,27.32,1.12,40.99,1.69,13.38.56,26.76,1.21,40.14,1.66,11.75.4,23.5.75,35.25.83,19.53.14,39.07.04,58.6.04h4.96v89.96h40.16v-42.81h-9.25v-113.96h-74.57V108.65h61.05v-31.6h-588.87v29.73c4.58.73,8.83,2.09,13.04,1.96,27.16-.83,54.34,1.85,81.51-1.34,8.29-.97,16.9,1.17,25.38,1.38,11.38.28,22.76.07,34.15.07h4.39c-.4,5.69-.81,10.68-1.09,15.67-.6,11.14-1.17,22.28-1.68,33.42-.6,12.97-1.12,25.94-1.71,38.9-.53,11.56-1.16,23.12-1.66,34.68-.61,13.95-1.09,27.91-1.72,41.85-.47,10.44-1.15,20.87-1.65,31.31-.62,13.11-1.12,26.22-1.72,39.32-.53,11.7-1.13,23.4-1.67,35.11-.58,12.54-1.12,25.09-1.7,37.64-.55,11.98-1.15,23.97-1.67,35.95-.59,13.53-1.26,27.05-1.61,40.59-.09,3.44-.95,4.66-4.53,4.6-12.22-.2-24.45-.08-36.68-.08h-8.75v-20.75h-83.36c0,4.56-.16,8.78.05,12.99.17,3.2-.73,4.45-4.21,4.47-25.24.14-50.48.55-75.72.75-15.32.12-30.63.02-45.95.02h-4.81v-21.62ZM545.47,1041.9c.38-3.61.82-6.9,1.07-10.2.61-8.32,1.19-16.65,1.68-24.98.89-15.02,1.68-30.04,2.57-45.05.49-8.33,1.16-16.65,1.65-24.98.89-15.02,1.68-30.04,2.57-45.05.49-8.33,1.16-16.65,1.65-24.98.89-14.88,1.75-29.75,2.54-44.63.38-7.25.46-14.52.9-21.76.37-6.09,1.28-12.14,1.58-18.23.28-5.76.06-11.55.06-17.75h-49.75c.12-1.31.21-2.19.29-3.02h-52.06c-3.3,12.17-6.59,24.08-9.77,36.01-4.95,18.56-9.79,37.16-14.75,55.72-6.02,22.54-12.09,45.06-18.16,67.58-2.96,10.99-5.28,22.22-9.06,32.92-7.19,20.31-15.25,40.31-22.89,60.46-3.49,9.2-6.87,18.44-10.4,27.95h170.29ZM862.1,656.98h186.68v-95.66c-4.36-.38-8.36-.83-12.39-1.05-10.99-.62-21.98-1.18-32.97-1.69-12.95-.61-25.91-1.54-38.87-1.63-32.73-.23-65.47-.08-98.2-.08h-4.26v100.11ZM1061.22,560.97v95.13h87.17v-90.64c-9.9-.62-19.59-1.35-29.29-1.79-9.77-.44-19.55-.6-29.33-.88-.56-.02-1.12-.01-1.68-.05-8.86-.58-17.72-1.16-26.87-1.76ZM1160.72,565.11v91h90.55v-86.43c-9.89-.62-19.58-1.37-29.28-1.79-10.33-.45-20.68-.6-31.02-.88-.56-.02-1.12-.01-1.68-.05-9.42-.6-18.84-1.21-28.58-1.84ZM530.07,692.81c-5.29,21.24-10.56,42.42-15.93,64.03,15.94,0,30.95.06,45.96-.12,1.14-.01,2.76-1.49,3.32-2.69,4.72-9.94,9.28-19.96,13.82-29.98,2.64-5.83,5.15-11.72,7.69-17.52-18.35-4.59-36.56-9.14-54.86-13.72ZM861.92,173.14c0,15.5-.11,30.63.05,45.76.06,6.01.72,12.02,1.1,17.88h40.21c1.1-21.35,2.18-42.41,3.27-63.64h-44.64ZM556.16,693.02c11,2.74,21.18,5.27,31.58,7.86,9.41-21.53,18.73-42.87,28.19-64.52h-45.35c-4.81,18.89-9.57,37.6-14.42,56.67ZM900.67,302.82c.86-20.06,1.71-39.76,2.57-59.58h-39.2c-3.87,9.77-1.7,19.68-2.04,29.4-.35,10.03-.08,20.09-.08,30.17h38.75ZM906.62,166.85c.84-17.36,1.66-34.53,2.5-51.85h-45.13c-.83,17.46-1.65,34.65-2.47,51.85h45.1ZM861.69,309c1.33,20.82-1.81,41.42,2.14,62.03h33.48c.85-20.74,1.7-41.28,2.55-62.03h-38.18ZM1426.55,653.73v-42.61h-51.35v42.61h51.35ZM864.15,377.38c-3.81,6.3-1.9,13.04-2.17,19.53-.28,6.82-.06,13.66-.06,20.44h32.91c.83-13.44,1.64-26.58,2.47-39.97h-33.15ZM892.59,463.49h-33.05c-.12.37-.25.74-.37,1.1,1.44.64,2.88,1.27,4.64,2.05v25.8h28.78v-28.95Z"/>
  <path class="cls-1" d="M750.72,119.27v23.96h10.73v-24.02h88.67c0,4.86-.79,10,.14,14.81,3.17,16.39.91,32.88,1.49,49.3.56,15.96.66,31.95.82,47.92.01,1.14-1.58,2.26-1.66,3.43-.22,3.29-.19,6.62.07,9.9.09,1.2,1.6,2.33,1.6,3.5.09,38.53.1,77.05-.03,115.58,0,1.34-2.05,2.65-2.13,4.03-.19,3.4.16,6.84.42,10.25.07.85.91,1.65.92,2.48.06,17.56.04,35.12.04,53.14h-101.01v57.16h-52.37v-56.12c-.28,0-.56,0-.84,0v57.02h-54.06v-4.56c0-15.61-.85-31.27.15-46.81,3.41-52.9.9-105.82,1.42-158.73.52-53.14.11-106.3.11-159.45,0-.83,0-1.66,0-2.79h105.51ZM647.93,430.85h201.35c0-1.84,0-3.37,0-4.9-.12-19.17.62-38.37-1.65-57.48-.14-1.2.02-3.44.42-3.54,3.31-.78,2.01-3.32,2.02-5.09.08-26.85.46-53.72-.14-80.56-.25-11.3,2.84-22.83-2.11-34.04-1.4-3.18-.23-7.5-.2-11.29,0-.53.15-1.49.38-1.53,3.19-.65,2.1-3.17,2.08-4.99-.2-15.27-.43-30.54-.82-45.81-.5-19.72-1.16-39.44-1.78-59.16,0-.23-.27-.45-.39-.64h-83.1v23.88h-16.08v-23.97h-99.97v309.13ZM694.66,489.19v-52.63h-48.38v52.63h48.38ZM747.79,488.34v-51.79h-46.71v51.79h46.71Z"/>
  <path class="cls-1" d="M1462.49,653.52c2.81,0,5.02,0,7.23,0,4.92,15.37,21.86,20.3,34.25,9.63,1.77-1.53,2.45-5.31,2.23-7.93-.32-3.84-3.31-6.34-7-7.44-6.98-2.09-14.04-3.9-21.01-5.99-10.98-3.3-17.1-14.84-9.85-25.82.95-1.44,2.59-2.57,4.14-3.42,11.27-6.22,22.55-5.64,33.17,1.21,4.32,2.79,6.51,7.6,6.01,13.35-3.87.65-7.17,1.53-8.62-3.93-.62-2.34-3.41-4.82-5.81-5.82-6.47-2.69-13.23-2.73-19.74.32-3.6,1.69-5.02,4.75-4.44,8.55.59,3.82,2.73,6.59,6.6,7.68,8.07,2.28,16.27,4.19,24.19,6.89,6.5,2.21,9.46,7.88,10.28,14.29.67,5.19-1.54,9.96-5.27,13.51-9.81,9.34-26.52,8.93-36.44,2.67-6.24-3.94-9.18-9.96-9.93-17.74Z"/>
  <path class="cls-1" d="M959.07,73.1V28.92h197.77v44.19h-197.77ZM961.62,70.59h93.91V31.43h-93.91v39.15ZM1154.33,31.51h-93.07v39.15h93.07V31.51Z"/>
  <path class="cls-1" d="M1532.65,667.61h31.87v6.88h-42.67c.63-7.6,4.88-12.96,9.99-17.84,7.42-7.08,15.07-13.93,22.2-21.3,3.18-3.29,4.1-7.93,2.17-12.37-2.01-4.65-5.54-7.17-10.96-7.4-8.63-.36-11.57,2.52-14.64,11.68h-7.19c1.13-8.09,4.79-14.47,12.45-16.69,8.47-2.46,16.83-2.01,24.1,4.68,7.42,6.82,5.18,20.35-2.28,27.3-7.28,6.79-14.69,13.44-21.94,20.26-1.19,1.12-1.85,2.82-3.09,4.79Z"/>
  <path class="cls-1" d="M643.82,554.53h108.26v104.95h-108.26v-104.95ZM646.24,656.98h103.19v-99.88h-103.19v99.88Z"/>
  <path class="cls-1" d="M1191.8,73.1V28.07h163.2v45.03h-163.2ZM1352.44,70.69V30.64h-157.98v40.05h157.98Z"/>
  <path class="cls-1" d="M852.35,660.47h-92.23v-105.79h92.23v105.79ZM849.81,657.94v-100.73h-87.16v100.73h87.16Z"/>
  <path class="cls-1" d="M1358.28,231.26h-9.68v8.05h-60.56v-126.82h40.02v44.21h30.22v74.55ZM1325.71,115.09h-35.08v121.78h55.41v-8.41h9.8v-69.04h-30.13v-44.33Z"/>
  <path class="cls-1" d="M645.51,29.72h107.41v84.7h-107.41V29.72ZM750.42,32.35h-102.35v79.65h102.35V32.35Z"/>
  <path class="cls-1" d="M754.18,73.11V28.91h104.03v44.2h-104.03ZM855.82,31.51h-98.97v39.15h98.97V31.51Z"/>
  <path class="cls-1" d="M1358.3,318.85h-70.22v-78.1h60.21v7.11h10v70.99ZM1290.38,316.11h65.33v-65.69h-9.92v-7.07h-55.41v72.76Z"/>
  <path class="cls-1" d="M859.58,73.11V28.91h92.23v44.21h-92.23ZM949.45,31.53h-87.31v39.1h87.31V31.53Z"/>
  <path class="cls-1" d="M1358.38,433.08v60.2h-70.36v-60.2h70.36ZM1355.88,435.69h-65.4v55.13h65.4v-55.13Z"/>
  <path class="cls-1" d="M1288.05,373.14h60.3v8.09h9.97v50.57h-70.27v-58.66ZM1290.48,429.16h65.36v-45.31h-10.07v-8.18h-55.29v53.49Z"/>
  <path class="cls-1" d="M849.96,434.86v38.22h-88.16v-38.22h88.16ZM764.3,470.52h82.95v-33.25h-82.95v33.25Z"/>
  <path class="cls-1" d="M1358.38,363.66h-9.87v8.23h-60.45v-51.86h70.33v43.63ZM1290.62,322.48v46.84h55.44v-8.43h9.75v-38.42h-65.18Z"/>
  <path class="cls-1" d="M1324.01,656.25h-65.45v-47.67c1.07-.07,2.27-.23,3.48-.23,19.08-.02,38.16.07,57.23-.08,3.63-.03,4.87.94,4.82,4.72-.2,14.26-.08,28.52-.08,43.26ZM1260.87,653.55h60.77v-42.37h-60.77v42.37Z"/>
  <path class="cls-1" d="M857.05,459.84v-38.58h40.28c0,2.63.13,5.37-.02,8.09-.5,8.88-1.14,17.75-1.62,26.63-.11,2.13-.09,3.91-3.02,3.89-11.76-.07-23.52-.03-35.62-.03ZM859.57,457.03h33.49c.6-11.19,1.18-22.11,1.77-33.23h-35.26v33.23Z"/>
  <path class="cls-1" d="M1158.19,28.88h32.37v44.19h-32.37V28.88ZM1160.5,70.61h27.45V31.56h-27.45v39.05Z"/>
  <path class="cls-2" d="M633.47,473.66v21.62h4.81c15.32,0,30.63.1,45.95-.02,25.24-.2,50.48-.61,75.72-.75,3.48-.02,4.38-1.26,4.21-4.47-.22-4.2-.05-8.43-.05-12.99h83.36v20.75h8.75c12.23,0,24.45-.12,36.68.08,3.59.06,4.44-1.16,4.53-4.6.35-13.53,1.02-27.06,1.61-40.59.53-11.98,1.12-23.97,1.67-35.95.58-12.55,1.12-25.09,1.7-37.64.54-11.7,1.14-23.4,1.67-35.11.59-13.11,1.1-26.22,1.72-39.32.49-10.44,1.17-20.87,1.65-31.31.63-13.95,1.11-27.9,1.72-41.85.51-11.56,1.13-23.12,1.66-34.68.59-12.97,1.11-25.94,1.71-38.9.52-11.14,1.08-22.28,1.68-33.42.27-5,.69-9.99,1.09-15.67h-4.39c-11.38,0-22.77.21-34.15-.07-8.48-.21-17.09-2.35-25.38-1.38-27.17,3.18-54.35.51-81.51,1.34-4.21.13-8.47-1.23-13.04-1.96v-29.73h588.87v31.6h-61.05v388.16h74.57v113.96h9.25v42.81h-40.16v-89.96h-4.96c-19.53,0-39.07.1-58.6-.04-11.75-.08-23.5-.43-35.25-.83-13.38-.46-26.76-1.1-40.14-1.66-13.66-.57-27.32-1.12-40.99-1.69-12.96-.55-25.92-1.13-38.88-1.68-13.66-.58-27.32-1.12-40.99-1.69-13.38-.56-26.76-1.13-40.14-1.68-13.66-.57-27.32-1.21-40.99-1.67-19.14-.64-38.28-1.6-57.43-1.63-99.07-.16-198.14-.08-297.21-.08h-6.08c0,1.66,0,3.14,0,4.62,0,17.72-.19,35.44.11,53.15.1,5.93-3.41,10.4-4.72,15.68-1.2,4.8-3.8,6.18-8.82,6.02-14.18-.45-28.38-.04-42.57-.24-3.3-.05-4.77,1.14-5.49,4.13-4.6,18.94-9.25,37.86-14.01,57.31-6.87-1.64-13.7-2.83-20.22-4.99-3.94-1.31-4.66.58-5.34,3.33-3.71,14.93-7.38,29.86-11.07,44.8-1.8,7.3-3.62,14.59-5.45,21.96h-47.36c2-9.55,3.97-19,5.94-28.45,3.25-15.61,6.5-31.22,9.76-46.83,2.89-13.86,5.78-27.72,8.69-41.57,3.28-15.6,6.58-31.2,9.86-46.8,2.94-13.99,5.87-27.98,8.79-41.97,3.26-15.61,6.52-31.21,9.76-46.82,1.99-9.55,3.9-19.13,6-28.65.2-.89,1.51-1.57,2.4-2.24.27-.2.82-.04,1.24-.04,35.83,0,71.67,0,107.5.02.4,0,.81.12,1.82.29ZM1257.61,247.39c1.66-.13,3.12-.24,4.54-.36v-14.83c-1.66-.14-3.03-.26-4.52-.39v-91.52c1.7-.19,3.16-.36,4.62-.53v-32.37h-15.59c-.19,1.7-.35,3.16-.5,4.49h-83.89c-.13-1.69-.24-3.05-.35-4.46h-14.85c-.11,1.63-.2,3-.3,4.57h-83.98c-.14-1.66-.26-3.13-.37-4.54h-14.82c-.14,1.67-.26,3.03-.39,4.51h-83.87c-.2-1.7-.37-3.17-.55-4.61h-14.63v32.43c1.42.21,2.6.39,3.79.57v91.3c-1.44.31-2.72.58-4.03.85,0,3.94-.1,7.6.06,11.25.05,1.11.68,3.08,1.25,3.15,3.73.5,2.89,3.21,2.89,5.44.02,35.85.02,71.71.02,107.56v4.19c-1.59.32-2.87.59-3.97.81v15.34c1.42.22,2.61.41,3.78.59v97.18c-1.45.31-2.72.58-3.74.8v31.22h99.41v13.69h15.09v-9.56h84.38v9.5h15.24v-9.59h84.23v9.68h15.65v-32.47c-1.69-.19-3.16-.36-4.49-.51v-110.1c1.69-.13,3.05-.24,4.46-.35v-15.7c-1.63-.11-3-.2-4.57-.3v-116.95Z"/>
  <path class="cls-2" d="M545.47,1041.9h-170.29c3.53-9.5,6.91-18.75,10.4-27.95,7.65-20.15,15.71-40.15,22.89-60.46,3.79-10.7,6.1-21.93,9.06-32.92,6.06-22.52,12.14-45.04,18.16-67.58,4.95-18.56,9.8-37.15,14.75-55.72,3.18-11.93,6.46-23.84,9.77-36.01h52.06c-.08.84-.16,1.71-.29,3.02h49.75c0,6.2.22,11.99-.06,17.75-.29,6.09-1.2,12.15-1.58,18.23-.44,7.25-.52,14.51-.9,21.76-.79,14.88-1.65,29.76-2.54,44.63-.5,8.33-1.16,16.65-1.65,24.98-.89,15.02-1.68,30.04-2.57,45.05-.49,8.33-1.16,16.65-1.65,24.98-.89,15.02-1.68,30.04-2.57,45.05-.49,8.33-1.07,16.65-1.68,24.98-.24,3.3-.68,6.59-1.07,10.2Z"/>
  <path class="cls-2" d="M862.1,656.98v-100.11h4.26c32.73,0,65.47-.16,98.2.08,12.96.09,25.91,1.02,38.87,1.63,10.99.51,21.98,1.07,32.97,1.69,4.02.23,8.03.68,12.39,1.05v95.66h-186.68Z"/>
  <path class="cls-2" d="M1061.22,560.97c9.14.6,18,1.18,26.87,1.76.56.04,1.12.04,1.68.05,9.78.28,19.56.44,29.33.88,9.7.44,19.38,1.17,29.29,1.79v90.64h-87.17v-95.13Z"/>
  <path class="cls-2" d="M1160.72,565.11c9.73.63,19.15,1.24,28.58,1.84.56.04,1.12.03,1.68.05,10.34.28,20.68.43,31.02.88,9.7.43,19.38,1.17,29.28,1.79v86.43h-90.55v-91Z"/>
  <path class="cls-2" d="M530.07,692.81c18.3,4.58,36.51,9.13,54.86,13.72-2.54,5.8-5.05,11.69-7.69,17.52-4.54,10.02-9.1,20.04-13.82,29.98-.57,1.19-2.18,2.67-3.32,2.69-15.01.18-30.02.12-45.96.12,5.38-21.61,10.65-42.79,15.93-64.03Z"/>
  <path class="cls-2" d="M861.92,173.14h44.64c-1.09,21.24-2.17,42.29-3.27,63.64h-40.21c-.38-5.86-1.04-11.86-1.1-17.88-.16-15.13-.05-30.27-.05-45.76Z"/>
  <path class="cls-2" d="M556.16,693.02c4.85-19.06,9.61-37.77,14.42-56.67h45.35c-9.46,21.66-18.78,42.99-28.19,64.52-10.39-2.59-20.57-5.12-31.58-7.86Z"/>
  <path class="cls-2" d="M900.67,302.82h-38.75c0-10.09-.27-20.14.08-30.17.34-9.73-1.83-19.64,2.04-29.4h39.2c-.85,19.82-1.7,39.52-2.57,59.58Z"/>
  <path class="cls-2" d="M906.62,166.85h-45.1c.82-17.2,1.64-34.39,2.47-51.85h45.13c-.83,17.32-1.66,34.49-2.5,51.85Z"/>
  <path class="cls-2" d="M861.69,309h38.18c-.85,20.74-1.7,41.29-2.55,62.03h-33.48c-3.96-20.61-.82-41.21-2.14-62.03Z"/>
  <path class="cls-2" d="M1426.55,653.73h-51.35v-42.61h51.35v42.61Z"/>
  <path class="cls-2" d="M864.15,377.38h33.15c-.83,13.39-1.64,26.53-2.47,39.97h-32.91c0-6.78-.22-13.62.06-20.44.26-6.49-1.65-13.24,2.17-19.53Z"/>
  <path class="cls-2" d="M892.59,463.49v28.95h-28.78v-25.8c-1.76-.78-3.2-1.41-4.64-2.05.12-.37.25-.74.37-1.1h33.05Z"/>
  <path class="cls-2" d="M647.93,430.85V121.73h99.97v23.97h16.08v-23.88h83.1c.12.19.38.41.39.64.61,19.72,1.27,39.44,1.78,59.16.39,15.27.62,30.54.82,45.81.02,1.81,1.12,4.34-2.08,4.99-.23.05-.38,1-.38,1.53-.03,3.8-1.2,8.12.2,11.29,4.95,11.21,1.86,22.74,2.11,34.04.6,26.84.22,53.7.14,80.56,0,1.77,1.3,4.31-2.02,5.09-.41.1-.57,2.34-.42,3.54,2.27,19.11,1.53,38.31,1.65,57.48,0,1.53,0,3.07,0,4.9h-201.35Z"/>
  <path class="cls-2" d="M694.66,489.19h-48.38v-52.63h48.38v52.63Z"/>
  <path class="cls-2" d="M747.79,488.34h-46.71v-51.79h46.71v51.79Z"/>
  <path class="cls-2" d="M961.62,70.59V31.43h93.91v39.15h-93.91Z"/>
  <path class="cls-2" d="M1154.33,31.51v39.15h-93.07V31.51h93.07Z"/>
  <path class="cls-2" d="M646.24,656.98v-99.88h103.19v99.88h-103.19Z"/>
  <path class="cls-2" d="M1352.44,70.69h-157.98V30.64h157.98v40.05Z"/>
  <path class="cls-2" d="M849.81,657.94h-87.16v-100.73h87.16v100.73Z"/>
  <path class="cls-2" d="M1325.71,115.09v44.33h30.13v69.04h-9.8v8.41h-55.41v-121.78h35.08Z"/>
  <path class="cls-2" d="M750.42,32.35v79.65h-102.35V32.35h102.35Z"/>
  <path class="cls-2" d="M855.82,31.51v39.15h-98.97V31.51h98.97Z"/>
  <path class="cls-2" d="M1290.38,316.11v-72.76h55.41v7.07h9.92v65.69h-65.33Z"/>
  <path class="cls-2" d="M949.45,31.53v39.1h-87.31V31.53h87.31Z"/>
  <path class="cls-2" d="M1355.88,435.69v55.13h-65.4v-55.13h65.4Z"/>
  <path class="cls-2" d="M1290.48,429.16v-53.49h55.29v8.18h10.07v45.31h-65.36Z"/>
  <path class="cls-2" d="M764.3,470.52v-33.25h82.95v33.25h-82.95Z"/>
  <path class="cls-2" d="M1290.62,322.48h65.18v38.42h-9.75v8.43h-55.44v-46.84Z"/>
  <path class="cls-2" d="M1260.87,653.55v-42.37h60.77v42.37h-60.77Z"/>
  <path class="cls-2" d="M859.57,457.03v-33.23h35.26c-.59,11.12-1.18,22.04-1.77,33.23h-33.49Z"/>
  <path class="cls-2" d="M1160.5,70.61V31.56h27.45v39.05h-27.45Z"/>
  <path class="cls-1" d="M1257.61,247.39v116.95c1.57.1,2.94.19,4.57.3v15.7c-1.41.11-2.76.22-4.46.35v110.1c1.33.15,2.79.31,4.49.51v32.47h-15.65v-9.68h-84.23v9.59h-15.24v-9.5h-84.38v9.56h-15.09v-13.69h-99.41v-31.22c1.02-.22,2.29-.49,3.74-.8v-97.18c-1.18-.18-2.36-.37-3.78-.59v-15.34c1.1-.22,2.38-.48,3.97-.81v-4.19c0-35.85,0-71.71-.02-107.56,0-2.23.84-4.94-2.89-5.44-.57-.08-1.2-2.04-1.25-3.15-.16-3.65-.06-7.31-.06-11.25,1.31-.28,2.59-.55,4.03-.85v-91.3c-1.19-.18-2.37-.36-3.79-.57v-32.43h14.63c.17,1.44.34,2.91.55,4.61h83.87c.13-1.48.24-2.84.39-4.51h14.82c.11,1.41.23,2.88.37,4.54h83.98c.1-1.57.19-2.94.3-4.57h14.85c.11,1.41.21,2.77.35,4.46h83.89c.15-1.33.31-2.79.5-4.49h15.59v32.37c-1.45.17-2.92.33-4.62.53v91.52c1.49.13,2.86.25,4.52.39v14.83c-1.42.11-2.89.23-4.54.36ZM1255.15,234.41v-96.72c1.65-.13,3.02-.24,4.53-.36v-27.36h-10.56c-.12,1.65-.22,3.01-.34,4.55h-88.97c-.17-1.68-.33-3.16-.46-4.51h-9.71c-.14,1.69-.24,3.05-.36,4.48h-88.93c-.22-1.72-.41-3.19-.59-4.59h-9.61c-.13,1.66-.24,3.12-.35,4.56h-89.04c-.14-1.66-.25-3.02-.38-4.52h-9.75v27.26c1.39.26,2.67.5,3.84.72v96.41c-1.4.17-2.58.32-3.99.5,0,2.78-.13,5.3.06,7.8.07.96.79,2.63,1.35,2.69,3.57.38,2.78,2.96,2.78,5.07.02,37.54.02,75.08,0,112.63,0,1.23-.12,2.47-.19,3.84-1.4.14-2.58.26-3.86.39v10.43c1.4.27,2.68.52,3.83.74v102.29c-1.4.18-2.59.34-3.66.48v26.34h99.31v13.64h10.18v-9.61h89.29v9.55h10.18v-9.5h89.44v9.59h10.45v-27.44c-1.64-.12-3.01-.22-4.55-.33v-115.19c1.68-.17,3.14-.31,4.51-.45v-10.57c-1.68-.14-3.04-.25-4.48-.36v-121.9c1.72-.22,3.18-.4,4.6-.58v-9.6c-1.55-.12-2.92-.22-4.57-.35Z"/>
  <path class="cls-2" d="M1255.15,234.41c1.65.13,3.02.23,4.57.35v9.6c-1.42.18-2.88.36-4.6.58v121.9c1.44.12,2.8.23,4.48.36v10.57c-1.37.14-2.83.28-4.51.45v115.19c1.54.11,2.91.21,4.55.33v27.44h-10.45v-9.59h-89.44v9.5h-10.18v-9.55h-89.29v9.61h-10.18v-13.64h-99.31v-26.34c1.07-.14,2.25-.3,3.66-.48v-102.29c-1.15-.22-2.42-.47-3.83-.74v-10.43c1.28-.13,2.47-.25,3.86-.39.07-1.37.19-2.6.19-3.84,0-37.54.01-75.08,0-112.63,0-2.11.79-4.69-2.78-5.07-.56-.06-1.28-1.72-1.35-2.69-.19-2.5-.06-5.02-.06-7.8,1.41-.18,2.59-.33,3.99-.5v-96.41c-1.16-.22-2.44-.46-3.84-.72v-27.26h9.75c.13,1.5.24,2.86.38,4.52h89.04c.11-1.44.22-2.91.35-4.56h9.61c.18,1.41.37,2.87.59,4.59h88.93c.12-1.43.22-2.79.36-4.48h9.71c.14,1.35.29,2.82.46,4.51h88.97c.11-1.54.21-2.9.34-4.55h10.56v27.36c-1.51.12-2.88.23-4.53.36v96.72ZM960.75,119.06c-.07,1.01-.15,1.68-.16,2.36-.98,44.04.34,88.07-1.19,132.15-1.34,38.75-2.61,77.71,1.06,116.52.34,3.61-1.51,7.38-1.49,11.07.27,39.13-1.31,78.28,1.72,117.37.02.24.27.46.42.68h88.73c.1-1.94.18-3.58.27-5.35h10.13v16.41h89.29v-16.35h10.18v16.2c.69.16,1.08.33,1.47.33,28.1.02,56.2-.02,84.31.08,3.34.01,3.49-1.74,3.51-4.27.23-31.02.63-62.03.79-93.05.35-64.34.59-128.68.86-193.02.04-9.42.16-18.84-.03-28.26-.48-23.8-1.11-47.6-1.69-71.4,0-.39-.19-.78-.32-1.29h-89.19v18.1h-10.03v-18.04h-89.43v17.98h-10.18v-18.2h-89.03Z"/>
  <path class="cls-1" d="M960.75,119.06h89.03v18.2h10.18v-17.98h89.43v18.04h10.03v-18.1h89.19c.13.52.31.9.32,1.29.58,23.8,1.21,47.6,1.69,71.4.19,9.42.07,18.84.03,28.26-.27,64.34-.51,128.68-.86,193.02-.17,31.02-.56,62.04-.79,93.05-.02,2.54-.17,4.28-3.51,4.27-28.1-.1-56.2-.06-84.31-.08-.39,0-.78-.17-1.47-.33v-16.2h-10.18v16.35h-89.29v-16.41h-10.13c-.09,1.77-.17,3.41-.27,5.35-29.6,0-59.17,0-88.73,0-.15-.22-.4-.44-.42-.68-3.03-39.09-1.45-78.24-1.72-117.37-.03-3.69,1.83-7.46,1.49-11.07-3.67-38.81-2.4-77.77-1.06-116.52,1.53-44.08.21-88.11,1.19-132.15.01-.67.09-1.35.16-2.36ZM963.34,121.66c-.11.86-.21,1.27-.22,1.68-1.06,43.47.39,86.94-1.19,130.46-1.38,37.9-2.52,76.01,1,113.99.65,6.96-1.22,14.11-1.45,21.19-.28,8.99-.1,17.99-.06,26.99.11,26.48-.65,52.98,1.71,79.41.05.51.31,1.01.43,1.36h83.64c.18-1.96.33-3.7.48-5.34h15.09v16.25h84.37v-16.34h15.09v16.29h85.04c0-32.2-.09-64.06.02-95.92.21-61.38.68-122.77.77-184.15.05-34.77,1.03-69.56-1.66-104.29-.04-.52-.24-1.03-.33-1.39h-84.14v17.93h-15.09v-18.02h-84.37v18.11h-15.09v-18.2h-84.04Z"/>
  <a href="../../main">
    <path class="cls-2" d="M963.34,121.66h84.04v18.2h15.09v-18.11h84.37v18.02h15.09v-17.93h84.14c.09.37.29.87.33,1.39,2.69,34.73,1.71,69.52,1.66,104.29-.09,61.38-.56,122.77-.77,184.15-.11,31.86-.02,63.71-.02,95.92h-85.04v-16.29h-15.09v16.34h-84.37v-16.25h-15.09c-.15,1.64-.3,3.38-.48,5.34h-83.64c-.11-.35-.38-.85-.43-1.36-2.36-26.43-1.61-52.93-1.71-79.41-.04-9-.22-18,.06-26.99.22-7.08,2.09-14.23,1.45-21.19-3.52-37.98-2.38-76.09-1-113.99,1.59-43.52.13-86.99,1.19-130.46,0-.41.1-.82.22-1.68Z"/>
  </a>
</svg>